<svg width="443" height="453" viewBox="0 0 443 453" fill="none" xmlns="http://www.w3.org/2000/svg">
<path d="M410.72 386C391.355 397.77 359.958 397.77 340.593 386C321.227 374.233 321.227 355.152 340.593 343.383C359.958 331.616 391.355 331.616 410.72 343.383C430.086 355.152 430.086 374.233 410.72 386Z" fill="#E0E0E0"/>
<path d="M59.574 338.436C59.574 338.436 59.127 330.19 55.578 321.431C52.029 312.672 45.207 303.848 37.347 302.184C29.487 300.52 26.16 305.804 27.818 310.998C29.246 315.471 35.087 319.184 39.522 323.087C43.956 326.99 52.237 336.423 54.538 345.538L58.971 346.022L59.574 338.436Z" fill="url(#paint0_linear_404_4756)"/>
<g opacity="0.15">
<path d="M59.574 338.436C59.574 338.436 59.127 330.19 55.578 321.431C52.029 312.672 45.207 303.848 37.347 302.184C29.487 300.52 26.16 305.804 27.818 310.998C29.246 315.471 35.087 319.184 39.522 323.087C43.956 326.99 52.237 336.423 54.538 345.538L58.971 346.022L59.574 338.436Z" fill="black"/>
</g>
<path d="M56.5459 342.541C56.2809 342.541 56.063 342.331 56.053 342.065C55.228 319.153 32.816 306.341 32.589 306.214C32.351 306.081 32.266 305.78 32.4 305.542C32.533 305.303 32.834 305.218 33.072 305.352C33.303 305.481 56.194 318.569 57.039 342.028C57.049 342.3 56.836 342.529 56.563 342.54C56.558 342.541 56.5519 342.541 56.5459 342.541Z" fill="white"/>
<path d="M56.8032 373.858C56.8032 373.858 52.2202 376.755 45.0612 375.522C42.7802 375.129 40.5362 374.251 38.9012 372.564C37.0542 370.657 36.7592 368.739 36.2372 366.188C36.0222 365.137 35.7922 364.049 35.1612 363.181C33.6292 361.073 30.5662 361.111 28.0192 360.561C24.3992 359.78 21.0692 357.18 20.0212 353.628C18.9732 350.076 20.6722 345.746 24.1042 344.356C22.7012 343.457 21.2992 342.557 19.8962 341.658C18.6202 340.84 17.3302 340.01 16.2942 338.903C15.2582 337.796 14.4872 336.366 14.4762 334.85C14.4592 332.614 16.1372 330.619 18.1772 329.703C20.2172 328.787 22.5482 328.774 24.7692 329.033C27.0112 329.294 29.2222 329.814 31.3452 330.58C31.9412 330.795 32.5542 331.034 33.1872 330.994C34.0202 330.942 34.7382 330.422 35.4352 329.962C40.2522 326.782 48.0952 327.022 50.6792 333.018C51.0592 333.9 51.2862 334.843 51.6902 335.714C53.1892 338.941 57.4012 337.971 60.1192 339.481C61.8862 340.463 62.9482 342.422 63.2852 344.415C63.8252 347.607 62.9362 351.25 62.3462 354.408C61.7742 357.47 61.0062 360.495 60.1522 363.49C59.4492 365.957 58.6822 368.405 57.8612 370.835C57.6852 371.361 57.3052 373.541 56.8032 373.858Z" fill="url(#paint1_linear_404_4756)"/>
<path d="M59.685 366.474C57.226 359.452 52.987 353.738 48.182 349.154C48.131 349.042 48.039 348.952 47.918 348.904C46.403 347.477 44.834 346.162 43.249 344.952C42.14 338.302 44.815 332.465 44.842 332.407C44.957 332.16 44.851 331.866 44.604 331.751C44.356 331.634 44.063 331.741 43.948 331.988C43.837 332.226 41.37 337.6 42.136 344.121C31.555 336.404 20.647 333.315 20.465 333.265C20.204 333.197 19.93 333.348 19.858 333.611C19.786 333.874 19.94 334.145 20.203 334.218C20.408 334.274 34.391 338.233 45.918 348.406C38.848 347.169 30.397 350.586 30.008 350.746C29.756 350.849 29.635 351.138 29.739 351.39C29.817 351.581 30.002 351.696 30.196 351.696C30.258 351.696 30.322 351.684 30.383 351.659C30.483 351.618 40.405 347.606 47.415 349.778C52.154 354.282 56.335 359.897 58.753 366.802C58.824 367.005 59.015 367.133 59.219 367.133C59.273 367.133 59.328 367.124 59.382 367.105C59.639 367.014 59.775 366.731 59.685 366.474Z" fill="white"/>
<path d="M70.7412 362.409L279.787 241.717V20.424L70.7402 141.117L70.7412 362.409Z" fill="url(#paint2_linear_404_4756)"/>
<path d="M61.0913 135.547L70.7403 141.117L279.787 20.424L289.434 3.71399L61.0913 135.547Z" fill="#37474F"/>
<path d="M289.434 247.287V3.71399L279.787 20.424V241.717L289.434 247.287Z" fill="#37474F"/>
<path d="M61.0913 135.547L70.7403 141.117L70.7413 362.409L61.0923 379.121L61.0913 135.547Z" fill="#37474F"/>
<path d="M70.7413 362.409L279.787 241.717L289.434 247.287L61.0923 379.121L70.7413 362.409Z" fill="#37474F"/>
<g opacity="0.5">
<path d="M61.0913 135.547L70.7403 141.117L279.787 20.424L289.434 3.71399L61.0913 135.547Z" fill="#455A64"/>
</g>
<g opacity="0.5">
<path d="M70.7413 362.409L279.787 241.717L289.434 247.287L61.0923 379.121L70.7413 362.409Z" fill="#455A64"/>
</g>
<path d="M289.434 3.714L283.001 0L54.6592 131.834L61.0912 135.547L289.434 3.714Z" fill="#455A64"/>
<path d="M54.6592 131.834L61.0912 135.547L61.0922 379.121L54.6602 375.407L54.6592 131.834Z" fill="#263238"/>
<g opacity="0.1">
<path d="M279.787 20.424L276.57 22.281L276.569 239.861L70.7393 358.697L70.7413 362.409L279.787 241.717V20.424Z" fill="black"/>
</g>
<path d="M268.546 148.328L268.487 145.403L265.01 143.42L265.007 143.418C264.723 143.255 264.331 143.28 263.898 143.53L215.415 171.521C214.547 172.022 213.843 173.242 213.843 174.244V235.905C213.843 236.396 214.014 236.741 214.288 236.91V236.914L214.303 236.922C214.304 236.923 214.306 236.923 214.307 236.924L217.788 238.91L217.795 235.444L263.899 208.874C264.768 208.373 265.472 207.155 265.472 206.152V148.328H268.546Z" fill="#E0E0E0"/>
<path d="M268.486 145.403L265.009 143.42L265.006 143.418C264.722 143.255 264.33 143.28 263.897 143.53L215.414 171.521C215.035 171.74 214.691 172.1 214.419 172.515L219.348 175.361L265.469 149.313L268.486 145.403Z" fill="#FAFAFA"/>
<path d="M218.888 173.502L267.371 145.511C268.239 145.01 268.944 145.416 268.944 146.419V208.133C268.944 209.136 268.24 210.355 267.371 210.855L218.89 238.796C218.021 239.297 217.317 238.89 217.317 237.887V176.226C217.316 175.223 218.02 174.004 218.888 173.502Z" fill="#F0F0F0"/>
<mask id="mask0_404_4756" style="mask-type:luminance" maskUnits="userSpaceOnUse" x="217" y="145" width="52" height="95">
<path d="M218.888 173.502L267.371 145.511C268.239 145.01 268.943 145.416 268.943 146.419V208.133C268.943 209.136 268.239 210.355 267.37 210.855L218.888 238.796C218.019 239.297 217.315 238.89 217.315 237.887V176.226C217.316 175.223 218.02 174.004 218.888 173.502Z" fill="white"/>
</mask>
<g mask="url(#mask0_404_4756)">
<path d="M252.768 199.58C252.768 199.58 256.577 198.402 259.752 203.408C261.91 206.811 269.448 219.738 269.448 219.738C269.448 219.738 284.117 211.96 284.943 210.944C285.769 209.928 285.719 207.859 285.842 206.75C286.047 204.893 285.368 203.297 285.271 202.627C285.102 201.458 286.779 201.396 287.609 203.014C288.216 204.196 288.263 205.548 288.784 205.564C288.962 205.57 290.605 204.069 290.844 203.808C291.753 202.814 293.395 201.148 294.639 201.38C295.05 201.456 295.37 201.802 295.468 202.273C295.621 203.016 295.562 203.636 295.934 204.256C296.092 204.519 296.335 204.726 296.425 205.053C296.542 205.481 296.372 205.892 296.41 206.339C296.462 206.953 297.056 207.211 297.142 207.81C297.205 208.244 296.984 208.745 296.987 209.201C296.989 209.495 297.083 209.755 297.081 210.05C297.078 210.628 296.712 211.212 296.326 211.682C294.967 213.336 293.58 214.279 291.972 215.329C290.635 216.202 288.87 216.979 287.359 217.801C285.847 218.623 268.558 231.887 266.257 230.319C263.956 228.751 252.418 211.942 252.418 211.942C249.774 204.523 252.768 199.58 252.768 199.58Z" fill="#FFA8A7"/>
<path d="M246.075 199.693C246.075 199.693 250.274 197.99 252.999 198.163C255.724 198.337 257.741 199.115 259.739 202.327C262.407 206.616 266.822 214.022 266.822 214.022C266.822 214.022 264.277 219.883 258.243 223.2L250.108 210.925L246.075 199.693Z" fill="#455A64"/>
<path d="M232.749 207.112C231.393 208.175 230.322 209.738 229.778 211.479C229.293 213.031 228.875 215.157 228.875 217.875V231.826L228.698 258.217C237.549 261.232 248.801 258.578 258.243 248.085C258.243 248.085 257.716 214.318 257.716 208.771C257.716 208.52 257.711 208.268 257.699 208.014C257.356 200.183 250.601 196.557 243.948 200.316L238.36 203.473L232.749 207.112Z" fill="url(#paint3_linear_404_4756)"/>
<path opacity="0.2" d="M232.749 207.112C231.393 208.175 230.322 209.738 229.778 211.479C229.293 213.031 228.875 215.157 228.875 217.875V231.826L228.698 258.217C237.549 261.232 248.801 258.578 258.243 248.085C258.243 248.085 257.716 214.318 257.716 208.771C257.716 208.52 257.711 208.268 257.699 208.014C257.356 200.183 250.601 196.557 243.948 200.316L238.36 203.473L232.749 207.112Z" fill="black"/>
<path d="M251.931 175.628C250.931 174.633 250.31 173.086 251.5 171.933C251.801 171.641 252.127 171.413 252.544 171.354C253.022 171.286 253.456 171.344 253.928 171.236C254.481 171.109 255.04 171.017 255.586 170.857C256.654 170.544 257.674 170.07 258.6 169.452C258.676 169.402 258.764 169.348 258.851 169.373C258.955 169.403 258.997 169.526 259.019 169.631C259.486 171.848 258.258 174.195 256.39 175.478C255.724 175.935 254.965 176.285 254.161 176.358C253.356 176.43 252.503 176.198 251.931 175.628Z" fill="#263238"/>
<path d="M233.936 187.823C233.936 187.823 235.311 194.913 235.862 195.99C236.413 197.068 237.553 197.111 237.553 197.111L237.457 191.89L233.936 187.823Z" fill="#263238"/>
<path d="M235.662 176.677C235.662 176.677 234.181 176.781 233.027 178.453C231.895 180.092 232.527 184.105 233.937 187.824L236.527 187.473L235.662 176.677Z" fill="#263238"/>
<path d="M237.303 187.267C236.784 187.764 236.043 186.811 235.403 186.209C234.763 185.607 232.672 185.11 231.629 187.926C230.566 190.797 232.55 193.682 234.195 193.837C237.031 194.105 237.457 191.89 237.457 191.89L237.553 203.996C242.311 209.042 250.65 203.094 246.901 200.86L246.893 197.267C246.893 197.267 249.463 197.029 250.717 196.469C252.803 195.538 254.115 193.286 254.748 190.509C255.764 186.049 255.674 183.403 255.336 175.359C255.104 169.839 245.251 168.129 240.341 173.013C235.43 177.899 237.303 187.267 237.303 187.267Z" fill="#B17A7B"/>
<path d="M237.303 188.276C237.042 188.352 236.049 186.715 235.402 186.209C234.506 185.508 235.662 176.677 235.662 176.677C234.626 174.404 236.535 170.962 238.533 169.563C240.028 168.516 241.673 168.119 243.265 167.825C245.242 167.46 247.216 167.24 249.209 167.029C250.295 166.914 251.381 166.75 252.436 166.463C253.438 166.19 254.41 165.672 255.38 165.28C255.666 165.165 255.991 165.05 256.272 165.176C257.463 165.714 256.682 168.549 256.416 169.48C255.969 171.048 255.165 172.516 254.063 173.719C253.689 174.127 253.282 174.507 252.82 174.811C252.276 175.17 251.667 175.418 251.053 175.637C248.189 176.66 245.121 177.11 242.083 176.951C241.51 176.921 240.914 176.873 240.381 177.085C239.142 177.578 239.199 179.736 239.015 180.829C238.558 183.537 238.18 188.021 237.303 188.276Z" fill="#263238"/>
<path d="M235.667 177.338L232.527 176.233C232.973 175.075 234.037 174.383 234.904 174.688C235.771 174.994 236.112 176.18 235.667 177.338Z" fill="#263238"/>
<path d="M246.893 197.268C246.893 197.268 242.237 197.433 240.609 196.869C239.52 196.492 238.622 195.574 238.359 194.901C238.359 194.901 238.664 196.415 239.637 197.591C240.827 199.029 246.893 198.698 246.893 198.698V197.268Z" fill="#9A585A"/>
<path d="M246.306 184.842C246.306 185.46 245.888 186.072 245.373 186.209C244.857 186.346 244.44 185.955 244.44 185.337C244.44 184.719 244.858 184.107 245.373 183.97C245.888 183.833 246.306 184.224 246.306 184.842Z" fill="#263238"/>
<path d="M244.961 181.7L242.965 183.507C242.671 182.924 242.879 182.046 243.43 181.547C243.981 181.048 244.666 181.117 244.961 181.7Z" fill="#263238"/>
<path d="M246.471 190.909L248.601 191.261C248.39 192.022 247.743 192.561 247.154 192.464C246.566 192.367 246.261 191.67 246.471 190.909Z" fill="#9A585A"/>
<path d="M254.559 180.323L252.739 179.192C253.11 178.491 253.819 178.176 254.321 178.488C254.824 178.8 254.93 179.621 254.559 180.323Z" fill="#263238"/>
<path d="M254.066 182.456C254.066 183.074 253.648 183.686 253.133 183.822C252.618 183.958 252.2 183.568 252.2 182.95C252.2 182.332 252.618 181.72 253.133 181.583C253.648 181.447 254.066 181.838 254.066 182.456Z" fill="#263238"/>
<path d="M249.454 182.827L249.563 189.331L252.907 187.584L249.454 182.827Z" fill="#9A585A"/>
<path d="M219.584 247.019C221.543 220.13 225.526 210.493 232.075 207.662C234.338 209.347 234.883 217.251 232.517 223.255C232.517 223.255 227.43 241.18 227.142 247.273C226.889 252.626 227.523 260.016 228.183 264.225C228.3 264.971 228.678 265.56 229.212 265.907C230.647 266.838 230.554 268.194 231.578 269.476C232.38 270.48 233.129 270.654 232.975 271.03C232.777 271.513 232.056 272.349 230.98 272.099C230.438 271.973 230.061 271.71 229.222 271.15C229.222 271.15 229.695 273.049 231.07 275.149C232.934 277.995 232.845 279.913 228.472 280.559C225.732 280.964 223.738 279.264 222.359 272.398C221.962 270.42 221.027 266.861 220.639 264.298C219.523 256.937 219.269 251.347 219.584 247.019Z" fill="#B17A7B"/>
<path d="M233.936 206.342C233.936 206.342 229.164 208.012 226.755 211.918C224.346 215.824 222.047 222.114 220.434 233.275C220.434 233.275 223.453 237.402 231.329 233.972C231.329 233.972 234.756 219.73 235.062 214.101C235.396 207.962 233.936 206.342 233.936 206.342Z" fill="#455A64"/>
</g>
<path d="M268.546 222.079L268.487 219.154L265.01 217.17L265.007 217.169V217.17C264.723 217.007 264.331 217.031 263.898 217.281L215.414 245.272C214.546 245.773 213.842 246.993 213.842 247.996V262.437C213.842 262.928 214.013 263.273 214.287 263.442V263.446L214.302 263.454C214.303 263.455 214.305 263.455 214.306 263.456L217.787 265.442L217.794 261.976L263.898 235.406C264.767 234.905 265.471 233.686 265.471 232.684V222.08L268.546 222.079Z" fill="#E0E0E0"/>
<path d="M268.486 219.154L265.009 217.17L265.006 217.169V217.17C264.722 217.007 264.33 217.031 263.897 217.281L215.414 245.272C215.035 245.491 214.691 245.851 214.419 246.266L219.348 249.112L265.469 223.063L268.486 219.154Z" fill="#FAFAFA"/>
<path d="M218.888 247.254L267.371 219.263C268.239 218.762 268.944 219.168 268.944 220.171V234.665C268.944 235.668 268.24 236.887 267.371 237.387L218.89 265.328C218.021 265.829 217.317 265.422 217.317 264.419V249.978C217.316 248.974 218.02 247.755 218.888 247.254Z" fill="#F0F0F0"/>
<path d="M223.503 248.602L224.385 250.476C224.441 250.594 224.548 250.636 224.673 250.588L226.645 249.831C226.958 249.711 227.083 250.152 226.857 250.577L225.43 253.256C225.34 253.425 225.299 253.617 225.32 253.77L225.657 256.195C225.71 256.58 225.383 257.086 225.103 257.052L223.339 256.834C223.228 256.82 223.095 256.897 222.984 257.039L221.22 259.294C220.94 259.652 220.612 259.524 220.666 259.077L221.003 256.263C221.024 256.085 220.983 255.941 220.893 255.876L219.466 254.845C219.239 254.681 219.364 254.096 219.678 253.854L221.65 252.333C221.774 252.237 221.882 252.071 221.938 251.888L222.82 248.996C222.958 248.539 223.363 248.305 223.503 248.602Z" fill="url(#paint4_linear_404_4756)"/>
<path d="M233.488 242.886L234.37 244.76C234.426 244.878 234.533 244.92 234.658 244.873L236.63 244.116C236.943 243.996 237.068 244.437 236.842 244.862L235.415 247.541C235.325 247.71 235.284 247.902 235.305 248.055L235.642 250.48C235.695 250.865 235.368 251.371 235.088 251.337L233.324 251.119C233.213 251.105 233.08 251.182 232.969 251.324L231.205 253.579C230.925 253.937 230.597 253.809 230.651 253.362L230.988 250.548C231.009 250.371 230.968 250.226 230.878 250.161L229.451 249.13C229.224 248.966 229.349 248.381 229.663 248.139L231.635 246.618C231.759 246.522 231.867 246.356 231.923 246.173L232.805 243.281C232.943 242.822 233.348 242.588 233.488 242.886Z" fill="url(#paint5_linear_404_4756)"/>
<path d="M243.472 237.169L244.354 239.043C244.41 239.161 244.517 239.203 244.642 239.156L246.614 238.399C246.927 238.279 247.052 238.72 246.826 239.145L245.399 241.824C245.309 241.993 245.268 242.185 245.289 242.338L245.626 244.763C245.679 245.148 245.352 245.654 245.072 245.62L243.308 245.402C243.197 245.388 243.064 245.465 242.953 245.607L241.189 247.862C240.909 248.22 240.581 248.092 240.635 247.645L240.972 244.831C240.993 244.654 240.952 244.509 240.862 244.444L239.435 243.413C239.208 243.249 239.333 242.664 239.647 242.422L241.619 240.901C241.743 240.805 241.851 240.639 241.907 240.456L242.789 237.564C242.927 237.105 243.332 236.872 243.472 237.169Z" fill="url(#paint6_linear_404_4756)"/>
<path d="M253.457 231.453L254.339 233.327C254.395 233.445 254.502 233.487 254.627 233.439L256.599 232.682C256.912 232.562 257.037 233.003 256.811 233.428L255.384 236.107C255.294 236.276 255.253 236.468 255.274 236.621L255.611 239.046C255.665 239.431 255.337 239.938 255.057 239.903L253.293 239.685C253.182 239.671 253.049 239.748 252.938 239.89L251.174 242.145C250.894 242.503 250.566 242.375 250.62 241.928L250.957 239.114C250.978 238.937 250.937 238.792 250.847 238.727L249.42 237.696C249.193 237.532 249.318 236.947 249.632 236.705L251.604 235.184C251.728 235.088 251.836 234.922 251.892 234.739L252.774 231.847C252.911 231.389 253.316 231.155 253.457 231.453Z" fill="url(#paint7_linear_404_4756)"/>
<path d="M263.441 225.736L264.323 227.61C264.379 227.728 264.486 227.77 264.611 227.723L266.583 226.966C266.896 226.846 267.021 227.287 266.795 227.712L265.368 230.391C265.278 230.56 265.237 230.752 265.258 230.905L265.595 233.33C265.649 233.715 265.321 234.221 265.041 234.187L263.277 233.969C263.166 233.955 263.033 234.032 262.922 234.174L261.158 236.429C260.878 236.787 260.55 236.659 260.604 236.212L260.941 233.398C260.962 233.221 260.921 233.076 260.831 233.011L259.404 231.98C259.177 231.816 259.302 231.231 259.616 230.989L261.588 229.468C261.712 229.372 261.82 229.206 261.876 229.023L262.758 226.131C262.896 225.673 263.301 225.439 263.441 225.736Z" fill="url(#paint8_linear_404_4756)"/>
<path d="M268.546 43.1069L268.487 40.1819L265.01 38.1979L265.007 38.1959C264.723 38.0329 264.331 38.0569 263.898 38.3069L215.415 66.2979C214.547 66.7989 213.843 68.0189 213.843 69.0219V130.683C213.843 131.174 214.014 131.519 214.288 131.688V131.692L214.303 131.7L214.307 131.702L217.788 133.688L217.795 130.222L263.899 103.652C264.768 103.151 265.472 101.933 265.472 100.93V43.1069H268.546Z" fill="#E0E0E0"/>
<path d="M268.486 40.1819L265.009 38.1979L265.006 38.1959C264.722 38.0329 264.33 38.0569 263.897 38.3069L215.414 66.2979C215.035 66.5169 214.691 66.8769 214.419 67.2919L219.348 70.1379L265.469 44.0889L268.486 40.1819Z" fill="#FAFAFA"/>
<path d="M218.888 68.2819L267.371 40.2909C268.239 39.7899 268.944 40.1959 268.944 41.1989V102.913C268.944 103.916 268.24 105.135 267.371 105.635L218.89 133.576C218.021 134.077 217.317 133.67 217.317 132.667V71.0059C217.316 70.0019 218.02 68.7829 218.888 68.2819Z" fill="#F0F0F0"/>
<mask id="mask1_404_4756" style="mask-type:luminance" maskUnits="userSpaceOnUse" x="217" y="40" width="52" height="94">
<path d="M218.888 68.2819L267.371 40.2909C268.239 39.7899 268.944 40.1959 268.944 41.1989V102.913C268.944 103.916 268.24 105.135 267.371 105.635L218.89 133.576C218.021 134.077 217.317 133.67 217.317 132.667V71.0059C217.316 70.0019 218.02 68.7829 218.888 68.2819Z" fill="white"/>
</mask>
<g mask="url(#mask1_404_4756)">
<path d="M256.354 131.916C250.912 108.054 244.689 103.843 250.503 98.8729C256.483 96.5969 259.564 99.8489 260.606 106.842C261.116 110.261 262.222 124.567 263.612 129.914C264.833 134.612 266.474 140.43 268.299 143.79C268.622 144.385 269.165 144.745 269.799 144.836C271.501 145.081 272.002 146.037 273.387 146.742C274.472 147.294 275.273 147.154 275.222 147.536C275.156 148.027 274.661 149.026 273.508 149.228C272.928 149.33 272.475 149.25 271.476 149.094C271.476 149.094 272.476 150.542 274.44 151.814C277.102 153.537 277.541 155.219 273.316 157.469C270.668 158.879 268.192 158.191 264.91 152.826C263.965 151.28 262.48 148.837 261.602 146.605C259.316 140.794 257.229 135.756 256.354 131.916Z" fill="#B16668"/>
<path d="M250.502 98.8728C250.502 98.8728 253.288 97.5618 255.334 98.0008C257.381 98.4398 259.89 100.117 260.784 106.491C260.784 106.491 260.235 108.476 257.381 110.484L250.502 98.8728Z" fill="#455A64"/>
<path d="M240.939 101.752C235.026 103.806 234.611 107.215 233.131 111.218C232.005 114.265 231.992 117.453 232.851 120.094L236.972 132.755C236.972 132.755 234.288 138.675 232.803 144.345C243.144 148.239 256.057 141.275 259.166 135.579C259.298 134.512 258.498 126.662 258.006 121.525C259.827 115.761 260.308 112.289 259.54 109.007C258.114 102.916 252.576 98.0928 250.126 98.9788L240.939 101.752Z" fill="url(#paint9_linear_404_4756)"/>
<path opacity="0.1" d="M240.939 101.752C235.026 103.806 234.611 107.215 233.131 111.218C232.005 114.265 231.992 117.453 232.851 120.094L236.972 132.755C236.972 132.755 234.288 138.675 232.803 144.345C243.144 148.239 256.057 141.275 259.166 135.579C259.298 134.512 258.498 126.662 258.006 121.525C259.827 115.761 260.308 112.289 259.54 109.007C258.114 102.916 252.576 98.0928 250.126 98.9788L240.939 101.752Z" fill="black"/>
<path d="M247.97 93.5978L243.608 94.7878C237.533 96.4458 232.588 92.1088 232.562 85.1008C232.531 76.7038 238.407 68.2868 245.686 66.2998C252.965 64.3138 258.892 69.5108 258.923 77.9078C258.949 84.9158 254.045 91.9408 247.97 93.5978Z" fill="#263238"/>
<path d="M242.272 63.6389C244.154 66.3339 242.157 69.0559 239.386 71.9709C236.615 74.8859 234.119 76.8929 232.237 74.1979C230.355 71.5029 231.39 67.6539 234.161 64.7389C236.932 61.8229 240.39 60.9429 242.272 63.6389Z" fill="#263238"/>
<path d="M235.489 75.3549L232.7 78.4839C232.093 77.7619 232.226 76.4759 232.996 75.6119C233.766 74.7469 234.882 74.6319 235.489 75.3549Z" fill="#263238"/>
<path d="M253.834 70.8949C255.23 71.4639 256.965 75.0339 256.827 83.5479C256.71 90.7639 254.7 93.0869 253.689 93.8739C252.678 94.6609 250.724 94.8829 248.824 95.0359L248.932 99.3699C248.932 99.3699 252.133 101.537 251.975 103.557C251.817 105.577 247.539 107.638 245.076 106.378C242.932 105.281 241.086 103.577 240.645 103.155C240.579 103.091 240.545 102.997 240.545 102.885L240.538 92.0079C240.538 92.0079 239.425 93.5649 237.524 92.1709C235.954 91.0199 235.417 88.5039 236.631 86.7439C237.844 84.9839 240.099 84.7579 240.97 86.5569C240.97 86.5569 243.998 85.8579 248.021 82.2029C252.043 78.5489 253.576 73.7509 253.834 70.8949Z" fill="#B16668"/>
<path d="M249.2 83.5478C249.225 84.0588 248.895 84.5878 248.463 84.7288C248.031 84.8698 247.662 84.5708 247.637 84.0588C247.613 83.5478 247.942 83.0188 248.374 82.8778C248.806 82.7368 249.175 83.0368 249.2 83.5478Z" fill="#263238"/>
<path d="M250.105 89.6669L251.925 89.8399C251.776 90.4809 251.249 90.9619 250.746 90.9139C250.243 90.8659 249.957 90.3079 250.105 89.6669Z" fill="#9A4A4D"/>
<path d="M256.278 79.1189L254.691 78.2849C254.978 77.6849 255.566 77.3849 256.004 77.6149C256.442 77.8459 256.565 78.5189 256.278 79.1189Z" fill="#263238"/>
<path d="M256.053 81.3169C256.078 81.8279 255.748 82.3569 255.316 82.4979C254.885 82.6389 254.515 82.3399 254.491 81.8289C254.466 81.3179 254.796 80.7889 255.228 80.6479C255.659 80.5069 256.029 80.8059 256.053 81.3169Z" fill="#263238"/>
<path d="M252.398 81.3319L252.373 87.2259L254.848 85.6639L252.398 81.3319Z" fill="#9A4A4D"/>
<path d="M259.321 79.9959C259.112 78.5859 257.722 77.9499 256.242 78.4239L256.104 78.4679C255.024 78.8139 254.057 79.7039 253.589 80.7399C253.21 80.5549 252.695 80.5579 252.112 80.7749C251.617 80.9589 251.171 81.2599 250.822 81.6179C250.259 80.9249 249.241 80.6789 248.17 81.0219L248.032 81.0659C246.663 81.5039 245.48 82.8129 245.265 84.1899L240.398 85.7969C240.485 85.8759 240.647 86.0349 240.734 86.1649L245.231 84.6759C245.258 86.2659 246.596 87.1589 248.178 86.6529L248.612 86.5139C250.246 85.9909 251.486 84.1869 251.249 82.5939C251.215 82.3659 251.141 82.1669 251.05 81.9809C251.337 81.6669 251.729 81.3939 252.161 81.2339C252.669 81.0449 253.122 81.0599 253.405 81.2559C253.345 81.4779 253.3 81.7019 253.292 81.9279C253.23 83.6169 254.616 84.5799 256.25 84.0569L256.684 83.9179C258.318 83.3929 259.557 81.5889 259.321 79.9959ZM250.778 83.4739C250.619 84.6339 249.625 85.7139 248.499 86.0739L248.24 86.1569C247.113 86.5179 246.04 86.0989 245.766 85.0789C245.395 83.7009 246.468 82.0409 247.909 81.5799L248.343 81.4409C249.784 80.9789 250.993 81.9079 250.778 83.4739ZM258.851 80.8769C258.692 82.0369 257.698 83.1169 256.572 83.4779L256.313 83.5609C255.186 83.9219 254.114 83.5029 253.839 82.4829C253.468 81.1049 254.54 79.4449 255.982 78.9839L256.416 78.8449C257.856 78.3819 259.066 79.3109 258.851 80.8769Z" fill="url(#paint10_linear_404_4756)"/>
<path d="M248.824 95.0369C246.822 95.2799 242.701 95.0389 242.053 93.3369C242.053 93.3369 242.271 94.4579 243.505 95.3389C244.739 96.2189 248.86 96.4819 248.86 96.4819L248.824 95.0369Z" fill="#9A4A4D"/>
<path opacity="0.1" d="M243.584 142.748C240.187 142.729 238.032 139.339 238.93 135.204C238.964 135.047 238.999 134.911 239.035 134.8C239.7 132.776 241.129 132.636 241.129 132.636C239.789 131.969 239.157 130.381 238.843 128.644L237.287 120.59C237.287 120.59 237.007 118.758 237.606 116.32L233.45 111.883C233.45 111.883 233.152 112.203 232.682 112.705C232.034 115.283 232.131 117.881 232.852 120.095L236.973 132.756C236.973 132.756 234.428 138.196 232.804 144.346C240.425 147.216 249.438 144.187 254.9 140.116C250.585 142.044 246.588 142.764 243.584 142.748Z" fill="black"/>
<path d="M222.219 141.034C226.817 118.101 229.717 108.216 234.76 104.725C236.242 103.699 238.171 103.033 238.171 103.033C238.863 103.295 238.933 104.808 239.068 105.781C239.546 109.22 238.68 114.739 236.448 118.91C236.448 118.91 229.739 137.051 228.669 143.148C227.732 148.484 226.672 155.159 226.73 159.53C226.741 160.315 227.006 161.009 227.47 161.463C228.701 162.67 228.705 163.905 229.5 165.391C230.122 166.552 230.801 166.866 230.607 167.217C230.358 167.668 229.571 168.379 228.593 167.929C228.101 167.702 227.781 167.367 227.067 166.647C227.067 166.647 227.262 168.651 228.277 171.024C229.654 174.241 229.319 176.16 225.127 176.006C222.5 175.91 220.851 173.825 220.458 166.641C220.345 164.571 220.173 161.305 220.389 158.592C220.951 151.528 221.355 145.344 222.219 141.034Z" fill="#B16668"/>
<path d="M238.567 102.799C238.567 102.799 234.092 102.645 231.89 106.49C229.576 110.53 228.373 114.857 228.373 114.857C229.177 116.546 233.669 120.973 235.85 121.523C235.85 121.523 236.773 119.862 237.772 117.031C239.09 113.299 241.152 106.917 238.567 102.799Z" fill="#455A64"/>
</g>
<path d="M268.546 116.381L268.487 113.456L265.01 111.472L265.007 111.47C264.723 111.307 264.331 111.332 263.898 111.582L215.415 139.573C214.547 140.074 213.843 141.294 213.843 142.296V156.737C213.843 157.228 214.014 157.573 214.288 157.742V157.746L214.303 157.754C214.304 157.755 214.306 157.755 214.307 157.756L217.788 159.742L217.795 156.276L263.899 129.705C264.768 129.204 265.472 127.986 265.472 126.983V116.379H268.546V116.381Z" fill="#E0E0E0"/>
<path d="M268.486 113.456L265.009 111.472L265.006 111.47C264.722 111.307 264.33 111.332 263.897 111.582L215.414 139.573C215.035 139.792 214.691 140.152 214.419 140.567L219.348 143.413L265.469 117.365L268.486 113.456Z" fill="#FAFAFA"/>
<path d="M218.888 141.555L267.371 113.564C268.239 113.063 268.944 113.469 268.944 114.472V128.966C268.944 129.969 268.24 131.188 267.371 131.688L218.89 159.629C218.021 160.13 217.317 159.723 217.317 158.72V144.279C217.316 143.276 218.02 142.057 218.888 141.555Z" fill="#F0F0F0"/>
<path d="M223.503 142.904L224.385 144.778C224.441 144.896 224.548 144.938 224.673 144.89L226.645 144.133C226.958 144.013 227.083 144.454 226.857 144.879L225.43 147.558C225.34 147.727 225.299 147.919 225.32 148.072L225.657 150.497C225.71 150.882 225.383 151.388 225.103 151.354L223.339 151.136C223.228 151.122 223.095 151.199 222.984 151.341L221.22 153.596C220.94 153.954 220.612 153.826 220.666 153.379L221.003 150.565C221.024 150.388 220.983 150.243 220.893 150.178L219.466 149.147C219.239 148.983 219.364 148.398 219.678 148.156L221.65 146.635C221.774 146.539 221.882 146.373 221.938 146.19L222.82 143.298C222.958 142.84 223.363 142.607 223.503 142.904Z" fill="url(#paint11_linear_404_4756)"/>
<path d="M233.488 137.188L234.37 139.062C234.426 139.18 234.533 139.222 234.658 139.175L236.63 138.418C236.943 138.298 237.068 138.739 236.842 139.164L235.415 141.843C235.325 142.012 235.284 142.204 235.305 142.357L235.642 144.782C235.695 145.167 235.368 145.673 235.088 145.639L233.324 145.421C233.213 145.407 233.08 145.484 232.969 145.626L231.205 147.881C230.925 148.239 230.597 148.111 230.651 147.664L230.988 144.85C231.009 144.672 230.968 144.528 230.878 144.463L229.451 143.432C229.224 143.268 229.349 142.683 229.663 142.441L231.635 140.92C231.759 140.824 231.867 140.658 231.923 140.475L232.805 137.583C232.943 137.124 233.348 136.89 233.488 137.188Z" fill="url(#paint12_linear_404_4756)"/>
<path d="M243.472 131.471L244.354 133.345C244.41 133.463 244.517 133.505 244.642 133.458L246.614 132.701C246.927 132.581 247.052 133.022 246.826 133.448L245.399 136.127C245.309 136.296 245.268 136.488 245.289 136.641L245.626 139.066C245.679 139.451 245.352 139.957 245.072 139.923L243.308 139.705C243.197 139.691 243.064 139.768 242.953 139.91L241.189 142.165C240.909 142.523 240.581 142.395 240.635 141.948L240.972 139.134C240.993 138.957 240.952 138.812 240.862 138.747L239.435 137.716C239.208 137.552 239.333 136.967 239.647 136.725L241.619 135.204C241.743 135.108 241.851 134.942 241.907 134.759L242.789 131.867C242.927 131.407 243.332 131.173 243.472 131.471Z" fill="url(#paint13_linear_404_4756)"/>
<path d="M253.457 125.755L254.339 127.629C254.395 127.747 254.502 127.789 254.627 127.742L256.599 126.985C256.912 126.865 257.037 127.306 256.811 127.731L255.384 130.41C255.294 130.579 255.253 130.771 255.274 130.924L255.611 133.349C255.665 133.734 255.337 134.24 255.057 134.206L253.293 133.988C253.182 133.974 253.049 134.051 252.938 134.193L251.174 136.448C250.894 136.806 250.566 136.678 250.62 136.231L250.957 133.417C250.978 133.239 250.937 133.095 250.847 133.03L249.42 131.999C249.193 131.835 249.318 131.25 249.632 131.008L251.604 129.487C251.728 129.391 251.836 129.225 251.892 129.042L252.774 126.15C252.911 125.691 253.316 125.457 253.457 125.755Z" fill="url(#paint14_linear_404_4756)"/>
<path d="M263.441 120.038L264.323 121.912C264.379 122.03 264.486 122.072 264.611 122.025L266.583 121.268C266.896 121.148 267.021 121.589 266.795 122.014L265.368 124.693C265.278 124.862 265.237 125.054 265.258 125.207L265.595 127.632C265.649 128.017 265.321 128.523 265.041 128.489L263.277 128.271C263.166 128.257 263.033 128.334 262.922 128.476L261.158 130.731C260.878 131.089 260.55 130.961 260.604 130.514L260.941 127.7C260.962 127.523 260.921 127.378 260.831 127.313L259.404 126.282C259.177 126.118 259.302 125.533 259.616 125.291L261.588 123.77C261.712 123.674 261.82 123.508 261.876 123.325L262.758 120.433C262.896 119.974 263.301 119.74 263.441 120.038Z" fill="#E0E0E0"/>
<path d="M202.862 186.238L202.802 183.313L199.325 181.329L199.322 181.327C199.038 181.164 198.646 181.189 198.213 181.439L149.73 209.43C148.862 209.931 148.158 211.151 148.158 212.154V273.815C148.158 274.306 148.328 274.651 148.603 274.82V274.824L148.617 274.832C148.618 274.833 148.62 274.833 148.621 274.834L152.102 276.82L152.109 273.354L198.213 246.784C199.082 246.283 199.786 245.064 199.786 244.062V186.239H202.862V186.238Z" fill="#E0E0E0"/>
<path d="M202.802 183.313L199.325 181.329L199.322 181.327C199.038 181.164 198.646 181.189 198.213 181.439L149.73 209.43C149.351 209.649 149.007 210.009 148.736 210.424L153.665 213.27L199.786 187.222L202.802 183.313Z" fill="#FAFAFA"/>
<path d="M153.204 211.412L201.687 183.421C202.555 182.92 203.259 183.326 203.259 184.329V246.043C203.259 247.046 202.555 248.265 201.686 248.765L153.205 276.706C152.336 277.207 151.632 276.8 151.632 275.797V214.136C151.632 213.133 152.336 211.914 153.204 211.412Z" fill="#F0F0F0"/>
<mask id="mask2_404_4756" style="mask-type:luminance" maskUnits="userSpaceOnUse" x="151" y="183" width="53" height="94">
<path d="M153.204 211.412L201.687 183.421C202.555 182.92 203.259 183.326 203.259 184.329V246.043C203.259 247.046 202.555 248.265 201.686 248.765L153.204 276.706C152.335 277.207 151.631 276.8 151.631 275.797V214.136C151.632 213.133 152.336 211.913 153.204 211.412Z" fill="white"/>
</mask>
<g mask="url(#mask2_404_4756)">
<path d="M191.783 273.287C185.936 247.651 178.905 243 185.152 237.661C192.422 236.554 195.232 238.837 196.351 246.349C196.898 250.022 198.087 265.392 199.58 271.136C200.892 276.183 202.655 282.434 204.616 286.044C204.963 286.684 205.547 287.07 206.228 287.168C208.056 287.431 208.595 288.458 210.083 289.215C211.248 289.808 212.11 289.657 212.054 290.068C211.983 290.596 211.451 291.668 210.212 291.886C209.589 291.995 209.103 291.91 208.029 291.742C208.029 291.742 209.103 293.298 211.213 294.664C214.073 296.515 214.545 298.322 210.005 300.74C207.16 302.255 204.5 301.515 200.974 295.752C199.958 294.092 198.363 291.466 197.421 289.069C194.966 282.826 192.724 277.413 191.783 273.287Z" fill="#FFA8A7"/>
<path d="M185.152 237.661C185.152 237.661 188.909 236.528 191.679 237.661C194.449 238.794 196.681 240.379 197.412 251.229L191.778 254.476L185.152 237.661Z" fill="#263238"/>
<path d="M160.915 240.677C166.012 240.677 170.143 236.545 170.143 231.449V218.666C165.046 218.666 160.915 222.798 160.915 227.894V240.677Z" fill="url(#paint15_linear_404_4756)"/>
<path opacity="0.4" d="M160.915 240.677C166.012 240.677 170.143 236.545 170.143 231.449V218.666C165.046 218.666 160.915 222.798 160.915 227.894V240.677Z" fill="black"/>
<path d="M183.328 233.805C175.747 236.084 168.114 230.408 168.114 222.492C168.114 214.091 174.012 205.701 181.287 203.752L182.27 203.488C189.545 201.539 195.443 206.768 195.443 215.169V217.514C195.443 225.023 190.519 231.643 183.328 233.805Z" fill="url(#paint16_linear_404_4756)"/>
<path opacity="0.3" d="M183.328 233.805C175.747 236.084 168.114 230.408 168.114 222.492C168.114 214.091 174.012 205.701 181.287 203.752L182.27 203.488C189.545 201.539 195.443 206.768 195.443 215.169V217.514C195.443 225.023 190.519 231.643 183.328 233.805Z" fill="black"/>
<path d="M172.645 207.229C171.928 206.522 170.716 206.788 169.937 207.825L171.384 209.254C171.073 209.219 170.735 209.272 170.391 209.448C169.355 209.977 168.693 211.329 168.911 212.466L172.662 210.549C172.644 210.456 172.613 210.374 172.585 210.29C173.299 209.262 173.34 207.916 172.645 207.229Z" fill="url(#paint17_linear_404_4756)"/>
<path opacity="0.3" d="M172.645 207.229C171.928 206.522 170.716 206.788 169.937 207.825L171.384 209.254C171.073 209.219 170.735 209.272 170.391 209.448C169.355 209.977 168.693 211.329 168.911 212.466L172.662 210.549C172.644 210.456 172.613 210.374 172.585 210.29C173.299 209.262 173.34 207.916 172.645 207.229Z" fill="black"/>
<path d="M176.404 240.291C176.404 240.291 168.429 242.177 167.466 242.934C173.24 249.127 168.518 262.197 168.518 262.197L171.725 273.36C168.507 278.979 166.86 282.74 165.144 288.417C163.227 294.757 162.008 299.526 160.534 318.621C168.114 324.659 193.362 318.057 199.783 306.622C199.783 306.622 197.811 294.101 195.255 282.475C193.389 273.986 191.545 269.394 192.004 266.331C195.387 253.401 195.651 250.179 195.051 247.658C193.362 240.562 186.697 237.241 185.052 237.682L176.404 240.291Z" fill="#37474F"/>
<path d="M190.299 208.163C191.742 208.761 193.526 212.475 193.35 221.309C193.201 228.797 191.11 231.197 190.06 232.008C189.01 232.819 186.986 233.039 185.018 233.188V237.658C185.018 237.658 187.738 240.577 187.567 242.673C187.396 244.768 183.639 246.259 181.094 244.939C178.549 243.619 176.404 240.291 176.404 240.291L176.448 230.002C176.448 230.002 175.29 231.612 173.326 230.155C171.704 228.952 171.158 226.338 172.422 224.519C173.685 222.699 176.021 222.477 176.917 224.349C176.917 224.349 178.011 220.548 182.544 217.623C186.64 214.978 188.867 212.602 190.299 208.163Z" fill="#FFA8A7"/>
<path d="M186.149 221.368C186.172 221.898 185.828 222.445 185.381 222.59C184.933 222.735 184.552 222.421 184.528 221.891C184.505 221.361 184.849 220.814 185.296 220.669C185.744 220.525 186.126 220.838 186.149 221.368Z" fill="#263238"/>
<path d="M186.365 227.623L188.249 227.812C188.093 228.476 187.544 228.973 187.024 228.921C186.504 228.869 186.209 228.288 186.365 227.623Z" fill="#F28F8F"/>
<path d="M192.799 216.711L191.158 215.837C191.457 215.216 192.068 214.908 192.521 215.149C192.974 215.39 193.098 216.089 192.799 216.711Z" fill="#263238"/>
<path d="M183.788 219.818L185.429 218.065C185.13 217.604 184.519 217.623 184.066 218.107C183.614 218.592 183.489 219.358 183.788 219.818Z" fill="#263238"/>
<path d="M192.421 219.011C192.444 219.541 192.101 220.088 191.653 220.233C191.206 220.377 190.824 220.064 190.801 219.534C190.777 219.004 191.121 218.457 191.569 218.312C192.016 218.167 192.397 218.48 192.421 219.011Z" fill="#263238"/>
<path d="M188.594 219.5L188.723 225.103L191.293 223.495L188.594 219.5Z" fill="#F28F8F"/>
<path d="M185.018 233.189C182.944 233.431 178.677 233.158 178.011 231.389C178.011 231.389 178.233 232.554 179.507 233.474C180.782 234.394 185.017 234.681 185.017 234.681V233.189H185.018Z" fill="#F28F8F"/>
<path d="M153.707 282.977C158.647 258.339 162.064 246.709 167.465 242.935C170.175 243.211 170.995 246.811 171.281 248.869C171.794 252.563 170.915 257.718 168.517 262.198C168.517 262.198 161.787 278.699 160.636 285.25C159.629 290.982 158.49 298.154 158.553 302.85C158.564 303.694 158.85 304.438 159.348 304.927C160.671 306.224 160.675 307.551 161.529 309.147C162.197 310.394 162.927 310.732 162.719 311.109C162.451 311.593 161.606 312.358 160.555 311.873C160.026 311.629 159.683 311.269 158.915 310.496C158.915 310.496 159.124 312.649 160.215 315.199C161.694 318.655 161.334 320.717 156.831 320.551C154.009 320.448 152.238 318.208 151.815 310.49C151.693 308.267 151.509 304.757 151.74 301.842C152.345 294.252 152.779 287.608 153.707 282.977Z" fill="#FFA8A7"/>
<path d="M168.369 242.553C166.159 243.319 164.01 245.504 161.965 250.243C159.92 254.983 157.478 264.813 157.478 264.813C157.478 264.813 161.819 269.393 166.611 268.02C166.611 268.02 170.332 260.286 171.274 256.233C172.217 252.18 172.937 244.892 168.369 242.553Z" fill="#263238"/>
</g>
<path d="M202.862 259.488L202.802 256.563L199.325 254.579L199.322 254.578C199.038 254.415 198.646 254.439 198.213 254.689L149.73 282.68C148.862 283.181 148.158 284.401 148.158 285.404V299.845C148.158 300.336 148.328 300.681 148.603 300.85V300.854L148.617 300.862L148.621 300.864L152.102 302.85L152.109 299.384L198.213 272.814C199.082 272.313 199.786 271.094 199.786 270.092V259.488H202.862Z" fill="#E0E0E0"/>
<path d="M202.802 256.563L199.325 254.579L199.322 254.578C199.038 254.415 198.646 254.439 198.213 254.689L149.73 282.68C149.351 282.899 149.007 283.259 148.736 283.674L153.665 286.52L199.786 260.472L202.802 256.563Z" fill="#FAFAFA"/>
<path d="M153.204 284.663L201.687 256.672C202.555 256.171 203.259 256.577 203.259 257.58V272.074C203.259 273.077 202.555 274.296 201.686 274.796L153.205 302.737C152.336 303.238 151.632 302.831 151.632 301.828V287.387C151.632 286.384 152.336 285.164 153.204 284.663Z" fill="#F0F0F0"/>
<path d="M157.82 286.012L158.702 287.886C158.758 288.004 158.865 288.046 158.99 287.999L160.962 287.242C161.275 287.122 161.4 287.563 161.174 287.989L159.747 290.668C159.657 290.837 159.616 291.029 159.637 291.182L159.974 293.607C160.027 293.992 159.7 294.498 159.42 294.464L157.656 294.246C157.545 294.232 157.412 294.309 157.301 294.451L155.537 296.706C155.257 297.064 154.929 296.936 154.983 296.489L155.32 293.675C155.341 293.498 155.3 293.353 155.21 293.288L153.783 292.257C153.556 292.093 153.681 291.508 153.995 291.266L155.967 289.745C156.091 289.649 156.199 289.483 156.254 289.3L157.136 286.408C157.275 285.948 157.68 285.714 157.82 286.012Z" fill="url(#paint18_linear_404_4756)"/>
<path d="M167.804 280.295L168.686 282.169C168.742 282.287 168.849 282.329 168.973 282.282L170.945 281.525C171.258 281.405 171.383 281.846 171.157 282.271L169.73 284.95C169.64 285.119 169.599 285.311 169.62 285.464L169.957 287.889C170.011 288.274 169.683 288.781 169.403 288.746L167.639 288.528C167.528 288.514 167.395 288.591 167.284 288.733L165.52 290.988C165.24 291.346 164.912 291.218 164.966 290.771L165.303 287.957C165.324 287.78 165.283 287.635 165.193 287.57L163.766 286.539C163.539 286.375 163.664 285.79 163.978 285.548L165.95 284.027C166.074 283.931 166.182 283.765 166.238 283.583L167.12 280.691C167.259 280.231 167.664 279.998 167.804 280.295Z" fill="url(#paint19_linear_404_4756)"/>
<path d="M177.788 274.579L178.67 276.453C178.726 276.571 178.833 276.613 178.958 276.566L180.93 275.809C181.243 275.689 181.368 276.13 181.142 276.555L179.715 279.234C179.625 279.403 179.584 279.595 179.605 279.748L179.942 282.173C179.996 282.558 179.668 283.064 179.388 283.03L177.624 282.812C177.513 282.798 177.38 282.875 177.269 283.017L175.505 285.272C175.225 285.63 174.897 285.502 174.951 285.055L175.288 282.241C175.309 282.064 175.268 281.919 175.178 281.854L173.751 280.823C173.524 280.659 173.649 280.074 173.963 279.832L175.935 278.311C176.059 278.215 176.167 278.049 176.223 277.866L177.105 274.974C177.243 274.515 177.648 274.281 177.788 274.579Z" fill="url(#paint20_linear_404_4756)"/>
<path d="M187.773 268.862L188.655 270.736C188.711 270.854 188.818 270.896 188.943 270.849L190.915 270.092C191.228 269.972 191.353 270.413 191.127 270.838L189.7 273.517C189.61 273.686 189.569 273.878 189.59 274.031L189.927 276.456C189.98 276.841 189.653 277.347 189.373 277.313L187.609 277.095C187.498 277.081 187.365 277.158 187.254 277.3L185.49 279.555C185.21 279.913 184.882 279.785 184.936 279.338L185.273 276.524C185.294 276.347 185.253 276.202 185.163 276.137L183.736 275.106C183.509 274.942 183.634 274.357 183.948 274.115L185.92 272.594C186.044 272.498 186.152 272.332 186.208 272.149L187.09 269.257C187.228 268.798 187.633 268.565 187.773 268.862Z" fill="url(#paint21_linear_404_4756)"/>
<path d="M187.608 277.095L189.372 277.313C189.652 277.348 189.98 276.841 189.926 276.456L189.589 274.031C189.568 273.878 189.609 273.686 189.699 273.517L191.126 270.838C191.353 270.413 191.228 269.971 190.914 270.092L188.942 270.849C188.818 270.897 188.71 270.855 188.654 270.736L187.772 268.862C187.702 268.713 187.566 268.697 187.429 268.776V277.139C187.491 277.104 187.552 277.088 187.608 277.095Z" fill="#E0E0E0"/>
<path d="M197.757 263.146L198.639 265.02C198.695 265.138 198.802 265.18 198.927 265.133L200.899 264.376C201.212 264.256 201.337 264.697 201.111 265.122L199.684 267.801C199.594 267.97 199.553 268.162 199.574 268.315L199.911 270.74C199.964 271.125 199.637 271.632 199.357 271.597L197.593 271.379C197.482 271.365 197.349 271.442 197.238 271.584L195.474 273.839C195.194 274.197 194.866 274.069 194.92 273.622L195.257 270.808C195.278 270.631 195.237 270.486 195.147 270.421L193.72 269.39C193.493 269.226 193.618 268.641 193.932 268.399L195.904 266.878C196.028 266.782 196.136 266.616 196.192 266.433L197.074 263.541C197.212 263.082 197.617 262.848 197.757 263.146Z" fill="#E0E0E0"/>
<path d="M202.862 81.011L202.802 78.086L199.325 76.102L199.322 76.1C199.038 75.937 198.646 75.962 198.213 76.212L149.73 104.203C148.862 104.704 148.158 105.924 148.158 106.926V168.587C148.158 169.078 148.328 169.423 148.603 169.592V169.596L148.617 169.604C148.618 169.605 148.62 169.606 148.621 169.606L152.102 171.592L152.109 168.126L198.213 141.556C199.082 141.055 199.786 139.837 199.786 138.834V81.011H202.862Z" fill="#E0E0E0"/>
<path d="M202.802 78.086L199.325 76.102L199.322 76.1C199.038 75.937 198.646 75.962 198.213 76.212L149.73 104.203C149.351 104.422 149.007 104.782 148.736 105.197L153.665 108.043L199.786 81.994L202.802 78.086Z" fill="#FAFAFA"/>
<path d="M153.204 106.186L201.687 78.1949C202.555 77.6939 203.259 78.0999 203.259 79.1029V140.817C203.259 141.82 202.555 143.039 201.686 143.539L153.205 171.48C152.336 171.981 151.632 171.574 151.632 170.571V108.91C151.632 107.906 152.336 106.687 153.204 106.186Z" fill="#F0F0F0"/>
<mask id="mask3_404_4756" style="mask-type:luminance" maskUnits="userSpaceOnUse" x="151" y="77" width="53" height="95">
<path d="M153.204 106.185L201.687 78.194C202.555 77.693 203.259 78.099 203.259 79.102V140.816C203.259 141.819 202.555 143.038 201.686 143.538L153.204 171.479C152.335 171.98 151.631 171.573 151.631 170.57V108.909C151.632 107.906 152.336 106.687 153.204 106.185Z" fill="white"/>
</mask>
<g mask="url(#mask3_404_4756)">
<path d="M187.084 132.263C187.084 132.263 190.894 131.085 194.068 136.091C196.226 139.494 203.764 152.421 203.764 152.421C203.764 152.421 218.433 144.643 219.259 143.627C220.085 142.611 220.035 140.542 220.158 139.433C220.363 137.576 219.684 135.98 219.587 135.31C219.418 134.141 221.095 134.079 221.925 135.697C222.532 136.879 222.579 138.23 223.1 138.247C223.278 138.253 224.921 136.752 225.16 136.491C226.069 135.498 227.711 133.831 228.955 134.063C229.366 134.139 229.686 134.485 229.784 134.956C229.938 135.7 229.878 136.319 230.25 136.939C230.408 137.202 230.652 137.409 230.741 137.736C230.858 138.164 230.688 138.575 230.726 139.022C230.778 139.636 231.372 139.894 231.458 140.494C231.521 140.928 231.3 141.429 231.303 141.885C231.305 142.179 231.399 142.439 231.397 142.734C231.394 143.312 231.028 143.896 230.642 144.366C229.283 146.02 227.896 146.963 226.288 148.013C224.951 148.886 223.186 149.663 221.675 150.485C220.163 151.307 202.874 164.571 200.573 163.003C198.272 161.435 186.734 144.626 186.734 144.626C184.09 137.206 187.084 132.263 187.084 132.263Z" fill="#FFA8A7"/>
<path d="M180.392 132.376C180.392 132.376 184.591 130.673 187.315 130.846C190.04 131.02 192.057 131.798 194.055 135.01C196.723 139.299 201.138 146.705 201.138 146.705C201.138 146.705 198.593 152.566 192.559 155.883L184.424 143.608L180.392 132.376Z" fill="url(#paint22_linear_404_4756)"/>
<g opacity="0.25">
<path d="M180.392 132.376C180.392 132.376 184.591 130.673 187.315 130.846C190.04 131.02 192.057 131.798 194.055 135.01C196.723 139.299 201.138 146.705 201.138 146.705C201.138 146.705 198.593 152.566 192.559 155.883L184.424 143.608L180.392 132.376Z" fill="black"/>
</g>
<path d="M167.065 139.795C165.709 140.858 164.638 142.421 164.094 144.163C163.609 145.714 163.191 147.841 163.191 150.559V164.51L163.014 190.901C171.865 193.916 183.117 191.262 192.559 180.769C192.559 180.769 192.032 147.002 192.032 141.455C192.032 141.204 192.027 140.952 192.015 140.698C191.672 132.868 184.917 129.241 178.264 133L172.676 136.157L167.065 139.795Z" fill="#455A64"/>
<path d="M173.123 111.089C173.123 117.04 177.301 120.744 182.454 119.363C187.607 117.982 191.785 112.039 191.785 106.088C191.785 100.137 187.336 100.135 182.183 101.516C177.03 102.897 173.123 105.138 173.123 111.089Z" fill="#263238"/>
<path d="M168.252 120.507C168.252 120.507 169.627 127.597 170.178 128.674C170.729 129.752 171.869 129.795 171.869 129.795L171.773 124.574L168.252 120.507Z" fill="#263238"/>
<path d="M169.978 109.36C169.978 109.36 168.497 109.464 167.343 111.136C166.211 112.775 166.843 116.788 168.253 120.507L170.843 120.156L169.978 109.36Z" fill="#263238"/>
<path d="M171.618 119.95C171.099 120.447 170.358 119.494 169.718 118.892C169.078 118.29 166.987 117.793 165.944 120.61C164.881 123.48 166.865 126.366 168.51 126.521C171.346 126.789 171.772 124.574 171.772 124.574L171.868 136.68C176.626 141.726 184.965 135.778 181.216 133.544L181.208 129.951C181.208 129.951 183.778 129.713 185.032 129.153C187.118 128.222 188.43 125.97 189.063 123.193C190.079 118.733 190.465 115.249 189.603 107.244C188.658 98.471 179.566 100.813 174.656 105.697C169.746 110.582 171.618 119.95 171.618 119.95Z" fill="#FFBDA7"/>
<path d="M171.619 120.959C171.358 121.035 170.365 119.398 169.719 118.892C168.823 118.191 169.979 109.36 169.979 109.36C168.943 107.087 170.852 103.645 172.85 102.246C174.345 101.199 175.99 100.802 177.582 100.508C179.014 100.243 180.442 100.045 181.862 99.913C183.586 99.753 185.305 99.691 187.048 99.295C188.437 98.98 189.859 98.436 191.154 97.531C191.572 97.239 191.996 97.56 191.859 98.087C191.747 98.517 191.591 98.995 191.373 99.441C190.935 100.339 190.604 101.085 189.993 101.871C189.372 102.671 188.697 103.416 187.982 104.092C184.144 107.727 179.293 108.718 175.021 109.188C174.058 109.294 173.852 110.427 173.332 113.512C172.875 116.22 172.496 120.704 171.619 120.959Z" fill="#263238"/>
<path d="M169.983 110.021L166.843 108.916C167.289 107.758 168.353 107.066 169.22 107.371C170.087 107.677 170.428 108.863 169.983 110.021Z" fill="#263238"/>
<path d="M181.209 129.951C181.209 129.951 176.553 130.116 174.925 129.552C173.835 129.175 172.938 128.257 172.675 127.584C172.675 127.584 172.98 129.098 173.953 130.274C175.144 131.712 181.209 131.381 181.209 131.381V129.951Z" fill="#F29077"/>
<path d="M180.09 116.336C180.09 116.954 179.672 117.566 179.157 117.703C178.641 117.84 178.224 117.449 178.224 116.831C178.224 116.213 178.642 115.601 179.157 115.464C179.672 115.327 180.09 115.718 180.09 116.336Z" fill="#263238"/>
<path d="M178.592 112.277L176.596 114.084C176.302 113.501 176.51 112.623 177.061 112.124C177.612 111.625 178.297 111.694 178.592 112.277Z" fill="#263238"/>
<path d="M180.787 123.592L182.917 123.944C182.706 124.705 182.059 125.244 181.47 125.147C180.883 125.05 180.577 124.353 180.787 123.592Z" fill="#F29077"/>
<path d="M188.65 110.53L186.83 109.399C187.201 108.698 187.91 108.383 188.412 108.695C188.914 109.007 189.021 109.829 188.65 110.53Z" fill="#263238"/>
<path d="M187.85 113.95C187.85 114.568 187.432 115.18 186.917 115.316C186.402 115.452 185.984 115.062 185.984 114.444C185.984 113.826 186.402 113.214 186.917 113.077C187.433 112.941 187.85 113.332 187.85 113.95Z" fill="#263238"/>
<path d="M183.239 114.321L183.347 120.825L186.692 119.078L183.239 114.321Z" fill="#F29077"/>
<path d="M153.9 179.702C155.859 152.813 159.842 143.176 166.391 140.345C168.654 142.03 169.199 149.934 166.833 155.938C166.833 155.938 161.746 173.863 161.458 179.956C161.205 185.309 161.838 192.699 162.499 196.908C162.616 197.654 162.994 198.243 163.528 198.59C164.963 199.522 164.87 200.877 165.895 202.159C166.697 203.163 167.446 203.337 167.292 203.713C167.094 204.196 166.373 205.032 165.297 204.783C164.755 204.657 164.378 204.394 163.539 203.834C163.539 203.834 164.012 205.733 165.387 207.833C167.251 210.679 167.162 212.597 162.789 213.243C160.049 213.648 158.055 211.948 156.676 205.082C156.279 203.104 155.344 199.545 154.956 196.982C153.839 189.619 153.585 184.03 153.9 179.702Z" fill="#FFBDA7"/>
<path d="M168.252 139.025C168.252 139.025 163.48 140.695 161.071 144.601C158.662 148.507 156.363 154.797 154.75 165.958C154.75 165.958 157.769 170.085 165.645 166.655C165.645 166.655 169.072 152.413 169.377 146.784C169.711 140.645 168.252 139.025 168.252 139.025Z" fill="url(#paint23_linear_404_4756)"/>
<path opacity="0.15" d="M168.252 139.025C168.252 139.025 163.48 140.695 161.071 144.601C158.662 148.507 156.363 154.797 154.75 165.958C154.75 165.958 157.769 170.085 165.645 166.655C165.645 166.655 169.072 152.413 169.377 146.784C169.711 140.645 168.252 139.025 168.252 139.025Z" fill="black"/>
</g>
<path d="M202.862 154.262L202.802 151.337L199.325 149.353L199.322 149.351C199.038 149.188 198.646 149.213 198.213 149.463L149.73 177.454C148.862 177.955 148.158 179.175 148.158 180.178V194.619C148.158 195.11 148.328 195.455 148.603 195.624V195.628L148.617 195.636C148.618 195.637 148.62 195.637 148.621 195.638L152.102 197.624L152.109 194.158L198.213 167.588C199.082 167.087 199.786 165.869 199.786 164.866V154.262H202.862Z" fill="#E0E0E0"/>
<path d="M202.802 151.337L199.325 149.353L199.322 149.351C199.038 149.188 198.646 149.213 198.213 149.463L149.73 177.454C149.351 177.673 149.007 178.033 148.736 178.448L153.665 181.294L199.786 155.246L202.802 151.337Z" fill="#FAFAFA"/>
<path d="M153.204 179.436L201.687 151.445C202.555 150.944 203.259 151.35 203.259 152.353V166.847C203.259 167.85 202.555 169.069 201.686 169.569L153.205 197.51C152.336 198.011 151.632 197.604 151.632 196.601V182.16C151.632 181.157 152.336 179.938 153.204 179.436Z" fill="#F0F0F0"/>
<path d="M157.82 180.785L158.702 182.659C158.758 182.777 158.865 182.819 158.99 182.772L160.962 182.015C161.275 181.895 161.4 182.336 161.174 182.762L159.747 185.441C159.657 185.61 159.616 185.802 159.637 185.955L159.974 188.38C160.027 188.765 159.7 189.271 159.42 189.237L157.656 189.019C157.545 189.005 157.412 189.082 157.301 189.224L155.537 191.479C155.257 191.837 154.929 191.709 154.983 191.262L155.32 188.448C155.341 188.27 155.3 188.126 155.21 188.061L153.783 187.03C153.556 186.866 153.681 186.281 153.995 186.039L155.967 184.518C156.091 184.422 156.199 184.256 156.254 184.073L157.136 181.181C157.275 180.721 157.68 180.487 157.82 180.785Z" fill="url(#paint24_linear_404_4756)"/>
<path d="M167.804 175.069L168.686 176.943C168.742 177.061 168.849 177.103 168.973 177.056L170.945 176.299C171.258 176.179 171.383 176.62 171.157 177.045L169.73 179.724C169.64 179.893 169.599 180.085 169.62 180.238L169.957 182.663C170.011 183.048 169.683 183.554 169.403 183.52L167.639 183.302C167.528 183.288 167.395 183.365 167.284 183.507L165.52 185.762C165.24 186.12 164.912 185.992 164.966 185.545L165.303 182.731C165.324 182.554 165.283 182.409 165.193 182.344L163.766 181.313C163.539 181.149 163.664 180.564 163.978 180.322L165.95 178.801C166.074 178.705 166.182 178.539 166.238 178.357L167.12 175.465C167.259 175.005 167.664 174.771 167.804 175.069Z" fill="url(#paint25_linear_404_4756)"/>
<path d="M177.788 169.352L178.67 171.226C178.726 171.344 178.833 171.386 178.958 171.339L180.93 170.582C181.243 170.462 181.368 170.903 181.142 171.328L179.715 174.007C179.625 174.176 179.584 174.368 179.605 174.521L179.942 176.946C179.996 177.331 179.668 177.837 179.388 177.803L177.624 177.585C177.513 177.571 177.38 177.648 177.269 177.79L175.505 180.045C175.225 180.403 174.897 180.275 174.951 179.828L175.288 177.014C175.309 176.837 175.268 176.692 175.178 176.627L173.751 175.596C173.524 175.432 173.649 174.847 173.963 174.605L175.935 173.084C176.059 172.988 176.167 172.822 176.223 172.639L177.105 169.747C177.243 169.288 177.648 169.054 177.788 169.352Z" fill="url(#paint26_linear_404_4756)"/>
<path d="M187.773 163.636L188.655 165.51C188.711 165.628 188.818 165.67 188.943 165.623L190.915 164.866C191.228 164.746 191.353 165.187 191.127 165.612L189.7 168.291C189.61 168.46 189.569 168.652 189.59 168.805L189.927 171.23C189.98 171.615 189.653 172.121 189.373 172.087L187.609 171.869C187.498 171.855 187.365 171.932 187.254 172.074L185.49 174.329C185.21 174.687 184.882 174.559 184.936 174.112L185.273 171.298C185.294 171.12 185.253 170.976 185.163 170.911L183.736 169.88C183.509 169.716 183.634 169.131 183.948 168.889L185.92 167.368C186.044 167.272 186.152 167.106 186.208 166.923L187.09 164.031C187.228 163.572 187.633 163.338 187.773 163.636Z" fill="#E0E0E0"/>
<path d="M197.757 157.919L198.639 159.793C198.695 159.911 198.802 159.953 198.927 159.906L200.899 159.149C201.212 159.029 201.337 159.47 201.111 159.895L199.684 162.574C199.594 162.743 199.553 162.935 199.574 163.088L199.911 165.513C199.964 165.898 199.637 166.404 199.357 166.37L197.593 166.152C197.482 166.138 197.349 166.215 197.238 166.357L195.474 168.612C195.194 168.97 194.866 168.842 194.92 168.395L195.257 165.581C195.278 165.404 195.237 165.259 195.147 165.194L193.72 164.163C193.493 163.999 193.618 163.414 193.932 163.172L195.904 161.651C196.028 161.555 196.136 161.389 196.192 161.206L197.074 158.314C197.212 157.855 197.617 157.621 197.757 157.919Z" fill="#E0E0E0"/>
<path d="M137.118 224.195L137.058 221.27L133.581 219.287L133.578 219.285V219.286C133.294 219.123 132.902 219.147 132.469 219.397L83.9861 247.388C83.1181 247.889 82.4141 249.109 82.4141 250.111V311.772C82.4141 312.263 82.5851 312.608 82.8591 312.777V312.781L82.8741 312.789C82.8751 312.79 82.8771 312.791 82.8781 312.791L86.3591 314.777L86.3661 311.311L132.47 284.741C133.339 284.24 134.043 283.022 134.043 282.019V224.195H137.118Z" fill="#E0E0E0"/>
<path d="M137.058 221.27L133.581 219.287L133.578 219.285V219.286C133.294 219.123 132.902 219.147 132.469 219.397L83.9862 247.388C83.6072 247.607 83.2632 247.967 82.9922 248.382L87.9212 251.228L134.042 225.179L137.058 221.27Z" fill="#FAFAFA"/>
<path d="M87.4602 249.37L135.943 221.379C136.811 220.878 137.515 221.284 137.515 222.287V284.001C137.515 285.004 136.811 286.223 135.942 286.723L87.4612 314.664C86.5922 315.165 85.8882 314.758 85.8882 313.755V252.094C85.8882 251.091 86.5922 249.871 87.4602 249.37Z" fill="#F0F0F0"/>
<mask id="mask4_404_4756" style="mask-type:luminance" maskUnits="userSpaceOnUse" x="85" y="221" width="53" height="94">
<path d="M87.4602 249.369L135.943 221.378C136.811 220.877 137.515 221.283 137.515 222.286V284C137.515 285.003 136.811 286.222 135.942 286.722L87.4602 314.663C86.5912 315.164 85.8872 314.757 85.8872 313.754V252.093C85.8882 251.09 86.5922 249.871 87.4602 249.369Z" fill="white"/>
</mask>
<g mask="url(#mask4_404_4756)">
<path d="M121.339 275.447C121.339 275.447 125.148 274.269 128.323 279.275C130.481 282.678 138.019 295.605 138.019 295.605C138.019 295.605 152.688 287.827 153.514 286.811C154.34 285.795 154.29 283.726 154.413 282.617C154.618 280.76 153.939 279.164 153.842 278.494C153.673 277.325 155.35 277.263 156.18 278.881C156.787 280.063 156.834 281.414 157.355 281.431C157.533 281.437 159.176 279.936 159.415 279.675C160.324 278.681 161.966 277.015 163.21 277.247C163.621 277.323 163.941 277.669 164.039 278.14C164.193 278.883 164.133 279.503 164.505 280.123C164.663 280.386 164.907 280.593 164.996 280.92C165.113 281.348 164.943 281.759 164.981 282.206C165.033 282.82 165.627 283.078 165.713 283.677C165.776 284.111 165.555 284.612 165.558 285.068C165.56 285.362 165.654 285.622 165.652 285.917C165.649 286.495 165.283 287.079 164.897 287.549C163.538 289.203 162.151 290.146 160.543 291.196C159.206 292.069 157.441 292.846 155.93 293.668C154.418 294.49 137.129 307.754 134.828 306.186C132.527 304.618 120.989 287.809 120.989 287.809C118.345 280.39 121.339 275.447 121.339 275.447Z" fill="#FFA8A7"/>
<path d="M114.647 275.56C114.647 275.56 118.846 273.857 121.57 274.03C124.295 274.204 126.312 274.982 128.31 278.194C130.978 282.483 135.393 289.889 135.393 289.889C135.393 289.889 132.848 295.75 126.814 299.067L118.679 286.792L114.647 275.56Z" fill="#455A64"/>
<path d="M101.32 282.979C99.9641 284.042 98.893 285.605 98.349 287.346C97.864 288.898 97.446 291.024 97.446 293.742V307.693L97.269 334.084C106.12 337.099 117.372 334.445 126.814 323.952C126.814 323.952 126.287 290.185 126.287 284.638C126.287 284.387 126.282 284.135 126.27 283.881C125.927 276.05 119.172 272.424 112.519 276.183L106.931 279.34L101.32 282.979Z" fill="url(#paint27_linear_404_4756)"/>
<path opacity="0.6" d="M101.32 282.979C99.9641 284.042 98.893 285.605 98.349 287.346C97.864 288.898 97.446 291.024 97.446 293.742V307.693L97.269 334.084C106.12 337.099 117.372 334.445 126.814 323.952C126.814 323.952 126.287 290.185 126.287 284.638C126.287 284.387 126.282 284.135 126.27 283.881C125.927 276.05 119.172 272.424 112.519 276.183L106.931 279.34L101.32 282.979Z" fill="white"/>
<path d="M107.379 254.273C107.379 260.224 111.557 263.928 116.71 262.547C121.863 261.166 126.041 255.223 126.041 249.272C126.041 243.321 121.592 243.319 116.439 244.7C111.285 246.082 107.379 248.322 107.379 254.273Z" fill="#263238"/>
<path d="M102.508 263.691C102.508 263.691 103.883 270.781 104.434 271.859C104.985 272.937 106.125 272.98 106.125 272.98L106.029 267.759L102.508 263.691Z" fill="#263238"/>
<path d="M104.233 252.544C104.233 252.544 102.752 252.648 101.598 254.32C100.466 255.959 101.098 259.972 102.508 263.691L105.098 263.341L104.233 252.544Z" fill="#263238"/>
<path d="M105.874 263.134C105.355 263.631 104.614 262.678 103.974 262.076C103.334 261.474 101.243 260.977 100.2 263.793C99.1373 266.664 101.121 269.549 102.766 269.704C105.602 269.972 106.028 267.757 106.028 267.757L106.124 279.863C110.882 284.909 119.221 278.961 115.472 276.727L115.464 273.134C115.464 273.134 118.034 272.896 119.287 272.336C121.373 271.405 122.685 269.153 123.318 266.376C124.334 261.916 124.72 258.432 123.858 250.427C122.913 241.654 113.821 243.996 108.911 248.88C104.001 253.766 105.874 263.134 105.874 263.134Z" fill="#FFBDA7"/>
<path d="M105.874 264.143C105.613 264.219 104.62 262.582 103.974 262.076C103.639 261.814 103.669 261.054 103.65 260.684C103.553 258.825 103.757 256.934 103.944 255.086C104.063 253.912 104.257 252.86 104.04 251.695C103.814 250.482 103.843 249.214 104.186 248.025C104.604 246.577 105.5 245.254 106.747 244.407C108.309 243.345 110.397 243.135 112.193 243.638C112.204 242.754 112.754 241.928 113.503 241.458C114.252 240.988 115.173 240.845 116.054 240.923C116.98 241.005 118.001 241.435 118.275 242.323C118.832 240.942 120.143 239.893 121.613 239.654C122.867 239.45 124.447 239.844 125.327 240.812C126.151 241.719 126.293 243.432 126.262 244.596C126.248 245.143 126.194 245.692 126.043 246.218C125.707 247.385 124.883 248.394 123.832 249.003C122.781 249.612 121.517 249.826 120.314 249.651C120.574 249.689 119.821 251.555 119.725 251.715C119.331 252.377 118.714 252.914 117.986 253.176C116.597 253.676 114.944 253.202 113.942 252.118C113.801 252.997 112.843 253.528 111.955 253.587C111.067 253.646 110.193 253.372 109.307 253.29C107.62 253.135 107.784 255.519 107.586 256.695C107.13 259.405 106.752 263.889 105.874 264.143Z" fill="#263238"/>
<path d="M104.238 253.205L101.098 252.1C101.544 250.942 102.608 250.25 103.475 250.555C104.342 250.86 104.684 252.047 104.238 253.205Z" fill="#263238"/>
<path d="M115.464 273.135C115.464 273.135 110.808 273.299 109.18 272.736C108.091 272.359 107.193 271.441 106.93 270.768C106.93 270.768 107.235 272.281 108.208 273.458C109.399 274.896 115.464 274.565 115.464 274.565V273.135Z" fill="#F29077"/>
<path d="M114.345 259.95C114.345 260.568 113.927 261.18 113.412 261.316C112.896 261.453 112.479 261.062 112.479 260.444C112.479 259.826 112.897 259.214 113.412 259.078C113.928 258.942 114.345 259.332 114.345 259.95Z" fill="#263238"/>
<path d="M112.847 255.891L110.851 257.698C110.557 257.115 110.765 256.237 111.316 255.738C111.867 255.239 112.553 255.308 112.847 255.891Z" fill="#263238"/>
<path d="M115.043 266.776L117.173 267.128C116.962 267.889 116.314 268.428 115.726 268.331C115.138 268.234 114.832 267.537 115.043 266.776Z" fill="#F29077"/>
<path d="M122.905 254.144L121.085 253.013C121.456 252.312 122.165 251.996 122.667 252.309C123.17 252.621 123.276 253.443 122.905 254.144Z" fill="#263238"/>
<path d="M122.508 257.451C122.508 258.069 122.09 258.681 121.575 258.817C121.06 258.953 120.642 258.563 120.642 257.945C120.642 257.327 121.06 256.715 121.575 256.579C122.09 256.442 122.508 256.833 122.508 257.451Z" fill="#263238"/>
<path d="M117.494 257.505L117.603 264.009L120.947 262.263L117.494 257.505Z" fill="#F29077"/>
<path d="M88.1553 322.886C90.1143 295.997 94.0973 286.36 100.646 283.529C102.909 285.214 103.454 293.118 101.088 299.122C101.088 299.122 96.0013 317.047 95.7133 323.14C95.4603 328.493 96.0943 335.883 96.7543 340.092C96.8713 340.838 97.2493 341.427 97.7833 341.774C99.2183 342.705 99.1253 344.061 100.15 345.343C100.952 346.347 101.701 346.521 101.547 346.897C101.349 347.38 100.628 348.216 99.5523 347.966C99.0103 347.84 98.6333 347.577 97.7943 347.017C97.7943 347.017 98.2673 348.916 99.6423 351.016C101.506 353.862 101.417 355.78 97.0443 356.426C94.3043 356.831 92.3103 355.131 90.9313 348.265C90.5343 346.287 89.5993 342.728 89.2113 340.165C88.0953 332.804 87.8403 327.214 88.1553 322.886Z" fill="#FFBDA7"/>
<path d="M102.508 282.209C102.508 282.209 97.7364 283.879 95.3274 287.785C92.9184 291.691 90.6193 297.981 89.0063 309.142C89.0063 309.142 92.0254 313.269 99.9014 309.839C99.9014 309.839 103.327 295.597 103.633 289.968C103.967 283.829 102.508 282.209 102.508 282.209Z" fill="#455A64"/>
<path d="M110.281 260.883C110.341 259.258 111.729 257.64 113.337 257.125L113.487 257.077C115.094 256.562 116.605 257.253 116.832 258.785C117.089 260.516 115.742 262.476 113.967 263.044L113.496 263.195C111.719 263.764 110.213 262.718 110.281 260.883ZM113.203 257.684C111.637 258.185 110.472 259.989 110.875 261.486C111.173 262.595 112.339 263.05 113.563 262.658L113.844 262.568C115.068 262.176 116.148 261.003 116.321 259.743C116.555 258.042 115.24 257.032 113.675 257.534L113.203 257.684Z" fill="#263238"/>
<path d="M119.051 258.06C119.111 256.435 120.499 254.817 122.106 254.302L122.256 254.254C123.863 253.739 125.374 254.43 125.601 255.962C125.858 257.693 124.511 259.653 122.736 260.221L122.265 260.372C120.489 260.942 118.983 259.896 119.051 258.06ZM121.973 254.862C120.407 255.363 119.242 257.167 119.645 258.664C119.943 259.773 121.109 260.228 122.333 259.836L122.614 259.746C123.838 259.354 124.918 258.181 125.091 256.921C125.325 255.22 124.01 254.21 122.445 254.712L121.973 254.862Z" fill="#263238"/>
<path d="M116.509 258.231C116.824 257.842 117.301 257.5 117.822 257.307C118.421 257.084 118.961 257.11 119.257 257.38L119.651 256.942C119.24 256.566 118.555 256.516 117.769 256.809C117.134 257.045 116.561 257.455 116.164 257.94C116.016 258.121 116.404 258.361 116.509 258.231Z" fill="#263238"/>
<path d="M104.689 262.839L110.558 260.962L110.531 260.455L104.36 262.428C104.483 262.557 104.6 262.688 104.689 262.839Z" fill="#263238"/>
</g>
<path d="M137.118 297.946L137.058 295.021L133.581 293.038L133.578 293.037C133.294 292.874 132.902 292.898 132.469 293.148L83.9861 321.139C83.1181 321.64 82.4141 322.86 82.4141 323.862V338.303C82.4141 338.794 82.5851 339.139 82.8591 339.308V339.312L82.8741 339.32L82.8781 339.322L86.3591 341.308L86.3661 337.842L132.47 311.271C133.339 310.77 134.043 309.552 134.043 308.549V297.945H137.118V297.946Z" fill="#E0E0E0"/>
<path d="M137.058 295.021L133.581 293.038L133.578 293.037C133.294 292.874 132.902 292.898 132.469 293.148L83.9862 321.139C83.6072 321.358 83.2632 321.718 82.9922 322.133L87.9212 324.979L134.042 298.931L137.058 295.021Z" fill="#FAFAFA"/>
<path d="M87.4602 323.121L135.943 295.13C136.811 294.629 137.515 295.035 137.515 296.038V310.532C137.515 311.535 136.811 312.754 135.942 313.254L87.4612 341.195C86.5922 341.696 85.8882 341.289 85.8882 340.286V325.845C85.8882 324.842 86.5922 323.622 87.4602 323.121Z" fill="#F0F0F0"/>
<path d="M92.0758 324.47L92.9578 326.344C93.0138 326.462 93.1208 326.504 93.2458 326.457L95.2178 325.7C95.5308 325.58 95.6558 326.021 95.4298 326.446L94.0028 329.125C93.9128 329.294 93.8718 329.486 93.8928 329.639L94.2298 332.064C94.2828 332.449 93.9558 332.955 93.6758 332.921L91.9118 332.703C91.8008 332.689 91.6678 332.766 91.5568 332.908L89.7928 335.163C89.5128 335.521 89.1848 335.393 89.2388 334.946L89.5758 332.132C89.5968 331.955 89.5558 331.81 89.4658 331.745L88.0388 330.714C87.8118 330.55 87.9368 329.965 88.2508 329.723L90.2228 328.202C90.3468 328.106 90.4548 327.94 90.5108 327.757L91.3928 324.865C91.5308 324.406 91.9358 324.172 92.0758 324.47Z" fill="url(#paint28_linear_404_4756)"/>
<path d="M102.06 318.753L102.942 320.627C102.998 320.745 103.105 320.787 103.23 320.74L105.202 319.983C105.515 319.863 105.64 320.304 105.414 320.729L103.987 323.408C103.897 323.577 103.856 323.769 103.877 323.922L104.214 326.347C104.268 326.732 103.94 327.239 103.66 327.204L101.896 326.986C101.785 326.972 101.652 327.049 101.541 327.191L99.7767 329.446C99.4967 329.804 99.1687 329.676 99.2227 329.229L99.5597 326.415C99.5807 326.237 99.5397 326.093 99.4497 326.028L98.0227 324.997C97.7957 324.833 97.9207 324.248 98.2347 324.006L100.207 322.485C100.331 322.389 100.439 322.223 100.495 322.041L101.377 319.149C101.515 318.689 101.92 318.456 102.06 318.753Z" fill="url(#paint29_linear_404_4756)"/>
<path d="M112.044 313.037L112.926 314.911C112.982 315.029 113.089 315.071 113.214 315.024L115.186 314.267C115.499 314.147 115.624 314.588 115.398 315.014L113.971 317.693C113.881 317.862 113.84 318.054 113.861 318.207L114.198 320.632C114.252 321.017 113.924 321.523 113.644 321.489L111.88 321.271C111.769 321.257 111.636 321.334 111.525 321.476L109.761 323.731C109.481 324.089 109.153 323.961 109.207 323.514L109.544 320.7C109.565 320.523 109.524 320.378 109.434 320.313L108.007 319.282C107.78 319.118 107.905 318.533 108.219 318.291L110.191 316.77C110.315 316.674 110.423 316.508 110.479 316.325L111.361 313.433C111.499 312.973 111.904 312.739 112.044 313.037Z" fill="url(#paint30_linear_404_4756)"/>
<path d="M122.029 307.32L122.911 309.194C122.967 309.312 123.074 309.354 123.199 309.306L125.171 308.549C125.484 308.429 125.609 308.87 125.383 309.295L123.956 311.974C123.866 312.143 123.825 312.335 123.846 312.488L124.183 314.913C124.236 315.298 123.909 315.805 123.629 315.77L121.865 315.552C121.754 315.538 121.621 315.615 121.51 315.757L119.746 318.012C119.466 318.37 119.138 318.242 119.192 317.795L119.529 314.981C119.55 314.804 119.509 314.659 119.419 314.594L117.992 313.563C117.765 313.399 117.89 312.814 118.204 312.572L120.176 311.051C120.3 310.955 120.408 310.789 120.464 310.606L121.346 307.714C121.484 307.256 121.889 307.023 122.029 307.32Z" fill="url(#paint31_linear_404_4756)"/>
<path d="M132.013 301.604L132.895 303.478C132.951 303.596 133.058 303.638 133.183 303.591L135.155 302.834C135.468 302.714 135.593 303.155 135.367 303.58L133.94 306.259C133.85 306.428 133.809 306.62 133.83 306.773L134.167 309.198C134.221 309.583 133.893 310.09 133.613 310.055L131.849 309.837C131.738 309.823 131.605 309.9 131.494 310.042L129.73 312.297C129.45 312.655 129.122 312.527 129.176 312.08L129.513 309.266C129.534 309.089 129.493 308.944 129.403 308.879L127.976 307.848C127.749 307.684 127.874 307.099 128.188 306.857L130.16 305.336C130.284 305.24 130.392 305.074 130.448 304.891L131.33 301.999C131.468 301.54 131.873 301.306 132.013 301.604Z" fill="#E0E0E0"/>
<path d="M137.118 118.974L137.058 116.049L133.581 114.065L133.578 114.063V114.064C133.294 113.901 132.902 113.925 132.469 114.175L83.9861 142.166C83.1181 142.667 82.4141 143.887 82.4141 144.889V206.55C82.4141 207.041 82.5851 207.386 82.8591 207.555V207.559L82.8741 207.567L82.8781 207.569L86.3591 209.555L86.3661 206.089L132.47 179.519C133.339 179.018 134.043 177.8 134.043 176.797V118.973H137.118V118.974Z" fill="#E0E0E0"/>
<path d="M137.058 116.049L133.581 114.065L133.578 114.063V114.064C133.294 113.901 132.902 113.925 132.469 114.175L83.9862 142.166C83.6072 142.385 83.2632 142.745 82.9922 143.16L87.9212 146.006L134.042 119.958L137.058 116.049Z" fill="#FAFAFA"/>
<path d="M87.4602 144.149L135.943 116.158C136.811 115.657 137.515 116.063 137.515 117.066V178.78C137.515 179.783 136.811 181.002 135.942 181.502L87.4612 209.443C86.5922 209.944 85.8882 209.537 85.8882 208.534V146.873C85.8882 145.87 86.5922 144.65 87.4602 144.149Z" fill="#F0F0F0"/>
<mask id="mask5_404_4756" style="mask-type:luminance" maskUnits="userSpaceOnUse" x="85" y="115" width="53" height="95">
<path d="M87.4602 144.149L135.943 116.158C136.811 115.657 137.515 116.063 137.515 117.066V178.78C137.515 179.783 136.811 181.002 135.942 181.502L87.4612 209.443C86.5922 209.944 85.8882 209.537 85.8882 208.534V146.873C85.8882 145.87 86.5922 144.65 87.4602 144.149Z" fill="white"/>
</mask>
<g mask="url(#mask5_404_4756)">
<path d="M127.494 180.705L101.133 188.008C101.133 188.008 101.159 167.976 101.133 160.968C101.102 152.571 106.978 144.154 114.257 142.167C121.536 140.181 127.462 145.378 127.493 153.775C127.52 160.783 127.494 180.705 127.494 180.705Z" fill="#263238"/>
<path d="M103.367 151.892L99.959 149.451C100.612 148.771 101.905 148.766 102.847 149.44C103.788 150.114 104.02 151.212 103.367 151.892Z" fill="#263238"/>
<path d="M103.617 151.246L102.275 147.275C103.203 147.104 104.255 147.855 104.626 148.952C104.996 150.049 104.544 151.076 103.617 151.246Z" fill="#263238"/>
<path d="M125.058 207.783C119.616 183.921 113.393 179.71 119.207 174.74C125.187 172.464 128.268 175.716 129.31 182.709C129.82 186.128 130.926 200.434 132.316 205.781C133.537 210.478 135.178 216.297 137.003 219.657C137.326 220.252 137.869 220.612 138.503 220.703C140.204 220.947 140.706 221.904 142.091 222.609C143.176 223.16 143.977 223.021 143.926 223.403C143.86 223.894 143.365 224.892 142.212 225.095C141.632 225.197 141.179 225.117 140.18 224.961C140.18 224.961 141.179 226.409 143.144 227.681C145.806 229.404 146.245 231.086 142.02 233.336C139.372 234.746 136.896 234.057 133.614 228.693C132.669 227.147 131.184 224.704 130.306 222.472C128.021 216.662 125.934 211.623 125.058 207.783Z" fill="#995153"/>
<path d="M109.51 177.619C103.597 179.673 103.182 183.082 101.702 187.085C100.576 190.132 100.563 193.32 101.423 195.961L105.544 208.622C105.544 208.622 102.86 214.542 101.375 220.212C111.716 224.106 124.629 217.142 127.738 211.446C127.87 210.379 127.07 202.529 126.578 197.392C128.399 191.628 128.88 188.155 128.112 184.874C126.686 178.783 121.148 173.96 118.698 174.846L109.51 177.619Z" fill="url(#paint32_linear_404_4756)"/>
<path opacity="0.1" d="M112.155 218.615C108.758 218.597 106.603 215.206 107.501 211.071C107.535 210.914 107.57 210.778 107.606 210.667C108.271 208.643 109.7 208.503 109.7 208.503C108.36 207.836 107.728 206.248 107.414 204.511L105.857 196.457C105.857 196.457 105.577 194.625 106.176 192.187L102.02 187.75C102.02 187.75 101.722 188.07 101.252 188.572C100.604 191.15 100.701 193.748 101.422 195.962L105.543 208.623C105.543 208.623 102.998 214.063 101.374 220.213C108.995 223.083 118.008 220.054 123.47 215.983C119.156 217.911 115.159 218.632 112.155 218.615Z" fill="black"/>
<path d="M122.538 146.762C123.934 147.331 125.669 150.901 125.531 159.415C125.413 166.631 123.404 168.954 122.393 169.741C121.382 170.528 119.429 170.75 117.528 170.903L117.636 175.237C117.636 175.237 120.837 177.404 120.679 179.424C120.521 181.444 116.243 183.505 113.78 182.245C111.636 181.148 109.79 179.444 109.349 179.022C109.283 178.958 109.249 178.864 109.249 178.752L109.242 167.875C109.242 167.875 108.129 169.432 106.228 168.038C104.658 166.887 104.122 164.371 105.335 162.611C106.549 160.851 108.803 160.625 109.674 162.424C109.674 162.424 112.702 161.725 116.725 158.07C120.748 154.416 122.281 149.618 122.538 146.762Z" fill="#995153"/>
<path d="M118.446 159.508C118.471 160.019 118.141 160.548 117.709 160.689C117.277 160.83 116.908 160.531 116.883 160.019C116.859 159.508 117.188 158.979 117.62 158.838C118.052 158.697 118.422 158.997 118.446 159.508Z" fill="#263238"/>
<path d="M118.677 165.534L120.497 165.707C120.348 166.348 119.821 166.829 119.318 166.781C118.816 166.734 118.529 166.175 118.677 165.534Z" fill="#733B3C"/>
<path d="M124.85 154.986L123.263 154.152C123.55 153.552 124.138 153.252 124.576 153.482C125.015 153.713 125.137 154.386 124.85 154.986Z" fill="#263238"/>
<path d="M124.493 157.204C124.518 157.715 124.188 158.244 123.756 158.385C123.324 158.526 122.955 158.227 122.931 157.716C122.906 157.205 123.236 156.676 123.668 156.535C124.099 156.394 124.469 156.693 124.493 157.204Z" fill="#263238"/>
<path d="M120.969 157.199L120.944 163.093L123.419 161.531L120.969 157.199Z" fill="#733B3C"/>
<path d="M117.396 170.904C115.394 171.147 111.273 170.906 110.625 169.204C110.625 169.204 110.843 170.325 112.077 171.206C113.311 172.086 117.432 172.349 117.432 172.349L117.396 170.904Z" fill="#733B3C"/>
<path d="M90.9231 216.901C95.5211 193.968 98.4211 184.083 103.464 180.592C104.946 179.566 106.875 178.9 106.875 178.9C107.567 179.162 107.637 180.675 107.772 181.648C108.25 185.087 107.384 190.607 105.152 194.777C105.152 194.777 98.4431 212.918 97.3731 219.015C96.4361 224.35 95.3761 231.026 95.4341 235.397C95.4451 236.182 95.7101 236.875 96.1741 237.33C97.4051 238.537 97.4091 239.772 98.2041 241.258C98.8261 242.419 99.5051 242.733 99.3111 243.084C99.0621 243.535 98.2751 244.246 97.2971 243.795C96.8051 243.568 96.4851 243.233 95.7711 242.513C95.7711 242.513 95.9651 244.517 96.9811 246.89C98.3581 250.107 98.0231 252.026 93.8311 251.872C91.2041 251.776 89.5551 249.691 89.1621 242.507C89.0491 240.437 88.8771 237.171 89.0931 234.458C89.6551 227.395 90.0591 221.211 90.9231 216.901Z" fill="#995153"/>
</g>
<path d="M137.118 192.248L137.058 189.323L133.581 187.34L133.578 187.338C133.294 187.175 132.902 187.2 132.469 187.45L83.9861 215.441C83.1181 215.942 82.4141 217.162 82.4141 218.165V232.606C82.4141 233.097 82.5851 233.442 82.8591 233.611V233.615L82.8741 233.623C82.8751 233.624 82.8771 233.624 82.8781 233.625L86.3591 235.611L86.3661 232.145L132.47 205.574C133.339 205.073 134.043 203.855 134.043 202.852V192.248H137.118Z" fill="#E0E0E0"/>
<path d="M137.058 189.323L133.581 187.34L133.578 187.338C133.294 187.175 132.902 187.2 132.469 187.45L83.9862 215.441C83.6072 215.66 83.2632 216.02 82.9922 216.435L87.9212 219.281L134.042 193.233L137.058 189.323Z" fill="#FAFAFA"/>
<path d="M87.4602 217.423L135.943 189.432C136.811 188.931 137.515 189.337 137.515 190.34V204.834C137.515 205.837 136.811 207.056 135.942 207.556L87.4612 235.497C86.5922 235.998 85.8882 235.591 85.8882 234.588V220.147C85.8882 219.143 86.5922 217.924 87.4602 217.423Z" fill="#F0F0F0"/>
<path d="M92.0758 218.771L92.9578 220.645C93.0138 220.763 93.1208 220.805 93.2458 220.758L95.2178 220.001C95.5308 219.881 95.6558 220.322 95.4298 220.747L94.0028 223.426C93.9128 223.595 93.8718 223.787 93.8928 223.94L94.2298 226.365C94.2828 226.75 93.9558 227.256 93.6758 227.222L91.9118 227.004C91.8008 226.99 91.6678 227.067 91.5568 227.209L89.7928 229.464C89.5128 229.822 89.1848 229.694 89.2388 229.247L89.5758 226.433C89.5968 226.255 89.5558 226.111 89.4658 226.046L88.0388 225.015C87.8118 224.851 87.9368 224.266 88.2508 224.024L90.2228 222.503C90.3468 222.407 90.4548 222.241 90.5108 222.058L91.3928 219.166C91.5308 218.707 91.9358 218.474 92.0758 218.771Z" fill="url(#paint33_linear_404_4756)"/>
<path d="M102.06 213.055L102.942 214.929C102.998 215.047 103.105 215.089 103.23 215.042L105.202 214.285C105.515 214.165 105.64 214.606 105.414 215.031L103.987 217.71C103.897 217.879 103.856 218.071 103.877 218.224L104.214 220.649C104.268 221.034 103.94 221.541 103.66 221.506L101.896 221.288C101.785 221.274 101.652 221.351 101.541 221.493L99.7767 223.748C99.4967 224.106 99.1687 223.978 99.2227 223.531L99.5597 220.717C99.5807 220.539 99.5397 220.395 99.4497 220.33L98.0227 219.299C97.7957 219.135 97.9207 218.55 98.2347 218.308L100.207 216.787C100.331 216.691 100.439 216.525 100.495 216.342L101.377 213.45C101.515 212.991 101.92 212.757 102.06 213.055Z" fill="url(#paint34_linear_404_4756)"/>
<path d="M112.044 207.338L112.926 209.212C112.982 209.33 113.089 209.372 113.214 209.325L115.186 208.568C115.499 208.448 115.624 208.889 115.398 209.315L113.971 211.994C113.881 212.163 113.84 212.355 113.861 212.508L114.198 214.933C114.252 215.318 113.924 215.824 113.644 215.79L111.88 215.572C111.769 215.558 111.636 215.635 111.525 215.777L109.761 218.032C109.481 218.39 109.153 218.262 109.207 217.815L109.544 215.001C109.565 214.824 109.524 214.679 109.434 214.614L108.007 213.583C107.78 213.419 107.905 212.834 108.219 212.592L110.191 211.071C110.315 210.975 110.423 210.809 110.479 210.626L111.361 207.734C111.499 207.274 111.904 207.041 112.044 207.338Z" fill="url(#paint35_linear_404_4756)"/>
<path d="M122.029 201.622L122.911 203.496C122.967 203.614 123.074 203.656 123.199 203.609L125.171 202.852C125.484 202.732 125.609 203.173 125.383 203.598L123.956 206.277C123.866 206.446 123.825 206.638 123.846 206.791L124.183 209.216C124.236 209.601 123.909 210.108 123.629 210.073L121.865 209.855C121.754 209.841 121.621 209.918 121.51 210.06L119.746 212.315C119.466 212.673 119.138 212.545 119.192 212.098L119.529 209.284C119.55 209.107 119.509 208.962 119.419 208.897L117.992 207.866C117.765 207.702 117.89 207.117 118.204 206.875L120.176 205.354C120.3 205.258 120.408 205.092 120.464 204.909L121.346 202.017C121.484 201.558 121.889 201.324 122.029 201.622Z" fill="url(#paint36_linear_404_4756)"/>
<path d="M132.013 195.905L132.895 197.779C132.951 197.897 133.058 197.939 133.183 197.892L135.155 197.135C135.468 197.015 135.593 197.456 135.367 197.882L133.94 200.561C133.85 200.73 133.809 200.922 133.83 201.075L134.167 203.5C134.221 203.885 133.893 204.391 133.613 204.357L131.849 204.139C131.738 204.125 131.605 204.202 131.494 204.344L129.73 206.599C129.45 206.957 129.122 206.829 129.176 206.382L129.513 203.568C129.534 203.391 129.493 203.246 129.403 203.181L127.976 202.15C127.749 201.986 127.874 201.401 128.188 201.159L130.16 199.638C130.284 199.542 130.392 199.376 130.448 199.193L131.33 196.301C131.468 195.841 131.873 195.608 132.013 195.905Z" fill="url(#paint37_linear_404_4756)"/>
<path d="M404.992 352.633C405.646 352.898 405.784 354.158 405.828 356.658C405.861 358.55 406.191 361.858 403.963 362.467C401.735 363.076 398.499 362.666 397.12 360.853C395.399 358.59 394.246 356.606 391.78 353.836C389.641 351.433 387.319 349.183 386.508 345.863C385.776 342.862 386.47 341.584 388.525 340.762C391.35 339.633 395.658 343.628 397.837 344.291C399.714 344.86 404.338 352.369 404.992 352.633Z" fill="#263238"/>
<path d="M405.044 350.321L404.975 353.388C404.975 353.388 401.731 355.766 397.221 353.423C397.093 353.125 396.515 349.018 396.515 349.018L405.044 350.321Z" fill="#FFA8A7"/>
<path d="M379.758 369.747C379.758 369.747 380.578 372.434 380.999 374.777C381.334 376.639 381.804 379.751 381.124 381.131C380.443 382.511 377.89 383.354 373.965 383.235C371.422 383.158 367.42 384.796 364.673 386.249C361.835 387.75 355.993 388.241 353.036 387.826C349.552 387.337 345.978 385.23 345.446 383.771C344.914 382.312 345.698 380.826 354.009 377.504C354.085 377.474 365.537 374.033 369.62 369.726L379.758 369.747Z" fill="#263238"/>
<path d="M379.833 366.432C379.833 366.432 379.77 368.707 379.752 370.008C379.734 371.309 378.154 373.212 374.182 372.981C371.392 372.818 369.459 372.023 369.622 369.726L369.697 366.411L379.833 366.432Z" fill="#FFA8A7"/>
<path d="M407.955 309.669C406.777 299.617 404.693 293.616 404.693 293.616C404.693 293.616 406.098 279.861 406.918 266.807C407.803 252.708 407.605 234.955 407.953 231.441C407.953 231.441 362.623 221.201 361.443 237.497C360.263 253.792 361.938 295.378 362.315 302.557C362.692 309.736 363.788 316.102 365.007 327.751C366.21 339.248 369.696 366.412 369.696 366.412C374.835 369.341 379.833 366.433 379.833 366.433C379.833 366.433 383.772 333.886 383.622 325.609C383.439 315.502 380.893 307.489 380.893 307.489C380.893 307.489 382.06 294.057 383.086 282.374C384.112 270.691 385.046 265.089 385.337 260.003L386.328 259.539C386.328 259.539 386.872 279.747 387.249 286.926C387.626 294.105 388.611 301.002 390.385 314.36C391.924 325.948 396.73 350.502 396.73 350.502C401.869 353.432 405.044 350.321 405.044 350.321C405.044 350.321 409.133 319.72 407.955 309.669Z" fill="#37474F"/>
<path d="M385.337 260.002C385.337 260.002 396.506 254.807 402.146 250.022C402.146 250.022 396.849 257.14 390.038 260.195C390.038 260.195 387.076 285.216 387.1 284.719L386.272 259.986L385.337 260.002Z" fill="#263238"/>
<path d="M377.595 166.999L379.955 181.891L393.374 181.214L391.808 163.795L377.595 166.999Z" fill="#FFA8A7"/>
<path d="M396.153 172.718C396.153 172.718 403.503 170.116 407.493 176.793C411.483 183.47 408.169 195.183 408.169 195.183L396.153 172.718Z" fill="url(#paint38_linear_404_4756)"/>
<path d="M407.546 180.449C406.31 176.387 401.294 171.883 396.153 172.718C394.959 172.912 393.795 173.109 392.663 173.308C392.046 175.819 385.627 177.758 379.054 176.21C377.073 176.73 375.257 177.264 373.608 177.812C368.884 179.38 364.523 183.335 363.787 198.743C363.787 198.743 361.407 234.649 361.223 241.599C372.887 246.522 385.131 246.653 391.93 245.328C406.084 242.568 407.914 236.764 407.914 236.764C407.914 236.764 408.678 210.923 408.507 199.751C408.362 190.259 408.395 183.239 407.546 180.449Z" fill="#E6E6E6"/>
<path d="M335.12 155.917L307.17 170.503L321.058 208.476L347.141 193.864L335.12 155.917Z" fill="url(#paint39_linear_404_4756)"/>
<path d="M333.837 159.634L310.389 171.871L322.68 204.517L344.562 192.259L333.837 159.634Z" fill="#F5F5F5"/>
<path opacity="0.15" d="M328.89 163.157C328.89 163.157 328.687 162.637 328.436 161.996C328.185 161.355 326.234 161.737 324.077 162.85L319.948 164.982C317.792 166.095 316.246 167.518 316.497 168.159L316.951 169.32L328.89 163.157Z" fill="black"/>
<path d="M328.436 158.51C328.281 158.109 327.432 158.175 326.539 158.657L324.922 159.53C324.922 159.53 323.926 157.022 320.207 158.758C316.488 160.494 317.338 163.402 317.338 163.402C317.338 163.402 316.57 163.825 315.622 164.348C314.674 164.87 313.999 165.624 314.114 166.032L314.323 166.77L328.721 159.258C328.721 159.256 328.591 158.911 328.436 158.51Z" fill="#37474F"/>
<path d="M326.882 160.196C325.543 160.854 325.016 161.172 325.401 162.161C325.841 163.29 326.251 164.101 326.251 164.101L319.883 167.432C319.883 167.432 319.353 165.996 319.12 165.442C318.888 164.888 318.422 164.623 317.409 165.153L317.031 164.754L327.076 159.634L326.882 160.196Z" fill="#263238"/>
<path d="M329.163 163.217C329.163 163.217 328.96 162.697 328.709 162.056C328.458 161.415 326.507 161.797 324.35 162.911L320.221 165.043C318.064 166.156 316.519 167.579 316.77 168.22L317.224 169.381L329.163 163.217Z" fill="#37474F"/>
<path d="M363.078 209.623C363.078 209.623 370.001 201.231 371.802 195.069C371.802 195.069 370.506 204.193 362.884 212.661L363.078 209.623Z" fill="#E0E0E0"/>
<path d="M372.826 178.131C367.479 179.736 364.221 180.026 358.313 189.115C352.405 198.204 339.031 215.239 337.749 217.406C335.966 220.42 335.629 225.003 337.168 227.771C338.605 230.356 342.061 228.833 347.924 223.689C353.594 218.714 365.556 205.035 365.556 205.035C365.556 205.035 371.413 192.212 372.826 178.131Z" fill="#FFA8A7"/>
<path d="M372.826 178.131C372.826 178.131 368.058 179.129 365.095 180.579C364.183 181.025 360.952 181.857 358.508 185.126C353.707 191.545 346.672 204.517 346.672 204.517C346.672 204.517 348.28 212.158 358.62 215.126C358.62 215.126 368.609 203.085 369.975 200.084C372.303 194.965 374.502 186.164 372.826 178.131Z" fill="url(#paint40_linear_404_4756)"/>
<path d="M338.969 229.045C334.023 228.445 323.344 213.487 320.059 208.367C316.462 202.761 313.111 200.067 310.051 197.806C304.815 193.938 305.577 187.996 307.862 182.549C308.653 180.663 311.335 181.89 311.335 181.89L312.28 184.475L313.917 188.951C315.026 189.98 315.657 190.316 315.731 190.009C315.87 189.432 314.916 187.024 314.939 184.516C314.967 181.498 317.08 183.482 317.712 184.54C318.343 185.598 319.081 187.32 319.943 189.527C320.998 192.228 320.562 194.963 321.845 196.804C323.129 198.645 340.364 215.159 340.364 215.159L338.969 229.045Z" fill="#FFA8A7"/>
<path d="M367.665 148.727C367.665 148.727 364.146 154.067 364.547 154.591C364.948 155.116 367.538 155.589 367.538 155.589L367.665 148.727Z" fill="#F28F8F"/>
<path d="M369.311 152.158C366.999 152.158 365.118 150.277 365.118 147.964C365.118 145.652 366.999 143.771 369.311 143.771C371.623 143.771 373.504 145.652 373.504 147.964C373.504 150.277 371.623 152.158 369.311 152.158ZM369.311 144.704C367.513 144.704 366.05 146.166 366.05 147.965C366.05 149.763 367.512 151.226 369.311 151.226C371.109 151.226 372.571 149.763 372.571 147.965C372.572 146.166 371.11 144.704 369.311 144.704Z" fill="#263238"/>
<path d="M377.436 133.955C370.315 135.457 368.258 138.588 367.588 149.901C366.887 161.722 368.094 165.438 369.646 167.029C370.695 168.103 376.52 168.297 379.459 167.487C383.137 166.473 391.449 163.527 395.343 157.581C399.922 150.585 401.125 141.104 396.222 137.215C389.323 131.741 380.334 133.343 377.436 133.955Z" fill="#FFA8A7"/>
<path d="M365.51 147.089L378.172 148.727L377.662 149.617L365.51 148.04V147.089Z" fill="#263238"/>
<path d="M366.802 137.652C366.872 137.723 366.943 137.793 367.015 137.862C368.385 139.161 370.14 139.986 371.572 141.217C373.152 142.576 374.231 144.374 374.807 146.366C375.28 148.004 375.464 149.945 377.244 150.705C377.244 150.705 378.37 146.335 382.052 146.885C385.759 147.438 386.259 152.163 383.924 155.034C381.587 157.905 379.41 156.804 379.41 156.804C379.41 156.804 379.525 163.049 382.291 166.585C382.291 166.585 385.441 167.604 391.232 166.37C394.792 165.611 399.826 161.161 401.942 156.449C406.419 146.482 406.731 137.512 400.368 134.824C399.68 130.231 396.063 128.172 391.941 127.225C385.775 125.808 380.01 129.468 373.913 128.103C372.636 127.817 371.394 127.359 370.094 127.199C369.945 127.181 369.787 127.168 369.653 127.235C369.342 127.391 369.363 127.837 369.453 128.173C369.778 129.392 370.398 130.531 371.246 131.465C368.866 131.629 366.619 131.282 364.337 130.592C364.065 133.154 365 135.815 366.802 137.652Z" fill="#263238"/>
<path d="M400.479 136.363L404.741 133.851C404.047 132.674 402.531 132.283 401.354 132.976C400.177 133.669 399.785 135.186 400.479 136.363Z" fill="#263238"/>
<path d="M377.168 153.198L377.299 148.253C375.934 148.217 374.797 149.295 374.761 150.66C374.725 152.026 375.803 153.162 377.168 153.198Z" fill="#263238"/>
<defs>
<linearGradient id="paint0_linear_404_4756" x1="43.4882" y1="301.872" x2="43.4882" y2="346.022" gradientUnits="userSpaceOnUse">
<stop stop-color="#27DEBF"/>
<stop offset="1" stop-color="#112751"/>
</linearGradient>
<linearGradient id="paint1_linear_404_4756" x1="38.9643" y1="327.936" x2="38.9643" y2="375.827" gradientUnits="userSpaceOnUse">
<stop stop-color="#27DEBF"/>
<stop offset="1" stop-color="#112751"/>
</linearGradient>
<linearGradient id="paint2_linear_404_4756" x1="175.264" y1="20.424" x2="175.264" y2="362.409" gradientUnits="userSpaceOnUse">
<stop stop-color="#27DEBF"/>
<stop offset="1" stop-color="#112751"/>
</linearGradient>
<linearGradient id="paint3_linear_404_4756" x1="243.47" y1="198.824" x2="243.47" y2="259.382" gradientUnits="userSpaceOnUse">
<stop stop-color="#27DEBF"/>
<stop offset="1" stop-color="#112751"/>
</linearGradient>
<linearGradient id="paint4_linear_404_4756" x1="223.161" y1="248.47" x2="223.161" y2="259.501" gradientUnits="userSpaceOnUse">
<stop stop-color="#27DEBF"/>
<stop offset="1" stop-color="#112751"/>
</linearGradient>
<linearGradient id="paint5_linear_404_4756" x1="233.146" y1="242.753" x2="233.146" y2="253.786" gradientUnits="userSpaceOnUse">
<stop stop-color="#27DEBF"/>
<stop offset="1" stop-color="#112751"/>
</linearGradient>
<linearGradient id="paint6_linear_404_4756" x1="243.13" y1="237.036" x2="243.13" y2="248.069" gradientUnits="userSpaceOnUse">
<stop stop-color="#27DEBF"/>
<stop offset="1" stop-color="#112751"/>
</linearGradient>
<linearGradient id="paint7_linear_404_4756" x1="253.115" y1="231.32" x2="253.115" y2="242.352" gradientUnits="userSpaceOnUse">
<stop stop-color="#27DEBF"/>
<stop offset="1" stop-color="#112751"/>
</linearGradient>
<linearGradient id="paint8_linear_404_4756" x1="263.099" y1="225.604" x2="263.099" y2="236.636" gradientUnits="userSpaceOnUse">
<stop stop-color="#27DEBF"/>
<stop offset="1" stop-color="#112751"/>
</linearGradient>
<linearGradient id="paint9_linear_404_4756" x1="246.067" y1="98.8735" x2="246.067" y2="145.475" gradientUnits="userSpaceOnUse">
<stop stop-color="#27DEBF"/>
<stop offset="1" stop-color="#112751"/>
</linearGradient>
<linearGradient id="paint10_linear_404_4756" x1="249.874" y1="78.2687" x2="249.874" y2="86.7946" gradientUnits="userSpaceOnUse">
<stop stop-color="#27DEBF"/>
<stop offset="1" stop-color="#112751"/>
</linearGradient>
<linearGradient id="paint11_linear_404_4756" x1="223.161" y1="142.771" x2="223.161" y2="153.803" gradientUnits="userSpaceOnUse">
<stop stop-color="#27DEBF"/>
<stop offset="1" stop-color="#112751"/>
</linearGradient>
<linearGradient id="paint12_linear_404_4756" x1="233.146" y1="137.055" x2="233.146" y2="148.088" gradientUnits="userSpaceOnUse">
<stop stop-color="#27DEBF"/>
<stop offset="1" stop-color="#112751"/>
</linearGradient>
<linearGradient id="paint13_linear_404_4756" x1="243.13" y1="131.338" x2="243.13" y2="142.372" gradientUnits="userSpaceOnUse">
<stop stop-color="#27DEBF"/>
<stop offset="1" stop-color="#112751"/>
</linearGradient>
<linearGradient id="paint14_linear_404_4756" x1="253.115" y1="125.622" x2="253.115" y2="136.655" gradientUnits="userSpaceOnUse">
<stop stop-color="#27DEBF"/>
<stop offset="1" stop-color="#112751"/>
</linearGradient>
<linearGradient id="paint15_linear_404_4756" x1="165.529" y1="218.666" x2="165.529" y2="240.677" gradientUnits="userSpaceOnUse">
<stop stop-color="#27DEBF"/>
<stop offset="1" stop-color="#112751"/>
</linearGradient>
<linearGradient id="paint16_linear_404_4756" x1="181.779" y1="203.08" x2="181.779" y2="234.313" gradientUnits="userSpaceOnUse">
<stop stop-color="#27DEBF"/>
<stop offset="1" stop-color="#112751"/>
</linearGradient>
<linearGradient id="paint17_linear_404_4756" x1="171.007" y1="206.833" x2="171.007" y2="212.466" gradientUnits="userSpaceOnUse">
<stop stop-color="#27DEBF"/>
<stop offset="1" stop-color="#112751"/>
</linearGradient>
<linearGradient id="paint18_linear_404_4756" x1="157.478" y1="285.879" x2="157.478" y2="296.913" gradientUnits="userSpaceOnUse">
<stop stop-color="#27DEBF"/>
<stop offset="1" stop-color="#112751"/>
</linearGradient>
<linearGradient id="paint19_linear_404_4756" x1="167.461" y1="280.162" x2="167.461" y2="291.195" gradientUnits="userSpaceOnUse">
<stop stop-color="#27DEBF"/>
<stop offset="1" stop-color="#112751"/>
</linearGradient>
<linearGradient id="paint20_linear_404_4756" x1="177.446" y1="274.446" x2="177.446" y2="285.479" gradientUnits="userSpaceOnUse">
<stop stop-color="#27DEBF"/>
<stop offset="1" stop-color="#112751"/>
</linearGradient>
<linearGradient id="paint21_linear_404_4756" x1="187.431" y1="268.729" x2="187.431" y2="279.762" gradientUnits="userSpaceOnUse">
<stop stop-color="#27DEBF"/>
<stop offset="1" stop-color="#112751"/>
</linearGradient>
<linearGradient id="paint22_linear_404_4756" x1="190.765" y1="130.834" x2="190.765" y2="155.883" gradientUnits="userSpaceOnUse">
<stop stop-color="#27DEBF"/>
<stop offset="1" stop-color="#112751"/>
</linearGradient>
<linearGradient id="paint23_linear_404_4756" x1="162.088" y1="139.025" x2="162.088" y2="168.018" gradientUnits="userSpaceOnUse">
<stop stop-color="#27DEBF"/>
<stop offset="1" stop-color="#112751"/>
</linearGradient>
<linearGradient id="paint24_linear_404_4756" x1="157.478" y1="180.652" x2="157.478" y2="191.686" gradientUnits="userSpaceOnUse">
<stop stop-color="#27DEBF"/>
<stop offset="1" stop-color="#112751"/>
</linearGradient>
<linearGradient id="paint25_linear_404_4756" x1="167.461" y1="174.936" x2="167.461" y2="185.969" gradientUnits="userSpaceOnUse">
<stop stop-color="#27DEBF"/>
<stop offset="1" stop-color="#112751"/>
</linearGradient>
<linearGradient id="paint26_linear_404_4756" x1="177.446" y1="169.219" x2="177.446" y2="180.252" gradientUnits="userSpaceOnUse">
<stop stop-color="#27DEBF"/>
<stop offset="1" stop-color="#112751"/>
</linearGradient>
<linearGradient id="paint27_linear_404_4756" x1="112.042" y1="274.691" x2="112.042" y2="335.249" gradientUnits="userSpaceOnUse">
<stop stop-color="#27DEBF"/>
<stop offset="1" stop-color="#112751"/>
</linearGradient>
<linearGradient id="paint28_linear_404_4756" x1="91.734" y1="324.337" x2="91.734" y2="335.37" gradientUnits="userSpaceOnUse">
<stop stop-color="#27DEBF"/>
<stop offset="1" stop-color="#112751"/>
</linearGradient>
<linearGradient id="paint29_linear_404_4756" x1="101.718" y1="318.62" x2="101.718" y2="329.653" gradientUnits="userSpaceOnUse">
<stop stop-color="#27DEBF"/>
<stop offset="1" stop-color="#112751"/>
</linearGradient>
<linearGradient id="paint30_linear_404_4756" x1="111.702" y1="312.904" x2="111.702" y2="323.938" gradientUnits="userSpaceOnUse">
<stop stop-color="#27DEBF"/>
<stop offset="1" stop-color="#112751"/>
</linearGradient>
<linearGradient id="paint31_linear_404_4756" x1="121.687" y1="307.187" x2="121.687" y2="318.219" gradientUnits="userSpaceOnUse">
<stop stop-color="#27DEBF"/>
<stop offset="1" stop-color="#112751"/>
</linearGradient>
<linearGradient id="paint32_linear_404_4756" x1="114.638" y1="174.741" x2="114.638" y2="221.342" gradientUnits="userSpaceOnUse">
<stop stop-color="#27DEBF"/>
<stop offset="1" stop-color="#112751"/>
</linearGradient>
<linearGradient id="paint33_linear_404_4756" x1="91.734" y1="218.639" x2="91.734" y2="229.671" gradientUnits="userSpaceOnUse">
<stop stop-color="#27DEBF"/>
<stop offset="1" stop-color="#112751"/>
</linearGradient>
<linearGradient id="paint34_linear_404_4756" x1="101.718" y1="212.922" x2="101.718" y2="223.955" gradientUnits="userSpaceOnUse">
<stop stop-color="#27DEBF"/>
<stop offset="1" stop-color="#112751"/>
</linearGradient>
<linearGradient id="paint35_linear_404_4756" x1="111.702" y1="207.206" x2="111.702" y2="218.239" gradientUnits="userSpaceOnUse">
<stop stop-color="#27DEBF"/>
<stop offset="1" stop-color="#112751"/>
</linearGradient>
<linearGradient id="paint36_linear_404_4756" x1="121.687" y1="201.489" x2="121.687" y2="212.522" gradientUnits="userSpaceOnUse">
<stop stop-color="#27DEBF"/>
<stop offset="1" stop-color="#112751"/>
</linearGradient>
<linearGradient id="paint37_linear_404_4756" x1="131.671" y1="195.773" x2="131.671" y2="206.806" gradientUnits="userSpaceOnUse">
<stop stop-color="#27DEBF"/>
<stop offset="1" stop-color="#112751"/>
</linearGradient>
<linearGradient id="paint38_linear_404_4756" x1="402.807" y1="172.219" x2="402.807" y2="195.183" gradientUnits="userSpaceOnUse">
<stop stop-color="#27DEBF"/>
<stop offset="1" stop-color="#112751"/>
</linearGradient>
<linearGradient id="paint39_linear_404_4756" x1="327.155" y1="155.917" x2="327.155" y2="208.476" gradientUnits="userSpaceOnUse">
<stop stop-color="#27DEBF"/>
<stop offset="1" stop-color="#112751"/>
</linearGradient>
<linearGradient id="paint40_linear_404_4756" x1="360.044" y1="178.131" x2="360.044" y2="215.126" gradientUnits="userSpaceOnUse">
<stop stop-color="#27DEBF"/>
<stop offset="1" stop-color="#112751"/>
</linearGradient>
</defs>
</svg>
