<svg width="412" height="365" viewBox="0 0 412 365" fill="none" xmlns="http://www.w3.org/2000/svg">
<path d="M109.604 364.923C108.268 364.923 106.966 364.597 105.939 364.004L73.7 345.397C72.176 344.517 71.302 343.114 71.302 341.547C71.303 339.981 72.177 338.578 73.701 337.699L164.543 285.275L146.814 275.039C144.227 273.546 144.449 271.459 144.579 270.854C144.709 270.25 145.362 268.255 148.333 267.954L245.721 258.03C245.951 258.008 246.169 257.997 246.383 257.997C248.568 257.997 250.561 259.07 251.711 260.869C252.185 261.609 252.31 262.52 252.053 263.361L235.074 318.93C234.41 321.1 232.572 322.502 230.393 322.502C229.506 322.502 228.613 322.257 227.808 321.793L207.093 309.838L113.269 364.002C112.242 364.597 110.941 364.923 109.604 364.923Z" fill="#E0E0E0"/>
<path d="M395.013 317.68C376.47 327.761 346.407 327.761 327.864 317.68C309.321 307.602 309.321 291.259 327.864 281.179C346.407 271.101 376.47 271.101 395.013 281.179C413.556 291.259 413.556 307.602 395.013 317.68Z" fill="#E0E0E0"/>
<path d="M376.023 273.251C376.023 273.251 376.442 263.477 380.735 255.612C385.028 247.747 391.324 242.583 397.473 241.658C403.622 240.733 409.017 246.07 402.676 250.443C396.335 254.816 384.862 259.632 380.482 274.625L376.023 273.251Z" fill="url(#paint0_linear_125_2185)"/>
<path opacity="0.15" d="M376.023 273.251C376.023 273.251 376.442 263.477 380.735 255.612C385.028 247.747 391.324 242.583 397.473 241.658C403.622 240.733 409.017 246.07 402.676 250.443C396.335 254.816 384.862 259.632 380.482 274.625L376.023 273.251Z" fill="black"/>
<path d="M377.658 270.605C377.636 270.602 377.613 270.598 377.591 270.59C377.417 270.534 377.322 270.347 377.379 270.173C382.771 253.643 394.721 246.057 400.286 244.355C400.46 244.3 400.645 244.4 400.699 244.575C400.752 244.75 400.654 244.935 400.479 244.988C395.027 246.655 383.315 254.107 378.007 270.378C377.96 270.53 377.811 270.622 377.658 270.605Z" fill="white"/>
<path d="M410.865 268.452C410.364 269.836 408.949 270.638 407.624 271.283C406.307 271.923 404.863 272.621 404.216 273.942C402.913 276.609 405.603 280.041 404.186 282.648C403.591 283.741 402.387 284.38 401.18 284.686C400.178 284.948 399.144 285.019 398.12 285.178C397.624 285.203 397.131 285.201 396.648 285.167C395.221 285.061 393.683 285.103 392.44 285.918C390.484 287.206 390.039 289.822 388.942 291.893C387.626 294.372 385.114 296.111 382.385 296.68C381.478 296.866 379.787 297.15 378.818 296.696C378.742 296.661 378.679 296.627 378.617 296.587C378.61 296.586 378.604 296.579 378.599 296.572C378.461 296.437 378.287 296.264 378.211 296.169C378.193 296.154 378.182 296.133 378.171 296.111C377.717 294.808 378.208 293.383 378.135 292.009C378.131 291.922 378.127 291.841 378.116 291.76C377.947 290.168 377.79 288.585 377.641 286.996C377.36 284.073 377.12 281.14 376.934 278.207C376.82 276.302 376.444 274.234 377.123 272.384C377.876 270.349 380.091 270.149 380.793 268.155C381.074 267.36 381.195 266.521 381.464 265.717C382.273 263.361 384.507 261.551 386.985 261.254C390.843 260.784 394.539 263.675 398.386 263.117C399.382 262.968 400.337 262.595 401.311 262.343C404.406 261.535 408.094 262.172 410.045 264.702C410.858 265.759 411.318 267.196 410.865 268.452Z" fill="url(#paint1_linear_125_2185)"/>
<g opacity="0.07">
<path d="M410.865 268.452C410.364 269.836 408.949 270.638 407.624 271.283C406.307 271.923 404.863 272.621 404.216 273.942C402.913 276.609 405.603 280.041 404.186 282.648C403.591 283.741 402.387 284.38 401.18 284.686C400.192 284.942 399.152 285.12 398.12 285.178C397.624 285.203 397.131 285.201 396.648 285.167C395.221 285.061 393.683 285.103 392.44 285.918C390.484 287.206 390.039 289.822 388.942 291.893C387.626 294.372 385.114 296.111 382.385 296.68C381.478 296.866 379.787 297.15 378.818 296.696C378.742 296.661 378.679 296.627 378.617 296.587C378.61 296.586 378.604 296.579 378.599 296.572C378.542 296.539 378.487 296.5 378.439 296.454C378.348 296.371 378.272 296.276 378.211 296.169C378.193 296.154 378.182 296.133 378.171 296.111C377.569 295.051 378.155 293.204 378.135 292.009C378.131 291.922 378.127 291.841 378.116 291.76C377.947 290.168 377.79 288.585 377.641 286.996C377.36 284.073 377.12 281.14 376.934 278.207C376.82 276.302 376.444 274.234 377.123 272.384C377.876 270.349 380.091 270.149 380.793 268.155C381.074 267.36 381.195 266.521 381.464 265.717C382.273 263.361 384.507 261.551 386.985 261.254C390.843 260.784 394.539 263.675 398.386 263.117C399.382 262.968 400.337 262.595 401.311 262.343C404.406 261.535 408.094 262.172 410.045 264.702C410.858 265.759 411.318 267.196 410.865 268.452Z" fill="#263238"/>
</g>
<path d="M377.423 290.034C377.414 290.033 377.405 290.031 377.396 290.03C377.217 289.996 377.099 289.822 377.134 289.642C381.069 269.192 402.014 264.8 406.987 264.809C407.167 264.811 407.317 264.958 407.318 265.141C407.318 265.324 407.169 265.472 406.986 265.472C402.121 265.464 381.634 269.76 377.783 289.769C377.751 289.938 377.593 290.053 377.423 290.034Z" fill="white"/>
<path d="M400.205 278.206C400.14 278.199 400.077 278.172 400.024 278.126C399.967 278.076 394.199 273.139 385.345 275.086C385.167 275.123 384.989 275.013 384.95 274.834C384.911 274.655 385.024 274.479 385.202 274.439C394.397 272.418 400.4 277.576 400.46 277.628C400.598 277.749 400.611 277.958 400.491 278.095C400.417 278.179 400.309 278.217 400.205 278.206Z" fill="white"/>
<path d="M111.157 5.06071L102.29 10.1797C102.334 9.78371 102.365 9.39071 102.365 9.00571V6.43671C102.365 1.86571 99.156 0.0127103 95.197 2.29871C93.594 3.22371 92.119 4.69071 90.925 6.40671C90.277 0.658708 85.767 -1.48229 80.289 1.67971C74.366 5.09871 69.565 13.4157 69.565 20.2547V24.0977C69.565 25.8687 69.893 27.3607 70.473 28.5497L63.108 32.8017C60.912 34.0697 59.132 37.1527 59.132 39.6887C59.132 42.2247 60.912 43.2517 63.108 41.9847L111.158 14.2427C113.354 12.9747 115.134 9.89171 115.134 7.35571C115.133 4.82071 113.353 3.79271 111.157 5.06071Z" fill="#EBEBEB"/>
<path d="M147.999 27.9037L141.499 31.6567C141.531 31.3667 141.554 31.0787 141.554 30.7957V28.9127C141.554 25.5617 139.201 24.2037 136.299 25.8787C135.124 26.5577 134.042 27.6327 133.167 28.8907C132.692 24.6767 129.386 23.1067 125.37 25.4257C121.028 27.9327 117.508 34.0287 117.508 39.0427V41.8597C117.508 43.1587 117.748 44.2517 118.174 45.1237L112.775 48.2407C111.165 49.1707 109.86 51.4307 109.86 53.2897C109.86 55.1487 111.165 55.9027 112.775 54.9727L148 34.6357C149.61 33.7057 150.915 31.4457 150.915 29.5867C150.914 27.7277 149.609 26.9737 147.999 27.9037Z" fill="#EBEBEB"/>
<path d="M249.763 248.351V254.921C249.763 256.971 249.263 260.241 248.683 262.221L232.573 314.891C232.363 315.591 231.973 316.151 231.473 316.511C230.603 317.181 229.393 317.261 228.233 316.601L207.103 304.401L112.843 358.821C111.963 359.331 110.773 359.601 109.603 359.601C108.433 359.601 107.283 359.351 106.393 358.841L76.293 341.451C74.493 340.421 73.033 337.901 73.033 335.831V329.261C73.033 328.221 73.393 327.081 73.983 326.061C74.583 325.041 75.393 324.141 76.293 323.631L158.363 276.261L149.423 271.101C147.623 270.071 146.173 267.551 146.173 265.481V258.911C146.173 257.771 146.683 256.691 147.473 255.921H147.493C148.133 255.291 148.973 254.861 149.903 254.771L246.023 244.971C247.363 244.841 248.543 245.441 249.193 246.441C249.553 246.981 249.763 247.631 249.763 248.351Z" fill="url(#paint2_linear_125_2185)"/>
<path opacity="0.1" d="M109.604 346.612V359.602C108.434 359.602 107.279 359.347 106.394 358.837L76.2889 341.452C74.4889 340.417 73.0339 337.897 73.0339 335.827V329.257C73.0339 328.222 73.3939 327.082 73.9789 326.062L109.604 346.612Z" fill="black"/>
<path opacity="0.1" d="M170.545 269.23L158.365 276.265L149.425 271.105C147.625 270.07 146.17 267.55 146.17 265.48V258.91C146.17 257.77 146.68 256.69 147.475 255.925H147.49L170.545 269.23Z" fill="black"/>
<path opacity="0.1" d="M231.474 304.405V316.51C230.604 317.185 229.389 317.26 228.234 316.6L207.099 304.405V290.335L231.474 304.405Z" fill="black"/>
<path opacity="0.2" d="M207.099 290.335V304.405L112.843 358.822C111.958 359.332 110.773 359.602 109.603 359.602V346.612L207.099 290.335Z" fill="black"/>
<path opacity="0.2" d="M249.763 248.351V254.921C249.763 256.971 249.263 260.241 248.683 262.221L232.573 314.891C232.363 315.591 231.973 316.151 231.473 316.511V304.401L249.193 246.441C249.553 246.981 249.763 247.631 249.763 248.351Z" fill="black"/>
<path d="M332.92 48.3328L304.34 31.8328C303.96 26.2328 302.84 21.3028 301.09 17.0928C307.32 16.3628 312.94 17.3628 317.68 19.9228L318.31 20.2928C326.52 25.0738 331.91 34.7238 332.92 48.3328Z" fill="url(#paint3_linear_125_2185)"/>
<path opacity="0.3" d="M332.92 48.3328L304.34 31.8328C303.96 26.2328 302.84 21.3028 301.09 17.0928C307.32 16.3628 312.94 17.3628 317.68 19.9228L318.31 20.2928C326.52 25.0738 331.91 34.7238 332.92 48.3328Z" fill="black"/>
<path d="M328.746 52.6037C328.499 52.5367 328.159 52.5247 327.788 52.6947L317.088 57.5147C316.338 57.8547 315.558 57.4847 315.308 56.6947C314.888 55.3447 307.558 53.7917 306.958 52.6317L311.076 42.4167L328.746 52.6037Z" fill="#455A64"/>
<path d="M311.08 42.4517L311.079 42.4277C310.835 42.2887 310.509 42.2617 310.149 42.4237L302.251 24.1447C302.619 23.4027 302.336 22.4647 301.618 22.0507L293.879 17.5827C293.162 17.1687 292.208 17.3917 291.749 18.0817L282.862 31.4487C282.403 32.1387 281.362 32.6257 280.534 32.6037C279.528 32.5777 278.491 32.6297 277.43 32.7487V22.9747L271.492 19.5507C271.229 19.4107 270.884 19.4287 270.521 19.6387L258.5 26.5787C257.783 26.9927 257.141 27.9977 257.067 28.8227L255.863 42.1987C255.789 43.0237 255.222 44.1357 254.613 44.6967C252.274 46.8507 250.039 49.2247 247.935 51.7647C247.407 52.4027 246.355 52.7067 245.573 52.4337L237.857 49.7387C237.075 49.4657 236.105 49.8257 235.691 50.5427L226.854 65.8487C226.44 66.5657 226.613 67.5857 227.241 68.1267L233.433 73.4618C234.061 74.0028 234.322 75.0657 234.034 75.8427C232.886 78.9347 231.948 82.0577 231.251 85.1607C231.07 85.9687 230.391 87.0137 229.713 87.4907L218.731 95.2207C218.054 95.6977 217.504 96.7557 217.504 97.5837V111.464C217.504 111.892 217.669 112.201 217.931 112.356L217.928 112.359L231.846 120.392L226.77 130.627C226.402 131.369 226.685 132.307 227.403 132.721L246.324 143.681C247.041 144.095 247.995 143.872 248.454 143.182L257.052 134.39C257.092 134.789 257.263 135.071 257.512 135.211L275.138 145.383L275.608 131.584C275.608 131.584 271.881 126.773 271.956 125.948L291.166 105.029C291.947 105.304 292.916 104.946 293.331 104.228L302.168 88.9217C302.582 88.2047 302.409 87.1847 301.782 86.6437L310.291 59.5507C310.968 59.0737 311.518 58.0157 311.518 57.1877L311.08 42.4517ZM264.51 100.837C259.351 103.816 255.091 104.452 251.993 103.011C248.356 101.319 277.859 50.7367 280.956 53.4987C283.459 55.7317 284.817 59.8737 284.817 65.6637C284.818 78.6137 275.726 94.3618 264.51 100.837Z" fill="#263238"/>
<path d="M314.018 30.9347L311.628 35.7647L303.948 44.6247L294.898 39.3947L282.218 32.0647C282.478 31.8947 282.708 31.6847 282.858 31.4447L291.748 18.0847C292.208 17.4047 293.138 17.1747 293.858 17.5747L301.618 22.0547L313.388 28.8447C314.098 29.2547 314.388 30.1947 314.018 30.9347Z" fill="#455A64"/>
<path d="M230.526 86.6357C230.277 86.9787 229.998 87.2917 229.712 87.4927L218.73 95.2227C218.44 95.4267 218.185 95.7477 217.975 96.1007L236.44 106.783L251.019 98.4887L230.526 86.6357Z" fill="#455A64"/>
<path d="M237.134 49.6627C236.551 49.7167 235.983 50.0387 235.691 50.5447L226.854 65.8507C226.651 66.2017 226.593 66.6257 226.656 67.0307L246.006 78.2287L258.102 61.8637L237.134 49.6627Z" fill="#455A64"/>
<path d="M289.158 29.7547V34.1547L278.458 40.3347L257.258 28.0847C257.518 27.4647 257.988 26.8747 258.498 26.5847L270.518 19.6447C270.728 19.5247 270.938 19.4647 271.118 19.4647C271.258 19.4647 271.378 19.4947 271.488 19.5547L277.278 22.8847L277.428 22.9747L285.418 27.5947L289.158 29.7547Z" fill="#455A64"/>
<path d="M329.187 67.3888V53.5078C329.187 52.6798 328.575 52.2838 327.82 52.6238L317.121 57.4468C316.366 57.7868 315.589 57.4118 315.339 56.6218C314.717 54.6558 313.914 52.8848 312.954 51.3168C312.521 50.6108 312.423 49.4668 312.791 48.7248L319.923 34.3448C320.291 33.6028 320.008 32.6648 319.291 32.2508L311.551 27.7828C310.834 27.3688 309.88 27.5918 309.421 28.2818L300.533 41.6478C300.074 42.3378 299.034 42.8248 298.206 42.8028C296.368 42.7548 294.433 42.9448 292.419 43.3898C291.61 43.5688 290.897 43.0838 290.814 42.2588L289.641 30.5818C289.558 29.7578 288.909 29.4248 288.192 29.8398L276.171 36.7798C275.454 37.1938 274.812 38.1988 274.737 39.0238L273.533 52.3988C273.459 53.2238 272.892 54.3358 272.283 54.8968C269.944 57.0508 267.71 59.4248 265.605 61.9648C265.077 62.6028 264.026 62.9068 263.243 62.6338L255.526 59.9388C254.744 59.6658 253.774 60.0258 253.36 60.7428L244.523 76.0498C244.109 76.7668 244.282 77.7868 244.909 78.3278L251.101 83.6628C251.729 84.2038 251.99 85.2668 251.702 86.0438C250.554 89.1358 249.616 92.2578 248.92 95.3608C248.739 96.1688 248.06 97.2138 247.382 97.6908L236.401 105.421C235.724 105.898 235.174 106.956 235.174 107.784V121.664C235.174 122.492 235.786 122.888 236.541 122.547L247.24 117.724C247.995 117.384 248.772 117.759 249.022 118.549C249.644 120.515 250.446 122.286 251.407 123.854C251.84 124.56 251.937 125.705 251.569 126.447L244.438 140.826C244.07 141.568 244.353 142.506 245.071 142.92L252.81 147.388C253.527 147.802 254.481 147.579 254.94 146.889L263.828 133.524C264.287 132.834 265.328 132.347 266.156 132.368C267.995 132.416 269.929 132.225 271.943 131.78C272.752 131.602 273.465 132.087 273.548 132.911L274.721 144.589C274.804 145.413 275.453 145.746 276.17 145.331L288.191 138.39C288.908 137.976 289.55 136.971 289.625 136.146L290.829 122.771C290.903 121.946 291.47 120.835 292.079 120.273C294.418 118.12 296.652 115.746 298.755 113.207C299.283 112.569 300.335 112.264 301.117 112.537L308.833 115.231C309.615 115.504 310.585 115.144 310.999 114.426L319.836 99.1198C320.25 98.4028 320.077 97.3828 319.45 96.8418L313.258 91.5068C312.63 90.9658 312.369 89.9028 312.657 89.1258C313.805 86.0328 314.744 82.9118 315.44 79.8088C315.621 79.0008 316.3 77.9558 316.978 77.4788L327.959 69.7488C328.637 69.2758 329.187 68.2168 329.187 67.3888ZM282.181 111.036C270.965 117.512 261.872 112.262 261.872 99.3118C261.872 86.3618 270.965 70.6138 282.181 64.1378C293.396 57.6628 302.488 62.9118 302.488 75.8628C302.489 88.8128 293.397 104.561 282.181 111.036Z" fill="#37474F"/>
<path d="M292.382 72.8387L287.041 69.7577C287.039 69.7567 287.035 69.7547 287.035 69.7547L286.986 69.7267L286.981 69.7347C284.61 68.3957 281.356 68.5977 277.757 70.6747C270.51 74.8597 264.633 85.0367 264.633 93.4058C264.633 97.5838 266.098 100.52 268.465 101.894V101.896L268.476 101.902L268.477 101.903L273.337 104.678L274.498 102.736C275.697 102.461 276.945 102.032 278.262 101.272C285.509 97.0867 291.385 86.9097 291.387 78.5407C291.387 77.2977 291.22 76.2037 290.975 75.1887L292.382 72.8387Z" fill="url(#paint4_linear_125_2185)"/>
<path opacity="0.1" d="M264.635 93.4047C264.635 97.5837 266.097 100.519 268.463 101.892V101.897L268.478 101.902L273.339 104.678L274.5 102.737C275.696 102.46 276.945 102.031 278.264 101.27C282.142 99.0317 285.629 95.0697 288.03 90.5937L268.996 79.6067C266.32 83.9247 264.635 88.9237 264.635 93.4047Z" fill="black"/>
<path opacity="0.4" d="M292.383 72.8387L287.043 69.7557C287.038 69.7557 287.038 69.7557 287.038 69.7557L286.984 69.7257L286.979 69.7357C284.608 68.3967 281.357 68.5947 277.756 70.6747C274.387 72.6157 271.314 75.8567 268.997 79.6067L288.031 90.5937C290.121 86.7057 291.39 82.4277 291.39 78.5397C291.39 77.2947 291.222 76.2027 290.975 75.1857L292.383 72.8387Z" fill="white"/>
<path d="M282.832 73.5857C275.584 77.7707 269.707 87.9477 269.707 96.3167C269.707 104.686 275.583 108.079 282.831 103.894C290.079 99.7087 295.955 89.5317 295.956 81.1627C295.956 72.7937 290.08 69.4007 282.832 73.5857Z" fill="url(#paint5_linear_125_2185)"/>
<path d="M285.844 79.5977C285.94 79.5427 286.022 79.5487 286.091 79.6157C286.16 79.6817 286.196 79.7887 286.196 79.9357V82.0557C286.196 82.2017 286.166 82.3537 286.104 82.5077C286.044 82.6627 285.988 82.7957 285.936 82.9057L284.364 86.2527C285.04 86.1287 285.589 86.2617 286.014 86.6507C286.438 87.0387 286.65 87.7537 286.65 88.7937C286.65 90.3007 286.312 91.6287 285.636 92.7777C284.961 93.9277 284.017 94.8537 282.805 95.5527C282.182 95.9127 281.629 96.1177 281.149 96.1687C280.669 96.2197 280.263 96.1527 279.934 95.9697C279.605 95.7867 279.352 95.5087 279.174 95.1387C278.996 94.7677 278.903 94.3377 278.895 93.8497C278.895 93.7297 278.923 93.6097 278.979 93.4907C279.036 93.3717 279.103 93.2897 279.181 93.2447L280.818 92.2997C281 92.1947 281.138 92.1777 281.233 92.2507C281.329 92.3227 281.434 92.3987 281.552 92.4767C281.668 92.5557 281.82 92.6047 282.006 92.6237C282.192 92.6437 282.458 92.5527 282.805 92.3527C283.22 92.1127 283.565 91.8077 283.837 91.4357C284.11 91.0647 284.247 90.6467 284.247 90.1797C284.247 89.7127 284.11 89.4517 283.837 89.3957C283.564 89.3407 283.22 89.4327 282.805 89.6727L281.727 90.2957C281.631 90.3507 281.549 90.3447 281.48 90.2777C281.411 90.2117 281.376 90.1047 281.376 89.9577V88.2367C281.376 88.0907 281.407 87.9397 281.468 87.7847C281.528 87.6297 281.589 87.4887 281.65 87.3597L283.027 84.4247L279.636 86.3817C279.54 86.4367 279.458 86.4307 279.389 86.3637C279.32 86.2977 279.286 86.1907 279.286 86.0437V83.9237C279.286 83.7777 279.32 83.6307 279.389 83.4837C279.458 83.3377 279.54 83.2357 279.636 83.1807L285.844 79.5977Z" fill="#37474F"/>
<path d="M290.33 3.80377L289.85 3.52377C280.65 -1.93623 267.85 -1.23623 253.71 6.92377C225.67 23.0938 202.94 62.4738 202.94 94.8638C202.94 127.264 180.2 166.654 152.16 182.844C145.53 186.664 139.21 188.854 133.41 189.534C135.86 195.464 139.56 199.964 144.21 202.854L144.71 203.154C153.91 208.574 166.68 207.844 180.78 199.704C208.82 183.514 231.55 144.124 231.55 111.724C231.55 79.3338 254.28 39.9538 282.33 23.7838C288.96 19.9538 295.29 17.7738 301.09 17.0938C307.32 16.3638 312.94 17.3638 317.68 19.9238L290.33 3.80377Z" fill="url(#paint6_linear_125_2185)"/>
<path d="M201.12 129.214L225.82 123.674C225.81 123.664 225.79 123.654 225.77 123.644C225.18 123.304 220.13 120.374 215.21 117.534C210.36 114.724 205.62 111.984 205.41 111.864C205.22 111.744 204.99 111.674 204.72 111.664L196.05 111.174C195.17 111.124 194.52 110.494 194.59 109.764C194.84 106.864 194.85 104.054 194.6 101.404C194.54 100.704 194.95 99.5638 195.55 98.8438L209.42 97.7138C210.01 96.9938 221.36 86.0438 221.36 86.0438C221.34 86.0338 221.32 86.0238 221.3 86.0138C220.11 85.3238 201.04 74.2738 200.92 74.2038C200.81 74.1438 200.67 74.1238 200.53 74.1238C194.66 70.7338 184.37 64.7738 184.13 64.6238C183.88 64.4738 183.53 64.3938 183.13 64.4338L173.02 65.4338C172.08 65.5338 171.09 66.2238 170.81 66.9738L165.33 81.6738C165.04 82.4338 164.05 83.3638 163.12 83.8138C162.05 84.3138 160.98 84.8838 159.9 85.5038L149.29 79.3638C148.87 79.0838 148.2 79.2638 147.65 79.8438L136.55 91.5638C135.88 92.2638 135.5 93.3538 135.69 94.0038L138.78 104.464C138.97 105.114 138.71 106.244 138.21 106.984C136.32 109.854 134.61 112.834 133.11 115.854C132.73 116.614 131.66 117.414 130.7 117.644L121.2 119.934C120.24 120.164 119.27 120.964 119.05 121.724L114.27 137.814C114.13 138.284 114.28 138.724 114.63 138.984C114.84 139.154 125.39 145.224 125.39 145.224C125.38 146.694 125.44 148.134 125.57 149.534C125.64 150.224 125.23 151.364 124.63 152.094L114.94 163.814C114.35 164.544 114.08 165.624 114.36 166.224L118.96 176.394C119.03 176.544 119.13 176.654 119.25 176.724C119.62 176.944 138.94 188.124 139.66 188.534C139.66 188.544 139.66 188.544 139.67 188.544C139.68 188.554 139.68 188.554 139.68 188.554C139.69 188.554 139.69 188.554 139.7 188.554C139.72 188.544 139.74 188.504 139.76 188.464C139.86 188.524 139.96 188.574 140.06 188.644H140.07C145.84 191.984 155.85 197.774 156.48 198.134C156.49 198.144 156.5 198.144 156.51 198.154C156.79 197.394 165.12 162.884 165.48 163.434L170.66 171.344C170.71 171.414 170.76 171.474 170.82 171.524L180.69 177.254L191.34 183.424L191.33 183.404L183.63 159.364C190.43 161.714 205.94 132.464 201.12 129.214ZM141.32 145.273L178.85 105.663C179.92 108.033 180.42 110.843 180.4 113.903C181.25 113.403 182.11 112.963 182.95 112.603C183.03 113.473 183.07 114.393 183.07 115.363C183.07 128.323 173.98 144.063 162.76 150.543C161.94 151.013 161.13 151.433 160.36 151.793C160.24 150.843 160.19 149.863 160.2 148.853C152.19 153.533 144.58 152.464 141.32 145.273Z" fill="#263238"/>
<path d="M139.68 188.552L138.7 179.094L114.339 165.029C114.224 165.478 114.219 165.915 114.36 166.227L118.96 176.395C119.028 176.545 119.129 176.655 119.254 176.726L119.302 176.754C120.287 177.318 139.677 188.55 139.68 188.552Z" fill="#455A64"/>
<path d="M142.761 134.534L119.396 121.096C119.236 121.299 119.112 121.511 119.05 121.721L114.268 137.816C114.128 138.287 114.283 138.719 114.633 138.988C114.647 138.999 114.707 139.036 114.804 139.094L125.333 145.193C125.366 145.212 125.389 145.225 125.389 145.225L135.177 150.895L142.761 134.534Z" fill="#455A64"/>
<path d="M135.764 92.9548L156.202 104.69L169.686 91.1698L149.287 79.3607L149.286 79.3598C148.866 79.0868 148.2 79.2658 147.651 79.8448L136.545 91.5677C136.176 91.9577 135.909 92.4668 135.764 92.9548Z" fill="#455A64"/>
<path d="M184.129 64.6268C183.879 64.4688 183.534 64.3938 183.131 64.4338L173.019 65.4358C172.407 65.4968 171.776 65.8138 171.331 66.2368L197.913 81.5838L204.705 77.6628L204.51 76.4258C204.51 76.4258 184.461 64.8368 184.129 64.6268Z" fill="#455A64"/>
<path d="M225.82 123.673C225.81 123.663 225.79 123.653 225.77 123.643C225.6 123.553 225.38 123.493 225.14 123.483L216.47 122.993C215.59 122.943 214.94 122.313 215.01 121.583C215.13 120.213 215.2 118.853 215.21 117.533C215.22 116.063 215.16 114.623 215.02 113.223C214.96 112.533 215.37 111.393 215.97 110.663L225.65 98.9428C226.25 98.2128 226.51 97.1328 226.24 96.5328L221.64 86.3628C221.58 86.2228 221.48 86.1128 221.36 86.0428C221.34 86.0328 221.32 86.0228 221.3 86.0128C220.92 85.8228 220.35 85.9828 219.82 86.4728L209.48 95.9128C208.75 96.5828 207.76 96.7328 207.22 96.2928C205.88 95.1928 204.4 94.3428 202.8 93.7228C202.09 93.4428 201.6 92.6628 201.76 91.9128L204.95 77.4428C205.05 77.0028 204.87 76.6328 204.51 76.4228C204.26 76.2828 203.93 76.2228 203.55 76.2528L193.44 77.2628C192.5 77.3528 191.51 78.0428 191.23 78.8028L185.75 93.5028C185.47 94.2628 184.47 95.1928 183.54 95.6328C181.47 96.6128 179.38 97.8228 177.28 99.2628C176.43 99.8328 175.48 99.8728 175.11 99.3128L169.94 91.4128C169.57 90.8528 168.74 90.9728 168.07 91.6628L156.97 103.393C156.3 104.093 155.92 105.183 156.11 105.823L159.2 116.293C159.39 116.933 159.13 118.063 158.64 118.813C156.74 121.683 155.04 124.653 153.53 127.673C153.15 128.433 152.08 129.243 151.12 129.473L141.62 131.763C140.66 131.993 139.7 132.793 139.47 133.543L134.69 149.643C134.46 150.393 135 151.043 135.87 151.093L144.55 151.583C145.43 151.633 146.07 152.263 146.01 152.993C145.75 155.893 145.74 158.703 145.99 161.353C146.06 162.053 145.65 163.193 145.05 163.913L135.37 175.643C134.77 176.363 134.51 177.443 134.78 178.053L139.38 188.213C139.44 188.363 139.54 188.463 139.66 188.533C139.66 188.543 139.66 188.543 139.67 188.543C139.68 188.553 139.69 188.553 139.7 188.553C139.81 188.613 139.93 188.643 140.06 188.643H140.07C140.41 188.643 140.81 188.463 141.2 188.113L151.53 178.663C152.26 178.003 153.25 177.843 153.79 178.283C155.14 179.383 156.62 180.233 158.21 180.853C158.93 181.133 159.42 181.923 159.25 182.663L156.06 197.143C155.97 197.573 156.14 197.923 156.48 198.133C156.49 198.143 156.5 198.143 156.51 198.153C156.75 198.293 157.08 198.363 157.46 198.323L167.57 197.323C168.51 197.223 169.5 196.533 169.78 195.783L175.27 181.083C175.55 180.323 176.55 179.393 177.48 178.943C178.54 178.443 179.62 177.873 180.69 177.253C181.7 176.663 182.72 176.013 183.74 175.323C184.58 174.743 185.54 174.703 185.9 175.263L191.08 183.173C191.15 183.273 191.23 183.353 191.33 183.403C191.75 183.663 192.4 183.483 192.94 182.913L204.05 171.183C204.71 170.493 205.09 169.393 204.9 168.753L201.81 158.293C201.62 157.643 201.89 156.513 202.38 155.773C204.28 152.903 205.98 149.923 207.48 146.903C207.86 146.143 208.93 145.343 209.9 145.113L219.39 142.823C220.36 142.593 221.32 141.793 221.54 141.033L226.33 124.943C226.48 124.413 226.27 123.934 225.82 123.673ZM175.13 162.994C174.94 163.044 174.76 163.094 174.57 163.134C174.43 163.174 174.3 163.194 174.17 163.224C173.87 163.284 173.57 163.334 173.27 163.374C172.916 163.424 172.571 163.452 172.226 163.475C172.009 163.489 171.793 163.495 171.579 163.498C171.477 163.5 171.376 163.499 171.275 163.498C167.124 163.451 163.67 161.348 161.75 157.093C161.03 155.503 160.57 153.713 160.36 151.793C160.24 150.843 160.19 149.863 160.2 148.853C160.26 139.683 164.97 128.323 172.74 120.113C175.25 117.463 177.84 115.393 180.4 113.903C181.25 113.403 182.11 112.963 182.95 112.603C185.47 111.493 187.9 110.983 190.12 111.083C190.15 111.083 190.17 111.083 190.2 111.093C190.32 111.093 190.44 111.103 190.56 111.113C190.69 111.123 190.81 111.133 190.93 111.153C191.06 111.163 191.19 111.173 191.32 111.203C194.77 111.703 197.59 113.783 199.27 117.483C203.56 126.973 198.64 143.533 188.28 154.463C183.94 159.044 179.33 161.913 175.13 162.994Z" fill="#37474F"/>
<path d="M190.83 122.161L185.489 119.08C185.487 119.079 185.483 119.077 185.483 119.077L185.434 119.049L185.429 119.057C183.058 117.718 179.803 117.92 176.205 119.997C168.958 124.182 163.081 134.359 163.081 142.728C163.081 146.906 164.546 149.841 166.913 151.215V151.217L166.924 151.223L166.926 151.224L171.786 153.999L172.947 152.057C174.146 151.782 175.394 151.354 176.711 150.593C183.958 146.408 189.835 136.231 189.836 127.862C189.836 126.619 189.669 125.525 189.424 124.51L190.83 122.161Z" fill="url(#paint7_linear_125_2185)"/>
<path opacity="0.1" d="M163.083 142.727C163.083 146.906 164.545 149.841 166.911 151.214V151.219L166.926 151.224L171.787 154L172.948 152.059C174.144 151.782 175.393 151.353 176.712 150.592C180.59 148.354 184.078 144.392 186.478 139.917L167.444 128.93C164.768 133.247 163.083 138.247 163.083 142.727Z" fill="black"/>
<path opacity="0.4" d="M190.831 122.162L185.491 119.079C185.486 119.079 185.486 119.079 185.486 119.079L185.432 119.049L185.427 119.059C183.056 117.72 179.805 117.918 176.204 119.998C172.835 121.939 169.762 125.18 167.445 128.93L186.479 139.917C188.569 136.029 189.838 131.751 189.838 127.863C189.838 126.618 189.67 125.526 189.423 124.509L190.831 122.162Z" fill="white"/>
<path d="M181.28 122.909C174.032 127.094 168.156 137.271 168.155 145.64C168.155 154.009 174.031 157.402 181.279 153.217C188.527 149.032 194.403 138.855 194.404 130.486C194.404 122.116 188.528 118.724 181.28 122.909Z" fill="url(#paint8_linear_125_2185)"/>
<path d="M184.825 132.852C184.825 133.239 184.799 133.626 184.747 134.016C184.696 134.407 184.606 134.808 184.481 135.22C184.355 135.632 184.191 136.065 183.987 136.515C183.784 136.966 183.535 137.444 183.24 137.946L181.422 141.116L184.683 139.234C184.779 139.178 184.861 139.185 184.93 139.252C184.999 139.318 185.034 139.425 185.034 139.571V141.692C185.034 141.838 185 141.985 184.93 142.131C184.861 142.279 184.779 142.379 184.683 142.434L177.824 146.394C177.728 146.45 177.646 146.444 177.577 146.376C177.508 146.31 177.473 146.203 177.473 146.057V144.336C177.473 144.123 177.501 143.893 177.557 143.647C177.614 143.402 177.711 143.167 177.85 142.938L181.734 136.417C182.038 135.896 182.228 135.47 182.305 135.138C182.383 134.806 182.423 134.506 182.423 134.24C182.423 134.147 182.411 134.023 182.39 133.869C182.368 133.715 182.319 133.578 182.241 133.456C182.163 133.334 182.053 133.254 181.91 133.217C181.767 133.179 181.574 133.231 181.332 133.371C181.089 133.511 180.892 133.687 180.74 133.902C180.589 134.115 180.472 134.326 180.39 134.534C180.307 134.742 180.247 134.939 180.208 135.129C180.169 135.318 180.14 135.459 180.123 135.549C180.079 135.76 180.013 135.922 179.922 136.033C179.83 136.146 179.725 136.238 179.603 136.308L178.005 137.23C177.928 137.275 177.86 137.27 177.804 137.216C177.747 137.162 177.72 137.075 177.72 136.954C177.728 136.39 177.806 135.788 177.954 135.149C178.1 134.511 178.323 133.879 178.623 133.253C178.921 132.628 179.293 132.046 179.74 131.508C180.185 130.972 180.712 130.526 181.318 130.177C181.889 129.847 182.393 129.686 182.831 129.694C183.269 129.701 183.635 129.837 183.929 130.101C184.223 130.363 184.447 130.734 184.598 131.214C184.749 131.692 184.825 132.239 184.825 132.852Z" fill="#37474F"/>
<path d="M133.41 189.533C131.2 184.243 130 177.803 130 170.353C130 154.373 124.47 143.073 115.49 137.683L114.58 137.153C109.84 134.583 104.22 133.583 97.99 134.323C100.19 139.613 101.39 146.043 101.39 153.493C101.39 169.603 107 180.943 116.1 186.293L144.21 202.853C139.56 199.963 135.86 195.464 133.41 189.533Z" fill="url(#paint9_linear_125_2185)"/>
<path opacity="0.3" d="M133.41 189.533C131.2 184.243 130 177.803 130 170.353C130 154.373 124.47 143.073 115.49 137.683L114.58 137.153C109.84 134.583 104.22 133.583 97.99 134.323C100.19 139.613 101.39 146.043 101.39 153.493C101.39 169.603 107 180.943 116.1 186.293L144.21 202.853C139.56 199.963 135.86 195.464 133.41 189.533Z" fill="black"/>
<path d="M125.846 169.748C125.599 169.68 125.259 169.669 124.888 169.839L114.188 174.659C113.438 174.999 112.658 174.629 112.408 173.839C111.988 172.489 104.658 170.936 104.058 169.776L108.176 159.561L125.846 169.748Z" fill="#455A64"/>
<path d="M108.18 159.597L108.179 159.573C107.935 159.434 107.609 159.407 107.249 159.569L99.351 141.29C99.719 140.548 99.436 139.61 98.718 139.196L90.979 134.728C90.261 134.314 89.308 134.537 88.849 135.227L79.962 148.593C79.503 149.283 78.462 149.77 77.634 149.748C76.628 149.722 75.591 149.774 74.53 149.893V140.119L68.592 136.695V136.696C68.329 136.556 67.984 136.573 67.621 136.783L55.6 143.724C54.883 144.138 54.241 145.143 54.167 145.968L52.963 159.344C52.889 160.169 52.322 161.281 51.713 161.842C49.374 163.996 47.139 166.37 45.035 168.91C44.507 169.548 43.455 169.852 42.673 169.579L34.957 166.884C34.175 166.611 33.205 166.971 32.791 167.688L23.954 182.994C23.54 183.711 23.713 184.731 24.34 185.272L30.532 190.607C31.16 191.148 31.421 192.211 31.133 192.988C29.985 196.081 29.047 199.203 28.35 202.306C28.169 203.114 27.49 204.159 26.812 204.636L15.831 212.366C15.154 212.843 14.604 213.901 14.604 214.729V228.609C14.604 229.037 14.769 229.346 15.031 229.501L15.028 229.504L28.945 237.537L23.869 247.772C23.501 248.514 23.784 249.452 24.501 249.866L43.422 260.826C44.14 261.24 45.093 261.017 45.552 260.327L54.15 251.535C54.19 251.934 54.361 252.216 54.61 252.356L72.236 262.528L72.706 248.729C72.706 248.729 68.979 243.918 69.054 243.093L88.265 222.174C89.046 222.449 90.016 222.091 90.43 221.373L99.267 206.067C99.681 205.35 99.508 204.33 98.88 203.789L107.389 176.696C108.067 176.219 108.616 175.161 108.616 174.333L108.18 159.597ZM61.61 217.982C56.451 220.961 52.19 221.597 49.093 220.156C45.456 218.464 74.96 167.882 78.056 170.644C80.559 172.877 81.917 177.019 81.917 182.808C81.918 195.759 72.826 211.506 61.61 217.982Z" fill="#263238"/>
<path d="M89.674 189.333L84.333 186.252L84.327 186.249L84.278 186.221L84.273 186.229C81.902 184.89 78.647 185.092 75.049 187.169C67.802 191.354 61.926 201.531 61.926 209.9C61.926 214.078 63.391 217.014 65.758 218.388V218.39L65.769 218.396L65.771 218.397L70.631 221.172L71.792 219.23C72.991 218.954 74.239 218.526 75.556 217.766C82.803 213.581 88.68 203.404 88.681 195.035C88.681 193.792 88.514 192.698 88.269 191.683L89.674 189.333Z" fill="url(#paint10_linear_125_2185)"/>
<path opacity="0.1" d="M61.927 209.898C61.927 214.077 63.389 217.012 65.756 218.385V218.39L65.771 218.395L70.632 221.171L71.793 219.23C72.989 218.953 74.238 218.524 75.557 217.763C79.435 215.525 82.923 211.563 85.323 207.087L66.289 196.1C63.612 200.418 61.927 205.418 61.927 209.898Z" fill="black"/>
<path opacity="0.4" d="M89.6751 189.333L84.3351 186.25C84.3351 186.25 84.3301 186.25 84.3251 186.25L84.2761 186.22L84.2711 186.23C81.9001 184.891 78.6491 185.089 75.0481 187.168C71.6791 189.109 68.6061 192.35 66.2891 196.1L85.3231 207.087C87.4131 203.199 88.6821 198.921 88.6821 195.033C88.6821 193.788 88.5141 192.696 88.2671 191.679L89.6751 189.333Z" fill="white"/>
<path d="M80.124 190.079C72.876 194.264 66.999 204.441 66.999 212.81C66.999 221.179 72.875 224.572 80.123 220.387C87.371 216.202 93.247 206.025 93.248 197.656C93.248 189.287 87.372 185.895 80.124 190.079Z" fill="url(#paint11_linear_125_2185)"/>
<path d="M76.287 204.757C76.226 204.672 76.204 204.552 76.222 204.394C76.24 204.238 76.287 204.09 76.366 203.953L79.158 199.041C79.227 198.921 79.312 198.778 79.412 198.614C79.512 198.451 79.626 198.33 79.757 198.256L81.342 197.34C81.437 197.285 81.519 197.292 81.588 197.359C81.657 197.425 81.692 197.532 81.692 197.678V210.598C81.692 210.744 81.658 210.892 81.588 211.038C81.519 211.185 81.437 211.285 81.342 211.34L79.639 212.323C79.544 212.378 79.461 212.373 79.393 212.305C79.323 212.24 79.289 212.132 79.289 211.986V203.246L77.743 205.938C77.665 206.077 77.578 206.165 77.483 206.198C77.387 206.234 77.309 206.209 77.249 206.124L76.287 204.757Z" fill="#37474F"/>
<path d="M111.118 148.08L108.728 152.91L101.048 161.77L91.998 156.54L79.318 149.21C79.578 149.04 79.808 148.83 79.958 148.59L88.848 135.23C89.308 134.55 90.238 134.32 90.958 134.72L98.718 139.2L110.488 145.99C111.198 146.4 111.488 147.34 111.118 148.08Z" fill="#455A64"/>
<path d="M27.6261 203.781C27.3771 204.124 27.098 204.437 26.812 204.639L15.8311 212.369C15.5411 212.573 15.286 212.894 15.076 213.247L33.5411 223.93L48.12 215.637L27.6261 203.781Z" fill="#455A64"/>
<path d="M34.234 166.808C33.651 166.862 33.083 167.184 32.791 167.69L23.954 182.996C23.751 183.347 23.693 183.771 23.756 184.176L43.106 195.374L55.202 179.009L34.234 166.808Z" fill="#455A64"/>
<path d="M86.258 146.9V151.3L75.558 157.48L54.358 145.23C54.618 144.61 55.088 144.02 55.598 143.73L67.618 136.79C67.828 136.67 68.038 136.61 68.218 136.61C68.358 136.61 68.478 136.64 68.588 136.7L74.378 140.03L74.528 140.12L82.518 144.74L86.258 146.9Z" fill="#455A64"/>
<path d="M126.287 184.534V170.653C126.287 169.825 125.675 169.429 124.92 169.77L114.221 174.593C113.466 174.933 112.689 174.558 112.439 173.768C111.817 171.802 111.014 170.031 110.054 168.463C109.621 167.757 109.523 166.613 109.892 165.871L117.024 151.491C117.392 150.749 117.109 149.811 116.391 149.397L108.652 144.929C107.935 144.515 106.981 144.738 106.522 145.428L97.634 158.794C97.175 159.484 96.135 159.971 95.307 159.949C93.469 159.901 91.534 160.092 89.52 160.536C88.711 160.715 87.998 160.23 87.915 159.405L86.742 147.728C86.659 146.904 86.01 146.571 85.293 146.986L73.272 153.926C72.555 154.34 71.913 155.345 71.838 156.17L70.634 169.545C70.56 170.37 69.993 171.482 69.384 172.043C67.045 174.197 64.811 176.571 62.706 179.111C62.177 179.749 61.126 180.053 60.344 179.78L52.627 177.085C51.845 176.812 50.875 177.172 50.461 177.89L41.624 193.197C41.21 193.914 41.383 194.934 42.01 195.475L48.202 200.81C48.83 201.351 49.091 202.414 48.803 203.191C47.655 206.283 46.717 209.405 46.021 212.508C45.84 213.316 45.161 214.361 44.483 214.838L33.502 222.568C32.825 223.045 32.275 224.103 32.275 224.931V238.811C32.275 239.639 32.887 240.035 33.643 239.695L44.343 234.872C45.098 234.531 45.875 234.907 46.125 235.697C46.747 237.663 47.549 239.434 48.51 241.002C48.943 241.709 49.04 242.853 48.672 243.595L41.54 257.974C41.172 258.716 41.455 259.654 42.173 260.068L49.912 264.536C50.629 264.95 51.583 264.727 52.042 264.037L60.93 250.672C61.389 249.982 62.429 249.495 63.258 249.516C65.097 249.564 67.031 249.373 69.045 248.929C69.854 248.751 70.567 249.236 70.65 250.06L71.823 261.738C71.906 262.562 72.554 262.895 73.272 262.48L85.293 255.539C86.01 255.125 86.652 254.12 86.727 253.295L87.931 239.92C88.005 239.095 88.572 237.984 89.181 237.423C91.52 235.269 93.754 232.896 95.857 230.357C96.385 229.719 97.437 229.414 98.219 229.687L105.936 232.381C106.718 232.654 107.688 232.294 108.102 231.577L116.939 216.271C117.353 215.554 117.18 214.534 116.553 213.993L110.361 208.658C109.734 208.117 109.472 207.054 109.76 206.277C110.908 203.185 111.847 200.063 112.543 196.96C112.724 196.152 113.403 195.107 114.081 194.63L125.062 186.9C125.737 186.42 126.287 185.362 126.287 184.534ZM79.281 228.181C68.065 234.656 58.972 229.407 58.972 216.457C58.972 203.507 68.065 187.759 79.281 181.283C90.496 174.808 99.588 180.057 99.588 193.008C99.589 205.958 90.496 221.705 79.281 228.181Z" fill="#37474F"/>
<path d="M114.58 137.154C109.84 134.584 104.22 133.584 97.99 134.324C92.19 135.004 85.85 137.184 79.22 141.014C52.58 156.394 30.74 192.714 28.62 224.074L0 207.224C2.11 175.864 23.97 139.534 50.61 124.154C64.46 116.154 77.01 115.314 86.17 120.414L87.25 121.054L114.58 137.154Z" fill="url(#paint12_linear_125_2185)"/>
<path d="M342.561 120.134H362.548C371.006 120.134 377.863 113.277 377.863 104.819V98.8848C377.863 90.6228 371.165 83.9248 362.903 83.9248H357.521C349.259 83.9248 342.561 90.6228 342.561 98.8848V120.134Z" fill="#263238"/>
<path d="M375.555 85.7938L372.959 88.1088C372.32 87.3918 372.383 86.2928 373.099 85.6538C373.816 85.0148 374.915 85.0768 375.555 85.7938Z" fill="#263238"/>
<path d="M376.216 89.1608L372.815 88.4318C373.016 87.4928 373.941 86.8948 374.88 87.0958C375.819 87.2978 376.417 88.2218 376.216 89.1608Z" fill="#263238"/>
<path d="M342.046 292.121C339.997 294.365 337.737 296.162 335.311 297.979C334.948 298.251 334.572 298.538 334.376 298.946C334.058 299.606 333.565 301.241 336.577 302.292C339.52 303.319 343.189 303.078 345.87 301.4C348.344 299.852 348.454 296.631 350.787 294.795C352.516 293.434 354.676 293.085 356.073 291.307C357.046 290.069 356.793 288.421 356.285 286.382C355.731 284.156 355.476 282.471 354.739 282.642L354.86 283.666C353.941 285.133 349.175 285.567 347.054 284.554C347.054 284.554 343.383 290.657 342.046 292.121Z" fill="#263238"/>
<path d="M339.957 294.203C339.957 294.2 339.957 294.19 339.957 294.187C340.673 293.531 341.375 292.854 342.047 292.119C342.908 291.176 344.741 288.307 345.936 286.386C346.663 285.218 347.191 283.822 347.025 282.283C346.859 280.744 346.432 276.795 346.432 276.795L353.983 276.261L354.861 283.665V283.664C355.043 285.342 353.657 286.832 351.2 288.949C348.743 291.066 345.622 296.004 343.398 297.246C341.174 298.488 339.583 298.442 338.634 297.807C337.657 297.153 337.561 296.651 339.957 294.203Z" fill="#FFA8A7"/>
<path d="M370.759 292.795V291.66C370.312 292.991 368.236 298.722 365.087 301.593C362.584 303.876 359.169 306.513 358.301 309.058C357.398 311.705 363.053 312.595 365.391 312.181C368.108 311.7 371.624 310.158 373.537 307.807C374.883 306.154 375.739 304.195 376.7 302.895C377.661 301.595 379.875 300.144 380.395 298.64C380.68 297.814 380.342 296.004 379.941 294.474C379.573 293.071 379.175 291.528 378.695 291.66C378.694 291.831 378.695 292.525 378.695 292.525C378.119 293.163 376.525 293.797 374.728 293.866C373.566 293.911 370.75 293.681 370.759 292.795Z" fill="#263238"/>
<path d="M362.822 303.602C363.598 302.909 364.379 302.232 365.088 301.586C367.288 299.579 368.964 296.176 369.928 293.854C370.478 292.528 370.76 291.113 370.76 289.678V285.155H378.695V292.517V292.714L378.655 292.734C378.273 294.383 374.632 298.77 372.562 301.629C371.175 303.547 368.54 305.986 365.391 306.406C362.407 306.806 360.882 305.865 362.822 303.602Z" fill="#FFA8A7"/>
<path d="M377.116 169.47C383.268 182.907 376.894 230.239 376.894 230.239C377.079 232.419 379.572 236.71 380.501 246.307C381.599 257.646 378.779 286.118 378.779 286.118C378.779 286.118 375.105 288.521 370.759 286.437C370.759 286.437 363.196 243.556 361.774 232.282C360.533 222.443 358.151 199.316 358.151 199.316L351.381 232.229C351.381 232.229 353.977 237.893 354.384 242.092C355.026 248.724 354.341 277.437 354.341 277.437C354.341 277.437 351.629 279.501 346.431 278.735C346.431 278.735 337.631 238.705 336.935 230.724C336.519 225.957 341.953 167.505 341.953 167.505L377.116 169.47Z" fill="#37474F"/>
<path d="M358.151 199.316L356.154 188.329C356.154 188.329 347.704 186.579 343.872 182.976C343.872 182.976 347.892 187.977 353.864 189.615L356.107 199.223L352.185 228.316L358.151 199.316Z" fill="#263238"/>
<path d="M387.144 163.628C387.081 162.747 385.43 153.338 384.293 148.076L373.233 151.466L375.199 161.148L384.518 168.627C387.436 168.048 387.206 164.51 387.144 163.628Z" fill="#FFA8A7"/>
<path d="M333.65 143.793L328.422 153.378L336.554 160.349L344.003 148.538L333.65 143.793Z" fill="#F28F8F"/>
<path d="M353.266 122.431C348.081 122.484 342.371 124.37 340.407 128.435C338.443 132.501 332.3 145.163 332.3 145.163C332.3 145.163 336.883 151.872 344.152 151.4L353.266 122.431Z" fill="url(#paint13_linear_125_2185)"/>
<path opacity="0.1" d="M353.266 122.431C348.081 122.484 342.371 124.37 340.407 128.435C338.443 132.501 332.3 145.163 332.3 145.163C332.3 145.163 336.883 151.872 344.152 151.4L353.266 122.431Z" fill="black"/>
<path d="M366.264 122.79C370.961 123.92 374.704 127.142 376.678 131.307C378.181 134.478 378.197 138.156 377.051 141.473L371.555 157.373C371.555 157.373 374.129 163.593 377.116 169.471C363.323 177.169 346.1 173.123 341.953 167.505C341.778 166.313 342.016 160.942 341.681 154.831C341.324 148.314 340.429 140.956 341.454 136.928C343.356 129.451 346.919 122.431 354.01 122.431L366.264 122.79Z" fill="url(#paint14_linear_125_2185)"/>
<path d="M368.316 122.79C373.023 123.456 379.934 124.404 382.318 135.593C384.733 146.932 385.43 150.874 385.43 150.874C385.43 150.874 381.567 155.368 373.758 155.331L371.329 146.735L368.316 122.79Z" fill="url(#paint15_linear_125_2185)"/>
<path opacity="0.1" d="M373.084 152.949C373.084 152.949 371.489 147.897 370.527 143.794C370.527 143.794 370.449 150.942 371.806 156.649L373.084 152.949Z" fill="black"/>
<path d="M348.36 91.0628C346.495 92.1648 344.191 96.8538 344.419 106.685C344.612 115.017 347.312 117.075 348.668 117.668C350.024 118.261 352.639 117.9 355.182 117.477V122.477C355.182 122.477 351.668 126.558 351.889 128.851C352.11 131.144 356.963 131.686 360.251 129.446C363.539 127.206 365.647 123.797 365.647 123.797V111.71C365.647 111.71 367.363 114.002 370.171 112.138C372.979 110.274 373.085 105.659 371.453 104.002C369.821 102.345 366.303 102.87 365.647 105.159C365.647 105.159 361.592 105.307 356.193 102.341C350.793 99.3738 348.718 94.2938 348.36 91.0628Z" fill="#FFA8A7"/>
<path d="M353.72 104.592C353.69 105.192 354.134 105.701 354.712 105.729C355.29 105.756 355.783 105.292 355.813 104.691C355.843 104.091 355.399 103.582 354.821 103.554C354.243 103.527 353.751 103.991 353.72 104.592Z" fill="#263238"/>
<path d="M353.441 111.654L351.008 112.43C351.21 113.127 351.918 113.517 352.59 113.303C353.262 113.089 353.643 112.351 353.441 111.654Z" fill="#F28F8F"/>
<path d="M345.13 101.375L347.25 99.9058C346.863 99.3008 346.075 99.1388 345.49 99.5448C344.904 99.9498 344.743 100.769 345.13 101.375Z" fill="#263238"/>
<path d="M345.619 103.834C345.589 104.434 346.033 104.943 346.611 104.971C347.189 104.998 347.682 104.534 347.712 103.934C347.742 103.334 347.298 102.825 346.72 102.797C346.142 102.769 345.649 103.234 345.619 103.834Z" fill="#263238"/>
<path d="M350.562 103.234L350.395 109.541L347.075 108.513L350.562 103.234Z" fill="#F28F8F"/>
<path d="M355.181 117.477C357.861 117.125 363.373 115.542 364.232 113.363C364.232 113.363 363.946 114.733 362.299 116.144C360.652 117.555 355.181 119.145 355.181 119.145V117.477Z" fill="#F28F8F"/>
<path d="M311.329 143.204L341.747 151.216L350.726 188.966L321.806 180.566L311.329 143.204Z" fill="#F5F5F5"/>
<path d="M324.591 168.183C324.309 168.954 322.644 171.094 319.103 170.925L318.665 169.364L324.591 168.183Z" fill="#E0E0E0"/>
<path d="M331.389 169.364C331.523 170.37 333.592 172.234 337.088 173.399C341.066 174.725 347.172 174.024 347.172 174.024L346.625 172.146L331.389 169.364Z" fill="#E0E0E0"/>
<path d="M320.235 148.671C320.235 148.671 320.123 148.151 319.984 147.511C319.846 146.87 321.631 146.843 323.971 147.45L328.453 148.612C330.794 149.219 332.803 150.231 332.942 150.871L333.193 152.031L320.235 148.671Z" fill="#E0E0E0"/>
<path d="M318.126 144.294C318.038 143.894 318.761 143.789 319.741 144.059L321.516 144.549C321.516 144.549 320.987 142.04 324.925 142.917C328.863 143.794 329.724 146.643 329.724 146.643C329.724 146.643 330.572 146.884 331.619 147.181C332.665 147.478 333.614 148.042 333.738 148.441L333.962 149.163L318.294 145.038C318.294 145.038 318.214 144.695 318.126 144.294Z" fill="#37474F"/>
<path d="M320.284 145.547C321.72 145.893 322.316 146.084 322.531 147.072C322.776 148.2 322.876 149.028 322.876 149.028L329.811 150.861C329.811 150.861 329.476 149.433 329.369 148.876C329.262 148.319 329.498 147.984 330.602 148.276L330.696 147.834L319.829 145.067L320.284 145.547Z" fill="#37474F"/>
<path d="M320.045 148.78C320.045 148.78 319.933 148.261 319.794 147.62C319.656 146.979 321.441 146.952 323.781 147.559L328.263 148.721C330.604 149.328 332.613 150.339 332.752 150.98L333.003 152.14L320.045 148.78Z" fill="#37474F"/>
<path d="M384.517 168.627L375.198 161.148C375.198 161.148 354.605 164.816 352.185 165.007C349.765 165.197 347.078 163.488 346.155 161.113C345.232 158.737 343.607 159.033 343.607 159.033C343.607 159.033 344.323 162.044 344.552 163.005C344.781 163.967 338.981 164.756 335.764 163.667C332.547 162.578 327.891 164.159 330.775 168.539C333.66 172.919 339.268 173.424 343.165 173.427C344.242 173.428 346.156 173.346 348.037 173.101C349.298 172.937 350.552 172.81 351.82 172.72C359.796 172.152 380.892 169.765 384.517 168.627Z" fill="#FFA8A7"/>
<path d="M314.424 154.24C314.424 154.24 315.514 158.126 315.774 159.054C316.034 159.981 319.571 161.666 321.807 162.28C324.043 162.894 326.488 163.622 325.43 166.748C324.454 169.631 320.775 170.289 318.902 170.207C317.029 170.126 314.464 168.335 313.454 165.449C312.165 161.768 312.86 157.836 312.348 155.685C311.836 153.534 313.303 152.958 314.424 154.24Z" fill="#FFA8A7"/>
<defs>
<linearGradient id="paint0_linear_125_2185" x1="390.771" y1="241.552" x2="390.771" y2="274.625" gradientUnits="userSpaceOnUse">
<stop stop-color="#27DEBF"/>
<stop offset="1" stop-color="#112751"/>
</linearGradient>
<linearGradient id="paint1_linear_125_2185" x1="393.885" y1="261.202" x2="393.885" y2="296.94" gradientUnits="userSpaceOnUse">
<stop stop-color="#27DEBF"/>
<stop offset="1" stop-color="#112751"/>
</linearGradient>
<linearGradient id="paint2_linear_125_2185" x1="161.398" y1="244.953" x2="161.398" y2="359.601" gradientUnits="userSpaceOnUse">
<stop stop-color="#27DEBF"/>
<stop offset="1" stop-color="#112751"/>
</linearGradient>
<linearGradient id="paint3_linear_125_2185" x1="317.005" y1="16.8601" x2="317.005" y2="48.3328" gradientUnits="userSpaceOnUse">
<stop stop-color="#27DEBF"/>
<stop offset="1" stop-color="#112751"/>
</linearGradient>
<linearGradient id="paint4_linear_125_2185" x1="278.508" y1="68.8878" x2="278.508" y2="104.678" gradientUnits="userSpaceOnUse">
<stop stop-color="#27DEBF"/>
<stop offset="1" stop-color="#112751"/>
</linearGradient>
<linearGradient id="paint5_linear_125_2185" x1="282.832" y1="71.7932" x2="282.832" y2="105.686" gradientUnits="userSpaceOnUse">
<stop stop-color="#27DEBF"/>
<stop offset="1" stop-color="#112751"/>
</linearGradient>
<linearGradient id="paint6_linear_125_2185" x1="225.545" y1="0" x2="225.545" y2="206.635" gradientUnits="userSpaceOnUse">
<stop stop-color="#27DEBF"/>
<stop offset="1" stop-color="#112751"/>
</linearGradient>
<linearGradient id="paint7_linear_125_2185" x1="176.956" y1="118.21" x2="176.956" y2="153.999" gradientUnits="userSpaceOnUse">
<stop stop-color="#27DEBF"/>
<stop offset="1" stop-color="#112751"/>
</linearGradient>
<linearGradient id="paint8_linear_125_2185" x1="181.28" y1="121.116" x2="181.28" y2="155.009" gradientUnits="userSpaceOnUse">
<stop stop-color="#27DEBF"/>
<stop offset="1" stop-color="#112751"/>
</linearGradient>
<linearGradient id="paint9_linear_125_2185" x1="121.1" y1="134.085" x2="121.1" y2="202.853" gradientUnits="userSpaceOnUse">
<stop stop-color="#27DEBF"/>
<stop offset="1" stop-color="#112751"/>
</linearGradient>
<linearGradient id="paint10_linear_125_2185" x1="75.8" y1="185.382" x2="75.8" y2="221.172" gradientUnits="userSpaceOnUse">
<stop stop-color="#27DEBF"/>
<stop offset="1" stop-color="#112751"/>
</linearGradient>
<linearGradient id="paint11_linear_125_2185" x1="80.1235" y1="188.287" x2="80.1235" y2="222.179" gradientUnits="userSpaceOnUse">
<stop stop-color="#27DEBF"/>
<stop offset="1" stop-color="#112751"/>
</linearGradient>
<linearGradient id="paint12_linear_125_2185" x1="57.29" y1="117.22" x2="57.29" y2="224.074" gradientUnits="userSpaceOnUse">
<stop stop-color="#27DEBF"/>
<stop offset="1" stop-color="#112751"/>
</linearGradient>
<linearGradient id="paint13_linear_125_2185" x1="342.783" y1="122.431" x2="342.783" y2="151.424" gradientUnits="userSpaceOnUse">
<stop stop-color="#27DEBF"/>
<stop offset="1" stop-color="#112751"/>
</linearGradient>
<linearGradient id="paint14_linear_125_2185" x1="359.42" y1="122.431" x2="359.42" y2="173.723" gradientUnits="userSpaceOnUse">
<stop stop-color="#27DEBF"/>
<stop offset="1" stop-color="#112751"/>
</linearGradient>
<linearGradient id="paint15_linear_125_2185" x1="376.873" y1="122.79" x2="376.873" y2="155.331" gradientUnits="userSpaceOnUse">
<stop stop-color="#27DEBF"/>
<stop offset="1" stop-color="#112751"/>
</linearGradient>
</defs>
</svg>
