<svg width="500" height="500" viewBox="0 0 500 500" fill="none" xmlns="http://www.w3.org/2000/svg">
<path d="M500 382.398H0V382.648H500V382.398Z" fill="#EBEBEB"/>
<path d="M449.901 398.494H416.779V398.744H449.901V398.494Z" fill="#EBEBEB"/>
<path d="M331.22 401.208H322.527V401.458H331.22V401.208Z" fill="#EBEBEB"/>
<path d="M415.778 389.208H396.586V389.458H415.778V389.208Z" fill="#EBEBEB"/>
<path d="M95.652 390.888H52.459V391.138H95.652V390.888Z" fill="#EBEBEB"/>
<path d="M110.889 390.888H104.556V391.138H110.889V390.888Z" fill="#EBEBEB"/>
<path d="M225.147 395.111H131.471V395.361H225.147V395.111Z" fill="#EBEBEB"/>
<path d="M296.759 75.336L295.914 77.049C295.815 77.251 295.622 77.39 295.4 77.423L293.51 77.698C292.95 77.779 292.726 78.468 293.131 78.863L294.499 80.196C294.66 80.353 294.733 80.579 294.696 80.801L294.373 82.683C294.277 83.241 294.863 83.667 295.364 83.403L297.055 82.514C297.254 82.409 297.492 82.409 297.691 82.514L299.382 83.403C299.883 83.666 300.469 83.241 300.373 82.683L300.05 80.801C300.012 80.579 300.085 80.353 300.247 80.196L301.615 78.863C302.02 78.468 301.797 77.779 301.236 77.698L299.346 77.423C299.123 77.391 298.931 77.251 298.832 77.049L297.987 75.336C297.734 74.828 297.01 74.828 296.759 75.336Z" fill="#F5F5F5"/>
<path d="M275.302 358.194L274.457 359.907C274.357 360.109 274.165 360.248 273.943 360.281L272.053 360.556C271.493 360.637 271.269 361.326 271.674 361.721L273.042 363.054C273.203 363.211 273.276 363.437 273.239 363.659L272.916 365.542C272.82 366.1 273.406 366.526 273.907 366.262L275.597 365.373C275.796 365.268 276.034 365.268 276.233 365.373L277.924 366.262C278.425 366.526 279.011 366.1 278.915 365.542L278.592 363.659C278.554 363.437 278.628 363.211 278.789 363.054L280.157 361.721C280.563 361.326 280.339 360.637 279.778 360.556L277.888 360.281C277.665 360.249 277.473 360.109 277.374 359.907L276.529 358.194C276.277 357.687 275.553 357.687 275.302 358.194Z" fill="#F0F0F0"/>
<path d="M424.337 250.381L423.492 252.094C423.393 252.296 423.2 252.435 422.978 252.468L421.088 252.743C420.528 252.824 420.304 253.513 420.709 253.908L422.077 255.241C422.238 255.398 422.311 255.624 422.274 255.846L421.951 257.729C421.855 258.287 422.441 258.713 422.942 258.449L424.633 257.56C424.832 257.455 425.07 257.455 425.269 257.56L426.959 258.449C427.46 258.712 428.046 258.287 427.95 257.729L427.627 255.846C427.589 255.624 427.662 255.398 427.824 255.241L429.192 253.908C429.598 253.513 429.374 252.824 428.813 252.743L426.923 252.468C426.7 252.436 426.508 252.296 426.408 252.094L425.563 250.381C425.311 249.873 424.587 249.873 424.337 250.381Z" fill="#F0F0F0"/>
<path d="M215.238 306.673L214.733 307.697C214.673 307.818 214.559 307.901 214.425 307.92L213.295 308.084C212.96 308.133 212.826 308.544 213.069 308.781L213.887 309.578C213.983 309.672 214.027 309.807 214.004 309.94L213.811 311.065C213.754 311.399 214.104 311.653 214.403 311.496L215.413 310.965C215.532 310.902 215.674 310.902 215.793 310.965L216.803 311.496C217.103 311.654 217.453 311.399 217.395 311.065L217.202 309.94C217.179 309.807 217.223 309.672 217.32 309.578L218.138 308.781C218.38 308.545 218.247 308.133 217.912 308.084L216.782 307.92C216.649 307.901 216.534 307.817 216.475 307.697L215.97 306.673C215.821 306.37 215.388 306.37 215.238 306.673Z" fill="#F0F0F0"/>
<path d="M329.679 306.673L329.174 307.697C329.114 307.818 329 307.901 328.867 307.92L327.737 308.084C327.402 308.133 327.268 308.544 327.511 308.781L328.329 309.578C328.425 309.672 328.469 309.807 328.446 309.94L328.253 311.065C328.196 311.399 328.546 311.653 328.845 311.496L329.855 310.965C329.974 310.902 330.116 310.902 330.235 310.965L331.245 311.496C331.545 311.654 331.895 311.399 331.837 311.065L331.644 309.94C331.621 309.807 331.665 309.672 331.761 309.578L332.579 308.781C332.821 308.545 332.688 308.133 332.353 308.084L331.223 307.92C331.09 307.901 330.975 307.817 330.916 307.697L330.411 306.673C330.262 306.37 329.829 306.37 329.679 306.673Z" fill="#F5F5F5"/>
<path d="M77.7257 76.898L77.2207 77.922C77.1617 78.042 77.0467 78.126 76.9137 78.145L75.7837 78.309C75.4487 78.358 75.3147 78.769 75.5577 79.006L76.3747 79.803C76.4707 79.897 76.5147 80.032 76.4927 80.164L76.2997 81.289C76.2427 81.623 76.5927 81.877 76.8927 81.72L77.9027 81.189C78.0217 81.126 78.1637 81.126 78.2827 81.189L79.2927 81.72C79.5927 81.877 79.9427 81.623 79.8857 81.289L79.6927 80.164C79.6697 80.032 79.7137 79.896 79.8097 79.803L80.6267 79.006C80.8687 78.77 80.7357 78.358 80.4007 78.309L79.2707 78.145C79.1377 78.126 79.0227 78.042 78.9637 77.922L78.4587 76.898C78.3077 76.594 77.8757 76.594 77.7257 76.898Z" fill="#F5F5F5"/>
<path d="M86.4186 265.625L85.5446 267.397C85.4416 267.606 85.2426 267.75 85.0126 267.784L83.0576 268.068C82.4776 268.152 82.2466 268.865 82.6656 269.274L84.0806 270.653C84.2476 270.815 84.3236 271.049 84.2836 271.279L83.9496 273.226C83.8506 273.803 84.4566 274.244 84.9756 273.971L86.7246 273.052C86.9306 272.944 87.1766 272.944 87.3826 273.052L89.1316 273.971C89.6506 274.244 90.2566 273.803 90.1576 273.226L89.8236 271.279C89.7846 271.05 89.8606 270.816 90.0266 270.653L91.4416 269.274C91.8616 268.865 91.6296 268.153 91.0496 268.068L89.0946 267.784C88.8646 267.751 88.6656 267.606 88.5626 267.397L87.6886 265.625C87.4276 265.1 86.6786 265.1 86.4186 265.625Z" fill="#F0F0F0"/>
<path d="M193.537 99.885C193.537 100.618 194.131 101.212 194.864 101.212C195.597 101.212 196.191 100.618 196.191 99.885C196.191 99.152 195.597 98.558 194.864 98.558C194.131 98.558 193.537 99.152 193.537 99.885Z" fill="#F0F0F0"/>
<path d="M156.691 358.994C157.424 358.994 158.018 358.4 158.018 357.667C158.018 356.934 157.424 356.34 156.691 356.34C155.958 356.34 155.364 356.934 155.364 357.667C155.364 358.4 155.958 358.994 156.691 358.994Z" fill="#F5F5F5"/>
<path d="M107.051 133.14C99.3088 130.787 92.2958 127.971 86.5908 125.039C88.7078 133.457 95.0538 140.593 103.962 143.301C112.888 146.014 122.149 143.622 128.615 137.794C122.228 137.05 114.811 135.499 107.051 133.14Z" fill="#F5F5F5"/>
<path d="M111.42 116.833C120.503 119.594 130.759 117.861 136.904 121.345C138.133 109.421 130.797 97.916 118.861 94.287C106.942 90.664 94.4441 96.14 88.8301 106.731C95.8731 107.257 102.338 114.073 111.42 116.833Z" fill="#F5F5F5"/>
<path d="M72.8588 107.074C71.7148 110.838 88.0508 119.138 109.348 125.612C130.645 132.086 148.837 134.282 149.981 130.517C151.125 126.753 134.789 118.453 113.492 111.979C92.1948 105.506 74.0028 103.31 72.8588 107.074Z" fill="#F5F5F5"/>
<path d="M392.117 206.434C385.856 230.613 367.364 248.382 344.981 254.836C333.657 258.104 321.341 258.467 309.11 255.3C294.884 251.616 282.892 243.705 274.101 233.258L274.085 233.245C264.69 222.077 258.969 207.997 258.161 193.106C257.903 188.535 258.115 183.897 258.825 179.228C259.179 176.917 259.647 174.598 260.246 172.284C260.873 169.864 261.625 167.505 262.489 165.223C268.57 149.092 280.337 136.403 294.843 128.889C309.234 121.421 326.332 119.036 343.261 123.42C359.933 127.738 373.561 137.882 382.528 151.106C392.679 166.051 396.856 184.961 392.73 203.841C392.546 204.707 392.341 205.568 392.117 206.434Z" fill="#EBEBEB"/>
<path d="M429.3 147.268C428.276 151.223 425.251 154.13 421.59 155.185C419.738 155.72 417.723 155.779 415.723 155.261C413.396 154.658 411.435 153.364 409.997 151.656L409.994 151.654C408.457 149.827 407.521 147.524 407.389 145.088C407.347 144.34 407.381 143.582 407.498 142.818C407.556 142.44 407.632 142.061 407.73 141.682C407.833 141.286 407.955 140.9 408.097 140.527C409.092 137.888 411.016 135.813 413.389 134.584C415.743 133.363 418.54 132.973 421.309 133.689C424.036 134.395 426.265 136.055 427.732 138.218C429.392 140.663 430.076 143.756 429.401 146.844C429.37 146.986 429.336 147.127 429.3 147.268Z" fill="#EBEBEB"/>
<path d="M392.732 203.841L389.624 199.907L385.015 212.029L378.386 202.877L374.838 189.067L359.64 179.854L361.508 183.957L369.936 187.798L373.922 195.841L361.277 195.365L347.945 182.951L356.152 196.526L362.59 201.614L357.103 205.008L347.35 218.398L348.164 224.168C348.164 224.168 340.177 229.939 339.288 230.133C338.401 230.318 321.49 241.44 321.49 241.44L327.95 218.933L327.78 201.796L311.738 202.683L298.8 191.587L307.558 173.124L314.107 169.666L320.783 171.395L343.056 179.594L342.957 175.535L330.358 163.528L322.257 162.061L315.743 164.982L312.016 164.017L318.519 155.863L324.55 153.203L338.138 149.636L348.287 153.31L363.703 156.04C363.703 156.04 376.406 152.724 382.527 151.105C392.681 166.051 396.858 184.961 392.732 203.841Z" fill="#FAFAFA"/>
<path d="M344.982 254.835C333.658 258.103 321.342 258.466 309.111 255.299C294.885 251.615 282.893 243.704 274.102 233.257L283.756 238.367L292.542 245.665L315.705 251.664L335.372 251.734L344.982 254.835Z" fill="#FAFAFA"/>
<path d="M309.299 127.479L302.242 128.985L306.054 134.861L302.764 147.564L331.345 142.744L332.586 137.954L323.322 135.111L309.299 127.479Z" fill="#FAFAFA"/>
<path d="M299.235 140.608L294.574 150.492L283.964 155.914L272.468 160.683L267.012 166.394L262.491 165.223C268.572 149.092 280.339 136.403 294.845 128.889L299.235 140.608Z" fill="#FAFAFA"/>
<path d="M286.581 206.43L278.32 212.46L277.98 218.648L277.065 222.18L276.57 228.13L274.078 226.438L269.334 217.247L265.35 202.722L259.939 194.508L258.163 193.106C257.905 188.535 258.117 183.897 258.827 179.228L260.927 181.779L270.22 180.68L278.459 182.814L280.256 190.431L283.519 197.26L291.031 201.401L286.581 206.43Z" fill="#FAFAFA"/>
<path d="M250 427.561C357.082 427.561 443.889 422.492 443.889 416.238C443.889 409.984 357.082 404.915 250 404.915C142.918 404.915 56.1108 409.984 56.1108 416.238C56.1108 422.492 142.918 427.561 250 427.561Z" fill="#F5F5F5"/>
<path d="M229.863 168.975C233.654 166.548 235.828 161.633 238.84 158.353C244.821 151.839 254.107 141.209 255.505 135.166L232.228 127.118L224.538 146.038C222.908 150.4 215.652 156.772 211.62 158.845C209.257 160.073 206.674 161.156 204.055 162.25C198.803 164.366 193.145 166.294 187.679 168.144L189.057 178.074C192.35 178.117 195.42 177.941 198.597 177.67C201.746 177.371 204.905 176.968 208.073 176.373C211.252 175.794 214.428 175.034 217.669 174.015C220.915 173.003 226.52 171.115 229.863 168.975Z" fill="url(#paint0_linear_110_2725)"/>
<path opacity="0.8" d="M229.863 168.975C233.654 166.548 235.828 161.633 238.84 158.353C244.821 151.839 254.107 141.209 255.505 135.166L232.228 127.118L224.538 146.038C222.908 150.4 215.652 156.772 211.62 158.845C209.257 160.073 206.674 161.156 204.055 162.25C198.803 164.366 193.145 166.294 187.679 168.144L189.057 178.074C192.35 178.117 195.42 177.941 198.597 177.67C201.746 177.371 204.905 176.968 208.073 176.373C211.252 175.794 214.428 175.034 217.669 174.015C220.915 173.003 226.52 171.115 229.863 168.975Z" fill="white"/>
<path d="M205.563 178.138L201.344 162.23C201.344 162.23 176.889 166.694 176.112 173.46C175.309 180.455 192.332 180.286 205.563 178.138Z" fill="#263238"/>
<path d="M188.028 169.847L191.569 164.886C191.569 164.886 179.149 163.323 178.822 165.313C178.38 168.005 182.071 169.857 188.028 169.847Z" fill="#263238"/>
<path d="M300.65 276.35C300.4 276.35 300.148 276.268 299.938 276.1C295.115 272.237 279.778 258.573 284.929 244.899C289.155 233.683 299.386 224.226 311.63 220.219C316.299 218.691 321.232 217.893 326.003 217.122C329.29 216.591 332.689 216.041 335.942 215.259C350.89 211.666 358.418 201.797 355.588 189.503C354.304 183.928 350.847 179.425 347.187 174.658C344.286 170.88 341.286 166.973 339.483 162.487C339.467 162.449 339.454 162.409 339.443 162.37C337.73 156.26 340.165 150.39 342.521 144.712C343.074 143.38 343.596 142.121 344.068 140.854C346.093 135.422 347.924 129.582 347.612 123.684C347.237 116.641 342.55 109.121 335.671 104.525C324.919 97.342 305.081 90.923 296.648 99.954C295.914 100.74 295.277 101.598 294.604 102.505C293.756 103.648 292.88 104.829 291.78 105.875C288.518 108.977 283.603 110.45 278.956 109.721C274.236 108.98 269.692 105.685 267.65 101.523C267.373 100.958 267.606 100.275 268.171 99.997C268.736 99.72 269.42 99.953 269.697 100.519C271.426 104.045 275.289 106.837 279.309 107.468C283.216 108.083 287.491 106.807 290.207 104.223C291.164 103.313 291.945 102.261 292.771 101.147C293.453 100.229 294.157 99.279 294.979 98.398C305.319 87.324 327.712 96.467 336.936 102.63C344.393 107.611 349.477 115.829 349.888 123.564C350.223 129.879 348.316 135.989 346.204 141.652C345.717 142.958 345.162 144.295 344.626 145.587C342.428 150.886 340.154 156.365 341.622 161.696C343.312 165.869 346.201 169.631 348.995 173.27C352.643 178.021 356.415 182.933 357.81 188.992C360.905 202.437 352.53 213.618 336.475 217.477C333.139 218.279 329.696 218.835 326.368 219.373C321.683 220.13 316.84 220.913 312.34 222.386C300.737 226.184 291.052 235.118 287.065 245.703C282.455 257.938 296.845 270.7 301.365 274.319C301.857 274.712 301.936 275.43 301.542 275.922C301.316 276.204 300.984 276.35 300.65 276.35Z" fill="url(#paint1_linear_110_2725)"/>
<path opacity="0.7" d="M300.65 276.35C300.4 276.35 300.148 276.268 299.938 276.1C295.115 272.237 279.778 258.573 284.929 244.899C289.155 233.683 299.386 224.226 311.63 220.219C316.299 218.691 321.232 217.893 326.003 217.122C329.29 216.591 332.689 216.041 335.942 215.259C350.89 211.666 358.418 201.797 355.588 189.503C354.304 183.928 350.847 179.425 347.187 174.658C344.286 170.88 341.286 166.973 339.483 162.487C339.467 162.449 339.454 162.409 339.443 162.37C337.73 156.26 340.165 150.39 342.521 144.712C343.074 143.38 343.596 142.121 344.068 140.854C346.093 135.422 347.924 129.582 347.612 123.684C347.237 116.641 342.55 109.121 335.671 104.525C324.919 97.342 305.081 90.923 296.648 99.954C295.914 100.74 295.277 101.598 294.604 102.505C293.756 103.648 292.88 104.829 291.78 105.875C288.518 108.977 283.603 110.45 278.956 109.721C274.236 108.98 269.692 105.685 267.65 101.523C267.373 100.958 267.606 100.275 268.171 99.997C268.736 99.72 269.42 99.953 269.697 100.519C271.426 104.045 275.289 106.837 279.309 107.468C283.216 108.083 287.491 106.807 290.207 104.223C291.164 103.313 291.945 102.261 292.771 101.147C293.453 100.229 294.157 99.279 294.979 98.398C305.319 87.324 327.712 96.467 336.936 102.63C344.393 107.611 349.477 115.829 349.888 123.564C350.223 129.879 348.316 135.989 346.204 141.652C345.717 142.958 345.162 144.295 344.626 145.587C342.428 150.886 340.154 156.365 341.622 161.696C343.312 165.869 346.201 169.631 348.995 173.27C352.643 178.021 356.415 182.933 357.81 188.992C360.905 202.437 352.53 213.618 336.475 217.477C333.139 218.279 329.696 218.835 326.368 219.373C321.683 220.13 316.84 220.913 312.34 222.386C300.737 226.184 291.052 235.118 287.065 245.703C282.455 257.938 296.845 270.7 301.365 274.319C301.857 274.712 301.936 275.43 301.542 275.922C301.316 276.204 300.984 276.35 300.65 276.35Z" fill="white"/>
<path opacity="0.2" d="M232.96 151.68C231.675 153.83 231.382 160.644 232.04 167.158C234.601 164.575 236.462 160.95 238.841 158.348C239 158.173 239.169 157.996 239.336 157.809C236.737 154.09 233.74 150.358 232.96 151.68Z" fill="black"/>
<path d="M232.229 127.118C232.229 127.118 226.19 151.609 243.287 192.172C257.049 189.722 282.266 185.234 288.962 184.042C288.178 177.815 278.364 149.544 279.951 119.263C279.951 119.263 271.926 118.225 264.409 119.237C258.529 120.028 250.05 121.368 244.993 122.694C238.325 124.441 232.229 127.118 232.229 127.118Z" fill="url(#paint2_linear_110_2725)"/>
<path opacity="0.8" d="M232.229 127.118C232.229 127.118 226.19 151.609 243.287 192.172C257.049 189.722 282.266 185.234 288.962 184.042C288.178 177.815 278.364 149.544 279.951 119.263C279.951 119.263 271.926 118.225 264.409 119.237C258.529 120.028 250.05 121.368 244.993 122.694C238.325 124.441 232.229 127.118 232.229 127.118Z" fill="white"/>
<path opacity="0.2" d="M274.706 142.092C276.546 144.565 279.313 147.033 281.514 148.806C281.21 146.721 280.934 144.579 280.702 142.395L274.706 142.092Z" fill="black"/>
<path d="M243.287 192.172C243.287 192.172 220.13 219.07 222.025 242.292C223.995 266.447 249.162 306.038 249.162 306.038L264.443 298.38C264.443 298.38 254.409 256.772 246.676 244.68C255.136 230.585 266.309 213.772 274.023 187.981C259.899 190.496 243.287 192.172 243.287 192.172Z" fill="url(#paint3_linear_110_2725)"/>
<path opacity="0.8" d="M243.287 192.172C243.287 192.172 220.13 219.07 222.025 242.292C223.995 266.447 249.162 306.038 249.162 306.038L264.443 298.38C264.443 298.38 254.409 256.772 246.676 244.68C255.136 230.585 266.309 213.772 274.023 187.981C259.899 190.496 243.287 192.172 243.287 192.172Z" fill="white"/>
<path opacity="0.2" d="M265.031 206.252C260.826 209.418 258.274 218.738 258.2 225.221C261.445 219.36 264.709 212.896 267.749 205.595C266.826 205.426 265.912 205.598 265.031 206.252Z" fill="black"/>
<path d="M249.566 304.6L262.566 296.673C262.961 296.456 263.472 296.577 263.797 296.964L269.346 306.54C270.096 307.434 269.919 308.769 268.998 309.252C265.173 311.262 264.877 311.069 260.11 313.693C257.177 315.307 251.324 318.977 247.274 321.206C243.313 323.386 240.436 319.448 241.642 317.889C246.088 312.144 247.316 309.853 248.368 306.131C248.557 305.46 248.988 304.918 249.566 304.6Z" fill="url(#paint4_linear_110_2725)"/>
<path opacity="0.8" d="M249.566 304.6L262.566 296.673C262.961 296.456 263.472 296.577 263.797 296.964L269.346 306.54C270.096 307.434 269.919 308.769 268.998 309.252C265.173 311.262 264.877 311.069 260.11 313.693C257.177 315.307 251.324 318.977 247.274 321.206C243.313 323.386 240.436 319.448 241.642 317.889C246.088 312.144 247.316 309.853 248.368 306.131C248.557 305.46 248.988 304.918 249.566 304.6Z" fill="white"/>
<path d="M351.328 319.642L275.151 397.646L262.036 371.068L324.446 307.16L351.328 319.642Z" fill="url(#paint5_linear_110_2725)"/>
<path opacity="0.4" d="M351.328 319.642L275.151 397.646L262.036 371.068L324.446 307.16L351.328 319.642Z" fill="black"/>
<path d="M342.413 337.562L292.855 388.309L270.668 357.684L311.271 316.108L342.413 337.562Z" fill="url(#paint6_linear_110_2725)"/>
<path opacity="0.3" d="M342.413 337.562L292.855 388.309L270.668 357.684L311.271 316.108L342.413 337.562Z" fill="black"/>
<path d="M202.415 321.374C202.415 321.374 221.907 342.143 238.66 360.209C243.457 365.382 244.916 372.735 242.868 379.588C238.996 392.544 244.672 415.52 244.672 415.52C226.142 399.718 176.381 385.904 202.415 321.374Z" fill="url(#paint7_linear_110_2725)"/>
<path opacity="0.3" d="M202.415 321.374C202.415 321.374 221.907 342.143 238.66 360.209C243.457 365.382 244.916 372.735 242.868 379.588C238.996 392.544 244.672 415.52 244.672 415.52C226.142 399.718 176.381 385.904 202.415 321.374Z" fill="black"/>
<path d="M273.352 248.735C273.352 248.735 294.577 267.729 313.036 284.049C318.321 288.722 325.707 290.006 332.51 287.796C345.371 283.618 368.475 288.747 368.475 288.747C352.237 270.597 337.247 221.178 273.352 248.735Z" fill="url(#paint8_linear_110_2725)"/>
<path opacity="0.3" d="M273.352 248.735C273.352 248.735 294.577 267.729 313.036 284.049C318.321 288.722 325.707 290.006 332.51 287.796C345.371 283.618 368.475 288.747 368.475 288.747C352.237 270.597 337.247 221.178 273.352 248.735Z" fill="black"/>
<path d="M224.699 198.661C182.954 162.314 137.881 151.006 119.692 169.632C101.503 188.257 113.876 233.05 151.203 273.922L243.804 375.317C251.48 383.722 264.645 383.942 272.597 375.799L329.425 317.607C337.378 309.463 336.846 296.308 328.261 288.833L224.699 198.661Z" fill="url(#paint9_linear_110_2725)"/>
<path opacity="0.1" d="M273.787 360.514C275.993 361.632 276.517 364.537 274.798 366.315C268.703 372.607 257.147 371.011 249.536 362.804L157.666 263.797C139.214 243.911 126.082 223.835 119.278 206.912C117.281 201.945 124.224 198.402 127.11 202.911C136.322 217.304 150.047 234.484 167.239 252.386L263.935 353.041C267.078 356.311 270.526 358.861 273.787 360.514Z" fill="white"/>
<path opacity="0.1" d="M158.105 162.292C148.762 161.954 137.027 167.286 127.392 177.151C117.766 187.008 112.714 198.867 113.264 208.208C109.486 191.859 111.457 178.069 119.694 169.634C127.932 161.2 141.671 158.903 158.105 162.292Z" fill="black"/>
<path opacity="0.3" d="M190.411 273.449C209.995 273.057 225.553 256.864 225.161 237.281C224.769 217.697 208.576 202.139 188.993 202.531C169.409 202.923 153.851 219.116 154.243 238.699C154.635 258.283 170.828 273.841 190.411 273.449Z" fill="black"/>
<path d="M216.449 258.715C228.53 243.296 225.825 221.002 210.406 208.921C194.986 196.839 172.693 199.545 160.611 214.964C148.53 230.383 151.236 252.677 166.655 264.758C182.074 276.84 204.367 274.134 216.449 258.715Z" fill="white"/>
<path opacity="0.7" d="M212.698 257.939C224.343 244.58 222.954 224.31 209.595 212.665C196.236 201.019 175.966 202.409 164.321 215.768C152.675 229.127 154.065 249.397 167.424 261.042C180.783 272.687 201.053 271.298 212.698 257.939Z" fill="url(#paint10_linear_110_2725)"/>
<g opacity="0.2">
<path d="M165.556 214.415C162.414 217.633 160.086 221.333 158.577 225.277L158.569 225.286L173.927 265.429C180.185 268.623 187.278 269.628 194.046 268.441L171.543 209.601C169.398 210.925 167.396 212.53 165.556 214.415Z" fill="white"/>
<path d="M173.9 208.271L196.693 267.864C200.144 266.962 203.473 265.473 206.532 263.407L184.228 205.039C180.658 205.512 177.166 206.581 173.9 208.271Z" fill="white"/>
</g>
<path d="M308.89 307.401L315.676 293.847C315.894 293.455 316.391 293.288 316.871 293.445L326.467 297.953C327.576 298.315 328.136 299.536 327.614 300.431C325.446 304.146 325.279 304.808 322.64 309.539C321.017 312.449 318.015 318.637 315.773 322.656C313.581 326.587 309.055 324.771 309.247 322.817C309.956 315.615 309.777 313.031 308.689 309.327C308.494 308.66 308.57 307.974 308.89 307.401Z" fill="url(#paint11_linear_110_2725)"/>
<path opacity="0.8" d="M308.89 307.401L315.676 293.847C315.894 293.455 316.391 293.288 316.871 293.445L326.467 297.953C327.576 298.315 328.136 299.536 327.614 300.431C325.446 304.146 325.279 304.808 322.64 309.539C321.017 312.449 318.015 318.637 315.773 322.656C313.581 326.587 309.055 324.771 309.247 322.817C309.956 315.615 309.777 313.031 308.689 309.327C308.494 308.66 308.57 307.974 308.89 307.401Z" fill="white"/>
<path d="M259.49 189.288C259.49 189.288 259.579 231.853 268.73 252.425C278.751 274.953 309.509 309.977 309.509 309.977L321.112 298.326C321.112 298.326 306.482 266.364 292.896 249.226C292.62 228.139 294.859 205.143 289.301 186.034C271.809 189.147 259.49 189.288 259.49 189.288Z" fill="url(#paint12_linear_110_2725)"/>
<path opacity="0.8" d="M259.49 189.288C259.49 189.288 259.579 231.853 268.73 252.425C278.751 274.953 309.509 309.977 309.509 309.977L321.112 298.326C321.112 298.326 306.482 266.364 292.896 249.226C292.62 228.139 294.859 205.143 289.301 186.034C271.809 189.147 259.49 189.288 259.49 189.288Z" fill="white"/>
<path d="M287.818 189.311C266.614 194.214 250.644 194.711 244.129 194.662C242.392 194.649 241.028 193.179 241.132 191.445L241.133 191.435C241.229 189.824 242.564 188.573 244.178 188.58C250.353 188.608 266.008 188.117 286.467 183.392C288.082 183.019 289.7 184.015 290.095 185.625C290.498 187.271 289.47 188.929 287.818 189.311Z" fill="#263238"/>
<path d="M311.341 144.935C309.543 140.809 307.042 138.073 303.665 135.169C296.961 129.401 286.036 120.465 279.951 119.263L272.661 142.788L291.82 149.862C295.615 152.561 296.459 154.337 297.583 158.729C298.255 161.305 298.736 164.065 299.22 166.861C300.114 172.452 300.736 178.398 301.323 184.138L311.311 185.004C312.085 181.803 312.597 178.771 313.04 175.613C313.449 172.477 313.759 169.307 313.884 166.086C314.026 162.858 313.993 159.593 313.72 156.206C313.454 152.817 312.927 148.575 311.341 144.935Z" fill="url(#paint13_linear_110_2725)"/>
<path opacity="0.8" d="M311.341 144.935C309.543 140.809 307.042 138.073 303.665 135.169C296.961 129.401 286.036 120.465 279.951 119.263L272.661 142.788L291.82 149.862C295.615 152.561 296.459 154.337 297.583 158.729C298.255 161.305 298.736 164.065 299.22 166.861C300.114 172.452 300.736 178.398 301.323 184.138L311.311 185.004C312.085 181.803 312.597 178.771 313.04 175.613C313.449 172.477 313.759 169.307 313.884 166.086C314.026 162.858 313.993 159.593 313.72 156.206C313.454 152.817 312.927 148.575 311.341 144.935Z" fill="white"/>
<path d="M314.383 169.471L298.597 169.501C298.597 169.501 297.508 194.336 303.933 196.599C310.574 198.938 313.534 182.849 314.383 169.471Z" fill="#263238"/>
<path d="M303.061 184.178L299.012 179.622C299.012 179.622 295.218 189.986 297.526 191.267C299.912 192.591 301.746 189.988 303.061 184.178Z" fill="#263238"/>
<path opacity="0.2" d="M264.414 119.238C258.525 120.031 250.046 121.365 244.994 122.693C242.538 123.334 240.176 124.104 238.152 124.812C242.535 126.419 247.435 126.873 251.8 126.151C253.473 125.869 255.081 125.401 256.574 124.761C260.779 123.747 265.017 121.68 268.672 118.86C267.265 118.93 265.828 119.047 264.414 119.238Z" fill="black"/>
<path d="M256.649 100.766C256.55 106.456 257.267 116.723 261.767 119.707C261.767 119.707 261.833 122.196 252.531 123.828C244.942 125.159 244.678 122.749 244.678 122.749C250.549 120.193 249.581 115.672 247.752 111.59L256.649 100.766Z" fill="#FFB573"/>
<path opacity="0.2" d="M253.023 105.182L247.757 111.585C248.193 112.55 248.575 113.54 248.824 114.524C251.106 113.769 253.866 110.624 253.678 108.128C253.584 106.883 253.324 105.717 253.023 105.182Z" fill="black"/>
<path d="M239.26 100.149C236.569 96.503 233.528 91.209 234.84 88.59C236.153 85.971 241.605 84.437 244.085 86.364C247.202 88.786 244.926 96.344 239.26 100.149Z" fill="#263238"/>
<path d="M257.01 92.968C257.239 100.541 257.757 104.962 254.309 109.176C249.121 115.515 239.509 112.92 237.023 105.568C234.785 98.95 234.787 87.677 241.883 84.004C248.873 80.385 256.781 85.395 257.01 92.968Z" fill="#FFB573"/>
<path d="M256.742 100.065C253.382 97.025 249.351 92.439 250.119 89.612C250.887 86.785 255.927 84.201 258.74 85.598C262.274 87.353 261.541 95.213 256.742 100.065Z" fill="#263238"/>
<path d="M253.031 89.137C247.862 90.571 233.24 93.447 235.292 87.294C237.344 81.141 245.378 79.96 248.332 81.284C251.286 82.608 253.542 79.095 253.542 79.095C253.964 80.121 251.727 82.842 248.507 83.29C245.287 83.738 262.288 80.787 257.839 86.827C253.39 92.867 253.031 89.137 253.031 89.137Z" fill="#263238"/>
<path d="M261.173 100.957C260.264 102.786 258.594 104.025 256.994 104.534C254.587 105.299 253.295 103.169 253.889 100.851C254.424 98.765 256.32 95.852 258.772 96.097C261.187 96.337 262.213 98.865 261.173 100.957Z" fill="#FFB573"/>
<path d="M245.78 96.122C245.836 96.735 245.557 97.262 245.156 97.299C244.755 97.336 244.385 96.869 244.328 96.255C244.272 95.642 244.551 95.115 244.952 95.078C245.353 95.041 245.724 95.508 245.78 96.122Z" fill="#263238"/>
<path d="M238.849 96.758C238.905 97.371 238.626 97.898 238.225 97.935C237.824 97.972 237.454 97.505 237.397 96.891C237.341 96.278 237.62 95.751 238.021 95.714C238.423 95.677 238.793 96.145 238.849 96.758Z" fill="#263238"/>
<path d="M241.081 96.861C241.081 96.861 240.011 100.526 238.633 102.374C239.811 103.287 241.613 102.655 241.613 102.655L241.081 96.861Z" fill="#ED893E"/>
<path d="M246.598 102.941C245.945 103.494 244.956 104.056 243.555 104.184C243.455 104.193 243.367 104.12 243.358 104.021C243.349 103.92 243.423 103.834 243.522 103.824C246.206 103.578 247.298 101.582 247.308 101.561C247.356 101.473 247.464 101.439 247.553 101.486C247.641 101.533 247.675 101.642 247.628 101.731C247.603 101.776 247.29 102.354 246.598 102.941Z" fill="#263238"/>
<path d="M247.865 93.61C247.717 93.735 247.495 93.722 247.364 93.578C246.277 92.387 244.96 92.585 244.946 92.588C244.749 92.621 244.563 92.486 244.531 92.289C244.499 92.093 244.632 91.906 244.829 91.874C244.898 91.863 246.549 91.613 247.897 93.09C248.032 93.237 248.021 93.467 247.874 93.601C247.871 93.605 247.868 93.608 247.865 93.61Z" fill="#263238"/>
<path d="M235.798 94.571C235.701 94.654 235.563 94.682 235.436 94.634C235.249 94.564 235.155 94.355 235.225 94.168C235.931 92.296 237.558 91.918 237.626 91.903C237.821 91.86 238.014 91.983 238.057 92.178C238.1 92.372 237.978 92.564 237.783 92.609C237.727 92.622 236.463 92.932 235.901 94.423C235.88 94.482 235.843 94.533 235.798 94.571Z" fill="#263238"/>
<path d="M273.507 97.875C275.849 110.248 268.602 121.949 257.174 124.688C256.734 124.787 256.281 124.883 255.833 124.964C250.185 125.946 244.609 124.61 240.011 121.611C244.223 122.672 248.798 122.327 253.026 120.329C262.754 115.732 266.905 104.12 262.313 94.401C257.716 84.673 246.113 80.517 236.385 85.114C235.377 85.591 234.428 86.147 233.544 86.771C235.776 83.78 238.73 81.399 242.202 79.888L242.229 79.875C243.731 79.23 245.325 78.758 247.003 78.463C259.209 76.341 271.066 85.04 273.507 97.875Z" fill="url(#paint14_linear_110_2725)"/>
<path opacity="0.8" d="M273.507 97.875C275.849 110.248 268.602 121.949 257.174 124.688C256.734 124.787 256.281 124.883 255.833 124.964C250.185 125.946 244.609 124.61 240.011 121.611C244.223 122.672 248.798 122.327 253.026 120.329C262.754 115.732 266.905 104.12 262.313 94.401C257.716 84.673 246.113 80.517 236.385 85.114C235.377 85.591 234.428 86.147 233.544 86.771C235.776 83.78 238.73 81.399 242.202 79.888L242.229 79.875C243.731 79.23 245.325 78.758 247.003 78.463C259.209 76.341 271.066 85.04 273.507 97.875Z" fill="white"/>
<path d="M268.949 99.38C271.137 110.442 266.018 120.833 257.174 124.689C255.773 125.296 254.272 125.736 252.708 125.999C245.489 127.182 238.332 124.149 233.376 118.561C235.383 119.993 237.64 121.036 240.011 121.613C244.223 122.674 248.798 122.329 253.026 120.331C262.754 115.734 266.905 104.122 262.313 94.403C257.716 84.675 246.113 80.519 236.385 85.116C235.377 85.593 234.428 86.149 233.544 86.773C231.611 88.108 229.982 89.765 228.698 91.627C231.208 85.789 236.018 81.363 242.203 79.89L242.23 79.877C242.661 79.782 243.087 79.699 243.526 79.621C255.026 77.723 266.416 86.578 268.949 99.38Z" fill="url(#paint15_linear_110_2725)"/>
<path opacity="0.6" d="M268.949 99.38C271.137 110.442 266.018 120.833 257.174 124.689C255.773 125.296 254.272 125.736 252.708 125.999C245.489 127.182 238.332 124.149 233.376 118.561C235.383 119.993 237.64 121.036 240.011 121.613C244.223 122.674 248.798 122.329 253.026 120.331C262.754 115.734 266.905 104.122 262.313 94.403C257.716 84.675 246.113 80.519 236.385 85.116C235.377 85.593 234.428 86.149 233.544 86.773C231.611 88.108 229.982 89.765 228.698 91.627C231.208 85.789 236.018 81.363 242.203 79.89L242.23 79.877C242.661 79.782 243.087 79.699 243.526 79.621C255.026 77.723 266.416 86.578 268.949 99.38Z" fill="white"/>
<path opacity="0.2" d="M264.159 101.789C264.672 112.532 256.379 121.657 245.636 122.17C234.893 122.683 225.769 114.39 225.255 103.647C224.742 92.904 233.035 83.779 243.778 83.266C254.521 82.753 263.646 91.046 264.159 101.789Z" fill="url(#paint16_linear_110_2725)"/>
<path opacity="0.2" d="M225.255 103.646C225.768 114.389 234.893 122.682 245.635 122.169C256.378 121.656 264.671 112.532 264.158 101.789C255.424 99.82 234.279 98.444 225.255 103.646Z" fill="url(#paint17_linear_110_2725)"/>
<path opacity="0.2" d="M267.104 149.072C258.36 149.592 249.483 150.759 240.556 152.617L240.074 152.169L266.152 134.319L266.634 134.767C266.634 134.767 266.837 144.326 267.104 149.072Z" fill="black"/>
<path d="M266.622 148.623C257.878 149.144 249.001 150.31 240.074 152.168C239.575 147.383 239.203 142.559 238.961 137.7C248.096 135.917 257.186 134.803 266.152 134.318C266.198 139.109 266.354 143.878 266.622 148.623Z" fill="white"/>
<path opacity="0.3" d="M260.927 138.941C261.097 140.099 260.431 141.156 259.439 141.302C258.447 141.448 257.505 140.627 257.335 139.469C257.165 138.311 257.831 137.254 258.823 137.108C259.815 136.962 260.757 137.783 260.927 138.941Z" fill="url(#paint18_linear_110_2725)"/>
<path opacity="0.3" d="M261.093 144.633C261.263 145.791 260.597 146.848 259.605 146.994C258.613 147.14 257.671 146.319 257.501 145.161C257.331 144.003 257.997 142.946 258.989 142.8C259.98 142.654 260.923 143.475 261.093 144.633Z" fill="url(#paint19_linear_110_2725)"/>
<path d="M243.348 148.081C243.348 148.081 248.791 147.091 253.123 146.852C250.95 143.848 247.697 138.718 247.697 138.718C247.697 138.718 244.566 144.605 243.348 148.081Z" fill="url(#paint20_linear_110_2725)"/>
<defs>
<linearGradient id="paint0_linear_110_2725" x1="221.592" y1="127.118" x2="221.592" y2="178.08" gradientUnits="userSpaceOnUse">
<stop stop-color="#0B2255"/>
<stop offset="1" stop-color="#269970"/>
</linearGradient>
<linearGradient id="paint1_linear_110_2725" x1="312.99" y1="93.202" x2="312.99" y2="276.35" gradientUnits="userSpaceOnUse">
<stop stop-color="#0B2255"/>
<stop offset="1" stop-color="#269970"/>
</linearGradient>
<linearGradient id="paint2_linear_110_2725" x1="260.078" y1="118.794" x2="260.078" y2="192.172" gradientUnits="userSpaceOnUse">
<stop stop-color="#0B2255"/>
<stop offset="1" stop-color="#269970"/>
</linearGradient>
<linearGradient id="paint3_linear_110_2725" x1="247.969" y1="187.981" x2="247.969" y2="306.038" gradientUnits="userSpaceOnUse">
<stop stop-color="#0B2255"/>
<stop offset="1" stop-color="#269970"/>
</linearGradient>
<linearGradient id="paint4_linear_110_2725" x1="255.589" y1="296.566" x2="255.589" y2="321.849" gradientUnits="userSpaceOnUse">
<stop stop-color="#0B2255"/>
<stop offset="1" stop-color="#269970"/>
</linearGradient>
<linearGradient id="paint5_linear_110_2725" x1="306.682" y1="307.16" x2="306.682" y2="397.646" gradientUnits="userSpaceOnUse">
<stop stop-color="#0B2255"/>
<stop offset="1" stop-color="#269970"/>
</linearGradient>
<linearGradient id="paint6_linear_110_2725" x1="306.54" y1="316.108" x2="306.54" y2="388.309" gradientUnits="userSpaceOnUse">
<stop stop-color="#0B2255"/>
<stop offset="1" stop-color="#269970"/>
</linearGradient>
<linearGradient id="paint7_linear_110_2725" x1="219.853" y1="321.374" x2="219.853" y2="415.52" gradientUnits="userSpaceOnUse">
<stop stop-color="#0B2255"/>
<stop offset="1" stop-color="#269970"/>
</linearGradient>
<linearGradient id="paint8_linear_110_2725" x1="320.914" y1="240.556" x2="320.914" y2="288.848" gradientUnits="userSpaceOnUse">
<stop stop-color="#0B2255"/>
<stop offset="1" stop-color="#269970"/>
</linearGradient>
<linearGradient id="paint9_linear_110_2725" x1="223.24" y1="160.786" x2="223.24" y2="381.766" gradientUnits="userSpaceOnUse">
<stop stop-color="#0B2255"/>
<stop offset="1" stop-color="#269970"/>
</linearGradient>
<linearGradient id="paint10_linear_110_2725" x1="164.321" y1="215.768" x2="212.698" y2="257.939" gradientUnits="userSpaceOnUse">
<stop stop-color="#0B2255"/>
<stop offset="1" stop-color="#269970"/>
</linearGradient>
<linearGradient id="paint11_linear_110_2725" x1="318.197" y1="293.386" x2="318.197" y2="324.985" gradientUnits="userSpaceOnUse">
<stop stop-color="#0B2255"/>
<stop offset="1" stop-color="#269970"/>
</linearGradient>
<linearGradient id="paint12_linear_110_2725" x1="290.301" y1="186.034" x2="290.301" y2="309.977" gradientUnits="userSpaceOnUse">
<stop stop-color="#0B2255"/>
<stop offset="1" stop-color="#269970"/>
</linearGradient>
<linearGradient id="paint13_linear_110_2725" x1="293.314" y1="119.263" x2="293.314" y2="185.004" gradientUnits="userSpaceOnUse">
<stop stop-color="#0B2255"/>
<stop offset="1" stop-color="#269970"/>
</linearGradient>
<linearGradient id="paint14_linear_110_2725" x1="253.745" y1="78.1443" x2="253.745" y2="125.283" gradientUnits="userSpaceOnUse">
<stop stop-color="#0B2255"/>
<stop offset="1" stop-color="#269970"/>
</linearGradient>
<linearGradient id="paint15_linear_110_2725" x1="249.075" y1="79.3648" x2="249.075" y2="126.253" gradientUnits="userSpaceOnUse">
<stop stop-color="#0B2255"/>
<stop offset="1" stop-color="#269970"/>
</linearGradient>
<linearGradient id="paint16_linear_110_2725" x1="244.707" y1="83.2434" x2="244.707" y2="122.193" gradientUnits="userSpaceOnUse">
<stop stop-color="#0B2255"/>
<stop offset="1" stop-color="#269970"/>
</linearGradient>
<linearGradient id="paint17_linear_110_2725" x1="244.718" y1="100.025" x2="244.718" y2="122.192" gradientUnits="userSpaceOnUse">
<stop stop-color="#0B2255"/>
<stop offset="1" stop-color="#269970"/>
</linearGradient>
<linearGradient id="paint18_linear_110_2725" x1="259.131" y1="137.091" x2="259.131" y2="141.319" gradientUnits="userSpaceOnUse">
<stop stop-color="#0B2255"/>
<stop offset="1" stop-color="#269970"/>
</linearGradient>
<linearGradient id="paint19_linear_110_2725" x1="259.297" y1="142.783" x2="259.297" y2="147.011" gradientUnits="userSpaceOnUse">
<stop stop-color="#0B2255"/>
<stop offset="1" stop-color="#269970"/>
</linearGradient>
<linearGradient id="paint20_linear_110_2725" x1="248.236" y1="138.718" x2="248.236" y2="148.081" gradientUnits="userSpaceOnUse">
<stop stop-color="#0B2255"/>
<stop offset="1" stop-color="#269970"/>
</linearGradient>
</defs>
</svg>
