<svg width="500" height="500" viewBox="0 0 500 500" fill="none" xmlns="http://www.w3.org/2000/svg">
<path d="M249.048 486.053C379.171 486.053 484.656 425.151 484.656 350.024C484.656 274.897 379.171 213.995 249.048 213.995C118.925 213.995 13.4399 274.897 13.4399 350.024C13.4399 425.151 118.925 486.053 249.048 486.053Z" fill="#F0F0F0"/>
<path d="M384.363 397.224C368.913 388.304 368.913 373.842 384.363 364.922C399.813 356.002 424.861 356.002 440.311 364.922C455.761 373.842 455.761 388.304 440.311 397.224C424.861 406.144 399.813 406.144 384.363 397.224Z" fill="#E0E0E0"/>
<path d="M70.119 398.462L29.479 374.998C27.188 373.675 27.188 371.53 29.479 370.207L265.868 233.728C268.159 232.405 271.874 232.405 274.165 233.728L314.807 257.191C317.098 258.514 317.098 260.659 314.807 261.981L78.416 398.462C76.125 399.785 72.41 399.785 70.119 398.462Z" fill="#E0E0E0"/>
<path d="M216.2 356.644L251.137 336.443C254.738 334.364 256.539 331.639 256.539 328.914C256.539 326.189 256.554 324.054 256.554 324.054L220.305 303.614C218.384 302.505 216.827 299.808 216.827 297.59V254.515L155.804 289.777L155.802 332.851C155.802 335.069 157.359 337.766 159.28 338.875L190.116 356.643C197.319 360.803 208.997 360.802 216.2 356.644Z" fill="url(#paint0_linear_106_2)"/>
<g opacity="0.6">
<path d="M216.2 356.644L251.137 336.443C254.738 334.364 256.539 331.639 256.539 328.914C256.539 326.189 256.554 324.054 256.554 324.054L220.305 303.614C218.384 302.505 216.827 299.808 216.827 297.59V254.515L155.804 289.777L155.802 332.851C155.802 335.069 157.359 337.766 159.28 338.875L190.116 356.643C197.319 360.803 208.997 360.802 216.2 356.644Z" fill="#FFF3F3"/>
</g>
<path opacity="0.3" d="M170.455 340.48V345.319L159.271 338.874C157.363 337.77 155.797 335.079 155.797 332.85V289.78L167.423 283.073C167.664 286.025 167.925 289.077 168.166 292.049L160.014 296.768V330.421C160.014 332.65 161.56 335.34 163.488 336.445L170.455 340.48Z" fill="#FFF3F3"/>
<path d="M160.012 330.428C160.012 332.646 161.569 335.343 163.49 336.452L190.112 351.787C197.315 355.945 208.994 355.947 216.197 351.79L251.152 331.591C258.356 327.434 258.357 320.693 251.154 316.534L224.515 301.189C222.594 300.08 221.037 297.383 221.037 295.165L221.036 261.508L160.012 296.77V330.428Z" fill="url(#paint1_linear_106_2)"/>
<path opacity="0.3" d="M160.012 330.428C160.012 332.646 161.569 335.343 163.49 336.452L190.112 351.787C197.315 355.945 208.994 355.947 216.197 351.79L251.152 331.591C258.356 327.434 258.357 320.693 251.154 316.534L224.515 301.189C222.594 300.08 221.037 297.383 221.037 295.165L221.036 261.508L160.012 296.77V330.428Z" fill="#FFF3F3"/>
<path opacity="0.5" d="M231.598 305.283V305.278L224.514 301.188C222.593 300.079 221.036 297.382 221.036 295.164V261.507L160.011 296.769V330.428C160.011 332.646 161.568 335.343 163.489 336.452L170.45 340.471L231.598 305.283Z" fill="#FFF3F3"/>
<path d="M256.548 324.058C256.548 324.058 256.548 326.186 256.548 328.917C256.548 331.648 254.741 334.358 251.147 336.447L216.204 356.636C212.75 358.644 208.273 359.648 203.755 359.728V354.889C208.273 354.829 212.75 353.785 216.204 351.797L251.147 331.587C254.74 329.519 256.548 326.789 256.548 324.058Z" fill="url(#paint2_linear_106_2)"/>
<path opacity="0.5" d="M256.548 324.058C256.548 324.058 256.548 326.186 256.548 328.917C256.548 331.648 254.741 334.358 251.147 336.447L216.204 356.636C212.75 358.644 208.273 359.648 203.755 359.728V354.889C208.273 354.829 212.75 353.785 216.204 351.797L251.147 331.587C254.74 329.519 256.548 326.789 256.548 324.058Z" fill="#FFF3F3"/>
<path d="M62.0309 372.263C64.2829 373.563 68.0559 373.493 70.4569 372.107C100.458 354.786 276.457 253.175 306.454 235.857C308.855 234.471 310.8 231.1 310.8 228.328V37.414C310.8 34.642 308.974 31.34 306.722 30.04C304.47 28.74 300.698 28.809 298.297 30.196L62.3029 166.446C59.9019 167.832 57.9559 171.203 57.9559 173.976L57.9529 364.889C57.9529 367.661 59.7779 370.962 62.0309 372.263Z" fill="url(#paint3_linear_106_2)"/>
<path d="M70.4569 372.102L306.453 235.853C308.854 234.467 310.8 231.096 310.8 228.323V37.409C310.8 34.637 308.854 33.513 306.453 34.899L70.4599 171.149C68.0589 172.535 66.1129 175.906 66.1129 178.679L66.1099 369.592C66.1099 372.364 68.0569 373.488 70.4569 372.102Z" fill="url(#paint4_linear_106_2)"/>
<path opacity="0.5" d="M70.4569 372.102L306.453 235.853C308.854 234.467 310.8 231.096 310.8 228.323V37.409C310.8 34.637 308.854 33.513 306.453 34.899L70.4599 171.149C68.0589 172.535 66.1129 175.906 66.1129 178.679L66.1099 369.592C66.1099 372.364 68.0569 373.488 70.4569 372.102Z" fill="#FFF3F3"/>
<path d="M69.8169 377.064C67.4079 378.128 64.0749 378.088 62.0269 376.903C59.7779 375.598 57.9509 372.305 57.9509 369.514V352.131L66.1029 356.85V374.233C66.1029 376.763 67.7089 377.907 69.8169 377.064Z" fill="url(#paint5_linear_106_2)"/>
<path opacity="0.5" d="M69.8169 377.064C67.4079 378.128 64.0749 378.088 62.0269 376.903C59.7779 375.598 57.9509 372.305 57.9509 369.514V352.131L66.1029 356.85V374.233C66.1029 376.763 67.7089 377.907 69.8169 377.064Z" fill="#FFF3F3"/>
<path d="M66.103 356.849L66.11 374.226C66.11 376.998 68.057 378.122 70.457 376.736L306.453 240.487C308.854 239.101 310.8 235.73 310.8 232.957V215.543L66.103 356.849Z" fill="url(#paint6_linear_106_2)"/>
<path opacity="0.3" d="M66.1099 356.813V374.226C66.1099 376.998 68.0569 378.122 70.4569 376.736L306.453 240.487C308.854 239.101 310.8 235.73 310.8 232.957V215.543L66.1099 356.813Z" fill="#FFF3F3"/>
<path d="M74.2639 335.041L74.2659 181.386C74.2659 179.723 75.4339 177.7 76.8739 176.868L300.031 48.028C301.472 47.196 302.639 47.871 302.639 49.534L302.646 203.193C302.646 204.856 301.478 206.879 300.038 207.711L76.8729 336.547C75.4319 337.379 74.2639 336.704 74.2639 335.041Z" fill="url(#paint7_linear_106_2)"/>
<path d="M74.2639 335.041L74.2659 181.386C74.2659 179.723 75.4339 177.7 76.8739 176.868L300.031 48.028C301.472 47.196 302.639 47.871 302.639 49.534L302.646 203.193C302.646 204.856 301.478 206.879 300.038 207.711L76.8729 336.547C75.4319 337.379 74.2639 336.704 74.2639 335.041Z" fill="#263238"/>
<path d="M188.452 291.726C186.199 293.027 184.373 296.19 184.373 298.791C184.373 301.392 186.2 302.446 188.453 301.145C190.706 299.844 192.532 296.681 192.532 294.08C192.531 291.48 190.705 290.426 188.452 291.726Z" fill="url(#paint8_linear_106_2)"/>
<path opacity="0.7" d="M67.3879 174.378C66.6049 175.743 66.1229 177.289 66.1029 178.675V356.85L57.9509 352.131L57.9559 173.976C57.9559 172.591 58.4529 171.045 59.2359 169.68L67.3879 174.378Z" fill="#FFF3F3"/>
<path opacity="0.3" d="M310.756 36.694C310.448 34.453 308.638 33.641 306.449 34.895L70.4599 171.153C69.2669 171.842 68.1879 173.014 67.3859 174.381L59.2329 169.673C60.0249 168.326 61.1039 167.134 62.3069 166.445L298.296 30.197C300.702 28.809 304.464 28.737 306.726 30.043C308.782 31.225 310.478 34.093 310.756 36.694Z" fill="#FFF3F3"/>
<path d="M323.492 60.187C322.924 59.846 322.149 59.858 321.275 60.363L98.587 188.949C96.904 189.921 95.54 192.281 95.54 194.224L95.542 346.943C95.542 348.127 96.049 349.173 96.826 349.59C97.324 349.858 99.941 351.38 100.718 351.798C101.216 352.066 101.825 352.075 102.483 351.696L325.163 223.059C326.847 222.09 328.212 219.73 328.212 217.787V64.328C328.212 63.326 327.849 62.632 327.268 62.327C326.721 62.041 324.053 60.523 323.492 60.187Z" fill="url(#paint9_linear_106_2)"/>
<path d="M101.477 351.491C100.626 351.491 99.9351 350.441 99.9351 349.151V196.432C99.9351 194.682 101.215 192.464 102.731 191.588L325.416 63.002C325.812 62.773 326.195 62.653 326.526 62.653C327.269 62.653 327.712 63.279 327.712 64.328V217.788C327.712 219.538 326.431 221.754 324.914 222.626L102.233 351.263C101.971 351.414 101.717 351.491 101.477 351.491Z" fill="#FAFAFA"/>
<path d="M326.527 63.153C327.123 63.153 327.212 63.889 327.212 64.328V217.788C327.212 219.381 326.045 221.398 324.663 222.194L101.985 350.83C101.799 350.937 101.628 350.991 101.477 350.991C100.921 350.991 100.434 350.131 100.434 349.151V196.432C100.434 194.838 101.6 192.819 102.98 192.022L325.666 63.435C326.07 63.202 326.357 63.153 326.527 63.153ZM326.527 62.153C326.118 62.153 325.655 62.287 325.166 62.569L102.481 191.156C100.799 192.127 99.4351 194.49 99.4351 196.432V349.151C99.4351 350.687 100.288 351.991 101.478 351.991C101.793 351.991 102.132 351.9 102.484 351.697L325.164 223.06C326.848 222.091 328.213 219.731 328.213 217.788V64.328C328.213 62.95 327.526 62.153 326.527 62.153Z" fill="#E0E0E0"/>
<path d="M96.8221 349.589C97.1521 349.764 99.5211 351.115 100.559 351.706C99.8591 351.207 99.4901 350.35 99.4381 349.148V206.397L95.5381 204.115V346.944C95.5381 348.123 96.0461 349.177 96.8221 349.589Z" fill="#F0F0F0"/>
<path d="M328.211 64.305C328.199 62.381 326.842 61.602 325.167 62.569L102.481 191.156C100.799 192.127 99.4351 194.49 99.4351 196.432L99.4381 206.397L328.211 74.303V64.305Z" fill="url(#paint10_linear_106_2)"/>
<g opacity="0.4">
<path d="M325.165 62.568L102.484 191.154C101.65 191.643 100.884 192.467 100.338 193.415L96.4673 191.173C97.0133 190.234 97.7633 189.418 98.5863 188.948L321.275 60.362C322.147 59.854 322.923 59.846 323.489 60.182C324.035 60.517 326.565 61.955 327.207 62.299C326.669 62.041 325.951 62.118 325.165 62.568Z" fill="white"/>
</g>
<path opacity="0.15" d="M95.5381 204.125L95.5401 194.22C95.5401 193.233 95.9021 192.141 96.4671 191.173L100.347 193.405C99.7821 194.363 99.4371 195.446 99.4371 196.432V206.395L95.5381 204.125Z" fill="#FFF3F3"/>
<path d="M281.25 179.423L147.876 256.426C146.647 257.136 145.65 258.862 145.65 260.281V298.517C145.65 299.936 146.647 301.661 147.878 302.369L151.775 304.611C153.005 305.319 154.999 305.317 156.228 304.608L289.584 227.615C290.813 226.905 291.81 225.179 291.811 223.76L291.827 185.513C291.828 184.094 290.831 182.369 289.6 181.661L285.704 179.419C284.473 178.712 282.479 178.714 281.25 179.423Z" fill="url(#paint11_linear_106_2)"/>
<path opacity="0.5" d="M291.809 185.153C291.655 184.002 290.719 183.58 289.599 184.228L156.23 261.229C155.613 261.579 155.058 262.195 154.657 262.894L146.309 258.072C146.71 257.383 147.265 256.777 147.872 256.427L281.251 179.426C282.475 178.717 284.469 178.706 285.703 179.416L289.599 181.657C290.729 182.305 291.665 183.817 291.809 185.153Z" fill="white"/>
<path d="M155.85 304.787C154.616 305.311 152.889 305.25 151.779 304.612L147.883 302.371C146.649 301.662 145.652 299.935 145.652 298.516V260.283C145.652 259.563 145.909 258.772 146.31 258.073L154.658 262.895C154.247 263.594 154 264.375 154 265.085V303.328C153.999 304.602 154.801 305.188 155.85 304.787Z" fill="#263238"/>
<path d="M156.227 261.233L289.601 184.229C290.83 183.519 291.826 184.095 291.826 185.514L291.81 223.761C291.809 225.18 290.812 226.906 289.583 227.616L156.227 304.609C154.998 305.319 154.001 304.743 154.001 303.324V265.088C154.002 263.668 154.998 261.942 156.227 261.233Z" fill="url(#paint12_linear_106_2)"/>
<path d="M245.894 199.839L147.871 256.428C147.265 256.778 146.71 257.384 146.308 258.073L154.656 262.895C155.057 262.196 155.612 261.579 156.229 261.23L254.226 204.651L245.894 199.839Z" fill="url(#paint13_linear_106_2)"/>
<path d="M254.227 204.652L156.227 261.232C154.998 261.942 154.001 263.668 154.001 265.087V303.323C154.001 304.742 154.997 305.318 156.227 304.608L254.227 248.028V204.652Z" fill="#37474F"/>
<path d="M178.829 256.575L229.396 227.379C231.493 226.168 233.192 227.028 233.192 229.3C233.192 231.571 231.492 234.394 229.395 235.605L178.832 264.798C176.735 266.009 175.034 265.149 175.034 262.879C175.033 260.608 176.732 257.786 178.829 256.575Z" fill="url(#paint14_linear_106_2)"/>
<path d="M189.191 266.237C189.248 266.204 189.298 266.213 189.339 266.263C189.381 266.313 189.402 266.388 189.402 266.49V272.185C189.402 272.759 189.355 273.303 189.26 273.821C189.168 274.337 189.027 274.817 188.838 275.259C188.651 275.701 188.416 276.092 188.136 276.436C187.854 276.778 187.529 277.056 187.159 277.269C186.784 277.486 186.456 277.584 186.178 277.566C185.899 277.546 185.666 277.423 185.479 277.199C185.291 276.974 185.152 276.655 185.06 276.245C184.97 275.835 184.923 275.343 184.923 274.769V269.075C184.923 268.973 184.944 268.874 184.986 268.776C185.027 268.678 185.076 268.611 185.134 268.579L185.768 268.213C185.825 268.179 185.874 268.188 185.917 268.238C185.958 268.288 185.979 268.363 185.979 268.465V274.09C185.979 274.47 186.008 274.777 186.065 275.012C186.121 275.249 186.203 275.422 186.306 275.532C186.41 275.644 186.536 275.697 186.682 275.692C186.828 275.686 186.987 275.633 187.159 275.534C187.331 275.435 187.49 275.303 187.639 275.138C187.788 274.973 187.914 274.777 188.019 274.544C188.123 274.313 188.205 274.046 188.265 273.743C188.325 273.44 188.354 273.098 188.354 272.719V267.095C188.354 266.993 188.375 266.894 188.416 266.796C188.458 266.698 188.507 266.631 188.566 266.598L189.191 266.237Z" fill="#FAFAFA"/>
<path d="M193.113 271.625C193.113 271.525 193.095 271.451 193.058 271.407C193.022 271.363 192.958 271.34 192.867 271.337C192.776 271.334 192.654 271.348 192.504 271.38C192.352 271.412 192.16 271.449 191.926 271.492C191.696 271.532 191.507 271.524 191.356 271.474C191.204 271.422 191.084 271.329 190.993 271.197C190.902 271.064 190.838 270.892 190.801 270.675C190.765 270.46 190.747 270.214 190.747 269.937C190.747 269.659 190.783 269.365 190.856 269.053C190.929 268.743 191.034 268.444 191.172 268.156C191.311 267.868 191.478 267.602 191.676 267.358C191.874 267.115 192.101 266.919 192.356 266.772C192.611 266.625 192.839 266.543 193.04 266.531C193.241 266.516 193.411 266.552 193.552 266.637C193.692 266.723 193.801 266.852 193.879 267.025C193.957 267.198 194.001 267.391 194.012 267.607C194.017 267.706 193.997 267.806 193.953 267.905C193.909 268.004 193.858 268.071 193.8 268.103L193.199 268.45C193.122 268.495 193.062 268.504 193.023 268.476C192.984 268.448 192.942 268.414 192.895 268.376C192.848 268.34 192.786 268.318 192.707 268.312C192.63 268.306 192.512 268.348 192.356 268.438C192.199 268.528 192.062 268.649 191.942 268.801C191.822 268.954 191.761 269.137 191.761 269.35C191.761 269.451 191.776 269.528 191.805 269.582C191.833 269.634 191.887 269.666 191.968 269.674C192.049 269.684 192.162 269.676 192.305 269.654C192.448 269.632 192.633 269.596 192.863 269.548C193.326 269.456 193.653 269.542 193.843 269.807C194.033 270.072 194.129 270.484 194.129 271.038C194.129 271.317 194.09 271.609 194.012 271.918C193.934 272.227 193.82 272.528 193.672 272.823C193.523 273.117 193.342 273.389 193.125 273.639C192.909 273.889 192.665 274.092 192.395 274.247C192.118 274.407 191.876 274.489 191.664 274.495C191.453 274.501 191.274 274.454 191.13 274.352C190.983 274.252 190.872 274.108 190.794 273.921C190.716 273.735 190.674 273.533 190.668 273.314C190.663 273.215 190.683 273.115 190.727 273.016C190.771 272.917 190.821 272.85 190.879 272.816L191.481 272.469C191.559 272.425 191.617 272.423 191.657 272.465C191.695 272.508 191.74 272.555 191.789 272.611C191.838 272.666 191.907 272.7 191.996 272.714C192.084 272.727 192.217 272.683 192.395 272.58C192.473 272.535 192.554 272.479 192.637 272.412C192.72 272.346 192.798 272.271 192.868 272.189C192.937 272.107 192.996 272.017 193.044 271.921C193.089 271.826 193.113 271.727 193.113 271.625Z" fill="#FAFAFA"/>
<path d="M195.15 268.906C195.15 268.388 195.194 267.875 195.283 267.365C195.372 266.856 195.5 266.384 195.666 265.949C195.833 265.515 196.034 265.133 196.271 264.801C196.508 264.47 196.772 264.221 197.064 264.052C197.355 263.883 197.619 263.825 197.857 263.877C198.093 263.931 198.295 264.07 198.462 264.293C198.628 264.516 198.757 264.817 198.849 265.194C198.939 265.573 198.986 265.998 198.986 266.47V267.094C198.986 267.196 198.965 267.297 198.923 267.393C198.882 267.491 198.833 267.558 198.774 267.591L196.165 269.098C196.165 269.311 196.191 269.483 196.24 269.616C196.289 269.751 196.355 269.849 196.439 269.911C196.522 269.974 196.619 270.002 196.728 269.994C196.837 269.987 196.95 269.949 197.064 269.883C197.23 269.788 197.365 269.68 197.47 269.559C197.574 269.439 197.66 269.314 197.728 269.181C197.785 269.075 197.832 268.996 197.869 268.947C197.905 268.898 197.955 268.857 198.018 268.821L198.643 268.46C198.699 268.428 198.75 268.435 198.795 268.482C198.839 268.531 198.859 268.608 198.853 268.713C198.848 268.846 198.808 269.035 198.733 269.283C198.658 269.53 198.544 269.794 198.393 270.076C198.242 270.358 198.056 270.632 197.835 270.898C197.614 271.164 197.357 271.382 197.066 271.55C196.774 271.719 196.51 271.781 196.273 271.739C196.036 271.695 195.834 271.554 195.668 271.317C195.501 271.08 195.374 270.758 195.285 270.35C195.195 269.944 195.15 269.462 195.15 268.906ZM197.065 265.717C196.913 265.805 196.785 265.92 196.678 266.059C196.571 266.201 196.481 266.353 196.408 266.52C196.335 266.688 196.28 266.858 196.24 267.034C196.201 267.21 196.176 267.369 196.165 267.514L197.931 266.495C197.921 266.363 197.901 266.229 197.873 266.091C197.845 265.955 197.798 265.844 197.732 265.756C197.667 265.67 197.58 265.618 197.474 265.6C197.367 265.583 197.231 265.622 197.065 265.717Z" fill="#FAFAFA"/>
<path d="M202.127 262.934C201.815 263.115 201.59 263.368 201.451 263.692C201.313 264.018 201.244 264.458 201.244 265.013V268.624C201.244 268.725 201.223 268.826 201.182 268.923C201.14 269.021 201.091 269.088 201.032 269.12L200.44 269.463C200.383 269.495 200.333 269.487 200.291 269.437C200.249 269.388 200.228 269.312 200.228 269.21V262.738C200.228 262.637 200.249 262.536 200.291 262.439C200.332 262.341 200.382 262.275 200.44 262.241L201.032 261.9C201.09 261.866 201.139 261.875 201.182 261.925C201.223 261.974 201.244 262.05 201.244 262.152V262.472C201.379 262.171 201.524 261.917 201.678 261.707C201.831 261.498 202.032 261.322 202.283 261.177L202.634 260.974C202.691 260.942 202.74 260.95 202.783 261C202.824 261.049 202.845 261.126 202.845 261.227V262.144C202.845 262.246 202.824 262.346 202.783 262.444C202.741 262.542 202.692 262.609 202.634 262.641L202.127 262.934Z" fill="#FAFAFA"/>
<path d="M209.587 262.447C209.644 262.414 209.693 262.423 209.736 262.473C209.777 262.522 209.798 262.599 209.798 262.7V263.687C209.798 263.788 209.777 263.889 209.736 263.986C209.694 264.084 209.645 264.15 209.587 264.183L206.165 266.159C206.107 266.192 206.059 266.183 206.016 266.133C205.975 266.084 205.954 266.008 205.954 265.906V256.934C205.954 256.833 205.975 256.733 206.016 256.635C206.058 256.537 206.106 256.471 206.165 256.438L206.798 256.073C206.855 256.04 206.905 256.049 206.947 256.099C206.989 256.149 207.01 256.223 207.01 256.326V263.936L209.587 262.447Z" fill="#FAFAFA"/>
<path d="M212.656 255.05C212.943 254.884 213.202 254.813 213.434 254.837C213.666 254.86 213.867 254.962 214.035 255.142C214.205 255.322 214.34 255.567 214.441 255.88C214.543 256.191 214.603 256.556 214.618 256.972C214.623 257.052 214.626 257.157 214.626 257.287C214.626 257.415 214.626 257.546 214.626 257.674C214.626 257.805 214.626 257.931 214.626 258.058C214.626 258.182 214.623 258.288 214.618 258.374C214.597 258.812 214.538 259.244 214.438 259.672C214.339 260.1 214.205 260.499 214.035 260.87C213.866 261.24 213.665 261.572 213.434 261.863C213.202 262.154 212.943 262.382 212.656 262.548C212.37 262.713 212.111 262.785 211.879 262.761C211.648 262.737 211.447 262.639 211.279 262.462C211.109 262.287 210.975 262.042 210.876 261.73C210.777 261.417 210.716 261.052 210.695 260.639C210.69 260.559 210.687 260.456 210.684 260.334C210.682 260.209 210.68 260.085 210.68 259.955C210.68 259.824 210.682 259.694 210.684 259.563C210.687 259.432 210.69 259.324 210.695 259.238C210.711 258.802 210.77 258.371 210.871 257.941C210.973 257.512 211.109 257.11 211.279 256.734C211.448 256.358 211.648 256.026 211.879 255.735C212.111 255.443 212.37 255.216 212.656 255.05ZM213.603 257.629C213.587 257.351 213.549 257.135 213.488 256.979C213.428 256.824 213.355 256.716 213.265 256.656C213.177 256.596 213.081 256.576 212.977 256.594C212.873 256.612 212.765 256.653 212.656 256.716C212.548 256.778 212.441 256.862 212.337 256.964C212.233 257.065 212.136 257.198 212.048 257.36C211.96 257.523 211.884 257.716 211.825 257.94C211.766 258.164 211.728 258.425 211.712 258.72C211.707 258.798 211.703 258.893 211.701 259.005C211.698 259.117 211.696 259.234 211.696 259.354C211.696 259.474 211.698 259.591 211.701 259.705C211.703 259.82 211.707 259.908 211.712 259.97C211.728 260.247 211.766 260.464 211.825 260.618C211.884 260.774 211.96 260.881 212.048 260.941C212.136 261.001 212.233 261.022 212.337 261.003C212.441 260.985 212.548 260.943 212.656 260.881C212.765 260.818 212.873 260.736 212.977 260.634C213.081 260.532 213.177 260.401 213.265 260.238C213.354 260.075 213.428 259.882 213.488 259.658C213.548 259.433 213.586 259.173 213.603 258.877C213.607 258.811 213.61 258.718 213.61 258.602C213.61 258.486 213.61 258.367 213.61 258.247C213.61 258.129 213.61 258.012 213.61 257.902C213.61 257.79 213.607 257.7 213.603 257.629Z" fill="#FAFAFA"/>
<path d="M217.679 260.898C217.79 260.836 217.901 260.74 218.016 260.614C218.13 260.488 218.234 260.334 218.327 260.149C218.421 259.966 218.498 259.757 218.558 259.523C218.618 259.289 218.648 259.038 218.648 258.769V258.255C218.606 258.362 218.552 258.484 218.483 258.62C218.416 258.757 218.333 258.895 218.237 259.034C218.141 259.173 218.028 259.307 217.902 259.436C217.774 259.567 217.629 259.677 217.468 259.769C217.207 259.92 216.971 259.966 216.761 259.908C216.549 259.85 216.37 259.711 216.222 259.496C216.073 259.281 215.956 259.002 215.871 258.658C215.785 258.314 215.736 257.932 215.725 257.512C215.72 257.375 215.718 257.216 215.718 257.03C215.718 256.845 215.72 256.683 215.725 256.54C215.736 256.108 215.784 255.671 215.871 255.227C215.956 254.784 216.074 254.37 216.222 253.983C216.371 253.596 216.549 253.251 216.761 252.949C216.971 252.647 217.207 252.422 217.468 252.271C217.629 252.178 217.774 252.12 217.902 252.103C218.028 252.085 218.141 252.09 218.237 252.117C218.333 252.144 218.416 252.188 218.483 252.247C218.551 252.305 218.605 252.364 218.648 252.423V252.103C218.648 252.002 218.668 251.902 218.71 251.804C218.751 251.706 218.8 251.64 218.859 251.607L219.452 251.264C219.509 251.232 219.559 251.24 219.601 251.29C219.643 251.339 219.664 251.416 219.664 251.517V258.031C219.664 259.151 219.487 260.097 219.136 260.87C218.785 261.643 218.299 262.207 217.678 262.565C217.413 262.719 217.167 262.798 216.94 262.805C216.714 262.81 216.517 262.757 216.351 262.645C216.184 262.533 216.052 262.373 215.952 262.166C215.854 261.959 215.798 261.719 215.788 261.448C215.782 261.35 215.802 261.25 215.847 261.151C215.89 261.051 215.941 260.984 215.999 260.951L216.53 260.645C216.603 260.603 216.665 260.611 216.717 260.669C216.769 260.726 216.814 260.781 216.85 260.836C216.917 260.954 217.01 261.031 217.127 261.064C217.247 261.099 217.43 261.043 217.679 260.898ZM216.742 256.051C216.726 256.32 216.726 256.579 216.742 256.83C216.773 257.412 216.878 257.786 217.055 257.946C217.231 258.109 217.448 258.115 217.702 257.968C217.957 257.82 218.172 257.562 218.347 257.193C218.522 256.825 218.622 256.382 218.648 255.867C218.658 255.722 218.664 255.544 218.664 255.33C218.664 255.117 218.658 254.945 218.648 254.812C218.622 254.345 218.522 254.024 218.347 253.846C218.172 253.669 217.957 253.654 217.702 253.802C217.447 253.948 217.23 254.207 217.055 254.573C216.878 254.939 216.774 255.433 216.742 256.051Z" fill="#FAFAFA"/>
<path d="M221.976 247.17C222.033 247.136 222.083 247.145 222.124 247.194C222.166 247.244 222.187 247.321 222.187 247.422V248.505C222.187 248.607 222.166 248.707 222.124 248.805C222.083 248.903 222.033 248.969 221.976 249.003L221.305 249.39C221.248 249.422 221.198 249.414 221.156 249.364C221.114 249.314 221.093 249.238 221.093 249.136V248.053C221.093 247.952 221.114 247.851 221.156 247.753C221.197 247.656 221.247 247.589 221.305 247.557L221.976 247.17ZM222.149 256.555C222.149 256.657 222.128 256.758 222.086 256.854C222.045 256.952 221.995 257.019 221.937 257.052L221.345 257.394C221.288 257.427 221.238 257.418 221.196 257.368C221.154 257.32 221.133 257.243 221.133 257.141V250.67C221.133 250.568 221.154 250.467 221.196 250.371C221.237 250.273 221.287 250.206 221.345 250.173L221.937 249.831C221.994 249.798 222.044 249.807 222.086 249.857C222.128 249.905 222.149 249.981 222.149 250.084V256.555Z" fill="#FAFAFA"/>
<path d="M227.429 253.507C227.429 253.608 227.408 253.709 227.368 253.806C227.326 253.904 227.277 253.97 227.219 254.003L226.625 254.346C226.568 254.378 226.519 254.37 226.476 254.32C226.434 254.271 226.414 254.195 226.414 254.093V250.565C226.414 250.01 226.342 249.607 226.195 249.358C226.049 249.109 225.826 249.071 225.523 249.246C225.247 249.405 225.03 249.698 224.871 250.122C224.712 250.547 224.633 251.038 224.633 251.593V255.121C224.633 255.222 224.612 255.323 224.571 255.42C224.529 255.518 224.48 255.585 224.422 255.617L223.829 255.96C223.772 255.992 223.721 255.984 223.68 255.934C223.638 255.885 223.617 255.808 223.617 255.707V249.235C223.617 249.134 223.638 249.033 223.68 248.936C223.721 248.838 223.771 248.772 223.829 248.738L224.422 248.397C224.479 248.363 224.528 248.372 224.571 248.422C224.612 248.471 224.633 248.548 224.633 248.649V248.969C224.769 248.65 224.927 248.36 225.11 248.097C225.292 247.834 225.508 247.631 225.759 247.487C226.076 247.303 226.342 247.237 226.555 247.29C226.769 247.343 226.94 247.48 227.07 247.701C227.201 247.922 227.293 248.215 227.348 248.576C227.402 248.938 227.429 249.337 227.429 249.772V253.507Z" fill="#FAFAFA"/>
<path d="M277.875 224.402L268.161 230.01L269.666 216.386C268.504 215.772 267.764 214.26 267.764 212.09C267.764 208.221 270.116 203.727 273.018 202.051C275.919 200.376 278.271 202.154 278.271 206.023C278.271 208.193 277.531 210.56 276.369 212.516L277.875 224.402Z" fill="url(#paint15_linear_106_2)"/>
<path d="M277.875 224.402L269.326 219.467L268.161 230.01L277.875 224.402Z" fill="#37474F"/>
<path d="M273.019 202.051C271.12 203.147 269.462 205.452 268.539 207.997L276.371 212.519V212.517C277.533 210.561 278.273 208.195 278.273 206.024C278.272 202.155 275.92 200.376 273.019 202.051Z" fill="#37474F"/>
<path d="M225.796 156.704C222.474 154.781 217.884 155.054 212.811 157.983C202.672 163.838 194.453 178.075 194.455 189.783C194.456 195.658 196.527 199.777 199.871 201.685C200.741 202.182 205.463 204.929 206.34 205.436C209.662 207.356 214.25 207.082 219.32 204.155C229.458 198.301 237.676 184.064 237.676 172.355C237.676 166.504 235.622 162.395 232.303 160.477" fill="url(#paint16_linear_106_2)"/>
<path d="M219.317 161.755C209.179 167.612 200.959 181.847 200.961 193.554C200.962 205.262 209.182 210.008 219.32 204.154C229.458 198.3 237.687 184.063 237.676 172.354C237.666 160.648 229.446 155.902 219.317 161.755Z" fill="url(#paint17_linear_106_2)"/>
<path d="M229.454 187.731V189.067C226.84 193.529 223.262 197.414 219.318 199.685C215.367 201.963 211.797 202.212 209.182 200.758V197.99C209.182 192.645 212.811 186.357 217.441 183.677L220.106 182.143C222.472 180.777 224.765 180.602 226.569 181.646C228.41 182.707 229.454 184.92 229.454 187.731Z" fill="url(#paint18_linear_106_2)"/>
<path opacity="0.4" d="M225.796 156.704L232.303 160.475C228.979 158.551 224.389 158.823 219.319 161.753C212.68 165.59 206.864 173.02 203.64 180.979L197.133 177.204C200.357 169.245 206.17 161.815 212.812 157.981C217.885 155.055 222.475 154.781 225.796 156.704Z" fill="white"/>
<path opacity="0.2" d="M206.095 205.293C204.949 204.631 200.673 202.141 199.869 201.683C196.525 199.776 194.453 195.657 194.453 189.783L200.96 193.558C200.964 199.264 202.92 203.317 206.095 205.293Z" fill="#FFF3F3"/>
<path opacity="0.1" d="M197.133 177.205L203.64 180.98C201.939 185.176 200.961 189.517 200.961 193.554V193.557L194.454 189.782C194.454 185.742 195.435 181.398 197.133 177.205Z" fill="#FFF3F3"/>
<path d="M217.01 181.521C216.374 181.521 215.781 181.368 215.244 181.061C214.007 180.346 213.326 178.931 213.326 177.078C213.326 173.685 215.628 169.696 218.569 167.999V167.996C220.168 167.069 221.73 166.954 222.976 167.668C224.213 168.383 224.894 169.798 224.894 171.651C224.894 175.044 222.592 179.033 219.654 180.73C218.742 181.255 217.844 181.521 217.01 181.521Z" fill="white"/>
<path d="M226.569 181.648C224.765 180.604 222.472 180.779 220.106 182.145L217.441 183.679C212.811 186.359 209.182 192.646 209.182 197.992V200.76C211.796 202.213 215.367 201.965 219.318 199.687C223.261 197.416 226.839 193.531 229.454 189.069V187.733C229.454 184.92 228.41 182.707 226.569 181.648Z" fill="white"/>
<path d="M432.154 354.648C432.154 354.648 433.482 342.969 439.291 333.905C445.101 324.841 453.083 319.184 460.531 318.595C467.979 318.006 473.995 324.858 466.025 329.564C458.056 334.27 443.897 339.072 437.381 356.672L432.154 354.648Z" fill="url(#paint19_linear_106_2)"/>
<path opacity="0.1" d="M432.154 354.648C432.154 354.648 433.482 342.969 439.291 333.905C445.101 324.841 453.083 319.184 460.531 318.595C467.979 318.006 473.995 324.858 466.025 329.564C458.056 334.27 443.897 339.072 437.381 356.672L432.154 354.648Z" fill="#FFF3F3"/>
<path d="M434.338 351.615C434.311 351.61 434.285 351.603 434.259 351.592C434.055 351.51 433.957 351.278 434.04 351.074C441.9 331.717 456.863 323.634 463.677 322.065C463.89 322.014 464.104 322.15 464.154 322.363C464.203 322.578 464.07 322.791 463.856 322.84C457.181 324.377 442.514 332.32 434.777 351.373C434.705 351.551 434.519 351.648 434.338 351.615Z" fill="white"/>
<path d="M474.123 351.844C473.449 353.364 471.789 354.156 470.244 354.778C468.708 355.394 467.024 356.068 466.19 357.505C464.509 360.409 467.269 364.491 465.464 367.319C464.706 368.504 463.298 369.129 461.913 369.377C460.762 369.592 459.591 369.591 458.424 369.689C457.863 369.677 457.307 369.637 456.765 369.56C455.164 369.328 453.427 369.253 451.96 370.072C449.652 371.369 448.943 374.283 447.542 376.53C445.861 379.22 442.89 380.982 439.768 381.406C438.731 381.543 436.802 381.73 435.745 381.141C435.662 381.095 435.594 381.052 435.527 381.002C435.52 381.001 435.514 380.992 435.508 380.983C435.363 380.819 435.181 380.611 435.102 380.498C435.082 380.479 435.072 380.455 435.061 380.43C434.652 378.924 435.32 377.357 435.346 375.802C435.349 375.704 435.35 375.613 435.344 375.52C435.28 373.712 435.229 371.914 435.186 370.111C435.102 366.793 435.064 363.468 435.087 360.146C435.11 357.989 434.85 355.627 435.763 353.595C436.774 351.36 439.287 351.311 440.237 349.118C440.618 348.244 440.82 347.307 441.188 346.423C442.287 343.831 444.95 341.968 447.768 341.83C452.155 341.607 456.093 345.159 460.475 344.836C461.61 344.747 462.716 344.402 463.834 344.196C467.388 343.531 471.495 344.542 473.493 347.55C474.33 348.807 474.734 350.464 474.123 351.844Z" fill="url(#paint20_linear_106_2)"/>
<path d="M434.704 373.519C434.694 373.517 434.684 373.515 434.674 373.512C434.475 373.459 434.356 373.254 434.409 373.054C440.471 350.31 464.435 347.023 470.042 347.428C470.245 347.444 470.403 347.622 470.388 347.828C470.373 348.034 470.194 348.189 469.988 348.174C464.504 347.778 441.064 350.994 435.132 373.247C435.082 373.437 434.894 373.554 434.704 373.519Z" fill="white"/>
<path d="M461.33 361.994C461.257 361.981 461.188 361.946 461.132 361.889C461.072 361.828 454.96 355.803 444.824 357.295C444.62 357.322 444.429 357.184 444.399 356.979C444.369 356.774 444.511 356.584 444.715 356.554C455.243 355.006 461.601 361.298 461.665 361.362C461.81 361.509 461.809 361.746 461.662 361.891C461.571 361.981 461.446 362.015 461.33 361.994Z" fill="white"/>
<path d="M377.115 80.006L380.297 81.23V74.219C380.297 68.661 384.73 67.329 389.543 70.107C394.356 72.886 398.258 79.644 398.258 85.202V86.22C399.35 85.784 400.76 85.953 402.302 86.844C405.766 88.844 408.573 93.707 408.573 97.706V98.169L413.01 100.731C415.291 102.048 417.14 105.251 417.14 107.884C417.14 110.518 415.291 111.585 413.01 110.268L377.113 89.543C374.832 88.226 372.983 85.024 372.983 82.39C372.985 79.756 374.834 78.689 377.115 80.006Z" fill="#E6E6E6"/>
<path d="M419.706 74.464L425.475 77.795C425.446 77.537 425.426 77.282 425.426 77.031V75.36C425.426 72.386 427.514 71.18 430.09 72.667C431.133 73.269 432.093 74.224 432.87 75.34C433.292 71.6 436.226 70.207 439.79 72.265C443.644 74.49 446.768 79.901 446.768 84.35V86.851C446.768 88.004 446.555 88.974 446.177 89.748L450.969 92.515C452.398 93.34 453.556 95.346 453.556 96.996C453.556 98.646 452.398 99.315 450.969 98.49L419.705 80.44C418.276 79.615 417.118 77.609 417.118 75.959C417.119 74.308 418.277 73.639 419.706 74.464Z" fill="#E6E6E6"/>
<path d="M397.368 226.232C393.168 233.333 389.127 239.502 386.29 242.459C380.903 244.965 368.245 248.817 363.292 249.462C362.414 249.576 361.532 249.352 360.806 248.877C358.859 247.601 357.353 247.394 355.3 246.683C353.693 246.127 353.012 245.359 352.71 245.651C352.322 246.026 351.899 247.093 352.878 248.198C353.37 248.753 354.267 249.36 355.422 250.101C355.422 250.101 351.881 251.046 348.718 250.216C344.431 249.091 342.407 251.152 345.306 255.807C346.344 257.474 350.432 260.143 358.716 259.422C361.103 259.215 364.547 259.015 367.518 258.381C375.464 256.685 384.296 255.042 389.726 253.42C391.096 253.011 393.543 251.426 395 249.765C404.134 239.353 407.159 231.935 411.163 225.193L410.817 214.176C404.344 213.975 400.882 220.289 397.368 226.232Z" fill="#FFA8A7"/>
<path d="M411.934 213.975C411.934 213.975 406.281 212.773 402.032 218.209C397.586 223.898 389.725 237.561 389.725 237.561C389.725 237.561 392.304 244.412 399.243 245.538L410.391 230.48C410.391 230.48 415.67 220.057 411.934 213.975Z" fill="url(#paint21_linear_106_2)"/>
<path d="M436.036 367.536H428.769V380.494H436.036V367.536Z" fill="#FFA8A7"/>
<path d="M410.838 366.845L403.575 367.105L403.211 353.392L410.838 353.132V366.845Z" fill="#FFA8A7"/>
<path d="M437.06 255.347C437.06 262.575 435.996 320.745 435.996 320.745C436.165 322.825 438.037 326.66 437.632 334.648C437.081 345.5 436.347 374.016 436.347 374.016C436.347 374.016 432.819 376.163 428.255 374.182C428.255 374.182 422.363 334.221 421.061 323.468C419.925 314.083 417.014 282.948 417.014 282.948L413.075 319.689C413.075 319.689 414.415 325.286 413.976 331.718C413.636 336.692 411.299 362.597 411.299 362.597C411.299 362.597 407.878 365.015 402.908 363.266C402.908 363.266 398.774 324.253 398.69 319.689C398.594 314.486 401.107 255.27 401.107 255.27L437.06 255.347Z" fill="#37474F"/>
<path d="M428.769 376.758V375.676C428.074 375.991 426.458 382.412 423.574 385.151C421.282 387.329 418.155 389.844 417.359 392.272C416.532 394.797 421.714 396.191 423.855 395.796C426.343 395.337 430.657 393.512 431.739 391.82C432.822 390.128 433.329 387.632 434.208 386.393C435.088 385.153 437.116 383.769 437.592 382.334C437.853 381.546 437.543 379.819 437.176 378.361C436.839 377.023 436.474 375.551 436.035 375.677C436.034 375.84 436.035 376.502 436.035 376.502C435.507 377.111 434.048 377.715 432.402 377.781C431.34 377.822 428.76 377.602 428.769 376.758Z" fill="#263238"/>
<path d="M403.499 364.771C403.121 364.785 402.814 365.339 401.982 366.278C400.976 367.412 399.331 368.635 397.707 369.482C394.986 370.901 389.695 373.083 387.301 374.207C385.805 374.909 385.875 376.791 387.421 377.862C388.967 378.933 392.7 379.705 397.183 378.66C399.625 378.091 402.804 375.742 404.816 375.869C406.828 375.996 410.593 375.966 412.078 374.899C413.563 373.833 412.969 371.556 412.549 369.599C412.091 367.463 411.518 364.133 410.839 364.279V365.015C409.965 366.393 405.456 366.954 403.537 365.939L403.499 364.771Z" fill="#263238"/>
<path d="M417.015 282.947C417.015 282.947 411.206 281.243 406.895 276.903C406.895 276.903 408.848 280.711 414.655 284.255L413.413 317.066L417.015 282.947Z" fill="#263238"/>
<path d="M432.991 215.059C432.991 215.059 438.966 216.442 438.562 227.276L437.305 244.534L437.34 270.433C431.996 276.488 408.304 276.045 400.193 269.948C400.193 269.948 401.112 239.298 401.66 227.504C402.049 219.119 403.979 214.898 412.219 213.974L422.353 214.42L432.991 215.059Z" fill="url(#paint22_linear_106_2)"/>
<path d="M425.355 192.535C425.355 198.759 420.511 203.804 414.536 203.804C408.561 203.804 405.024 198.62 403.717 192.535C401.325 181.406 408.561 181.266 414.536 181.266C420.511 181.266 425.355 186.311 425.355 192.535Z" fill="#263238"/>
<path d="M430.875 197.094C430.875 197.094 429.216 205.214 428.55 206.548C427.885 207.882 426.509 208.261 426.509 208.261L426.625 202.549L430.875 197.094Z" fill="#263238"/>
<path d="M428.793 185.461C428.793 185.461 429.983 185.163 431.247 187.138C432.331 188.831 432.577 192.634 430.876 197.094L427.75 197.468L428.793 185.461Z" fill="#263238"/>
<path d="M429.943 187.105L433.776 187.176C433.87 186.076 433.088 185.169 432.029 185.149C430.971 185.13 430.037 186.005 429.943 187.105Z" fill="#263238"/>
<path d="M430.412 186.197L433.252 183.466C432.551 182.654 431.347 182.607 430.563 183.361C429.779 184.114 429.711 185.384 430.412 186.197Z" fill="#263238"/>
<path d="M426.812 197.47C427.439 197.86 428.333 196.606 429.106 195.763C429.879 194.921 432.306 194.125 433.565 196.888C434.848 199.703 432.679 202.38 430.875 203.277C427.65 204.88 426.625 202.549 426.625 202.549L426.364 215.411C421.819 222.441 411.524 222.188 415.225 215.071L415.235 211.156C415.235 211.156 412.133 211.646 410.62 211.403C408.102 210.998 406.518 208.929 405.754 206.09C404.527 201.531 404.061 197.849 405.102 188.883C406.243 179.055 417.218 178.953 423.144 182.838C429.072 186.724 426.812 197.47 426.812 197.47Z" fill="#FFA8A7"/>
<path d="M413.131 187.349C415.753 187.087 418.345 186.554 420.972 186.36C421.541 186.318 422.122 186.293 422.673 186.442C424.686 186.986 424.426 189.326 424.746 190.961C425.296 193.776 425.753 198.548 426.812 198.569C427.127 198.575 428.326 196.504 429.106 195.764C429.611 195.285 429.697 194.252 429.806 193.613C430.006 192.446 430.114 191.263 430.203 190.084C430.279 189.086 430.379 188.07 430.375 187.068C430.37 185.944 430.392 184.8 430.113 183.702C429.859 182.705 429.393 181.959 428.711 181.182C428.645 181.107 428.578 181.033 428.511 180.96C427.218 179.566 425.569 178.521 423.818 177.799C421.305 176.763 418.582 176.35 415.878 176.073C413.174 175.796 410.449 175.646 407.786 175.098C407.631 175.066 407.465 175.034 407.317 175.09C407.085 175.179 406.984 175.448 406.937 175.691C406.702 176.925 407.257 178.275 408.294 178.986C406.482 179.13 404.402 178.186 402.656 177.713C402.362 177.633 402.028 177.558 401.767 177.716C401.587 177.825 401.481 178.025 401.417 178.225C401.269 178.689 401.302 179.19 401.368 179.673C401.563 181.1 402.049 182.51 402.929 183.65C404.195 185.291 406.279 186.771 408.334 187.183C409.957 187.51 411.472 187.514 413.131 187.349Z" fill="#263238"/>
<path d="M415.235 211.157C415.235 211.157 420.855 209.978 422.82 208.89C424.135 208.162 425.218 206.9 425.536 206.091C425.536 206.091 425.168 207.828 423.993 209.392C422.556 211.305 415.235 212.714 415.235 212.714V211.157Z" fill="#F28F8F"/>
<path d="M416.586 196.007C416.586 196.68 417.091 197.224 417.712 197.223C418.334 197.221 418.838 196.674 418.838 196.001C418.838 195.328 418.334 194.784 417.712 194.785C417.091 194.787 416.586 195.334 416.586 196.007Z" fill="#263238"/>
<path d="M418.395 191.15L420.805 192.535C421.16 191.814 420.909 190.919 420.243 190.537C419.577 190.155 418.75 190.429 418.395 191.15Z" fill="#263238"/>
<path d="M415.744 204.11L413.173 205.115C413.427 205.883 414.209 206.28 414.919 206.002C415.63 205.725 415.999 204.878 415.744 204.11Z" fill="#F28F8F"/>
<path d="M406.254 192.182L408.451 190.42C408.003 189.765 407.148 189.628 406.541 190.115C405.935 190.601 405.806 191.527 406.254 192.182Z" fill="#263238"/>
<path d="M407.219 195.673C407.219 196.346 407.723 196.89 408.345 196.888C408.967 196.886 409.471 196.339 409.471 195.666C409.471 194.993 408.967 194.449 408.345 194.45C407.723 194.453 407.219 195 407.219 195.673Z" fill="#263238"/>
<path d="M413.246 194.731L413.115 201.845L409.078 200.919L413.246 194.731Z" fill="#F28F8F"/>
<path d="M317.314 254.276L323.578 250.66L326.061 247.653L319.797 251.27L317.314 254.276Z" fill="url(#paint23_linear_106_2)"/>
<path opacity="0.4" d="M317.314 254.276L323.578 250.66L326.061 247.653L319.797 251.27L317.314 254.276Z" fill="#FFF3F3"/>
<path d="M334.361 264.118L340.625 260.502L345.861 255.868L339.596 259.484L334.361 264.118Z" fill="url(#paint24_linear_106_2)"/>
<path opacity="0.4" d="M334.361 264.118L340.625 260.502L345.861 255.868L339.596 259.484L334.361 264.118Z" fill="#FFF3F3"/>
<path d="M387.623 276.615C388.996 278.362 389.998 280.929 390.213 283.432C388.839 281.685 387.838 279.118 387.623 276.615ZM402.186 276.804C400.079 262.452 392.368 248.255 383.177 242.95C378.767 240.4 374.685 240.308 371.416 242.22C370.46 242.775 366.913 244.821 365.515 245.623C365.402 245.685 365.289 245.746 365.186 245.818C364.929 245.962 364.672 246.126 364.425 246.301C363.952 246.63 363.5 247 363.068 247.422C363.006 247.473 362.944 247.545 362.873 247.607C362.688 247.792 362.503 247.998 362.328 248.203C362.112 248.45 361.896 248.707 361.701 248.974C361.29 249.519 360.899 250.105 360.55 250.742C360.375 251.05 360.2 251.379 360.036 251.719L308.52 221.978L302.259 225.586V229.575L302.793 229.883L303.287 230.171V231.014L302.259 231.61V233.933L309.825 249.95L317.309 254.278L319.797 251.266L326.397 255.214L330.19 261.711L334.364 264.117L339.597 259.481L346.022 263.192L348.181 272.095L358.945 278.305C359.49 280.587 360.179 282.818 360.981 284.998C361.053 285.224 361.135 285.45 361.228 285.697C364.806 295.104 370.501 303.153 376.916 306.864C377.739 307.337 378.54 307.728 379.332 308.026C379.785 308.211 380.237 308.355 380.679 308.478C381.08 308.591 381.481 308.684 381.882 308.745C383.208 308.981 384.493 308.971 385.696 308.735C385.871 308.694 386.046 308.653 386.22 308.612C386.467 308.561 386.713 308.489 386.95 308.396C387.135 308.324 387.32 308.252 387.505 308.18C387.7 308.108 387.896 308.015 388.081 307.913C388.266 307.831 388.441 307.738 388.616 307.635C388.708 307.584 388.801 307.532 388.883 307.481C388.924 307.471 388.965 307.44 389.007 307.409C390.436 306.587 393.962 304.551 394.918 304.006C399.678 301.251 402.762 294.27 402.762 284.401C402.761 281.893 402.566 279.344 402.186 276.804Z" fill="url(#paint25_linear_106_2)"/>
<path d="M385.786 288.721C383.315 287.294 381.311 283.053 381.311 279.248C381.311 275.443 383.315 273.515 385.786 274.942C388.257 276.369 390.261 280.61 390.261 284.415C390.26 288.22 388.257 290.148 385.786 288.721ZM395.925 280.413C393.818 266.072 386.107 251.874 376.916 246.57C372.66 244.113 368.723 243.928 365.515 245.624C365.402 245.686 365.289 245.747 365.186 245.819C364.929 245.963 364.672 246.127 364.425 246.302C363.952 246.631 363.5 247.001 363.068 247.423C363.006 247.474 362.944 247.546 362.873 247.608C362.688 247.793 362.503 247.999 362.328 248.204C362.112 248.451 361.896 248.708 361.701 248.975C361.29 249.52 360.899 250.106 360.55 250.743C360.375 251.051 360.2 251.38 360.036 251.72C359.183 253.468 358.504 255.503 358.052 257.806L302.26 225.587V229.576L302.794 229.884L303.288 230.172V231.015L302.26 231.611V233.934L309.826 249.951L317.31 254.279L319.798 251.267L326.398 255.215L330.191 261.712L334.365 264.118L339.598 259.482L346.023 263.193L348.182 272.096L358.946 278.306C359.491 280.588 360.18 282.819 360.982 284.999C361.054 285.225 361.136 285.451 361.229 285.698C364.807 295.105 370.502 303.154 376.917 306.865C377.74 307.338 378.541 307.729 379.333 308.027C379.786 308.212 380.238 308.356 380.68 308.479C381.081 308.592 381.482 308.685 381.883 308.746C383.209 308.982 384.494 308.972 385.697 308.736C385.872 308.695 386.047 308.654 386.221 308.613C386.468 308.562 386.714 308.49 386.951 308.397C387.136 308.325 387.321 308.253 387.506 308.181C387.701 308.109 387.897 308.016 388.082 307.914C388.267 307.832 388.442 307.739 388.617 307.636C388.709 307.585 388.802 307.533 388.884 307.482C388.925 307.472 388.966 307.441 389.008 307.41C393.572 304.532 396.503 297.654 396.503 288.021C396.501 285.512 396.295 282.962 395.925 280.413Z" fill="url(#paint26_linear_106_2)"/>
<path opacity="0.4" d="M390.26 284.412C390.26 288.216 388.255 290.149 385.788 288.72C383.31 287.291 381.306 283.055 381.306 279.252C381.306 275.449 383.311 273.516 385.788 274.945C386.446 275.325 387.073 275.901 387.618 276.621C387.834 279.119 388.841 281.689 390.209 283.437C390.25 283.764 390.26 284.093 390.26 284.412Z" fill="#FFF3F3"/>
<path opacity="0.4" d="M402.761 284.402C402.761 294.271 399.677 301.252 394.917 304.007C393.961 304.552 390.435 306.587 389.006 307.41C393.57 304.532 396.501 297.654 396.501 288.021C396.501 285.513 396.295 282.963 395.925 280.414C393.818 266.073 386.107 251.875 376.916 246.571C372.66 244.114 368.723 243.929 365.515 245.625C366.913 244.823 370.46 242.777 371.416 242.222C374.685 240.31 378.767 240.402 383.177 242.952C392.368 248.257 400.078 262.454 402.186 276.806C402.566 279.344 402.761 281.893 402.761 284.402Z" fill="white"/>
<path d="M396.501 288.02C396.501 297.653 393.571 304.531 389.006 307.409C390.435 306.587 393.961 304.551 394.917 304.006C399.677 301.251 402.761 294.27 402.761 284.401C402.761 284.037 402.748 283.67 402.74 283.304C400.589 284.546 398.414 285.801 396.478 286.919C396.487 287.287 396.501 287.655 396.501 288.02Z" fill="url(#paint27_linear_106_2)"/>
<path opacity="0.1" d="M396.501 288.02C396.501 297.653 393.571 304.531 389.006 307.409C390.435 306.587 393.961 304.551 394.917 304.006C399.677 301.251 402.761 294.27 402.761 284.401C402.761 284.037 402.748 283.67 402.74 283.304C400.589 284.546 398.414 285.801 396.478 286.919C396.487 287.287 396.501 287.655 396.501 288.02Z" fill="#FFF3F3"/>
<path opacity="0.15" d="M358.278 261.918V263.954L302.26 231.611L303.288 231.015V230.172L358.278 261.918Z" fill="#FFF3F3"/>
<path opacity="0.15" d="M358.278 262.761V263.954L302.26 231.611L303.288 231.015V231.005L358.278 262.761Z" fill="#FFF3F3"/>
<path opacity="0.15" d="M385.034 303.189C392.843 300.792 395.538 287.002 391.053 272.389C386.569 257.775 376.602 247.872 368.793 250.268C360.983 252.665 358.288 266.455 362.773 281.068C367.258 295.682 377.225 305.586 385.034 303.189Z" stroke="#FFF3F3" stroke-miterlimit="10"/>
<path opacity="0.4" d="M360.036 251.72C359.183 253.468 358.504 255.503 358.052 257.806L302.26 225.587L308.521 221.979L360.036 251.72Z" fill="white"/>
<path d="M432.506 254.853C435.432 249.32 438.767 236.9 440.428 230.632C442.787 221.729 438.969 216.127 434.635 215.902C431.917 216.316 422.993 248.791 422.993 248.791C422.004 249.582 408.421 256.465 404.057 258.195C403.284 258.502 402.423 258.489 401.641 258.204C399.545 257.439 398.118 257.584 396.067 257.378C394.461 257.217 393.648 256.646 393.445 256.99C393.185 257.432 393.064 258.535 394.233 259.357C394.821 259.771 395.792 260.14 397.031 260.579C397.031 260.579 394.711 261.383 391.616 261.315C387.421 261.222 385.911 263.045 389.165 267.297C391.204 269.961 394.482 270.801 401.865 268.248C403.992 267.512 406.874 266.082 409.556 265.108C415.102 263.093 416.526 262.875 420.783 261.442C426.926 259.373 431.207 257.308 432.506 254.853Z" fill="#FFA8A7"/>
<path d="M432.991 215.059C435.543 215.408 438.017 215.985 439.501 218.047C440.985 220.109 442.222 223.017 440.738 231.005C439.254 238.993 436.201 247.479 436.201 247.479C436.201 247.479 430.265 250.016 423.95 243.58L428.286 226.801C428.286 226.801 429.028 215.901 432.991 215.059Z" fill="url(#paint28_linear_106_2)"/>
<defs>
<linearGradient id="paint0_linear_106_2" x1="206.178" y1="254.515" x2="206.178" y2="359.763" gradientUnits="userSpaceOnUse">
<stop stop-color="#0C2E60"/>
<stop offset="1" stop-color="#265611"/>
</linearGradient>
<linearGradient id="paint1_linear_106_2" x1="208.284" y1="261.508" x2="208.284" y2="354.907" gradientUnits="userSpaceOnUse">
<stop stop-color="#0C2E60"/>
<stop offset="1" stop-color="#265611"/>
</linearGradient>
<linearGradient id="paint2_linear_106_2" x1="230.151" y1="324.058" x2="230.151" y2="359.728" gradientUnits="userSpaceOnUse">
<stop stop-color="#0C2E60"/>
<stop offset="1" stop-color="#265611"/>
</linearGradient>
<linearGradient id="paint3_linear_106_2" x1="184.376" y1="29.1086" x2="184.376" y2="373.194" gradientUnits="userSpaceOnUse">
<stop stop-color="#0C2E60"/>
<stop offset="1" stop-color="#265611"/>
</linearGradient>
<linearGradient id="paint4_linear_106_2" x1="188.455" y1="34.3054" x2="188.455" y2="372.696" gradientUnits="userSpaceOnUse">
<stop stop-color="#0C2E60"/>
<stop offset="1" stop-color="#265611"/>
</linearGradient>
<linearGradient id="paint5_linear_106_2" x1="63.8839" y1="352.131" x2="63.8839" y2="377.829" gradientUnits="userSpaceOnUse">
<stop stop-color="#0C2E60"/>
<stop offset="1" stop-color="#265611"/>
</linearGradient>
<linearGradient id="paint6_linear_106_2" x1="188.452" y1="215.543" x2="188.452" y2="377.33" gradientUnits="userSpaceOnUse">
<stop stop-color="#0C2E60"/>
<stop offset="1" stop-color="#265611"/>
</linearGradient>
<linearGradient id="paint7_linear_106_2" x1="188.455" y1="47.6717" x2="188.455" y2="336.903" gradientUnits="userSpaceOnUse">
<stop stop-color="#0C2E60"/>
<stop offset="1" stop-color="#265611"/>
</linearGradient>
<linearGradient id="paint8_linear_106_2" x1="188.453" y1="291.169" x2="188.453" y2="301.702" gradientUnits="userSpaceOnUse">
<stop stop-color="#0C2E60"/>
<stop offset="1" stop-color="#265611"/>
</linearGradient>
<linearGradient id="paint9_linear_106_2" x1="211.876" y1="59.9538" x2="211.876" y2="351.991" gradientUnits="userSpaceOnUse">
<stop stop-color="#0C2E60"/>
<stop offset="1" stop-color="#265611"/>
</linearGradient>
<linearGradient id="paint10_linear_106_2" x1="213.823" y1="62.1535" x2="213.823" y2="206.397" gradientUnits="userSpaceOnUse">
<stop stop-color="#0C2E60"/>
<stop offset="1" stop-color="#265611"/>
</linearGradient>
<linearGradient id="paint11_linear_106_2" x1="218.738" y1="178.89" x2="218.738" y2="305.141" gradientUnits="userSpaceOnUse">
<stop stop-color="#0C2E60"/>
<stop offset="1" stop-color="#265611"/>
</linearGradient>
<linearGradient id="paint12_linear_106_2" x1="222.913" y1="183.925" x2="222.913" y2="304.913" gradientUnits="userSpaceOnUse">
<stop stop-color="#0C2E60"/>
<stop offset="1" stop-color="#265611"/>
</linearGradient>
<linearGradient id="paint13_linear_106_2" x1="200.267" y1="199.839" x2="200.267" y2="262.895" gradientUnits="userSpaceOnUse">
<stop stop-color="#265611"/>
</linearGradient>
<linearGradient id="paint14_linear_106_2" x1="204.113" y1="226.83" x2="204.113" y2="265.347" gradientUnits="userSpaceOnUse">
<stop stop-color="#0C2E60"/>
<stop offset="1" stop-color="#265611"/>
</linearGradient>
<linearGradient id="paint15_linear_106_2" x1="273.017" y1="201.421" x2="273.017" y2="230.01" gradientUnits="userSpaceOnUse">
<stop stop-color="#265611"/>
</linearGradient>
<linearGradient id="paint16_linear_106_2" x1="216.066" y1="155.477" x2="216.066" y2="206.66" gradientUnits="userSpaceOnUse">
<stop stop-color="#0C2E60"/>
<stop offset="1" stop-color="#265611"/>
</linearGradient>
<linearGradient id="paint17_linear_106_2" x1="219.318" y1="159.248" x2="219.318" y2="206.661" gradientUnits="userSpaceOnUse">
<stop stop-color="#0C2E60"/>
<stop offset="1" stop-color="#265611"/>
</linearGradient>
<linearGradient id="paint18_linear_106_2" x1="219.318" y1="180.973" x2="219.318" y2="201.665" gradientUnits="userSpaceOnUse">
<stop stop-color="#0C2E60"/>
<stop offset="1" stop-color="#265611"/>
</linearGradient>
<linearGradient id="paint19_linear_106_2" x1="450.976" y1="318.559" x2="450.976" y2="356.672" gradientUnits="userSpaceOnUse">
<stop stop-color="#0C2E60"/>
<stop offset="1" stop-color="#265611"/>
</linearGradient>
<linearGradient id="paint20_linear_106_2" x1="454.673" y1="341.82" x2="454.673" y2="381.547" gradientUnits="userSpaceOnUse">
<stop stop-color="#0C2E60"/>
<stop offset="1" stop-color="#265611"/>
</linearGradient>
<linearGradient id="paint21_linear_106_2" x1="401.498" y1="213.862" x2="401.498" y2="245.538" gradientUnits="userSpaceOnUse">
<stop stop-color="#265611"/>
</linearGradient>
<linearGradient id="paint22_linear_106_2" x1="419.387" y1="213.974" x2="419.387" y2="274.754" gradientUnits="userSpaceOnUse">
<stop stop-color="#0C2E60"/>
<stop offset="1" stop-color="#265611"/>
</linearGradient>
<linearGradient id="paint23_linear_106_2" x1="321.687" y1="247.653" x2="321.687" y2="254.276" gradientUnits="userSpaceOnUse">
<stop stop-color="#0C2E60"/>
<stop offset="1" stop-color="#265611"/>
</linearGradient>
<linearGradient id="paint24_linear_106_2" x1="340.111" y1="255.868" x2="340.111" y2="264.118" gradientUnits="userSpaceOnUse">
<stop stop-color="#0C2E60"/>
<stop offset="1" stop-color="#265611"/>
</linearGradient>
<linearGradient id="paint25_linear_106_2" x1="352.51" y1="221.978" x2="352.51" y2="308.917" gradientUnits="userSpaceOnUse">
<stop stop-color="#0C2E60"/>
<stop offset="1" stop-color="#265611"/>
</linearGradient>
<linearGradient id="paint26_linear_106_2" x1="349.381" y1="225.587" x2="349.381" y2="308.918" gradientUnits="userSpaceOnUse">
<stop stop-color="#0C2E60"/>
<stop offset="1" stop-color="#265611"/>
</linearGradient>
<linearGradient id="paint27_linear_106_2" x1="395.883" y1="283.304" x2="395.883" y2="307.409" gradientUnits="userSpaceOnUse">
<stop stop-color="#0C2E60"/>
<stop offset="1" stop-color="#265611"/>
</linearGradient>
<linearGradient id="paint28_linear_106_2" x1="432.679" y1="215.059" x2="432.679" y2="247.972" gradientUnits="userSpaceOnUse">
<stop stop-color="#265611"/>
</linearGradient>
</defs>
</svg>
