<svg width="382" height="422" viewBox="0 0 382 422" fill="none" xmlns="http://www.w3.org/2000/svg">
<path d="M115.22 332.239L117.834 329.119L38.4634 283.293L33.0874 286.397L61.2794 302.673L34.2104 318.301L5.77639 301.884L0.400391 304.988L81.6454 351.89L82.4994 350.871L82.9254 351.117L114.088 333.159L114.332 333.3L114.789 332.755L115.451 332.373L115.22 332.239Z" fill="#E0E0E0"/>
<path d="M340.384 371.803C323.116 380.034 295.121 380.034 277.853 371.803C260.585 363.574 260.585 350.23 277.853 342C295.12 333.771 323.116 333.771 340.384 342C357.651 350.23 357.651 363.574 340.384 371.803Z" fill="#E0E0E0"/>
<path d="M206.803 415.238C189.535 423.469 161.54 423.469 144.272 415.238C127.004 407.009 127.004 393.665 144.272 385.435C161.54 377.206 189.535 377.206 206.803 385.435C224.07 393.666 224.07 407.01 206.803 415.238Z" fill="#E0E0E0"/>
<path d="M344.376 383.226C352.955 388.179 366.865 388.179 375.445 383.226C384.024 378.273 384.024 370.242 375.445 365.288C366.866 360.335 352.956 360.335 344.376 365.288C335.796 370.241 335.796 378.273 344.376 383.226Z" fill="#E0E0E0"/>
<path d="M41.5432 392.198C53.6764 392.198 63.5122 386.52 63.5122 379.514C63.5122 372.509 53.6764 366.83 41.5432 366.83C29.4101 366.83 19.5742 372.509 19.5742 379.514C19.5742 386.52 29.4101 392.198 41.5432 392.198Z" fill="#E0E0E0"/>
<path d="M82.7477 164.428L38.1877 285.698L38.1777 285.718C38.0777 286.028 37.8177 286.318 37.3977 286.558C36.2777 287.208 34.4577 287.208 33.3377 286.558C32.8477 286.278 32.5777 285.928 32.5077 285.558C32.4877 285.448 32.4877 285.338 32.5077 285.228C32.5177 284.958 32.5677 284.678 32.6677 284.398L77.3477 162.448C77.8977 160.958 79.5477 160.188 81.0377 160.738C82.5277 161.288 83.2977 162.938 82.7477 164.428Z" fill="#37474F"/>
<path d="M23.1836 247.865L67.8666 273.662" stroke="#37474F" stroke-width="6" stroke-miterlimit="10"/>
<path d="M55.6797 229.104L100.363 254.902" stroke="#37474F" stroke-width="6" stroke-miterlimit="10"/>
<path d="M46.3877 156.098L70.2177 142.337C72.1677 141.217 74.3477 141.047 76.1977 141.867C78.0477 142.687 79.3777 144.417 79.8477 146.617L119.408 331.697C119.438 331.827 119.458 331.947 119.458 332.077C119.478 332.207 119.478 332.347 119.468 332.477C119.398 332.837 119.128 333.187 118.638 333.467C117.518 334.117 115.698 334.117 114.578 333.467C114.158 333.217 113.898 332.917 113.788 332.607C113.768 332.547 113.758 332.487 113.748 332.437L74.2277 147.817C74.1377 147.417 73.9777 147.167 73.8577 147.117C73.7477 147.067 73.4577 147.107 73.0977 147.317L49.2577 161.078" fill="#455A64"/>
<path d="M85.2795 332.967L70.7635 324.586C70.2855 324.31 69.8975 323.638 69.8975 323.086V322.741C69.8975 322.189 70.2855 321.517 70.7635 321.241L105.589 301.134C106.067 300.858 106.843 300.858 107.321 301.134L121.837 309.515C122.315 309.791 122.703 310.463 122.703 311.015V311.359C122.703 311.911 122.315 312.583 121.837 312.859L87.0115 332.967C86.5335 333.243 85.7575 333.243 85.2795 332.967Z" fill="url(#paint0_linear_404_4849)"/>
<path opacity="0.1" d="M70.1515 321.886C69.9945 322.158 69.8975 322.463 69.8975 322.74V323.085C69.8975 323.637 70.2855 324.309 70.7635 324.585L85.2795 332.966C85.5185 333.104 85.8315 333.173 86.1455 333.173V331.12L70.1515 321.886Z" fill="black"/>
<path opacity="0.15" d="M86.1455 331.121V333.174C86.4585 333.174 86.7725 333.105 87.0115 332.967L104.424 322.914L121.838 312.861C122.316 312.585 122.704 311.913 122.704 311.361V311.016C122.704 310.74 122.607 310.433 122.45 310.161L86.1455 331.121Z" fill="black"/>
<path d="M78.9855 303.535L64.4695 295.154C63.9915 294.878 63.6035 294.206 63.6035 293.654V293.309C63.6035 292.757 63.9915 292.085 64.4695 291.809L99.2955 271.702C99.7735 271.426 100.55 271.426 101.028 271.702L115.544 280.083C116.022 280.359 116.41 281.031 116.41 281.583V281.928C116.41 282.48 116.022 283.152 115.544 283.428L80.7175 303.535C80.2385 303.812 79.4635 303.812 78.9855 303.535Z" fill="url(#paint1_linear_404_4849)"/>
<path opacity="0.1" d="M63.8575 292.454C63.7005 292.725 63.6035 293.032 63.6035 293.308V293.653C63.6035 294.205 63.9915 294.877 64.4695 295.153L78.9855 303.534C79.2245 303.672 79.5375 303.741 79.8515 303.741V301.688L63.8575 292.454Z" fill="black"/>
<path opacity="0.15" d="M79.8516 301.689V303.742C80.1646 303.742 80.4786 303.673 80.7176 303.535L98.1306 293.481L115.544 283.428C116.022 283.152 116.41 282.48 116.41 281.928V281.583C116.41 281.307 116.313 281.001 116.156 280.729L79.8516 301.689Z" fill="black"/>
<path d="M72.6916 274.103L58.1756 265.722C57.6976 265.446 57.3096 264.774 57.3096 264.222V263.877C57.3096 263.325 57.6976 262.653 58.1756 262.377L93.0016 242.27C93.4796 241.994 94.2556 241.994 94.7336 242.27L109.25 250.651C109.728 250.927 110.116 251.599 110.116 252.151V252.496C110.116 253.048 109.728 253.72 109.25 253.996L74.4236 274.103C73.9456 274.379 73.1696 274.379 72.6916 274.103Z" fill="url(#paint2_linear_404_4849)"/>
<path opacity="0.1" d="M57.5626 263.023C57.4056 263.294 57.3086 263.601 57.3086 263.877V264.222C57.3086 264.774 57.6966 265.446 58.1746 265.722L65.4326 269.913L72.6906 274.104C72.9296 274.242 73.2426 274.311 73.5566 274.311V272.258L57.5626 263.023Z" fill="black"/>
<path opacity="0.15" d="M73.5576 272.258V274.311C73.8706 274.311 74.1846 274.242 74.4236 274.104L91.8366 264.05L109.25 253.997C109.728 253.721 110.116 253.049 110.116 252.497V252.152C110.116 251.876 110.019 251.57 109.862 251.298L73.5576 272.258Z" fill="black"/>
<path d="M66.3976 244.672L51.8816 236.291C51.4036 236.015 51.0156 235.343 51.0156 234.791V234.446C51.0156 233.894 51.4036 233.222 51.8816 232.946L86.7076 212.839C87.1856 212.563 87.9616 212.563 88.4396 212.839L102.956 221.22C103.434 221.496 103.822 222.168 103.822 222.72V223.065C103.822 223.617 103.434 224.289 102.956 224.565L68.1296 244.672C67.6506 244.948 66.8756 244.948 66.3976 244.672Z" fill="url(#paint3_linear_404_4849)"/>
<path opacity="0.15" d="M67.2637 242.826V244.879C67.5767 244.879 67.8907 244.81 68.1297 244.672L85.5427 234.619L102.956 224.566C103.434 224.29 103.822 223.618 103.822 223.066V222.721C103.822 222.445 103.725 222.139 103.568 221.867L67.2637 242.826Z" fill="black"/>
<path opacity="0.1" d="M51.2687 233.592C51.1117 233.864 51.0146 234.169 51.0146 234.446V234.791C51.0146 235.343 51.4027 236.015 51.8807 236.291L66.3967 244.672C66.6357 244.81 66.9486 244.879 67.2626 244.879V242.826L51.2687 233.592Z" fill="black"/>
<path d="M60.1033 215.24L35.9803 201.316C35.5023 201.04 35.1143 200.368 35.1143 199.816V199.471C35.1143 198.919 35.5023 198.247 35.9803 197.971L70.8063 177.864C71.2843 177.588 72.0603 177.588 72.5383 177.864L96.6613 191.788C97.1393 192.064 97.5273 192.736 97.5273 193.288V193.633C97.5273 194.185 97.1393 194.857 96.6613 195.133L61.8353 215.24C61.3563 215.517 60.5813 215.517 60.1033 215.24Z" fill="url(#paint4_linear_404_4849)"/>
<path opacity="0.15" d="M60.9692 213.395V215.448C61.2822 215.448 61.5962 215.379 61.8352 215.241L79.2482 205.188L96.6612 195.135C97.1392 194.859 97.5272 194.187 97.5272 193.635V193.289C97.5272 193.013 97.4302 192.707 97.2732 192.435L60.9692 213.395Z" fill="black"/>
<path opacity="0.1" d="M35.3683 198.617C35.2113 198.888 35.1143 199.194 35.1143 199.471V199.816C35.1143 200.368 35.5023 201.04 35.9803 201.316L60.1033 215.241C60.3423 215.379 60.6563 215.448 60.9693 215.448V213.395L35.3683 198.617Z" fill="black"/>
<path d="M50.2575 183.187L5.7375 304.317L5.7275 304.357L5.6275 304.627C5.4975 304.877 5.2575 305.117 4.9075 305.327C3.7875 305.967 1.9675 305.967 0.837502 305.327C0.347502 305.037 0.0775 304.687 0.0075 304.327C-0.0025 304.217 -0.0025 304.107 0.0075 303.997C0.0175 303.707 0.077502 303.437 0.177502 303.157L44.8575 181.207C45.3975 179.717 47.0475 178.957 48.5475 179.497C50.0375 180.047 50.7975 181.697 50.2575 183.187Z" fill="#37474F"/>
<path d="M49.2577 161.078C47.9377 161.848 47.0277 163.888 47.3477 165.378L86.9177 350.448C86.9577 350.598 86.9777 350.748 86.9777 350.898C86.9877 350.998 86.9877 351.108 86.9777 351.218C86.9177 351.578 86.6377 351.938 86.1477 352.228C85.0277 352.878 83.2077 352.878 82.0877 352.228C81.6777 351.988 81.4177 351.698 81.2977 351.398C81.2977 351.388 81.2977 351.378 81.2877 351.368L81.2377 351.128L41.7277 166.588C40.8977 162.698 42.9377 158.088 46.3877 156.098" fill="#455A64"/>
<path d="M60.3009 348L23.5959 347.501L23.2769 377.476H23.2799C23.2499 380.189 25.0109 382.922 28.5729 385.03C35.6939 389.246 47.3149 389.371 54.5289 385.31C58.1679 383.261 59.9839 380.538 59.9819 377.801L60.3009 348Z" fill="#37474F"/>
<path d="M29.0589 340.072C21.8479 344.134 21.7759 350.844 28.8969 355.06C36.0179 359.276 47.6389 359.401 54.8529 355.34C62.0669 351.279 62.1389 344.569 55.0149 340.352C47.8909 336.136 36.2689 336.01 29.0589 340.072Z" fill="#455A64"/>
<path d="M58.7229 347.881C58.7229 348.36 58.6229 348.839 58.4629 349.319C57.9039 351.036 56.4059 352.634 54.0699 353.952C50.8149 355.769 46.4819 356.748 41.8489 356.708C37.2359 356.648 32.9229 355.59 29.7069 353.693C27.4499 352.355 25.9729 350.737 25.4529 349.06C25.2729 348.561 25.1929 348.042 25.1929 347.522C25.2329 345.285 26.8699 343.129 29.8459 341.471C33.0809 339.634 37.4349 338.655 42.0469 338.715C46.6799 338.755 50.9939 339.833 54.2089 341.73C57.1459 343.467 58.7429 345.644 58.7229 347.881Z" fill="#263238"/>
<path d="M58.4636 349.318C57.9046 351.035 56.4066 352.633 54.0706 353.951C50.8156 355.768 46.4826 356.747 41.8496 356.707C37.2366 356.647 32.9236 355.589 29.7076 353.692C27.4506 352.354 25.9736 350.736 25.4536 349.059C26.0126 347.342 27.5106 345.744 29.8466 344.446C33.0816 342.609 37.4356 341.63 42.0476 341.67C46.6806 341.73 50.9946 342.808 54.2096 344.706C56.4666 346.043 57.9236 347.64 58.4636 349.318Z" fill="url(#paint5_linear_404_4849)"/>
<path d="M49.7725 359.23C50.5765 358.777 51.2215 359.158 51.2105 360.081C51.2005 361.005 50.5395 362.121 49.7345 362.575C48.9295 363.029 48.2855 362.648 48.2965 361.724C48.3075 360.8 48.9675 359.684 49.7725 359.23Z" fill="#263238"/>
<path d="M23.5357 352.772C21.5187 356.746 17.5047 366.212 22.7167 370.066C22.9367 370.226 23.1367 370.366 23.3557 370.505L23.3357 372.422C22.8167 372.103 22.2777 371.743 21.7577 371.364C13.9697 365.593 22.7557 350.775 23.1357 350.156C23.2357 349.976 23.3957 349.876 23.5747 349.816L23.5357 352.772Z" fill="#E0E0E0"/>
<path d="M50.4559 361.28C50.2359 361.739 44.5649 372.583 35.2389 374.76C34.1609 375.02 33.1019 375.139 32.0239 375.139C29.1279 375.139 26.2329 374.24 23.3369 372.423L23.3569 370.506C27.2109 373.182 31.0849 374.1 34.8799 373.222C43.4869 371.205 48.9989 360.641 49.0389 360.541C49.2389 360.141 49.7379 360.002 50.1169 360.201C50.5159 360.401 50.6749 360.88 50.4559 361.28Z" fill="#E0E0E0"/>
<path d="M126.63 255.997L122.837 253.807C121.641 253.117 120.672 251.438 120.672 250.057L120.671 76.8195C120.671 75.4385 121.64 73.7595 122.836 73.0695L248.491 0.522505C249.687 -0.167495 251.625 -0.167495 252.821 0.522505L256.616 2.7125C257.812 3.4025 258.781 5.0815 258.781 6.4625V179.701C258.781 181.082 257.812 182.761 256.616 183.451L130.96 255.997C129.764 256.686 127.826 256.687 126.63 255.997Z" fill="url(#paint6_linear_404_4849)"/>
<path opacity="0.4" d="M258.758 6.1075C258.608 4.9875 257.698 4.5775 256.618 5.2075L130.958 77.7575C130.368 78.0975 129.828 78.6975 129.428 79.3775L121.308 74.6875C121.698 74.0075 122.238 73.4175 122.838 73.0675L248.488 0.5175C249.688 -0.1725 251.628 -0.1725 252.818 0.5175L256.618 2.7075C257.708 3.3375 258.618 4.8075 258.758 6.1075Z" fill="white"/>
<path opacity="0.1" d="M130.457 256.217C129.277 256.677 127.667 256.597 126.627 255.997L122.837 253.808C121.637 253.118 120.667 251.438 120.667 250.058V76.8175C120.667 76.1275 120.917 75.3675 121.307 74.6875L129.427 79.3775C129.037 80.0575 128.797 80.8175 128.797 81.5075V254.747C128.797 255.927 129.507 256.507 130.457 256.217Z" fill="black"/>
<path d="M268.6 142.469L268.601 142.479C268.316 142.307 267.939 142.322 267.554 142.575L262.496 145.904C261.804 146.359 260.941 146.125 260.465 145.446C260.16 145.01 259.83 144.607 259.479 144.238C258.908 143.638 258.599 142.606 258.886 141.829L266.925 136.734L260.924 133.271L260.919 133.277C260.799 133.208 260.67 133.15 260.522 133.117L256.709 132.264C255.901 132.083 254.933 132.531 254.548 133.265L250.963 140.096C250.578 140.83 249.6 141.521 248.797 141.725C248.724 141.743 248.649 141.77 248.576 141.789C248.797 141.143 248.89 140.2 248.89 140.2L242.871 136.727L242.873 136.734C242.551 136.546 242.136 136.581 241.745 136.889L236.031 141.381C235.38 141.893 234.894 142.978 234.946 143.805L235.287 149.241C235.339 150.068 234.93 151.236 234.398 151.872C233.462 152.992 232.576 154.167 231.745 155.384C231.278 156.068 230.248 156.604 229.42 156.563L225.747 156.382C224.92 156.341 223.975 156.921 223.638 157.678L220.185 165.42C219.876 166.113 220.143 166.901 220.774 167.28L220.772 167.287L224.843 169.636C224.974 169.97 225.018 170.338 224.938 170.69C224.655 171.935 224.441 173.169 224.302 174.383C224.208 175.206 223.674 176.331 223.064 176.892L218.002 181.547C217.392 182.108 217.012 183.224 217.152 184.04L218.103 189.561C218.165 189.921 218.334 190.171 218.56 190.309L218.552 190.314L224.59 193.798L224.67 186.886C225.362 186.431 226.225 186.665 226.7 187.344C227.005 187.78 227.335 188.183 227.686 188.552C228.257 189.152 228.566 190.184 228.279 190.961L225.7 197.938C225.471 198.557 225.697 199.17 226.205 199.488L226.201 199.494L232.229 202.973L233.871 198.481L236.201 192.693C236.586 191.959 237.564 191.269 238.367 191.064C239.134 190.869 239.918 190.611 240.715 190.288C241.483 189.977 242.279 190.319 242.518 191.112L243.807 195.391C243.903 195.711 244.081 195.934 244.298 196.059L244.293 196.063L250.339 199.549L249.281 192.864L251.131 191.409C251.782 190.897 252.268 189.812 252.216 188.985L251.875 183.549C251.823 182.722 252.232 181.554 252.764 180.918C253.701 179.798 255.114 179.2 255.945 177.984C256.412 177.3 256.915 176.187 257.742 176.228L261.415 176.409C262.242 176.45 263.187 175.87 263.524 175.113L266.977 167.371C267.315 166.614 266.97 165.738 266.208 165.413L263.24 164.147C262.478 163.822 262.038 162.91 262.222 162.102C262.505 160.857 262.719 159.622 262.858 158.409C262.952 157.586 263.486 156.461 264.095 155.901L269.157 151.246C269.59 150.848 269.897 150.17 269.994 149.518L274.592 145.932L268.6 142.469ZM245.612 178.17C239.419 183.039 233.491 181.713 232.371 175.209C231.251 168.705 236.318 160.441 242.511 155.573C248.704 150.705 253.676 151.075 254.796 157.578C255.916 164.082 251.804 173.301 245.612 178.17Z" fill="#263238"/>
<path d="M223.009 176.942L218.004 181.544C217.634 181.884 217.368 182.429 217.232 182.986L224.667 187.279L224.672 186.884C225.364 186.429 226.227 186.663 226.702 187.342C226.704 187.345 226.707 187.347 226.709 187.35L233.874 183.213L223.009 176.942Z" fill="#455A64"/>
<path d="M235.763 163.007C236.328 162.133 236.944 161.281 237.605 160.46L230.47 156.339C230.12 156.483 229.756 156.578 229.421 156.561L225.748 156.38C225.227 156.354 224.659 156.576 224.226 156.932L235.209 163.273L235.763 163.007Z" fill="#455A64"/>
<path d="M274.599 145.925C274.319 145.765 273.949 145.795 273.569 146.045L268.509 149.375C267.819 149.825 266.959 149.595 266.479 148.915C266.169 148.475 265.849 148.075 265.489 147.705C264.919 147.105 264.609 146.075 264.899 145.295L265.379 144.005L267.549 142.575C267.939 142.325 268.319 142.305 268.599 142.475V142.465L274.599 145.925Z" fill="#455A64"/>
<path d="M259.647 144.445C259.588 144.38 259.539 144.302 259.479 144.239C258.908 143.639 258.599 142.607 258.886 141.83L266.925 136.735L260.924 133.272L260.919 133.278C260.799 133.209 260.67 133.151 260.522 133.118L256.709 132.265C255.901 132.084 254.933 132.532 254.548 133.266L250.963 140.097C250.79 140.427 250.488 140.742 250.145 141.014L258.244 145.69L259.647 144.445Z" fill="#455A64"/>
<path d="M235.093 142.879L242.531 147.173L248.644 141.571C248.817 140.95 248.891 140.201 248.891 140.201L242.872 136.728L242.874 136.735C242.552 136.547 242.137 136.582 241.746 136.89L236.032 141.382C235.61 141.714 235.275 142.291 235.093 142.879Z" fill="#455A64"/>
<path d="M276.027 152.22L275.076 146.699C274.935 145.883 274.26 145.59 273.568 146.045L268.51 149.374C267.818 149.829 266.955 149.595 266.48 148.916C266.175 148.48 265.845 148.077 265.494 147.709C264.923 147.109 264.614 146.077 264.901 145.3L267.481 138.322C267.768 137.545 267.346 136.769 266.537 136.588L262.724 135.736C261.915 135.555 260.948 136.003 260.563 136.737L256.978 143.568C256.593 144.302 255.615 144.993 254.812 145.197C254.045 145.392 253.261 145.65 252.464 145.973C251.696 146.284 250.9 145.942 250.661 145.149L249.372 140.87C249.133 140.077 248.411 139.849 247.76 140.361L242.046 144.853C241.395 145.365 240.909 146.45 240.961 147.277L241.302 152.713C241.354 153.54 240.945 154.708 240.413 155.344C239.477 156.464 238.591 157.639 237.76 158.856C237.293 159.54 236.263 160.075 235.435 160.035L231.762 159.854C230.935 159.813 229.99 160.393 229.653 161.15L226.2 168.892C225.862 169.649 226.207 170.525 226.969 170.85L229.936 172.116C230.698 172.441 231.138 173.353 230.955 174.161C230.672 175.406 230.458 176.641 230.319 177.854C230.225 178.677 229.691 179.802 229.081 180.363L224.019 185.018C223.409 185.579 223.029 186.695 223.169 187.511L224.12 193.032C224.261 193.848 224.935 194.141 225.628 193.686L230.687 190.357C231.379 189.902 232.242 190.136 232.717 190.815C233.022 191.251 233.352 191.654 233.703 192.023C234.274 192.623 234.583 193.655 234.296 194.432L231.717 201.409C231.43 202.186 231.852 202.962 232.661 203.143L236.473 203.995C237.282 204.176 238.249 203.728 238.634 202.994L242.219 196.163C242.604 195.43 243.582 194.739 244.385 194.534C245.152 194.339 245.936 194.081 246.733 193.758C247.501 193.447 248.297 193.788 248.536 194.582L249.825 198.861C250.064 199.654 250.786 199.882 251.437 199.37L257.15 194.878C257.801 194.366 258.287 193.281 258.235 192.454L257.894 187.018C257.842 186.191 258.251 185.023 258.783 184.388C259.72 183.268 260.606 182.093 261.436 180.876C261.903 180.192 262.933 179.656 263.761 179.697L267.434 179.878C268.261 179.919 269.206 179.339 269.543 178.582L272.996 170.84C273.333 170.083 272.989 169.207 272.227 168.882L269.26 167.616C268.498 167.291 268.058 166.379 268.242 165.571C268.525 164.326 268.739 163.092 268.878 161.878C268.972 161.055 269.506 159.93 270.116 159.37L275.178 154.715C275.787 154.153 276.167 153.037 276.027 152.22ZM251.626 181.641C245.434 186.51 239.505 185.184 238.385 178.68C237.265 172.176 241.377 162.957 247.57 158.089C253.762 153.22 259.69 154.545 260.81 161.049C261.93 167.553 257.819 176.772 251.626 181.641Z" fill="#37474F"/>
<path d="M240.003 89.0164L234.08 85.6014L234.079 85.6064C233.835 85.4674 233.51 85.4574 233.15 85.6204L222.45 90.4434C221.695 90.7834 220.918 90.4074 220.668 89.6184C220.046 87.6524 219.244 85.8814 218.283 84.3134C217.85 83.6074 217.752 82.4634 218.12 81.7214L225.252 67.3424C225.62 66.6004 225.337 65.6624 224.619 65.2484L216.88 60.7804C216.162 60.3664 215.209 60.5894 214.75 61.2794L205.864 74.6434C205.405 75.3334 204.365 75.8204 203.537 75.7984C202.531 75.7724 201.493 75.8244 200.433 75.9434V66.1694L194.495 62.7454C194.232 62.6054 193.887 62.6234 193.524 62.8334L181.503 69.7734C180.786 70.1874 180.144 71.1924 180.069 72.0174L178.865 85.3934C178.791 86.2184 178.224 87.3304 177.615 87.8914C175.276 90.0454 173.041 92.4194 170.937 94.9594C170.409 95.5974 169.358 95.9014 168.575 95.6284L160.859 92.9334C160.077 92.6604 159.107 93.0204 158.693 93.7374L149.856 109.043C149.442 109.76 149.615 110.78 150.242 111.321L156.434 116.656C157.062 117.197 157.323 118.26 157.035 119.037C155.887 122.129 154.948 125.252 154.252 128.355C154.071 129.163 153.392 130.208 152.714 130.685L141.733 138.415C141.056 138.892 140.506 139.95 140.506 140.778V154.658C140.506 155.086 140.671 155.395 140.933 155.55L140.93 155.553L146.851 158.967L155.645 154.805C155.985 155.517 156.346 156.205 156.741 156.849C157.174 157.555 157.272 158.699 156.903 159.441L149.771 173.82C149.403 174.562 149.686 175.5 150.404 175.914L158.143 180.382C158.86 180.796 159.814 180.573 160.273 179.883L169.16 166.517C169.619 165.827 170.659 165.34 171.487 165.362C173.326 165.41 175.26 165.22 177.274 164.775C178.083 164.596 178.796 165.081 178.879 165.906L180.052 177.584C180.092 177.983 180.266 178.263 180.515 178.403L180.512 178.405L186.423 181.813L193.522 171.385C194.239 170.971 194.881 169.966 194.956 169.141L196.16 155.766C196.234 154.941 196.934 154.063 197.698 153.743C201.132 152.304 204.604 149.819 207.035 147.193C207.598 146.585 208.648 146.28 209.429 146.555L214.166 148.223C214.947 148.498 215.917 148.14 216.331 147.422L225.168 132.116C225.582 131.399 225.409 130.379 224.782 129.838L220.712 126.331C220.084 125.79 219.824 124.727 220.051 123.93C221.027 120.505 221.248 116.025 221.155 112.838C221.131 112.01 221.632 110.952 222.309 110.475L233.291 102.745C233.968 102.268 234.518 101.21 234.518 100.382L239.766 94.0914L240.003 89.0164ZM187.512 144.031C176.297 150.507 169.325 145.913 169.325 132.962C169.325 120.012 178.593 104.147 189.809 97.6724C201.024 91.1964 207.819 95.9074 207.819 108.857C207.82 121.808 198.728 137.556 187.512 144.031Z" fill="#263238"/>
<path d="M222.894 72.0965L225.253 67.3405C225.621 66.5985 225.338 65.6605 224.62 65.2465L216.881 60.7785C216.163 60.3645 215.21 60.5875 214.751 61.2775L205.864 74.6435C205.72 74.8605 205.507 75.0455 205.273 75.2135L215.221 80.9565L222.894 72.0965Z" fill="#455A64"/>
<path d="M153.563 129.786C153.306 130.149 153.014 130.478 152.715 130.689L141.734 138.419C141.458 138.614 141.216 138.916 141.011 139.249L147.712 143.118L162.291 134.824L153.563 129.786Z" fill="#455A64"/>
<path d="M160.239 92.8455C159.62 92.8685 159.002 93.2045 158.693 93.7395L149.856 109.045C149.663 109.378 149.61 109.777 149.658 110.163L157.275 114.561L169.371 98.1975L160.239 92.8455Z" fill="#455A64"/>
<path d="M180.301 71.2235L189.726 76.6655L200.432 70.4845V66.1715L194.494 62.7475C194.231 62.6075 193.886 62.6255 193.523 62.8355L181.502 69.7755C181.008 70.0605 180.563 70.6295 180.301 71.2235Z" fill="#455A64"/>
<path d="M240.43 103.793V89.9115C240.43 89.0835 239.818 88.6875 239.063 89.0285L228.364 93.8515C227.609 94.1915 226.832 93.8165 226.582 93.0265C225.96 91.0605 225.157 89.2895 224.196 87.7215C223.763 87.0155 223.666 85.8715 224.033 85.1295L231.165 70.7495C231.533 70.0075 231.25 69.0695 230.532 68.6555L222.793 64.1875C222.076 63.7735 221.122 63.9965 220.663 64.6865L211.775 78.0525C211.316 78.7425 210.276 79.2295 209.448 79.2075C207.61 79.1595 205.675 79.3505 203.661 79.7945C202.852 79.9735 202.139 79.4885 202.056 78.6635L200.883 66.9865C200.8 66.1625 200.151 65.8295 199.434 66.2435L187.413 73.1835C186.696 73.5975 186.054 74.6025 185.979 75.4275L184.775 88.8025C184.701 89.6275 184.134 90.7395 183.525 91.3005C181.186 93.4545 178.952 95.8285 176.847 98.3685C176.318 99.0065 175.267 99.3105 174.485 99.0375L166.768 96.3425C165.986 96.0695 165.016 96.4295 164.602 97.1475L155.765 112.455C155.351 113.172 155.524 114.192 156.151 114.733L162.343 120.068C162.971 120.609 163.232 121.672 162.944 122.449C161.796 125.541 160.858 128.663 160.162 131.766C159.981 132.574 159.302 133.619 158.624 134.096L147.643 141.826C146.966 142.303 146.416 143.361 146.416 144.189V158.069C146.416 158.898 147.028 159.293 147.783 158.953L158.483 154.13C159.238 153.79 160.015 154.165 160.265 154.955C160.887 156.921 161.689 158.692 162.65 160.26C163.083 160.966 163.181 162.111 162.812 162.853L155.68 177.232C155.312 177.974 155.595 178.911 156.313 179.326L164.052 183.794C164.769 184.208 165.723 183.985 166.182 183.295L175.07 169.93C175.529 169.24 176.569 168.753 177.398 168.774C179.237 168.822 181.171 168.631 183.185 168.187C183.994 168.008 184.707 168.493 184.79 169.318L185.963 180.996C186.046 181.82 186.695 182.153 187.412 181.738L199.433 174.797C200.15 174.383 200.792 173.378 200.867 172.553L202.071 159.177C202.145 158.352 202.712 157.241 203.321 156.68C205.66 154.526 207.894 152.153 209.997 149.614C210.525 148.976 211.577 148.671 212.359 148.944L220.076 151.638C220.858 151.911 221.828 151.551 222.242 150.833L231.079 135.527C231.493 134.81 231.32 133.79 230.693 133.249L224.501 127.914C223.873 127.373 223.612 126.31 223.9 125.533C225.048 122.441 225.987 119.319 226.683 116.216C226.864 115.408 227.543 114.363 228.221 113.886L239.202 106.156C239.881 105.68 240.43 104.622 240.43 103.793ZM193.425 147.441C182.209 153.916 173.116 148.667 173.116 135.716C173.116 122.766 182.209 107.018 193.425 100.542C204.64 94.0665 213.732 99.3155 213.732 112.266C213.732 125.218 204.64 140.965 193.425 147.441Z" fill="#37474F"/>
<path d="M240.007 89.0175V89.0275C239.767 88.8675 239.427 88.8575 239.057 89.0275L228.357 93.8475C227.607 94.1875 226.827 93.8175 226.577 93.0275C226.157 91.6775 225.647 90.4275 225.047 89.2675L233.147 85.6175C233.507 85.4575 233.837 85.4675 234.077 85.6075V85.5975L240.007 89.0175Z" fill="#455A64"/>
<path d="M324.242 349.614V348.476C323.793 349.811 321.712 355.557 318.554 358.437C316.044 360.726 312.62 363.371 311.749 365.923C310.843 368.578 316.514 369.469 318.859 369.054C321.584 368.572 325.109 367.026 327.028 364.668C328.377 363.01 329.236 361.046 330.199 359.742C331.162 358.439 333.383 356.983 333.904 355.475C334.19 354.646 333.85 352.831 333.448 351.298C333.079 349.891 332.679 348.344 332.199 348.476C332.198 348.648 332.199 349.343 332.199 349.343C331.621 349.983 330.023 350.619 328.221 350.688C327.057 350.733 324.233 350.502 324.242 349.614Z" fill="#263238"/>
<path d="M316.283 360.45C317.061 359.755 317.845 359.076 318.555 358.428C320.761 356.416 322.442 353.004 323.408 350.675C323.959 349.346 324.243 347.927 324.243 346.488V341.953H332.2V349.335V349.336V349.533L332.16 349.553C331.777 351.207 328.125 355.605 326.051 358.473C324.66 360.396 322.018 362.842 318.86 363.263C315.867 363.662 314.338 362.719 316.283 360.45Z" fill="#FFA8A7"/>
<path d="M293.204 341.77V340.632C292.755 341.967 290.674 347.713 287.516 350.593C285.006 352.882 281.582 355.527 280.711 358.079C279.805 360.734 285.476 361.625 287.821 361.21C290.546 360.727 294.071 359.181 295.99 356.824C297.339 355.167 298.198 353.202 299.162 351.899C300.125 350.596 302.346 349.14 302.867 347.632C303.153 346.803 302.813 344.988 302.411 343.455C302.042 342.048 301.642 340.501 301.162 340.633C301.161 340.805 301.162 341.501 301.162 341.501C300.584 342.141 298.986 342.777 297.184 342.846C296.019 342.889 293.195 342.658 293.204 341.77Z" fill="#263238"/>
<path d="M285.245 352.605C286.023 351.91 286.807 351.232 287.517 350.584C289.723 348.572 291.404 345.16 292.37 342.831C292.921 341.502 293.205 340.083 293.205 338.644V334.109H301.162V341.491V341.492V341.689L301.122 341.709C300.739 343.363 297.088 347.761 295.013 350.629C293.623 352.552 290.98 354.998 287.822 355.419C284.83 355.819 283.301 354.874 285.245 352.605Z" fill="#FFA8A7"/>
<path d="M330.617 225.949C336.786 239.423 330.394 286.885 330.394 286.885C330.58 289.072 333.079 293.374 334.011 302.997C335.111 314.368 332.284 342.919 332.284 342.919C332.284 342.919 328.6 345.328 324.242 343.239C324.242 343.239 316.658 300.239 315.232 288.934C313.988 279.068 311.599 257.374 311.599 257.374L304.81 288.881C304.81 288.881 306.553 294.408 306.96 298.619C307.604 305.269 301.161 336.23 301.161 336.23C301.161 336.23 298.415 337.238 293.204 336.471C293.204 336.471 290.925 295.383 290.324 287.373C289.315 273.92 292.888 231.943 295.356 223.979L330.617 225.949Z" fill="#37474F"/>
<path d="M311.599 257.372L309.596 244.858C309.596 244.858 301.123 243.103 297.28 239.49C297.28 239.49 301.312 244.505 307.3 246.148L309.549 255.783L305.617 284.957L311.599 257.372Z" fill="#263238"/>
<path d="M298.553 217.453C303.222 201.912 309.18 178.771 306.932 178.771C304.684 178.771 301.232 178.565 298.705 181.104C293.724 186.109 292.814 195.384 291.769 200.678C290.723 205.972 289.975 210.152 288.308 218.007C287.042 223.972 285.501 231.17 283.243 235.774C282.843 236.59 282.138 237.212 281.298 237.556C279.041 238.477 277.993 239.642 276.182 240.982C274.764 242.031 273.688 242.167 273.777 242.594C273.891 243.143 274.604 244.123 276.152 243.929C276.931 243.831 277.986 243.418 279.311 242.863C279.311 242.863 278.026 245.217 275.472 247.434C272.012 250.439 271.514 252.567 277.268 253.616C280.874 254.274 284.142 252.545 288.238 245.058C289.418 242.901 291.27 239.494 292.324 236.561C295.067 228.924 297.141 222.152 298.553 217.453Z" fill="#FFA8A7"/>
<path d="M319.736 179.138C327.645 179.682 328.2 183.501 330.179 187.679C331.686 190.859 331.703 194.547 330.553 197.873L325.042 213.817C325.042 213.817 327.623 220.055 330.618 225.948C316.787 233.668 299.517 229.61 295.358 223.976C295.182 222.781 296.251 213.44 296.909 207.338C294.473 201.227 293.83 197.354 294.858 193.315C296.766 185.817 304.172 178.513 307.449 178.778L319.736 179.138Z" fill="url(#paint7_linear_404_4849)"/>
<path d="M312.132 172.585H315.201C324.129 172.585 331.366 165.347 331.366 156.419C331.366 147.443 324.09 140.167 315.113 140.167H312.219C303.243 140.167 295.966 147.443 295.966 156.419C295.966 165.346 303.204 172.585 312.132 172.585Z" fill="#263238"/>
<path d="M340.022 181.105C334.747 181.105 330.471 176.829 330.471 171.554V151.102C335.746 151.102 340.022 155.378 340.022 160.653V181.105Z" fill="#263238"/>
<path d="M332.222 147.474L329.828 151.322C330.889 152.032 332.286 151.746 332.947 150.683C333.607 149.62 333.283 148.184 332.222 147.474Z" fill="#263238"/>
<path d="M301.781 147.324C299.911 148.429 297.601 153.131 297.829 162.989C298.022 171.344 300.73 173.407 302.09 174.002C303.45 174.597 306.072 174.235 308.622 173.81V178.824C308.622 178.824 305.099 182.917 305.32 185.216C305.542 187.515 310.408 188.059 313.705 185.812C317.002 183.566 319.116 180.147 319.116 180.147V168.027C319.116 168.027 320.837 170.325 323.652 168.456C326.467 166.587 326.574 161.959 324.937 160.298C323.3 158.636 319.773 159.163 319.115 161.458C319.115 161.458 315.049 161.606 309.635 158.632C304.221 155.658 302.141 150.563 301.781 147.324Z" fill="#FFA8A7"/>
<path d="M308.092 160.89C308.062 161.492 308.507 162.002 309.086 162.03C309.666 162.057 310.16 161.592 310.19 160.99C310.22 160.388 309.775 159.878 309.195 159.85C308.616 159.822 308.122 160.288 308.092 160.89Z" fill="#263238"/>
<path d="M306.877 167.973L304.437 168.751C304.639 169.449 305.35 169.841 306.024 169.627C306.697 169.412 307.079 168.671 306.877 167.973Z" fill="#F28F8F"/>
<path d="M299.478 157.664L301.604 156.191C301.216 155.584 300.426 155.422 299.839 155.829C299.251 156.235 299.09 157.057 299.478 157.664Z" fill="#263238"/>
<path d="M299.968 160.132C299.938 160.734 300.383 161.244 300.963 161.272C301.543 161.299 302.037 160.834 302.067 160.232C302.097 159.63 301.652 159.12 301.072 159.092C300.493 159.064 299.998 159.529 299.968 160.132Z" fill="#263238"/>
<path d="M305.1 159.53L304.932 165.854L301.604 164.823L305.1 159.53Z" fill="#F28F8F"/>
<path d="M308.621 173.811C311.308 173.459 316.836 171.871 317.697 169.686C317.697 169.686 317.41 171.059 315.759 172.474C314.108 173.889 308.621 175.484 308.621 175.484V173.811Z" fill="#F28F8F"/>
<path opacity="0.1" d="M316.197 227.443C320.74 226.367 323.622 221.772 322.422 217.26C322.376 217.089 322.329 216.943 322.281 216.826C321.392 214.688 319.48 214.968 319.48 214.968C321.273 213.779 322.517 211.924 322.937 209.815L324.615 201.385C324.615 201.385 321.497 191.482 321.814 188.089L329.751 188.546C329.751 188.546 330.15 188.824 330.778 189.26C331.644 192.045 331.515 195.084 330.551 197.873L325.04 213.817C325.04 213.817 327.621 220.056 330.616 225.949C320.423 231.638 308.368 230.927 301.064 227.906C306.834 228.8 312.179 228.395 316.197 227.443Z" fill="black"/>
<path d="M327.63 219.724C324.703 220.499 315.815 221.556 315.161 215.317C314.733 211.235 314.935 205.052 315.198 200.382C315.613 193.009 318.243 185.925 322.81 180.123C323.034 179.839 323.162 179.685 323.162 179.685C323.162 179.685 321.878 178.636 319.117 179.121C319.117 179.121 313.114 184.809 311.292 193.089C307.319 192.509 302.297 192.078 298.959 191.828C301.757 182.648 308.623 178.824 308.623 178.824C307.147 178.047 305.101 178.768 305.101 178.768C299.582 181.92 296.676 187.245 295.341 191.58C292.157 200.398 292.272 233.222 292.327 244.88L297.814 236.14H332.845C332.394 223.607 327.63 219.724 327.63 219.724Z" fill="#37474F"/>
<path d="M344.741 211.197C344.741 211.197 341.006 203.222 335.819 191.401C332.07 182.858 331.231 180.933 325.27 180.009L323.161 179.682C320.336 188.968 322.282 193.174 326.006 199.533L333.361 213.789C336.288 213.209 344.804 212.081 344.741 211.197Z" fill="#FFA8A7"/>
<path d="M333.36 213.79C335.547 218.183 337.418 220.9 340.066 221.611C342.714 222.321 364.61 222.069 364.61 222.069V213.79L343.778 210.626L333.36 213.79Z" fill="#FFA8A7"/>
<path d="M377.135 304.698H342.696V371.788C342.534 374.45 344.195 377.143 347.715 379.175C354.445 383.061 365.357 383.061 372.087 379.175C375.456 377.23 377.138 374.68 377.134 372.131H377.135V304.698Z" fill="url(#paint8_linear_404_4849)"/>
<path d="M373.511 298.607H373.527C369.718 296.116 372.087 290.057 372.087 290.057H347.715C347.715 290.057 350.02 296.078 346.276 298.607H346.291C341.039 302.51 341.505 308.148 347.715 311.733C354.445 315.619 365.357 315.619 372.087 311.733C378.298 308.148 378.763 302.511 373.511 298.607Z" fill="url(#paint9_linear_404_4849)"/>
<path opacity="0.05" d="M373.511 298.607H373.527C369.718 296.116 372.087 290.057 372.087 290.057H347.715C347.715 290.057 350.02 296.078 346.276 298.607H346.291C341.039 302.51 341.505 308.148 347.715 311.733C354.445 315.619 365.357 315.619 372.087 311.733C378.298 308.148 378.763 302.511 373.511 298.607Z" fill="black"/>
<path opacity="0.05" d="M371.413 293.038C371.577 291.379 372.087 290.058 372.087 290.058H347.715C347.715 290.058 348.212 291.372 348.367 293.027C354.907 296.439 364.865 296.443 371.413 293.038Z" fill="black"/>
<path d="M377.135 278.332H375.098C374.317 277.49 373.317 276.697 372.087 275.987C365.357 272.101 354.445 272.101 347.715 275.987C346.485 276.697 345.485 277.49 344.704 278.332H342.668V283.022C342.668 285.568 344.35 288.115 347.716 290.058C354.446 293.944 365.358 293.944 372.088 290.058C375.453 288.115 377.136 285.569 377.136 283.022V278.332H377.135Z" fill="url(#paint10_linear_404_4849)"/>
<path d="M347.715 285.368C354.445 289.254 365.357 289.254 372.087 285.368C378.817 281.482 378.817 275.182 372.087 271.297C365.357 267.411 354.445 267.411 347.715 271.297C340.985 275.182 340.985 281.482 347.715 285.368Z" fill="url(#paint11_linear_404_4849)"/>
<path opacity="0.4" d="M347.715 285.368C354.445 289.254 365.357 289.254 372.087 285.368C378.817 281.482 378.817 275.182 372.087 271.297C365.357 267.411 354.445 267.411 347.715 271.297C340.985 275.182 340.985 281.482 347.715 285.368Z" fill="white"/>
<path opacity="0.2" d="M359.91 374.769C358.055 374.769 356.551 373.265 356.551 371.41V323.486C356.551 321.631 358.055 320.127 359.91 320.127C361.765 320.127 363.269 321.631 363.269 323.486V371.41C363.269 373.265 361.765 374.769 359.91 374.769Z" fill="black"/>
<path opacity="0.2" d="M371.385 372.748C369.778 373.333 368.476 372.504 368.476 370.898V322.074C368.476 320.467 369.778 318.691 371.385 318.106C372.992 317.521 374.294 318.35 374.294 319.956V368.78C374.294 370.387 372.992 372.163 371.385 372.748Z" fill="black"/>
<path opacity="0.2" d="M348.436 372.748C350.043 373.333 351.345 372.504 351.345 370.898V322.074C351.345 320.467 350.043 318.691 348.436 318.106C346.829 317.521 345.527 318.35 345.527 319.956V368.78C345.527 370.387 346.83 372.163 348.436 372.748Z" fill="black"/>
<path d="M364.61 157.657L357.573 153.594L353.138 174.486C353.138 174.486 357.574 181.737 357.574 186.428V275.546L362.228 280.98L364.61 279.608V190.489C364.61 185.799 369.046 183.669 369.046 183.669L364.61 157.657Z" fill="#E0E0E0"/>
<path d="M362.228 159.029L355.191 154.966L350.756 175.858C350.756 175.858 355.192 183.109 355.192 187.8V276.918L362.228 280.98V191.862C362.228 187.171 366.664 185.042 366.664 185.042L362.228 159.029Z" fill="#EBEBEB"/>
<path d="M355.192 154.966L357.574 153.594L364.61 157.657L362.228 159.029L355.192 154.966Z" fill="#FAFAFA"/>
<path d="M364.611 157.656L362.229 159.029L366.665 185.042L369.047 183.669L364.611 157.656Z" fill="#F5F5F5"/>
<path d="M364.61 207.226C364.971 205.653 367.456 204.77 367.21 207.395C366.964 210.02 368.221 211.847 368.576 213.068C369.322 215.634 369.152 220.488 368.143 221.442C367.134 222.396 365.84 223.505 363.916 223.358C361.992 223.211 360.64 222.757 358.647 221.21C357.026 219.952 355.291 212.709 359.053 213.735C364.645 215.261 364.609 211.239 364.609 211.239V207.226H364.61Z" fill="#FFA8A7"/>
<path d="M180.767 230.967C184.701 231.756 187.025 234.644 191.759 242.004C196.493 249.364 203.843 261.939 203.843 261.939L222.224 268.974L221.437 277.241C221.437 277.241 201.384 273.683 198.641 271.644C195.898 269.605 185.274 254.226 185.274 254.226L180.767 230.967Z" fill="#FFA8A7"/>
<path d="M177.479 229.453C181.561 230.176 185.596 231.168 188.104 235.053C190.611 238.938 199.76 253.8 199.76 253.8C199.76 253.8 196.422 261.62 190.349 262.804L181.605 250.212L177.479 229.453Z" fill="#E6E6E6"/>
<path d="M162.517 229.789C161.116 230.126 159.703 230.214 158.469 230.462C152.397 231.682 151.274 234.838 151.13 242.17C150.89 254.441 151.097 282.84 151.097 282.84C156.504 286.779 176.489 289.185 187.868 280.874C187.868 280.874 187.289 248.202 187.289 242.414C187.289 236.626 184.073 229.672 175.193 229.156L162.517 229.789Z" fill="#F5F5F5"/>
<path d="M149.692 396.393H157.543V382.953H149.692V396.393Z" fill="#FFA8A7"/>
<path d="M181.804 386.216L189.65 386.485L190.043 372.262L181.804 371.993V386.216Z" fill="#FFA8A7"/>
<path d="M189.001 280.874L187.596 248.98L162.892 252.961C162.892 252.961 163.114 258.808 162.018 268.064C161.551 272.003 157.773 277.371 151.074 279.145C151.074 279.145 150.664 283.92 151.014 294.633C151.135 298.351 149.389 339.483 149.389 339.483C149.206 341.64 147.129 345.476 146.968 353.246C146.734 364.515 149.356 389.672 149.356 389.672C149.356 389.672 153.167 391.899 158.097 389.845C158.097 389.845 163.374 353.687 164.781 342.533C166.009 332.799 171.134 305.427 171.134 305.427L177.134 338.332C177.134 338.332 175.687 344.138 176.161 350.809C176.528 355.968 181.305 381.81 181.305 381.81C181.305 381.81 185 384.317 190.37 382.504C190.37 382.504 190.838 341.94 190.929 337.207C191.035 331.809 189.001 280.877 189.001 280.874Z" fill="#37474F"/>
<path d="M187.596 248.98C187.337 242.668 186.456 236.843 181.014 231.385C179.539 229.905 177.512 229.104 175.423 229.104H174.26C174.26 229.104 179.716 233.438 181.852 239.719C183.704 245.164 183.587 251.959 183.587 251.959L187.596 248.98Z" fill="#37474F"/>
<path d="M157.544 392.518V391.397C157.965 391.388 158.226 391.806 158.386 392.817C158.501 393.54 158.607 394.086 158.845 395.038C159.209 396.492 159.536 397.381 160.216 399.056C161.326 401.791 162.258 402.81 164.799 406.007C165.402 406.766 166.763 407.97 167.237 408.815C167.712 409.66 167.879 412.01 167.072 412.548C164.108 414.524 159.607 414.579 156.423 413.646C153.974 412.928 152.206 410.972 151.8 408.452C151.683 407.728 151.726 406.988 151.643 406.26C151.454 404.599 150.619 403.081 149.677 401.699C149.13 400.898 148.536 400.115 148.169 399.217C147.51 397.603 148.038 395.788 148.46 394.181C148.824 392.793 149.218 391.267 149.692 391.397C149.693 391.566 149.692 392.253 149.692 392.253C150.262 392.885 151.839 393.512 153.617 393.58C154.767 393.622 157.553 393.394 157.544 392.518Z" fill="#263238"/>
<path d="M189.733 384.064C190.141 384.078 190.473 384.653 191.372 385.627C192.459 386.803 194.236 388.072 195.99 388.95C198.93 390.421 204.645 392.685 207.232 393.851C208.848 394.579 208.772 396.531 207.102 397.642C205.431 398.753 201.399 399.553 196.556 398.47C193.918 397.88 190.484 395.444 188.31 395.575C186.137 395.707 182.069 395.675 180.465 394.569C178.861 393.463 179.503 391.101 179.956 389.072C180.451 386.857 181.07 383.403 181.803 383.554V384.317C182.747 385.746 187.618 386.328 189.691 385.276L189.733 384.064Z" fill="#263238"/>
<path d="M171.135 305.426C171.135 305.426 177.41 303.658 182.067 299.158C182.067 299.158 179.958 303.108 173.684 306.783L176.719 336.052L171.135 305.426Z" fill="#263238"/>
<path d="M176.424 214.479C182.383 214.479 187.214 209.649 187.214 203.689C187.214 197.73 182.383 192.899 176.424 192.899C170.465 192.899 165.634 197.73 165.634 203.689C165.634 209.649 170.465 214.479 176.424 214.479Z" fill="#263238"/>
<path d="M157.773 211.361C157.773 211.361 159.521 219.575 160.222 220.925C160.923 222.275 162.372 222.658 162.372 222.658L162.25 216.88L157.773 211.361Z" fill="#263238"/>
<path d="M159.967 199.593C159.967 199.593 158.084 199.27 156.616 200.771C155.177 202.243 155.981 206.849 157.773 211.36L161.066 211.738L159.967 199.593Z" fill="#263238"/>
<path d="M162.054 211.741C161.394 212.135 160.452 210.867 159.637 210.015C158.823 209.163 156.164 207.999 154.838 210.793C153.487 213.641 156.009 217.404 158.102 218.061C161.709 219.193 162.25 216.879 162.25 216.879L162.516 230.288C167.001 236.038 179.446 235.552 174.261 229.546L174.251 225.586C174.251 225.586 177.519 226.082 179.114 225.836C181.767 225.426 183.436 223.333 184.24 220.462C185.532 215.85 186.023 212.126 184.927 203.056C183.725 193.114 172.162 193.011 165.918 196.941C159.673 200.871 162.054 211.741 162.054 211.741Z" fill="#FFA8A7"/>
<path d="M162.887 254.901C163.071 246.745 161.205 234.646 158.469 230.461C158.469 230.461 160.407 229.505 162.517 229.788C162.517 229.788 167.653 237.788 167.433 254.901H162.887Z" fill="#37474F"/>
<path d="M162.054 212.852C161.722 212.858 160.459 210.763 159.637 210.015C158.498 208.979 159.967 199.593 159.967 199.593C159.967 199.593 158.558 196.94 160.751 194.526C162.311 192.809 164.488 190.712 171.569 191.549C176.616 192.146 182.11 193.72 186.548 191.54C187.213 194.302 186.676 197.382 183.917 199.565C183.917 199.565 182.31 200.601 178.085 201.115C173.86 201.629 167.278 201.016 166.379 200.893C165.154 200.725 164.892 201.913 164.232 205.157C163.651 208.004 163.17 212.831 162.054 212.852Z" fill="#263238"/>
<path d="M159.974 200.323L155.981 198.18C156.548 197.036 157.901 196.588 159.003 197.18C160.106 197.772 160.541 199.179 159.974 200.323Z" fill="#263238"/>
<path d="M174.251 225.586C174.251 225.586 168.33 224.393 166.259 223.293C164.873 222.556 163.732 221.28 163.397 220.462C163.397 220.462 163.785 222.219 165.023 223.802C166.537 225.737 174.25 227.163 174.25 227.163L174.251 225.586Z" fill="#F28F8F"/>
<path d="M174.03 211.011C174.03 211.692 173.499 212.243 172.843 212.241C172.187 212.239 171.656 211.686 171.656 211.005C171.656 210.324 172.187 209.774 172.843 209.775C173.499 209.777 174.03 210.331 174.03 211.011Z" fill="#263238"/>
<path d="M172.772 206.531L170.233 207.932C169.859 207.203 170.124 206.298 170.825 205.911C171.526 205.524 172.398 205.802 172.772 206.531Z" fill="#263238"/>
<path d="M173.715 218.458L176.424 219.475C176.156 220.251 175.332 220.652 174.584 220.372C173.836 220.091 173.447 219.235 173.715 218.458Z" fill="#F28F8F"/>
<path d="M184.612 207.519L182.297 205.736C182.769 205.073 183.67 204.935 184.309 205.427C184.949 205.92 185.084 206.856 184.612 207.519Z" fill="#263238"/>
<path d="M183.899 210.675C183.899 211.356 183.368 211.906 182.712 211.904C182.057 211.902 181.526 211.348 181.526 210.667C181.526 209.986 182.057 209.437 182.712 209.438C183.368 209.44 183.899 209.994 183.899 210.675Z" fill="#263238"/>
<path d="M177.542 209.775L177.931 216.911L181.657 215.641L177.542 209.775Z" fill="#F28F8F"/>
<path d="M234.166 223.03C234.18 220.838 236.004 217.768 235.442 216.132L231.382 213.787L223.248 234.237L214.95 238.954L210.85 232.973L223.116 214.665L219.056 212.32C218.541 212.558 218.027 212.824 217.5 213.123C208.231 218.393 200.659 231.374 200.588 242.118C200.552 247.539 202.433 251.341 205.493 253.109H205.492L209.539 255.446L210.009 254.219C210.109 254.218 210.205 254.226 210.306 254.222V349.374C204.611 355.721 200.641 364.639 200.589 372.409C200.562 376.438 201.591 379.57 203.373 381.652L207.433 383.997L211.507 361.201L219.805 356.484L223.905 362.465L215.7 383.118L219.76 385.463C219.76 385.463 234.097 364.064 234.168 353.319C234.189 350.163 233.551 347.566 232.418 345.589L233.431 344.737L229.402 342.41L229.408 342.423C227.991 341.562 226.316 341.141 224.451 341.215V246.063C230.144 239.717 234.115 230.799 234.166 223.03Z" fill="#455A64"/>
<path d="M210.305 349.375L214.365 351.721V256.569L210.305 254.223V349.375Z" fill="#263238"/>
<path d="M228.509 343.562V248.41C234.204 242.063 238.174 233.145 238.226 225.375C238.253 221.346 237.224 218.214 235.442 216.132L227.308 236.582L219.01 241.299L214.91 235.318L223.115 214.665C222.6 214.903 222.086 215.169 221.559 215.468C212.289 220.738 204.718 233.719 204.647 244.463C204.595 252.339 208.588 256.798 214.364 256.568V351.72C208.669 358.067 204.699 366.985 204.647 374.755C204.62 378.784 205.649 381.916 207.431 383.998L215.565 363.548L223.863 358.831L227.963 364.812L219.758 385.465C220.273 385.227 220.787 384.961 221.314 384.662C230.583 379.392 238.155 366.411 238.226 355.667C238.278 347.79 234.285 343.331 228.509 343.562Z" fill="#37474F"/>
<path d="M222.099 359.834L223.864 358.831L227.963 364.812L219.758 385.465L215.698 383.12L223.903 362.467L222.099 359.834Z" fill="#263238"/>
<path d="M228.509 265.344C228.509 266.873 226.187 268.578 224.482 269.644C222.777 270.71 220.63 272.202 221.437 275.292C222.244 278.383 225.569 279.169 227.253 278.354C228.937 277.539 230.603 276.12 231.024 273.273C231.445 270.426 232.405 263.599 228.509 262.804V265.344Z" fill="#FFA8A7"/>
<path d="M135.335 273.522C142.093 243.176 146.323 236.559 155.735 233.052L154.458 251.299C154.458 251.299 145.634 270.964 144.305 277.917C143.138 284.026 141.831 291.707 142.033 296.933C142.069 297.859 142.469 298.73 143.111 299.398C144.834 301.19 145.328 302.71 146.462 304.707C147.35 306.271 148.298 306.843 148.038 307.204C147.705 307.669 146.635 308.288 145.271 307.466C144.585 307.053 143.772 306.23 142.766 305.165C142.766 305.165 142.991 307.891 144.454 311.014C146.437 315.246 146.021 317.436 140.223 316.034C136.59 315.156 134.258 312.193 133.537 303.52C133.329 301.021 133.011 297.079 133.242 293.91C133.841 285.656 134.247 278.406 135.335 273.522Z" fill="#FFA8A7"/>
<path d="M156.56 230.966C156.56 230.966 152.868 230.966 149.768 233.051C147.404 234.641 143.474 241.049 140.984 248.981C138.494 256.913 137.186 261.315 137.186 261.315C137.186 261.315 141.263 267.528 150.064 265.073C150.064 265.073 155.02 252.671 154.736 253.462C154.736 253.46 161.293 241.236 156.56 230.966Z" fill="#E6E6E6"/>
<defs>
<linearGradient id="paint0_linear_404_4849" x1="96.3005" y1="300.927" x2="96.3005" y2="333.174" gradientUnits="userSpaceOnUse">
<stop stop-color="#27DEBF"/>
<stop offset="0.645" stop-color="#112751"/>
</linearGradient>
<linearGradient id="paint1_linear_404_4849" x1="90.0065" y1="271.495" x2="90.0065" y2="303.742" gradientUnits="userSpaceOnUse">
<stop stop-color="#27DEBF"/>
<stop offset="0.645" stop-color="#112751"/>
</linearGradient>
<linearGradient id="paint2_linear_404_4849" x1="83.7126" y1="242.063" x2="83.7126" y2="274.31" gradientUnits="userSpaceOnUse">
<stop stop-color="#27DEBF"/>
<stop offset="0.645" stop-color="#112751"/>
</linearGradient>
<linearGradient id="paint3_linear_404_4849" x1="77.4186" y1="212.632" x2="77.4186" y2="244.879" gradientUnits="userSpaceOnUse">
<stop stop-color="#27DEBF"/>
<stop offset="0.645" stop-color="#112751"/>
</linearGradient>
<linearGradient id="paint4_linear_404_4849" x1="66.3208" y1="177.657" x2="66.3208" y2="215.448" gradientUnits="userSpaceOnUse">
<stop stop-color="#27DEBF"/>
<stop offset="0.645" stop-color="#112751"/>
</linearGradient>
<linearGradient id="paint5_linear_404_4849" x1="41.9586" y1="341.669" x2="41.9586" y2="356.709" gradientUnits="userSpaceOnUse">
<stop stop-color="#27DEBF"/>
<stop offset="0.645" stop-color="#112751"/>
</linearGradient>
<linearGradient id="paint6_linear_404_4849" x1="189.726" y1="0.00500488" x2="189.726" y2="256.514" gradientUnits="userSpaceOnUse">
<stop stop-color="#27DEBF"/>
<stop offset="0.645" stop-color="#112751"/>
</linearGradient>
<linearGradient id="paint7_linear_404_4849" x1="312.877" y1="178.771" x2="312.877" y2="230.212" gradientUnits="userSpaceOnUse">
<stop stop-color="#27DEBF"/>
<stop offset="0.645" stop-color="#112751"/>
</linearGradient>
<linearGradient id="paint8_linear_404_4849" x1="359.91" y1="304.698" x2="359.91" y2="382.09" gradientUnits="userSpaceOnUse">
<stop stop-color="#27DEBF"/>
<stop offset="0.645" stop-color="#112751"/>
</linearGradient>
<linearGradient id="paint9_linear_404_4849" x1="359.901" y1="290.057" x2="359.901" y2="314.648" gradientUnits="userSpaceOnUse">
<stop stop-color="#27DEBF"/>
<stop offset="0.645" stop-color="#112751"/>
</linearGradient>
<linearGradient id="paint10_linear_404_4849" x1="359.902" y1="273.072" x2="359.902" y2="292.972" gradientUnits="userSpaceOnUse">
<stop stop-color="#27DEBF"/>
<stop offset="0.645" stop-color="#112751"/>
</linearGradient>
<linearGradient id="paint11_linear_404_4849" x1="359.901" y1="268.382" x2="359.901" y2="288.282" gradientUnits="userSpaceOnUse">
<stop stop-color="#27DEBF"/>
<stop offset="0.645" stop-color="#112751"/>
</linearGradient>
</defs>
</svg>
