<svg width="461" height="429" viewBox="0 0 461 429" fill="none" xmlns="http://www.w3.org/2000/svg">
<path d="M382.234 356.012C414.009 356.012 439.768 341.141 439.768 322.795C439.768 304.45 414.009 289.578 382.234 289.578C350.459 289.578 324.7 304.45 324.7 322.795C324.7 341.141 350.459 356.012 382.234 356.012Z" fill="#E0E0E0"/>
<path d="M176.259 394.569L33.5338 312.167C31.1918 310.815 31.1918 308.623 33.5338 307.27L239.87 188.142C242.212 186.79 246.009 186.79 248.351 188.142L391.039 270.523C393.381 271.875 393.381 274.068 391.039 275.42L184.739 394.568C182.398 395.921 178.601 395.922 176.259 394.569Z" fill="#E0E0E0"/>
<path d="M411.272 303.747C410.042 295.308 413.188 263.152 420.346 250.918C427.505 238.684 439.393 225.833 449.661 227.753C459.224 229.541 459.98 241.634 450.084 251.165C440.187 260.695 425.026 273.066 422.163 287.463L414.364 311.973L411.272 303.747Z" fill="url(#paint0_linear_404_4851)"/>
<path opacity="0.1" d="M411.272 303.747C410.042 295.308 413.188 263.152 420.346 250.918C427.505 238.684 439.393 225.833 449.661 227.753C459.224 229.541 459.98 241.634 450.084 251.165C440.187 260.695 425.026 273.066 422.163 287.463L414.364 311.973L411.272 303.747Z" fill="black"/>
<path d="M413.561 301.099C413.825 301.029 414.02 300.791 414.024 300.506C414.466 270.843 433.432 243.37 446.373 235.718C446.669 235.543 446.767 235.16 446.592 234.865C446.419 234.57 446.041 234.464 445.738 234.646C432.551 242.443 413.226 270.375 412.778 300.488C412.772 300.832 413.047 301.114 413.391 301.12C413.451 301.121 413.507 301.114 413.561 301.099Z" fill="white"/>
<path d="M418.2 316.581C418.864 311.64 422.32 303.112 430.141 294.673C439.718 284.338 455.626 278.655 457.839 272.647C460.497 265.429 454.431 260.502 444.097 263.787C430.201 268.204 414.702 285.551 414.9 307.862L418.2 316.581Z" fill="url(#paint1_linear_404_4851)"/>
<path d="M415.413 311.904C415.644 311.851 415.834 311.668 415.885 311.419C421.119 285.452 442.082 271.466 450.638 269.062C450.969 268.969 451.162 268.625 451.07 268.294C450.977 267.962 450.646 267.767 450.302 267.862C440.841 270.52 420.007 284.668 414.664 311.173C414.596 311.51 414.815 311.839 415.152 311.907C415.241 311.926 415.33 311.923 415.413 311.904Z" fill="white"/>
<path d="M126.436 23.7614L118.819 28.1594C118.857 27.8194 118.883 27.4814 118.883 27.1514V24.9444C118.883 21.0174 116.126 19.4254 112.725 21.3894C111.347 22.1844 110.081 23.4444 109.055 24.9184C108.498 19.9804 104.624 18.1414 99.9182 20.8574C94.8302 23.7954 90.7062 30.9384 90.7062 36.8134V40.1144C90.7062 41.6364 90.9882 42.9174 91.4862 43.9394L85.1592 47.5924C83.2732 48.6814 81.7432 51.3304 81.7432 53.5084C81.7432 55.6864 83.2722 56.5694 85.1592 55.4804L126.435 31.6494C128.322 30.5604 129.851 27.9114 129.851 25.7334C129.852 23.5544 128.323 22.6714 126.436 23.7614Z" fill="#E6E6E6"/>
<path d="M30.2582 33.5874L34.4602 30.3514V21.0954C34.4602 13.7574 40.3132 5.24041 46.6682 1.57141C53.0232 -2.09759 58.1742 0.87741 58.1742 8.21441V9.55841C59.6162 7.31841 61.4782 5.39141 63.5142 4.21541C68.0872 1.57541 71.7942 3.71541 71.7942 8.99541V9.60641L77.6522 6.22441C80.6642 4.48541 83.1052 5.89541 83.1052 9.37241C83.1052 12.8494 80.6642 17.0784 77.6522 18.8164L30.2582 46.1794C27.2472 47.9174 24.8052 46.5084 24.8052 43.0314C24.8052 39.5544 27.2462 35.3254 30.2582 33.5874Z" fill="#E6E6E6"/>
<path d="M42.3418 300.828C42.3418 303.593 44.4118 307.029 46.9638 308.502L176.456 383.264C179.008 384.738 183.147 384.738 185.699 383.264L377.61 272.475C380.162 271.001 382.232 267.565 382.232 264.801C382.232 262.036 380.163 258.6 377.611 257.127L248.119 182.365C245.567 180.891 241.428 180.891 238.876 182.365L46.9628 293.154C44.4108 294.627 42.3418 298.064 42.3418 300.828Z" fill="#37474F"/>
<path d="M181.08 374.366V384.367C179.404 384.367 177.729 384.004 176.459 383.268L46.9618 308.503C44.4108 307.03 42.3408 303.593 42.3408 300.829C42.3408 298.235 44.1658 295.055 46.4928 293.454C44.4218 294.938 44.5828 297.115 46.9628 298.492L176.46 373.257C177.728 373.993 179.404 374.366 181.08 374.366Z" fill="#263238"/>
<path d="M38.0059 293.319C35.6119 291.937 33.6709 288.427 33.6709 285.48L33.6699 130.95C33.6699 128.003 35.7389 124.419 38.2909 122.945L230.203 12.1564C232.755 10.6824 236.766 10.6084 239.16 11.9914C241.555 13.3734 243.496 16.8834 243.496 19.8314V174.361C243.496 177.308 241.427 180.892 238.875 182.366L46.9629 293.154C44.4109 294.627 40.4009 294.702 38.0059 293.319Z" fill="#455A64"/>
<path d="M46.4168 293.433C43.8658 294.628 40.2368 294.607 38.0068 293.315C35.6158 291.938 33.6738 288.427 33.6738 285.481V130.946C33.6738 129.473 34.1858 127.84 35.0288 126.399L43.6958 131.394V131.404C42.8638 132.856 42.3408 134.478 42.3408 135.951V290.487C42.3398 293.219 44.1228 294.446 46.4168 293.433Z" fill="#263238"/>
<path d="M42.3408 135.956V290.486C42.3408 293.433 44.4098 294.628 46.9618 293.154L238.874 182.365C241.426 180.891 243.495 177.307 243.495 174.36V19.8314C243.495 16.8844 241.426 15.6894 238.874 17.1634L46.9628 127.951C44.4108 129.425 42.3408 133.009 42.3408 135.956Z" fill="#37474F"/>
<path d="M46.9628 298.491L176.456 373.253C179.008 374.727 183.147 374.727 185.699 373.253L377.611 262.464C380.163 260.99 380.163 258.601 377.611 257.127L248.119 182.365C245.567 180.891 241.428 180.891 238.876 182.365L46.9628 293.154C44.4108 294.627 44.4108 297.017 46.9628 298.491Z" fill="#455A64"/>
<path d="M49.4488 133.885L235.005 26.7914C236.537 25.9074 237.778 26.6244 237.778 28.3924V170.967C237.778 172.735 236.537 174.886 235.005 175.77L49.4488 282.863C47.9178 283.747 46.6758 283.03 46.6758 281.262V138.688C46.6758 136.92 47.9168 134.769 49.4488 133.885Z" fill="url(#paint2_linear_404_4851)"/>
<path opacity="0.4" d="M49.4488 133.885L235.005 26.7914C236.537 25.9074 237.778 26.6244 237.778 28.3924V170.967C237.778 172.735 236.537 174.886 235.005 175.77L49.4488 282.863C47.9178 283.747 46.6758 283.03 46.6758 281.262V138.688C46.6758 136.92 47.9168 134.769 49.4488 133.885Z" fill="black"/>
<path d="M61.994 294.489L241.187 191.044C242.463 190.307 244.532 190.307 245.809 191.044L254.221 195.9C255.497 196.637 255.497 197.831 254.221 198.568L75.003 301.998C73.727 302.735 71.657 302.734 70.381 301.998L61.994 297.157C60.718 296.42 60.717 295.226 61.994 294.489Z" fill="#37474F"/>
<path d="M83.673 307.004L262.864 203.558C264.14 202.821 266.209 202.821 267.485 203.558L319.225 233.431C320.501 234.168 320.501 235.362 319.225 236.099L140.222 339.414C138.946 340.151 136.875 340.154 135.596 339.421L83.677 309.665C82.399 308.932 82.397 307.741 83.673 307.004Z" fill="#263238"/>
<path d="M241.142 247.543L246.784 244.286C247.024 244.147 247.028 243.925 246.793 243.789L240.839 240.351C240.604 240.215 240.219 240.218 239.98 240.356L234.338 243.613C234.098 243.751 234.095 243.973 234.33 244.109L240.284 247.547C240.518 247.683 240.902 247.681 241.142 247.543ZM231.473 235.446L225.831 238.703C225.592 238.842 225.588 239.064 225.823 239.199L231.777 242.637C232.012 242.773 232.397 242.77 232.636 242.632L238.278 239.374C238.518 239.236 238.522 239.013 238.287 238.878L232.332 235.44C232.097 235.305 231.712 235.308 231.473 235.446ZM213.246 245.969L203.698 251.481C203.458 251.619 203.455 251.842 203.689 251.977L209.643 255.415C209.878 255.551 210.263 255.548 210.502 255.41L220.049 249.898C220.289 249.76 220.293 249.537 220.058 249.402L214.104 245.964C213.87 245.829 213.485 245.831 213.246 245.969ZM223.227 240.206L217.585 243.464C217.346 243.602 217.342 243.825 217.577 243.96L223.531 247.398C223.766 247.534 224.151 247.531 224.39 247.393L230.032 244.136C230.272 243.997 230.276 243.775 230.041 243.64L224.086 240.203C223.852 240.065 223.467 240.068 223.227 240.206ZM201.094 252.985L195.452 256.242C195.212 256.381 195.208 256.603 195.443 256.738L201.398 260.176C201.633 260.312 202.017 260.309 202.257 260.171L207.899 256.913C208.138 256.775 208.142 256.553 207.907 256.417L201.953 252.979C201.718 252.844 201.334 252.847 201.094 252.985ZM192.848 257.746L187.206 261.003C186.966 261.141 186.963 261.364 187.197 261.499L193.151 264.936C193.386 265.072 193.771 265.07 194.01 264.931L199.652 261.674C199.892 261.535 199.896 261.313 199.66 261.178L193.706 257.741C193.473 257.605 193.088 257.607 192.848 257.746ZM216.231 271.747L221.873 268.489C222.112 268.351 222.116 268.128 221.881 267.993L215.927 264.555C215.692 264.419 215.307 264.422 215.068 264.56L209.426 267.817C209.186 267.956 209.182 268.178 209.417 268.313L215.372 271.751C215.607 271.888 215.992 271.885 216.231 271.747ZM207.986 276.507L213.628 273.25C213.868 273.111 213.871 272.89 213.636 272.754L207.682 269.317C207.447 269.181 207.062 269.183 206.823 269.322L201.181 272.579C200.941 272.717 200.938 272.94 201.172 273.075L207.126 276.513C207.362 276.648 207.746 276.646 207.986 276.507ZM199.74 281.268L205.382 278.01C205.622 277.872 205.625 277.65 205.39 277.514L199.436 274.076C199.201 273.94 198.816 273.943 198.576 274.081L192.934 277.338C192.694 277.477 192.691 277.699 192.926 277.834L198.88 281.272C199.116 281.409 199.5 281.406 199.74 281.268ZM191.494 286.029L197.136 282.772C197.376 282.634 197.379 282.411 197.144 282.276L191.19 278.839C190.955 278.704 190.57 278.705 190.331 278.844L184.689 282.101C184.449 282.239 184.445 282.462 184.68 282.597L190.634 286.034C190.87 286.169 191.255 286.167 191.494 286.029ZM232.897 252.303L238.538 249.046C238.778 248.908 238.781 248.685 238.547 248.55L232.593 245.112C232.358 244.976 231.974 244.979 231.734 245.117L226.092 248.374C225.852 248.513 225.848 248.735 226.083 248.871L232.037 252.309C232.272 252.444 232.656 252.442 232.897 252.303ZM224.477 266.986L237.062 259.72C237.302 259.581 237.305 259.359 237.07 259.224L222.61 250.875C222.375 250.739 221.99 250.742 221.751 250.88L215.241 254.638C215.001 254.777 214.997 254.999 215.232 255.134L222.888 259.554C223.123 259.689 223.119 259.912 222.879 260.05L217.672 263.057C217.432 263.195 217.428 263.418 217.663 263.553L223.617 266.991C223.852 267.127 224.238 267.124 224.477 266.986ZM184.603 262.506L178.961 265.764C178.722 265.902 178.718 266.125 178.953 266.26L184.907 269.698C185.142 269.834 185.527 269.831 185.766 269.693L191.408 266.436C191.648 266.297 191.651 266.075 191.416 265.94L185.462 262.502C185.227 262.366 184.843 262.368 184.603 262.506ZM176.357 267.267L170.715 270.524C170.475 270.663 170.471 270.885 170.707 271.02L176.661 274.458C176.896 274.594 177.281 274.591 177.52 274.453L183.162 271.196C183.402 271.058 183.405 270.835 183.171 270.7L177.216 267.262C176.981 267.126 176.597 267.129 176.357 267.267ZM132.915 319.359C133.15 319.494 133.534 319.492 133.774 319.354L139.416 316.097C139.655 315.959 139.659 315.736 139.424 315.601L133.47 312.164C133.235 312.029 132.85 312.031 132.611 312.169L126.969 315.426C126.729 315.565 126.725 315.787 126.96 315.922L132.915 319.359ZM110.392 305.352L104.75 308.609C104.51 308.747 104.506 308.97 104.742 309.105L110.696 312.542C110.931 312.678 111.316 312.676 111.555 312.537L117.197 309.28C117.437 309.142 117.44 308.919 117.205 308.784L111.251 305.347C111.016 305.212 110.632 305.213 110.392 305.352ZM122.239 315.7C122.474 315.836 122.859 315.833 123.098 315.695L128.74 312.437C128.98 312.299 128.983 312.076 128.748 311.941L122.794 308.503C122.559 308.367 122.174 308.37 121.935 308.508L116.293 311.765C116.053 311.904 116.049 312.125 116.284 312.261L122.239 315.7ZM146.62 321.759L152.262 318.502C152.502 318.363 152.506 318.141 152.271 318.006L146.317 314.568C146.082 314.433 145.697 314.435 145.457 314.573L139.815 317.83C139.576 317.968 139.572 318.19 139.807 318.326L145.761 321.763C145.996 321.899 146.381 321.897 146.62 321.759ZM137.516 326.524C137.751 326.66 138.136 326.657 138.375 326.519L144.017 323.261C144.257 323.123 144.26 322.901 144.026 322.765L138.072 319.327C137.837 319.191 137.453 319.194 137.213 319.332L131.571 322.59C131.332 322.728 131.327 322.95 131.562 323.086L137.516 326.524ZM118.637 300.591L112.995 303.848C112.755 303.987 112.752 304.208 112.987 304.344L118.941 307.782C119.176 307.917 119.561 307.915 119.8 307.777L125.442 304.519C125.682 304.381 125.686 304.159 125.451 304.023L119.497 300.585C119.262 300.451 118.877 300.453 118.637 300.591ZM159.865 276.788L154.223 280.045C153.984 280.184 153.98 280.406 154.215 280.541L160.169 283.979C160.404 284.115 160.788 284.112 161.028 283.974L166.67 280.716C166.91 280.578 166.913 280.356 166.679 280.22L160.725 276.782C160.49 276.647 160.105 276.65 159.865 276.788ZM126.883 295.831L121.241 299.088C121.001 299.226 120.998 299.449 121.232 299.584L127.186 303.022C127.421 303.158 127.806 303.156 128.045 303.017L133.687 299.76C133.927 299.621 133.93 299.399 133.695 299.264L127.741 295.826C127.507 295.69 127.123 295.692 126.883 295.831ZM168.111 272.027L162.469 275.285C162.229 275.423 162.226 275.646 162.461 275.781L168.415 279.219C168.65 279.355 169.034 279.353 169.274 279.214L174.916 275.957C175.156 275.818 175.16 275.596 174.925 275.461L168.971 272.023C168.736 271.887 168.351 271.889 168.111 272.027ZM151.62 281.549L145.978 284.806C145.738 284.944 145.734 285.167 145.969 285.302L151.924 288.739C152.159 288.875 152.544 288.873 152.784 288.734L158.425 285.477C158.665 285.339 158.669 285.116 158.434 284.981L152.479 281.544C152.245 281.408 151.86 281.41 151.62 281.549ZM143.374 286.309L137.732 289.566C137.492 289.704 137.488 289.927 137.723 290.062L143.677 293.5C143.912 293.636 144.297 293.633 144.536 293.495L150.178 290.238C150.417 290.099 150.421 289.877 150.186 289.741L144.232 286.303C143.999 286.169 143.614 286.171 143.374 286.309ZM135.129 291.07L129.487 294.327C129.247 294.466 129.243 294.688 129.478 294.823L135.432 298.261C135.667 298.397 136.052 298.394 136.291 298.256L141.933 294.998C142.172 294.86 142.176 294.637 141.941 294.502L135.987 291.065C135.753 290.929 135.369 290.932 135.129 291.07ZM175.003 295.55L180.645 292.293C180.885 292.155 180.889 291.932 180.654 291.797L174.7 288.359C174.465 288.223 174.08 288.226 173.841 288.364L168.199 291.621C167.959 291.76 167.956 291.982 168.191 292.117L174.145 295.555C174.379 295.691 174.763 295.689 175.003 295.55ZM249.7 224.922L244.058 228.179C243.818 228.317 243.815 228.539 244.049 228.675L250.004 232.113C250.239 232.249 250.624 232.246 250.863 232.108L256.505 228.851C256.745 228.712 256.748 228.491 256.514 228.355L250.56 224.917C250.325 224.781 249.94 224.784 249.7 224.922ZM239.718 230.685L234.076 233.943C233.836 234.081 233.833 234.303 234.067 234.439L240.021 237.877C240.256 238.013 240.641 238.01 240.88 237.872L246.522 234.615C246.762 234.476 246.765 234.254 246.531 234.119L240.577 230.681C240.343 230.544 239.958 230.547 239.718 230.685ZM257.945 220.162L252.304 223.419C252.064 223.557 252.06 223.78 252.295 223.916L258.25 227.353C258.484 227.489 258.87 227.487 259.109 227.348L264.751 224.091C264.991 223.952 264.995 223.73 264.76 223.595L258.806 220.157C258.57 220.021 258.186 220.023 257.945 220.162ZM213.801 263.328L219.443 260.071C219.683 259.932 219.686 259.71 219.451 259.575L213.497 256.137C213.262 256.001 212.877 256.004 212.638 256.142L206.996 259.4C206.756 259.538 206.753 259.76 206.987 259.896L212.941 263.334C213.177 263.469 213.561 263.466 213.801 263.328ZM267.051 215.396C266.817 215.261 266.431 215.263 266.192 215.401L260.551 218.658C260.311 218.797 260.307 219.018 260.542 219.154L266.496 222.592C266.73 222.728 267.115 222.725 267.355 222.587L272.997 219.329C273.237 219.191 273.241 218.969 273.006 218.833L267.051 215.396ZM183.249 290.79L188.891 287.533C189.131 287.394 189.134 287.172 188.899 287.037L182.945 283.599C182.71 283.463 182.325 283.466 182.086 283.604L176.444 286.862C176.204 287 176.201 287.223 176.436 287.358L182.39 290.796C182.624 290.93 183.009 290.928 183.249 290.79ZM284.367 232.409L290.009 229.152C290.249 229.014 290.252 228.791 290.018 228.656L284.063 225.219C283.828 225.083 283.444 225.085 283.204 225.224L277.562 228.481C277.323 228.619 277.318 228.842 277.553 228.977L283.507 232.414C283.742 232.549 284.127 232.547 284.367 232.409ZM267.615 232.259L273.257 229.001C273.496 228.863 273.5 228.641 273.265 228.505L267.311 225.067C267.077 224.931 266.691 224.934 266.452 225.072L260.81 228.329C260.57 228.468 260.566 228.69 260.801 228.825L266.755 232.263C266.99 232.4 267.375 232.397 267.615 232.259ZM275.557 220.307C275.323 220.171 274.937 220.174 274.698 220.312L269.056 223.57C268.817 223.708 268.813 223.931 269.048 224.066L275.002 227.504C275.237 227.64 275.622 227.637 275.861 227.499L281.503 224.242C281.743 224.103 281.747 223.881 281.512 223.746L275.557 220.307ZM277.293 219.305L291.753 227.654C291.988 227.789 292.372 227.787 292.612 227.649L298.254 224.392C298.494 224.253 298.498 224.031 298.263 223.896L283.802 215.547C283.567 215.412 283.182 215.414 282.942 215.552L277.3 218.809C277.062 218.946 277.058 219.169 277.293 219.305ZM258.206 229.833L252.564 233.09C252.324 233.228 252.32 233.451 252.555 233.586L258.51 237.023C258.745 237.159 259.13 237.157 259.369 237.018L265.011 233.761C265.25 233.622 265.255 233.4 265.02 233.265L259.066 229.827C258.831 229.693 258.446 229.695 258.206 229.833ZM196.147 265.663L190.505 268.921C190.265 269.059 190.261 269.282 190.496 269.417L196.45 272.855C196.685 272.991 197.07 272.988 197.309 272.85L202.951 269.593C203.191 269.454 203.194 269.232 202.959 269.097L197.005 265.659C196.771 265.522 196.386 265.525 196.147 265.663ZM275.262 237.174C275.496 237.31 275.882 237.307 276.121 237.169L281.763 233.912C282.002 233.773 282.006 233.551 281.771 233.416L275.817 229.978C275.583 229.842 275.197 229.845 274.958 229.983L269.316 233.241C269.076 233.379 269.072 233.601 269.307 233.737L275.262 237.174ZM204.392 260.903L198.75 264.16C198.51 264.299 198.507 264.521 198.742 264.656L204.696 268.094C204.931 268.23 205.315 268.227 205.555 268.089L211.197 264.831C211.437 264.693 211.441 264.47 211.206 264.335L205.252 260.897C205.017 260.762 204.632 260.764 204.392 260.903ZM141.161 314.598C141.396 314.734 141.781 314.731 142.02 314.593L147.662 311.336C147.901 311.197 147.905 310.975 147.67 310.84L141.716 307.402C141.481 307.266 141.097 307.269 140.857 307.407L135.215 310.665C134.975 310.803 134.972 311.026 135.206 311.161L141.161 314.598ZM130.181 303.748L124.539 307.006C124.299 307.144 124.296 307.367 124.531 307.502L130.485 310.94C130.72 311.076 131.105 311.073 131.344 310.935L136.986 307.678C137.226 307.539 137.23 307.317 136.994 307.182L131.04 303.744C130.806 303.608 130.421 303.61 130.181 303.748ZM150.266 309.832L155.908 306.575C156.148 306.437 156.152 306.214 155.917 306.079L149.962 302.642C149.727 302.506 149.342 302.508 149.103 302.647L143.461 305.904C143.222 306.042 143.218 306.265 143.453 306.4L149.408 309.837C149.641 309.972 150.026 309.971 150.266 309.832ZM158.511 305.072L164.153 301.815C164.393 301.676 164.397 301.454 164.162 301.319L158.207 297.881C157.973 297.745 157.588 297.748 157.348 297.886L151.706 301.143C151.467 301.282 151.462 301.504 151.698 301.639L157.653 305.077C157.887 305.212 158.272 305.21 158.511 305.072ZM166.757 300.311L172.399 297.054C172.639 296.915 172.642 296.693 172.408 296.557L166.454 293.119C166.219 292.984 165.835 292.986 165.595 293.125L159.953 296.382C159.713 296.52 159.709 296.743 159.944 296.878L165.898 300.316C166.133 300.451 166.517 300.449 166.757 300.311ZM138.427 298.988L132.785 302.245C132.545 302.383 132.542 302.606 132.776 302.741L138.731 306.178C138.966 306.314 139.35 306.312 139.59 306.173L145.232 302.916C145.472 302.778 145.475 302.555 145.241 302.42L139.287 298.983C139.051 298.847 138.667 298.849 138.427 298.988ZM146.673 294.227L141.031 297.484C140.791 297.623 140.787 297.845 141.022 297.98L146.976 301.418C147.211 301.554 147.596 301.551 147.835 301.413L153.477 298.155C153.716 298.017 153.72 297.795 153.485 297.659L147.531 294.221C147.297 294.087 146.912 294.089 146.673 294.227ZM179.655 275.185L174.013 278.442C173.773 278.581 173.77 278.803 174.005 278.938L179.959 282.375C180.194 282.511 180.579 282.509 180.818 282.37L186.46 279.113C186.7 278.975 186.704 278.752 186.469 278.617L180.514 275.18C180.28 275.044 179.895 275.046 179.655 275.185ZM171.41 279.945L165.768 283.202C165.529 283.34 165.524 283.563 165.76 283.698L171.714 287.136C171.949 287.272 172.334 287.269 172.573 287.131L178.215 283.874C178.455 283.735 178.459 283.513 178.224 283.377L172.27 279.939C172.034 279.804 171.649 279.807 171.41 279.945ZM187.901 270.424L182.259 273.681C182.019 273.82 182.016 274.042 182.25 274.177L188.204 277.615C188.439 277.751 188.824 277.748 189.063 277.61L194.705 274.352C194.945 274.214 194.948 273.992 194.713 273.856L188.759 270.418C188.525 270.283 188.141 270.286 187.901 270.424ZM154.919 289.466L149.277 292.724C149.037 292.862 149.033 293.085 149.268 293.22L155.222 296.658C155.457 296.794 155.841 296.792 156.081 296.653L161.723 293.396C161.963 293.257 161.967 293.036 161.732 292.9L155.777 289.463C155.543 289.326 155.158 289.328 154.919 289.466ZM163.164 284.706L157.522 287.963C157.282 288.102 157.278 288.324 157.514 288.459L163.468 291.897C163.702 292.033 164.087 292.03 164.327 291.892L169.969 288.634C170.209 288.496 170.213 288.274 169.978 288.138L164.023 284.7C163.789 284.565 163.403 284.568 163.164 284.706ZM154.866 316.998L160.508 313.74C160.748 313.602 160.751 313.38 160.517 313.244L154.562 309.806C154.327 309.67 153.942 309.672 153.703 309.811L148.061 313.068C147.821 313.207 147.817 313.429 148.052 313.564L154.006 317.002C154.242 317.138 154.626 317.136 154.866 316.998ZM108.96 313.545L103.005 310.107C102.77 309.971 102.386 309.974 102.146 310.112L96.5038 313.369C96.2638 313.507 96.2598 313.729 96.4948 313.865L102.449 317.303C102.684 317.438 103.069 317.436 103.309 317.298L108.951 314.041C109.19 313.903 109.194 313.681 108.96 313.545ZM120.503 316.703L114.549 313.266C114.314 313.13 113.93 313.132 113.69 313.271L105.01 318.282C104.77 318.42 104.767 318.643 105.002 318.778L110.956 322.215C111.191 322.351 111.575 322.349 111.815 322.21L120.495 317.199C120.734 317.06 120.738 316.838 120.503 316.703ZM99.9378 306.833L93.9838 303.396C93.7488 303.26 93.3648 303.262 93.1248 303.401L86.1808 307.41C85.9418 307.548 85.9368 307.771 86.1718 307.906L92.1258 311.344C92.3608 311.48 92.7458 311.477 92.9848 311.339L99.9288 307.33C100.169 307.191 100.173 306.969 99.9378 306.833ZM105.262 303.76C105.496 303.896 105.881 303.893 106.121 303.755L111.763 300.497C112.003 300.359 112.007 300.137 111.772 300.001L105.818 296.563C105.583 296.427 105.198 296.43 104.958 296.568L99.3168 299.825C99.0768 299.964 99.0728 300.186 99.3078 300.321L105.262 303.76ZM131.179 320.36L125.225 316.922C124.99 316.787 124.605 316.789 124.366 316.928L113.516 323.192C113.276 323.331 113.273 323.553 113.508 323.688L119.462 327.126C119.697 327.262 120.081 327.259 120.321 327.121L131.171 320.857C131.41 320.718 131.414 320.496 131.179 320.36ZM135.78 327.526L129.825 324.089C129.591 323.953 129.206 323.955 128.966 324.094L122.022 328.103C121.782 328.241 121.778 328.464 122.013 328.599L127.967 332.037C128.202 332.173 128.587 332.17 128.826 332.032L135.77 328.023C136.011 327.884 136.014 327.662 135.78 327.526ZM166.569 268.364C166.803 268.5 167.188 268.497 167.428 268.359L173.07 265.101C173.31 264.963 173.314 264.741 173.079 264.605L167.125 261.167C166.89 261.031 166.505 261.034 166.265 261.172L160.624 264.429C160.384 264.568 160.38 264.79 160.615 264.925L166.569 268.364ZM150.077 277.886C150.312 278.022 150.697 278.019 150.936 277.881L156.578 274.623C156.818 274.485 156.821 274.263 156.586 274.127L150.632 270.689C150.397 270.553 150.013 270.556 149.773 270.694L144.131 273.951C143.891 274.09 143.888 274.312 144.122 274.448L150.077 277.886ZM113.507 298.999C113.742 299.135 114.127 299.133 114.366 298.994L120.008 295.737C120.248 295.599 120.252 295.376 120.017 295.241L114.063 291.803C113.828 291.668 113.444 291.67 113.204 291.808L107.562 295.065C107.323 295.203 107.318 295.426 107.554 295.561L113.507 298.999ZM158.323 273.125C158.558 273.261 158.943 273.259 159.182 273.12L164.824 269.863C165.064 269.725 165.067 269.502 164.832 269.367L158.878 265.929C158.643 265.794 158.259 265.795 158.019 265.934L152.377 269.191C152.137 269.329 152.133 269.552 152.368 269.687L158.323 273.125ZM141.832 282.646C142.067 282.781 142.452 282.779 142.691 282.641L148.333 279.384C148.573 279.246 148.577 279.023 148.342 278.888L142.388 275.451C142.153 275.316 141.768 275.317 141.529 275.456L135.887 278.713C135.647 278.852 135.644 279.074 135.879 279.209L141.832 282.646ZM140.067 327.998C139.832 327.862 139.447 327.864 139.208 328.003L130.528 333.014C130.288 333.152 130.285 333.374 130.519 333.51L136.473 336.947C136.708 337.083 137.092 337.081 137.332 336.942L146.012 331.931C146.252 331.793 146.255 331.57 146.02 331.435L140.067 327.998ZM129.998 289.478C130.233 289.614 130.618 289.611 130.857 289.473L136.499 286.216C136.739 286.077 136.742 285.855 136.508 285.72L130.554 282.282C130.319 282.146 129.934 282.149 129.694 282.287L124.052 285.544C123.812 285.682 123.809 285.904 124.043 286.04L129.998 289.478ZM121.752 294.239C121.987 294.374 122.372 294.372 122.611 294.234L128.253 290.976C128.493 290.838 128.497 290.615 128.262 290.48L122.308 287.042C122.073 286.906 121.688 286.909 121.449 287.047L115.807 290.304C115.567 290.443 115.564 290.664 115.799 290.8L121.752 294.239ZM292.829 239.801C292.594 239.665 292.21 239.667 291.97 239.806L278.083 247.824C277.843 247.962 277.839 248.185 278.074 248.32L284.029 251.757C284.263 251.893 284.648 251.891 284.888 251.752L298.775 243.734C299.015 243.596 299.019 243.374 298.784 243.238L292.829 239.801ZM274.602 250.324C274.367 250.188 273.983 250.19 273.743 250.329L268.101 253.586C267.861 253.725 267.858 253.947 268.092 254.082L274.046 257.52C274.281 257.655 274.666 257.653 274.906 257.514L280.548 254.257C280.788 254.119 280.791 253.896 280.557 253.761L274.602 250.324ZM163.112 312.237L168.754 308.98C168.993 308.841 168.997 308.619 168.762 308.484L162.808 305.046C162.573 304.91 162.188 304.913 161.949 305.051L156.307 308.309C156.067 308.447 156.063 308.669 156.298 308.805L162.252 312.243C162.487 312.378 162.872 312.376 163.112 312.237ZM258.111 259.845C257.876 259.709 257.491 259.712 257.252 259.85L251.61 263.107C251.37 263.246 251.367 263.468 251.602 263.603L257.556 267.041C257.791 267.177 258.176 267.174 258.415 267.036L264.057 263.778C264.297 263.64 264.301 263.417 264.066 263.282L258.111 259.845ZM301.075 235.04C300.84 234.904 300.455 234.907 300.216 235.045L294.574 238.303C294.335 238.441 294.331 238.664 294.566 238.799L300.52 242.237C300.755 242.373 301.14 242.37 301.379 242.232L307.021 238.975C307.261 238.836 307.264 238.614 307.03 238.479L301.075 235.04ZM315.275 233.717L300.814 225.368C300.579 225.232 300.195 225.235 299.955 225.373L294.313 228.631C294.073 228.769 294.069 228.992 294.305 229.127L308.765 237.476C309 237.612 309.385 237.609 309.624 237.471L315.266 234.213C315.506 234.075 315.51 233.852 315.275 233.717ZM227.298 277.635C227.063 277.499 226.678 277.502 226.439 277.64L219.495 281.649C219.255 281.787 219.251 282.01 219.486 282.146L225.44 285.583C225.675 285.719 226.06 285.717 226.299 285.578L233.243 281.569C233.483 281.431 233.487 281.208 233.252 281.073L227.298 277.635ZM248.129 265.608C247.894 265.472 247.509 265.475 247.27 265.613L238.59 270.625C238.35 270.763 238.347 270.985 238.581 271.121L244.535 274.559C244.77 274.695 245.154 274.692 245.394 274.554L254.074 269.543C254.314 269.405 254.318 269.183 254.083 269.047L248.129 265.608ZM208.203 288.66C207.968 288.524 207.583 288.527 207.344 288.665L160.908 315.475C160.668 315.613 160.664 315.836 160.899 315.971L166.853 319.409C167.088 319.545 167.472 319.543 167.712 319.404L214.148 292.594C214.388 292.455 214.392 292.233 214.157 292.097L208.203 288.66ZM159.163 316.973C158.928 316.837 158.543 316.84 158.304 316.978L151.36 320.987C151.12 321.125 151.117 321.348 151.352 321.483L157.306 324.921C157.541 325.056 157.926 325.054 158.165 324.915L165.109 320.906C165.348 320.768 165.352 320.546 165.117 320.41L159.163 316.973ZM217.75 283.147C217.515 283.011 217.131 283.014 216.891 283.152L209.948 287.161C209.708 287.3 209.704 287.522 209.939 287.657L215.893 291.094C216.128 291.23 216.513 291.228 216.752 291.09L223.695 287.081C223.935 286.943 223.938 286.721 223.703 286.585L217.75 283.147ZM149.615 322.485C149.38 322.349 148.995 322.352 148.756 322.49L141.812 326.499C141.572 326.638 141.569 326.86 141.804 326.995L147.758 330.433C147.993 330.569 148.377 330.566 148.617 330.428L155.561 326.419C155.801 326.28 155.805 326.058 155.57 325.923L149.615 322.485ZM236.846 272.123C236.611 271.987 236.227 271.989 235.987 272.128L229.043 276.137C228.804 276.275 228.8 276.498 229.035 276.633L234.989 280.071C235.223 280.207 235.609 280.205 235.848 280.066L242.792 276.057C243.032 275.919 243.035 275.696 242.8 275.561L236.846 272.123ZM266.356 255.084C266.121 254.948 265.736 254.951 265.496 255.089L259.854 258.346C259.614 258.484 259.611 258.706 259.846 258.842L265.8 262.28C266.035 262.415 266.42 262.413 266.659 262.275L272.301 259.018C272.541 258.879 272.544 258.657 272.31 258.522L266.356 255.084ZM284.627 242.08L290.269 238.823C290.509 238.684 290.513 238.462 290.278 238.327L284.324 234.89C284.089 234.754 283.704 234.756 283.465 234.895L277.823 238.152C277.584 238.29 277.58 238.513 277.814 238.648L283.769 242.085C284.002 242.221 284.388 242.219 284.627 242.08ZM249.388 242.782L255.03 239.525C255.27 239.387 255.273 239.164 255.039 239.029L249.084 235.592C248.849 235.456 248.465 235.458 248.225 235.597L242.583 238.854C242.343 238.993 242.339 239.215 242.574 239.35L248.528 242.787C248.763 242.923 249.148 242.921 249.388 242.782ZM229.077 274.152L245.568 264.631C245.808 264.493 245.811 264.27 245.576 264.135L239.622 260.697C239.387 260.562 239.003 260.564 238.763 260.702L222.272 270.223C222.032 270.361 222.028 270.584 222.263 270.719L228.217 274.156C228.453 274.293 228.837 274.291 229.077 274.152ZM275.522 246.846C275.757 246.982 276.142 246.979 276.381 246.841L282.023 243.584C282.263 243.445 282.267 243.223 282.032 243.088L276.078 239.65C275.844 239.515 275.459 239.517 275.219 239.655L269.577 242.913C269.338 243.051 269.334 243.274 269.568 243.409L275.522 246.846ZM267.875 241.931L273.517 238.673C273.756 238.535 273.76 238.312 273.525 238.177L267.571 234.739C267.336 234.603 266.951 234.606 266.712 234.744L261.07 238.001C260.83 238.14 260.826 238.362 261.061 238.497L267.015 241.935C267.251 242.071 267.636 242.069 267.875 241.931ZM220.832 278.913L226.474 275.655C226.714 275.517 226.718 275.295 226.483 275.159L220.529 271.721C220.294 271.585 219.909 271.588 219.669 271.726L214.027 274.984C213.787 275.122 213.784 275.344 214.019 275.48L219.973 278.918C220.207 279.053 220.592 279.051 220.832 278.913ZM257.295 257.37C257.53 257.506 257.915 257.503 258.154 257.365L263.796 254.107C264.036 253.969 264.039 253.746 263.805 253.611L257.85 250.173C257.615 250.037 257.231 250.04 256.991 250.178L251.349 253.435C251.109 253.574 251.105 253.796 251.341 253.931L257.295 257.37ZM179.603 302.716L185.245 299.458C185.484 299.32 185.488 299.098 185.254 298.962L179.3 295.524C179.065 295.388 178.681 295.39 178.441 295.529L172.799 298.787C172.559 298.925 172.556 299.147 172.79 299.283L178.744 302.721C178.979 302.857 179.364 302.854 179.603 302.716ZM187.849 297.955L193.491 294.698C193.73 294.559 193.734 294.337 193.499 294.202L187.545 290.764C187.31 290.629 186.926 290.631 186.686 290.77L181.044 294.027C180.804 294.165 180.801 294.388 181.035 294.523L186.99 297.96C187.225 298.096 187.609 298.094 187.849 297.955ZM171.358 307.477L177 304.22C177.24 304.082 177.244 303.859 177.008 303.724L171.054 300.287C170.819 300.151 170.434 300.153 170.195 300.292L164.553 303.549C164.313 303.687 164.31 303.91 164.544 304.045L170.498 307.483C170.733 307.617 171.118 307.615 171.358 307.477ZM204.34 288.434L209.982 285.177C210.222 285.038 210.226 284.816 209.991 284.681L204.037 281.243C203.802 281.107 203.417 281.11 203.177 281.248L197.535 284.505C197.296 284.643 197.292 284.865 197.527 285.001L203.481 288.439C203.716 288.575 204.101 288.572 204.34 288.434ZM196.094 293.195L201.736 289.938C201.976 289.8 201.98 289.578 201.745 289.442L195.79 286.004C195.556 285.868 195.17 285.87 194.931 286.009L189.289 289.266C189.05 289.405 189.046 289.627 189.281 289.762L195.235 293.2C195.47 293.335 195.855 293.333 196.094 293.195ZM212.586 283.673L218.228 280.416C218.468 280.278 218.471 280.055 218.237 279.92L212.283 276.483C212.048 276.347 211.663 276.349 211.424 276.488L205.782 279.745C205.542 279.883 205.539 280.106 205.774 280.241L211.728 283.679C211.961 283.814 212.346 283.812 212.586 283.673ZM253.987 215.371C254.222 215.506 254.607 215.504 254.846 215.366L260.488 212.108C260.728 211.97 260.731 211.748 260.497 211.612L258.912 210.697C258.677 210.561 258.292 210.564 258.052 210.702L252.41 213.96C252.171 214.098 252.167 214.32 252.402 214.456L253.987 215.371ZM213.208 241.437C213.442 241.573 213.827 241.571 214.067 241.432L219.709 238.175C219.948 238.037 219.953 237.815 219.718 237.679L213.764 234.242C213.529 234.106 213.144 234.108 212.905 234.246L207.263 237.504C207.023 237.642 207.019 237.865 207.254 238L213.208 241.437ZM229.699 231.916C229.934 232.052 230.319 232.049 230.558 231.911L236.2 228.654C236.44 228.515 236.443 228.294 236.209 228.158L230.254 224.72C230.019 224.584 229.634 224.587 229.395 224.725L223.753 227.982C223.514 228.12 223.509 228.343 223.745 228.478L229.699 231.916ZM203.139 247.25C203.374 247.386 203.758 247.384 203.998 247.245L209.64 243.988C209.88 243.85 209.883 243.627 209.648 243.492L203.694 240.054C203.459 239.919 203.074 239.921 202.835 240.06L197.193 243.317C196.953 243.455 196.949 243.678 197.184 243.813L203.139 247.25ZM221.453 236.677C221.687 236.813 222.073 236.81 222.312 236.672L227.954 233.414C228.193 233.276 228.197 233.053 227.962 232.918L222.008 229.48C221.774 229.344 221.389 229.346 221.149 229.485L215.507 232.742C215.267 232.881 215.263 233.103 215.498 233.238L221.453 236.677ZM186.647 256.772C186.882 256.907 187.267 256.905 187.506 256.766L193.148 253.509C193.388 253.371 193.392 253.148 193.157 253.012L187.203 249.575C186.968 249.439 186.583 249.441 186.343 249.58L180.701 252.837C180.461 252.976 180.458 253.198 180.693 253.333L186.647 256.772ZM194.893 252.011C195.128 252.146 195.513 252.144 195.752 252.006L201.394 248.748C201.634 248.61 201.637 248.388 201.402 248.252L195.448 244.814C195.213 244.678 194.829 244.681 194.589 244.819L188.947 248.076C188.707 248.215 188.704 248.437 188.938 248.572L194.893 252.011ZM237.496 224.892C237.731 225.028 238.116 225.025 238.355 224.887L243.997 221.629C244.237 221.491 244.24 221.269 244.006 221.133L242.421 220.218C242.186 220.082 241.801 220.085 241.562 220.223L235.92 223.481C235.68 223.619 235.676 223.841 235.911 223.977L237.496 224.892ZM262.233 210.61C262.468 210.746 262.853 210.744 263.092 210.605L268.734 207.348C268.974 207.209 268.977 206.987 268.742 206.852L267.157 205.937C266.922 205.802 266.538 205.804 266.298 205.943L260.656 209.2C260.416 209.338 260.412 209.561 260.647 209.696L262.233 210.61ZM274.741 217.831C274.976 217.967 275.361 217.964 275.6 217.826L281.242 214.569C281.482 214.43 281.485 214.208 281.251 214.073L275.296 210.635C275.062 210.499 274.676 210.502 274.437 210.64L268.795 213.898C268.555 214.036 268.551 214.259 268.787 214.394L274.741 217.831ZM292.873 237.32L298.515 234.062C298.755 233.924 298.759 233.702 298.524 233.566L292.57 230.128C292.336 229.992 291.95 229.995 291.711 230.133L286.069 233.39C285.83 233.529 285.826 233.751 286.061 233.886L292.015 237.324C292.248 237.461 292.633 237.458 292.873 237.32ZM245.742 220.131C245.977 220.267 246.361 220.265 246.601 220.126L252.243 216.869C252.483 216.731 252.487 216.508 252.252 216.373L250.667 215.458C250.432 215.322 250.047 215.324 249.808 215.463L244.166 218.72C243.927 218.859 243.923 219.081 244.158 219.216L245.742 220.131ZM178.402 261.532C178.637 261.668 179.022 261.665 179.261 261.527L184.903 258.27C185.143 258.131 185.147 257.909 184.912 257.774L178.958 254.336C178.723 254.2 178.338 254.203 178.099 254.341L172.457 257.599C172.218 257.737 172.214 257.959 172.449 258.095L178.402 261.532Z" fill="#455A64"/>
<path d="M208.604 310.007L259.419 280.669C260.95 279.785 263.433 279.785 264.965 280.669L294.103 297.492C295.634 298.376 295.634 299.81 294.103 300.694L243.288 330.032C241.757 330.916 239.274 330.916 237.742 330.032L208.604 313.209C207.072 312.324 207.072 310.891 208.604 310.007Z" fill="#263238"/>
<path d="M200.005 87.5794C184.119 101.844 170.4 101.096 161.823 94.4924C153.255 111.003 139.536 127.584 123.65 131.661L114.58 156.159C114.58 156.159 119.441 161.76 119.441 175.162C119.441 181.203 118.516 186.513 117.195 191.787C115.54 198.4 113.409 205.242 113.409 216.663C113.409 224.412 114.43 231.941 118.349 238.792C120.612 242.755 123.879 246.11 128.282 248.743C125.35 247.052 116.72 242.068 114.492 240.783C109.825 238.097 106.391 234.645 104.039 230.533C100.12 223.673 99.0991 216.153 99.0991 208.404C99.0991 196.983 101.23 190.141 102.885 183.519C104.206 178.253 105.139 172.943 105.139 166.903C105.139 153.501 100.278 147.9 100.278 147.9L109.339 123.402C125.225 119.325 138.944 102.744 147.512 86.2334C156.089 92.8374 169.808 93.5864 185.694 79.3204L200.005 87.5794Z" fill="url(#paint3_linear_404_4851)"/>
<path opacity="0.8" d="M152.543 89.1354L147.514 86.2324C149.033 87.4024 150.717 88.3834 152.543 89.1354Z" fill="white"/>
<path opacity="0.85" d="M185.695 79.3194C172.624 91.0574 161.022 92.6254 152.543 89.1354L161.823 94.4924C170.4 101.096 184.119 101.845 200.005 87.5794L185.695 79.3194Z" fill="white"/>
<path opacity="0.65" d="M147.514 86.2324C138.946 102.743 125.227 119.324 109.341 123.401L123.65 131.661C139.536 127.584 153.255 111.003 161.823 94.4924L147.514 86.2324Z" fill="white"/>
<path opacity="0.55" d="M109.341 123.401L100.279 147.898L114.58 156.158L123.65 131.661L109.341 123.401Z" fill="white"/>
<path opacity="0.4" d="M118.349 238.792C114.43 231.941 113.409 224.412 113.409 216.663C113.409 205.242 115.54 198.4 117.195 191.787C118.516 186.512 119.441 181.203 119.441 175.162C119.441 161.76 114.58 156.159 114.58 156.159L100.279 147.899C100.279 147.899 105.14 153.5 105.14 166.902C105.14 172.943 104.206 178.253 102.886 183.518C101.231 190.14 99.1001 196.982 99.1001 208.403C99.1001 216.152 100.121 223.672 104.04 230.532C106.391 234.644 109.825 238.096 114.493 240.782C116.721 242.068 125.35 247.052 128.283 248.742C123.879 246.109 120.612 242.754 118.349 238.792Z" fill="white"/>
<path opacity="0.05" d="M118.349 238.792C114.43 231.941 113.409 224.412 113.409 216.663C113.409 205.242 115.54 198.4 117.195 191.787C118.516 186.512 119.441 181.203 119.441 175.162C119.441 161.76 114.58 156.159 114.58 156.159L100.279 147.899C100.279 147.899 105.14 153.5 105.14 166.902C105.14 172.943 104.206 178.253 102.886 183.518C101.231 190.14 99.1001 196.982 99.1001 208.403C99.1001 216.152 100.121 223.672 104.04 230.532C106.391 234.644 109.825 238.096 114.493 240.782C116.721 242.068 125.35 247.052 128.283 248.742C123.879 246.109 120.612 242.754 118.349 238.792Z" fill="black"/>
<path d="M161.826 255.571C138.099 255.834 124.508 249.577 118.347 238.79C114.432 231.937 113.411 224.41 113.411 216.661C113.411 205.241 115.536 198.402 117.194 191.783C118.514 186.515 119.445 181.202 119.445 175.165C119.445 161.763 114.584 156.162 114.584 156.162L123.649 131.66C139.534 127.583 153.253 110.999 161.826 94.4884C170.399 101.099 184.118 101.842 200.003 87.5774L209.068 101.612C209.068 101.612 204.207 112.825 204.207 126.227C204.207 132.263 205.138 136.502 206.458 140.246C208.116 144.95 210.241 149.337 210.241 160.756C210.241 168.504 209.22 177.21 205.305 188.584C199.144 206.485 185.552 228.437 161.826 255.571Z" fill="url(#paint4_linear_404_4851)"/>
<path opacity="0.75" d="M161.826 255.571C138.099 255.834 124.508 249.577 118.347 238.79C114.432 231.937 113.411 224.41 113.411 216.661C113.411 205.241 115.536 198.402 117.194 191.783C118.514 186.515 119.445 181.202 119.445 175.165C119.445 161.763 114.584 156.162 114.584 156.162L123.649 131.66C139.534 127.583 153.253 110.999 161.826 94.4884C170.399 101.099 184.118 101.842 200.003 87.5774L209.068 101.612C209.068 101.612 204.207 112.825 204.207 126.227C204.207 132.263 205.138 136.502 206.458 140.246C208.116 144.95 210.241 149.337 210.241 160.756C210.241 168.504 209.22 177.21 205.305 188.584C199.144 206.485 185.552 228.437 161.826 255.571Z" fill="white"/>
<path opacity="0.75" d="M159.016 249.406C140.637 249.188 128.758 244.591 123.698 235.733C120.846 230.739 119.575 224.857 119.575 216.661C119.575 207.282 121.113 201.305 122.6 195.524C122.794 194.769 122.987 194.023 123.173 193.28C124.858 186.556 125.609 180.969 125.609 175.164C125.609 165.4 123.269 159.006 121.412 155.469L128.368 136.667C145.371 130.756 157.659 113.969 164.17 102.957C167.632 104.435 171.379 105.2 175.263 105.2C182.946 105.2 190.755 102.341 198.548 96.6874L202.204 102.346C200.618 106.934 198.043 115.964 198.043 126.227C198.043 132.234 198.845 137.189 200.643 142.294C200.835 142.838 201.032 143.375 201.23 143.918C202.694 147.913 204.076 151.688 204.076 160.756C204.076 169.371 202.657 177.335 199.476 186.577C193.413 204.198 179.804 225.327 159.016 249.406Z" fill="url(#paint5_linear_404_4851)"/>
<path opacity="0.4" d="M159.016 249.406C140.637 249.188 128.758 244.591 123.698 235.733C120.846 230.739 119.575 224.857 119.575 216.661C119.575 207.282 121.113 201.305 122.6 195.524C122.794 194.769 122.987 194.023 123.173 193.28C124.858 186.556 125.609 180.969 125.609 175.164C125.609 165.4 123.269 159.006 121.412 155.469L128.368 136.667C145.371 130.756 157.659 113.969 164.17 102.957C167.632 104.435 171.379 105.2 175.263 105.2C182.946 105.2 190.755 102.341 198.548 96.6874L202.204 102.346C200.618 106.934 198.043 115.964 198.043 126.227C198.043 132.234 198.845 137.189 200.643 142.294C200.835 142.838 201.032 143.375 201.23 143.918C202.694 147.913 204.076 151.688 204.076 160.756C204.076 169.371 202.657 177.335 199.476 186.577C193.413 204.198 179.804 225.327 159.016 249.406Z" fill="white"/>
<path opacity="0.15" d="M159.016 249.406C140.637 249.188 128.758 244.591 123.698 235.733C120.846 230.739 119.575 224.857 119.575 216.661C119.575 207.282 121.113 201.305 122.6 195.524C122.794 194.769 122.987 194.023 123.173 193.28C124.858 186.556 125.609 180.969 125.609 175.164C125.609 165.4 123.269 159.006 121.412 155.469L128.368 136.667C145.371 130.756 157.659 113.969 164.17 102.957C167.632 104.435 171.379 105.2 175.263 105.2C182.946 105.2 190.755 102.341 198.548 96.6874L202.204 102.346C200.618 106.934 198.043 115.964 198.043 126.227C198.043 132.234 198.845 137.189 200.643 142.294C200.835 142.838 201.032 143.375 201.23 143.918C202.694 147.913 204.076 151.688 204.076 160.756C204.076 169.371 202.657 177.335 199.476 186.577C193.413 204.198 179.804 225.327 159.016 249.406Z" fill="black"/>
<path opacity="0.8" d="M127.908 240.829C134.168 246.349 144.576 249.236 159.016 249.407L149.801 244.158C141.557 244.108 134.221 243.042 127.908 240.829Z" fill="white"/>
<path opacity="0.15" d="M197.405 99.5784L202.204 102.347L198.548 96.6874L196.466 98.1244L197.405 99.5784Z" fill="black"/>
<path d="M195.844 139.527C194.046 134.422 193.244 129.466 193.244 123.46C193.244 113.197 195.82 104.166 197.405 99.5794L196.466 98.1254C189.366 102.821 182.262 105.202 175.264 105.202C171.38 105.202 167.633 104.438 164.171 102.959C157.66 113.971 145.372 130.758 128.369 136.669L121.413 155.471C123.27 159.008 125.61 165.403 125.61 175.166C125.61 180.971 124.858 186.558 123.174 193.282C122.988 194.025 122.796 194.771 122.601 195.526C121.114 201.307 119.576 207.284 119.576 216.663C119.576 224.859 120.848 230.741 123.699 235.735C125.138 238.254 127.148 240.416 129.682 242.243C135.824 245.043 144.015 246.518 154.218 246.639C175.006 222.56 188.615 201.43 194.678 183.811C197.859 174.568 199.278 166.605 199.278 157.99C199.278 148.922 197.896 145.148 196.432 141.152C196.233 140.607 196.036 140.07 195.844 139.527Z" fill="#455A64"/>
<path d="M128.369 136.668L121.413 155.47C123.27 159.007 125.61 165.402 125.61 175.165C125.61 180.97 124.858 186.557 123.174 193.281C122.988 194.024 122.796 194.77 122.601 195.525C121.114 201.306 119.576 207.283 119.576 216.662C119.576 224.858 120.848 230.74 123.699 235.734C125.138 238.253 127.148 240.415 129.682 242.242C135.824 245.042 144.015 246.517 154.218 246.638V177.357L164.171 174.347V102.958C161.389 107.705 158.115 112.453 154.218 117.2C147.564 125.223 138.866 133.019 128.369 136.668Z" fill="#37474F"/>
<path d="M178.24 151.754C178.145 151.567 178.016 151.386 177.863 151.209C177.846 151.19 177.833 151.17 177.816 151.151C177.551 150.86 177.206 150.586 176.782 150.342L173.447 148.416C172.882 148.09 172.228 147.845 171.531 147.681C171.136 147.589 170.725 147.529 170.31 147.489V137.625C170.31 132.68 168.441 128.765 165.182 126.883C162.072 125.087 158.226 125.331 154.351 127.568C147.234 131.677 141.658 141.704 141.658 150.395V162.04L135.025 165.87C134.815 165.991 134.632 166.121 134.461 166.254C134.401 166.301 134.337 166.347 134.282 166.395C134.268 166.407 134.257 166.421 134.242 166.433C133.633 166.982 133.327 167.61 133.328 168.239V208.165C133.327 208.337 133.356 208.509 133.401 208.68C133.553 209.261 133.969 209.823 134.653 210.299C134.769 210.38 134.891 210.459 135.023 210.535L136.645 211.472L138.361 212.464C138.983 212.825 139.72 213.074 140.502 213.234C142.545 213.656 144.912 213.405 146.548 212.46L176.78 195.006C177.911 194.353 178.476 193.497 178.476 192.641V152.707C178.479 152.386 178.4 152.065 178.24 151.754ZM148.193 150.395C148.193 144.039 152.509 136.177 157.618 133.227C159.36 132.221 160.926 131.972 161.916 132.542C163.081 133.215 163.777 135.115 163.777 137.625V149.27L155.18 154.234L148.194 158.267V150.395H148.193Z" fill="#263238"/>
<path d="M182.001 154.467C182.001 153.611 181.436 152.755 180.305 152.102L176.97 150.176C174.708 148.87 171.04 148.87 168.778 150.176L138.547 167.63C137.415 168.284 136.85 169.141 136.851 169.998V209.925C136.848 210.783 137.413 211.641 138.547 212.296L141.881 214.221C144.143 215.527 147.81 215.527 150.073 214.221L180.305 196.767C181.436 196.114 182.001 195.258 182.001 194.402V154.467Z" fill="url(#paint6_linear_404_4851)"/>
<path opacity="0.4" d="M141.882 174.286L138.548 172.361C136.286 171.055 136.286 168.937 138.548 167.631L168.778 150.177C171.04 148.871 174.708 148.871 176.97 150.177L180.305 152.103C182.567 153.409 182.567 155.526 180.305 156.832L150.073 174.286C147.811 175.592 144.143 175.592 141.882 174.286Z" fill="white"/>
<path opacity="0.1" d="M145.982 175.264V215.2C144.497 215.2 143.012 214.878 141.886 214.226L138.547 212.297C137.412 211.644 136.844 210.783 136.854 209.923V169.996C136.854 170.857 137.412 171.708 138.547 172.361L141.886 174.291C143.011 174.942 144.497 175.264 145.982 175.264Z" fill="black"/>
<path d="M167.981 195.018L160.763 199.186L161.881 186.128C161.018 185.672 160.467 184.548 160.467 182.935C160.467 180.06 162.215 176.72 164.372 175.475C166.528 174.23 168.276 175.552 168.276 178.427C168.276 180.04 167.726 181.798 166.862 183.252L167.981 195.018Z" fill="#455A64"/>
<path d="M167.981 195.018L161.443 191.243L160.763 199.185L167.981 195.018Z" fill="#37474F"/>
<path d="M164.373 175.474C162.962 176.289 161.73 178.001 161.044 179.893L166.864 183.253V183.251C167.727 181.798 168.278 180.039 168.278 178.426C168.277 175.551 166.528 174.23 164.373 175.474Z" fill="#37474F"/>
<path d="M173.832 155.358C173.832 155.356 173.833 155.355 173.833 155.353L173.832 139.387C173.832 134.442 171.963 130.527 168.705 128.645C165.595 126.849 161.749 127.093 157.874 129.33C150.757 133.439 145.182 143.466 145.182 152.156V168.21C145.182 168.692 145.503 169.175 146.14 169.543C147.415 170.279 149.482 170.279 150.757 169.543C151.394 169.175 151.716 168.693 151.716 168.21V152.156C151.716 145.8 156.032 137.938 161.141 134.988C162.883 133.982 164.449 133.733 165.439 134.303C166.604 134.976 167.3 136.876 167.3 139.386V155.352C167.3 155.353 167.3 155.353 167.3 155.354V155.363H167.301C167.306 155.842 167.626 156.319 168.258 156.684C169.533 157.42 171.6 157.42 172.875 156.684C173.508 156.319 173.828 155.841 173.833 155.363H173.834V155.358H173.832Z" fill="#E0E0E0"/>
<path d="M212.69 225.543L217.09 223.003L218.834 220.891L214.434 223.431L212.69 225.543Z" fill="url(#paint7_linear_404_4851)"/>
<path opacity="0.4" d="M212.69 225.543L217.09 223.003L218.834 220.891L214.434 223.431L212.69 225.543Z" fill="black"/>
<path d="M224.665 232.457L229.065 229.916L232.742 226.661L228.342 229.202L224.665 232.457Z" fill="url(#paint8_linear_404_4851)"/>
<path opacity="0.4" d="M224.665 232.457L229.065 229.916L232.742 226.661L228.342 229.202L224.665 232.457Z" fill="black"/>
<path d="M262.077 241.235C263.042 242.462 263.745 244.265 263.896 246.024C262.931 244.796 262.228 242.993 262.077 241.235ZM272.306 241.368C270.826 231.287 265.41 221.315 258.954 217.588C255.856 215.797 252.989 215.732 250.693 217.075C250.021 217.465 247.53 218.902 246.548 219.465C246.469 219.508 246.389 219.552 246.317 219.602C246.136 219.703 245.956 219.819 245.782 219.941C245.45 220.172 245.132 220.432 244.829 220.728C244.786 220.764 244.742 220.815 244.692 220.858C244.562 220.988 244.432 221.132 244.309 221.277C244.157 221.45 244.006 221.631 243.868 221.818C243.579 222.201 243.305 222.612 243.059 223.06C242.936 223.277 242.813 223.508 242.698 223.746L206.512 202.855L202.114 205.39V208.192L202.489 208.409L202.836 208.611V209.203L202.114 209.622V211.254L207.429 222.505L212.686 225.545L214.433 223.429L219.069 226.202L221.734 230.766L224.666 232.456L228.342 229.199L232.855 231.806L234.372 238.06L241.933 242.422C242.316 244.025 242.8 245.592 243.363 247.123C243.414 247.282 243.471 247.441 243.536 247.614C246.049 254.222 250.05 259.876 254.556 262.482C255.134 262.814 255.697 263.089 256.253 263.298C256.571 263.428 256.889 263.529 257.199 263.616C257.481 263.695 257.762 263.76 258.044 263.804C258.975 263.97 259.878 263.963 260.723 263.797C260.846 263.768 260.968 263.739 261.091 263.71C261.264 263.674 261.437 263.623 261.604 263.558C261.734 263.507 261.864 263.457 261.994 263.406C262.131 263.355 262.268 263.29 262.398 263.218C262.528 263.16 262.651 263.095 262.774 263.023C262.839 262.987 262.904 262.951 262.962 262.915C262.991 262.908 263.02 262.886 263.049 262.864C264.053 262.286 266.53 260.856 267.201 260.474C270.544 258.539 272.711 253.635 272.711 246.703C272.711 244.942 272.574 243.151 272.306 241.368Z" fill="url(#paint9_linear_404_4851)"/>
<path d="M260.786 249.738C259.05 248.736 257.643 245.757 257.643 243.084C257.643 240.411 259.05 239.057 260.786 240.059C262.522 241.061 263.929 244.04 263.929 246.713C263.93 249.387 262.522 250.741 260.786 249.738ZM267.908 243.902C266.428 233.828 261.012 223.856 254.556 220.13C251.566 218.404 248.801 218.274 246.548 219.466C246.469 219.509 246.389 219.553 246.317 219.603C246.136 219.704 245.956 219.82 245.782 219.942C245.45 220.173 245.132 220.433 244.829 220.729C244.786 220.765 244.742 220.816 244.692 220.859C244.562 220.989 244.432 221.133 244.309 221.278C244.157 221.451 244.006 221.632 243.868 221.819C243.579 222.202 243.305 222.613 243.059 223.061C242.936 223.278 242.813 223.509 242.698 223.747C242.099 224.975 241.622 226.404 241.304 228.022L202.114 205.391V208.193L202.489 208.41L202.836 208.612V209.204L202.114 209.623V211.255L207.429 222.506L212.686 225.546L214.433 223.43L219.069 226.203L221.734 230.767L224.666 232.457L228.342 229.2L232.855 231.807L234.372 238.061L241.933 242.423C242.316 244.026 242.8 245.593 243.363 247.124C243.414 247.283 243.471 247.442 243.536 247.615C246.049 254.223 250.05 259.877 254.556 262.483C255.134 262.815 255.697 263.09 256.253 263.299C256.571 263.429 256.889 263.53 257.199 263.617C257.481 263.696 257.762 263.761 258.044 263.805C258.975 263.971 259.878 263.964 260.723 263.798C260.846 263.769 260.968 263.74 261.091 263.711C261.264 263.675 261.437 263.624 261.604 263.559C261.734 263.508 261.864 263.458 261.994 263.407C262.131 263.356 262.268 263.291 262.398 263.219C262.528 263.161 262.651 263.096 262.774 263.024C262.839 262.988 262.904 262.952 262.962 262.916C262.991 262.909 263.02 262.887 263.049 262.865C266.255 260.843 268.313 256.012 268.313 249.246C268.313 247.484 268.168 245.693 267.908 243.902Z" fill="url(#paint10_linear_404_4851)"/>
<path opacity="0.4" d="M263.93 246.712C263.93 249.384 262.522 250.741 260.789 249.738C259.049 248.734 257.641 245.759 257.641 243.087C257.641 240.415 259.049 239.058 260.789 240.061C261.251 240.328 261.692 240.733 262.074 241.238C262.226 242.993 262.933 244.798 263.894 246.026C263.922 246.256 263.93 246.488 263.93 246.712Z" fill="black"/>
<path opacity="0.4" d="M272.711 246.704C272.711 253.636 270.545 258.54 267.201 260.475C266.529 260.858 264.052 262.288 263.049 262.865C266.255 260.843 268.313 256.012 268.313 249.246C268.313 247.484 268.168 245.693 267.909 243.902C266.429 233.828 261.013 223.856 254.557 220.13C251.567 218.404 248.802 218.274 246.549 219.466C247.531 218.903 250.022 217.466 250.694 217.076C252.99 215.733 255.857 215.798 258.955 217.589C265.411 221.315 270.827 231.288 272.307 241.369C272.574 243.151 272.711 244.942 272.711 246.704Z" fill="white"/>
<path d="M268.313 249.246C268.313 256.012 266.255 260.843 263.049 262.865C264.053 262.287 266.53 260.857 267.201 260.475C270.544 258.54 272.711 253.636 272.711 246.704C272.711 246.448 272.702 246.191 272.696 245.934C271.185 246.806 269.657 247.688 268.298 248.473C268.303 248.731 268.313 248.989 268.313 249.246Z" fill="url(#paint11_linear_404_4851)"/>
<path opacity="0.1" d="M268.313 249.246C268.313 256.012 266.255 260.843 263.049 262.865C264.053 262.287 266.53 260.857 267.201 260.475C270.544 258.54 272.711 253.636 272.711 246.704C272.711 246.448 272.702 246.191 272.696 245.934C271.185 246.806 269.657 247.688 268.298 248.473C268.303 248.731 268.313 248.989 268.313 249.246Z" fill="black"/>
<path opacity="0.15" d="M241.464 230.911V232.341L202.116 209.623L202.838 209.204V208.612L241.464 230.911Z" fill="black"/>
<path opacity="0.15" d="M241.464 231.504V232.341L202.116 209.623L202.838 209.204V209.197L241.464 231.504Z" fill="black"/>
<path opacity="0.15" d="M243.102 234.689C243.102 244.428 248.23 255.285 254.556 258.937C260.882 262.589 266.01 257.655 266.01 247.915C266.01 238.175 260.882 227.319 254.556 223.667C248.23 220.015 243.102 224.949 243.102 234.689Z" stroke="black" stroke-width="0.7315" stroke-miterlimit="10"/>
<path opacity="0.5" d="M242.699 223.748C242.1 224.976 241.623 226.405 241.305 228.023L202.115 205.392L206.513 202.857L242.699 223.748Z" fill="white"/>
<path d="M392.079 334.378C392.231 335.746 392.418 339.586 399.378 340.543C406.338 341.5 410.723 339.197 412.579 335.848C414.434 332.499 414.009 329.77 414.306 326.669C414.603 323.568 417.166 321.917 417.902 320.32C418.987 317.968 417.401 314.306 417.401 314.306L392.079 334.378Z" fill="#263238"/>
<path d="M341.29 323.473C341.038 323.673 340.966 325.866 341.743 326.84C342.278 327.51 347.114 330.752 352.897 329.823C358.679 328.895 361.458 327.277 364.704 325.196C368.025 323.066 370.359 322.689 373.816 322.571C377.163 322.456 379.613 321.712 379.866 320.833C380.311 319.29 380.311 318.313 379.578 318.362L341.29 323.473Z" fill="#263238"/>
<path d="M415.78 308.921C414.908 315.265 402.602 314.754 403.604 309.686L401.409 294.278L415.339 294.71L415.78 308.921Z" fill="#FFA8A7"/>
<path d="M392.583 331.214C393.199 330.071 394.994 328.424 395.784 327.394C399.912 322.009 402.512 315.744 403.022 308.931C403.05 308.557 403.097 307.833 403.468 307.609C403.861 307.373 404.219 307.699 404.618 307.873C404.626 307.867 404.631 307.861 404.639 307.855C404.639 307.855 404.642 307.875 404.643 307.885C405.142 308.1 405.83 308.341 406.798 308.449C409.264 308.724 411.991 308.133 412.607 308.218C413.085 308.284 413.233 309.766 413.194 311.37C414.071 310.815 414.358 309.716 415.146 309.074C415.571 308.728 415.759 308.717 415.75 308.146C415.744 307.774 415.72 307.44 415.716 307.068C416.348 306.882 416.88 309.309 417.4 311.161C418.002 313.305 418.753 315.725 417.908 317.903C417.437 319.115 416.659 320.178 415.945 321.265C414.715 323.138 413.633 325.192 413.418 327.423C413.324 328.401 413.399 329.392 413.26 330.364C412.775 333.751 410.452 336.414 407.187 337.434C402.943 338.76 396.57 338.552 392.83 335.584C391.521 334.543 391.967 332.357 392.583 331.214Z" fill="#37474F"/>
<path d="M376.738 307.856C373.367 310.475 369.298 312.02 365.15 310.129L364.18 284.195L378.149 286.705L376.738 307.856Z" fill="#FFA8A7"/>
<path d="M344.102 318.997C345.028 318.702 345.943 318.372 346.847 318.012C349.373 317.007 351.808 315.775 354.138 314.374C355.167 313.756 356.175 313.104 357.159 312.416C358.193 311.694 359.149 310.892 360.129 310.098C360.648 309.678 361.126 309.095 361.547 308.579C362.386 307.548 363.092 306.406 363.639 305.195C363.761 304.925 363.895 304.63 364.162 304.503C364.479 304.353 364.857 304.502 365.144 304.703C365.397 304.88 365.623 305.1 365.91 305.224C366.18 305.341 366.459 305.448 366.732 305.562C367.606 305.925 368.532 306.151 369.474 306.235C373.007 306.551 373.121 305.841 373.275 306.981C373.312 307.259 373.326 307.716 373.303 308.259C375.168 307.95 376.639 307.347 376.72 306.64L376.946 304.379C378.805 304.211 378.929 307.538 379.54 311.275C380.034 314.299 380.759 316.49 379.928 318.714C377.116 321.17 372.158 320.574 369.332 321.041C365.336 321.701 363.467 324.658 357.911 326.581C348.955 329.68 343.299 326.106 341.62 324.547C340.509 322.562 340.287 320.213 344.102 318.997Z" fill="#37474F"/>
<path d="M411.851 154.515C412.558 165.501 413.849 181.63 414.298 194.337C415.142 218.222 414.813 245.444 414.813 245.444C414.813 245.444 417.133 253.984 417.386 260.751C417.956 276.008 417.848 310.27 417.848 310.27C417.848 310.27 411.527 316.641 402.058 311.636C402.058 311.636 393.674 263.601 391.328 248.554C389.091 234.209 384.721 205.517 384.721 205.517L382.744 246.241C382.744 246.241 385.059 254.534 384.233 265.787C383.72 272.775 379.73 307.295 379.73 307.295C376.094 310.707 365.489 308.852 363.173 306.139C363.173 306.139 359.459 255.129 359.047 247.761C358.156 231.823 355.786 172.419 356.971 163.193C358.155 153.966 411.851 154.515 411.851 154.515Z" fill="#263238"/>
<path d="M384.721 205.517L381.946 187.138C381.946 187.138 374.308 185.693 368.737 181.556C368.737 181.556 370.907 186.466 379.344 189.969L382.087 207.084L382.745 246.24L384.721 205.517Z" fill="black"/>
<path d="M400.309 80.7634C400.818 82.8344 404.34 82.5174 405.871 82.1294C407.764 81.6494 409.167 79.9644 408.934 78.0084C409.73 77.7664 410.465 77.3624 410.979 76.7564C411.839 75.7434 411.701 74.4414 411.123 73.3444C412.374 72.4004 413.147 70.8554 412.864 69.2984C412.663 68.1874 412.006 67.1434 411.145 66.4854C410.413 65.9264 409.054 65.2554 408.078 65.3934C407.717 65.4444 407.359 66.1194 407.88 66.1734C408.566 66.2434 409.581 66.7294 410.112 67.1404C410.697 67.5914 411.379 68.2684 411.628 69.0594C412.042 70.3734 411.563 71.6764 410.552 72.4954C410.36 72.2654 410.157 72.0484 409.938 71.8674C409.22 71.2744 408.347 70.8924 407.404 70.9724C406.751 71.0274 405.946 71.3144 405.731 72.0064C405.488 72.7894 406.299 73.4514 406.898 73.7924C407.789 74.3004 408.825 74.3704 409.793 74.0534C409.87 74.0284 409.943 73.9864 410.019 73.9564C410.072 74.0634 410.124 74.1704 410.163 74.2744C410.703 75.7124 409.836 76.6004 408.658 76.9974C407.955 75.5334 406.033 74.4624 404.492 75.2294C403.608 75.6694 403.507 76.6254 404.137 77.3454C404.711 78.0014 405.666 78.2364 406.502 78.2864C406.887 78.3094 407.298 78.3004 407.713 78.2554C407.796 78.8914 407.661 79.5574 407.289 80.0934C406.641 81.0254 405.445 81.2454 404.385 81.3244C403.01 81.4264 402.041 81.0414 400.95 80.2344C400.648 80.0104 400.234 80.4564 400.309 80.7634ZM409.441 73.0824C408.777 73.2654 408.104 73.1684 407.508 72.7684C407.088 72.4874 406.627 72.0774 407.371 72.0224C408.151 71.9654 408.896 72.4514 409.441 73.0824ZM407.353 77.2324C406.908 77.2514 406.47 77.2154 406.088 77.1184C405.792 77.0434 404.483 76.3804 405.15 76.0834C405.665 75.8544 406.559 76.3634 406.922 76.6914C407.096 76.8494 407.234 77.0354 407.353 77.2324Z" fill="#263238"/>
<path d="M402.742 42.0854C402.742 42.0854 402.994 42.1204 403.39 42.2204C403.117 40.8254 403.728 39.4234 404.988 38.8474C406.503 38.1544 408.363 38.9164 409.141 40.5504L404.615 42.6204C405.819 43.1024 407.294 43.9844 408.06 45.5604C409.301 48.1114 407.665 53.5464 406.011 60.2584C404.357 66.9704 403.458 69.8704 402.36 72.6934C401.601 74.6474 400.234 74.7084 400.234 74.7084V68.0124L400.522 62.4624C400.522 62.4624 396.959 57.5974 396.568 53.6104C396.064 48.4794 397.145 46.3794 397.145 46.3794L402.742 42.0854Z" fill="#263238"/>
<path d="M378.116 36.3304C384.352 36.3504 389.392 41.4224 389.371 47.6594C389.351 53.8964 384.279 58.9354 378.042 58.9144C371.805 58.8944 366.766 53.8224 366.786 47.5854C366.808 41.3484 371.88 36.3094 378.116 36.3304Z" fill="#263238"/>
<path d="M400.314 61.5774C401.653 62.7384 402.742 59.7344 403.868 58.5624C404.994 57.3914 408.665 55.7984 410.48 59.6564C412.33 63.5884 408.799 68.9294 406.056 70.2014C402.037 72.0654 400.236 68.0134 400.236 68.0134V84.7664C396.003 92.3914 386.849 90.6084 382.522 91.6764C381.735 88.5854 382.046 87.4154 382.497 85.7024L382.529 80.2444C382.529 80.2444 379.196 80.8874 376.999 80.5404C373.344 79.9634 371.385 76.9524 370.288 72.9904C368.527 66.6274 368.163 55.9434 370.61 43.5884C374.704 40.4224 388.556 40.9354 397.146 46.3814C396.517 57.3374 398.976 60.4164 400.314 61.5774Z" fill="#FFA8A7"/>
<path d="M382.529 80.2424C382.529 80.2424 390.697 78.6244 393.555 77.1174C395.468 76.1084 397.047 74.3534 397.513 73.2274C397.513 73.2274 396.97 75.6474 395.257 77.8234C393.161 80.4844 382.522 82.4144 382.522 82.4144L382.529 80.2424Z" fill="#F28F8F"/>
<path d="M365.012 54.9634C365.049 55.7134 365.516 56.4264 365.762 56.7214C365.885 56.8814 365.995 57.0904 366.057 57.3484C366.327 58.5414 366.524 60.8034 367.065 62.0694C367.606 63.3484 368.749 65.3774 372.057 65.5124C372.709 65.5494 373.274 65.5004 373.779 65.4014C373.828 65.4014 373.877 65.3894 373.914 65.3764C374.455 65.2654 374.922 65.0814 375.328 64.8604C375.352 64.8354 375.389 64.8234 375.414 64.8114C375.451 64.7864 375.488 64.7624 375.537 64.7374C375.562 64.7124 375.598 64.6884 375.684 64.6264C375.733 64.6014 375.782 64.5644 375.819 64.5284C375.88 64.4914 375.93 64.4544 375.979 64.4054C376.028 64.3684 376.077 64.3314 376.126 64.2824C376.224 64.1964 376.31 64.1104 376.409 64.0114C376.901 63.4954 377.27 62.8684 377.565 62.2404C378.328 60.6174 378.18 58.3064 379.385 58.0724C379.434 58.0604 379.483 58.0604 379.532 58.0474H379.692C381.327 58.1094 381.093 60.6054 381.966 62.4124C382.839 64.2204 384.327 66.0024 387.868 66.1134C388.028 66.1254 388.175 66.1254 388.323 66.1254C388.446 66.1254 388.569 66.1134 388.692 66.1004C388.999 66.0884 389.282 66.0514 389.54 66.0024C389.639 65.9774 389.725 65.9654 389.811 65.9414C389.897 65.9294 389.983 65.9044 390.069 65.8794C390.13 65.8674 390.18 65.8424 390.229 65.8304C390.598 65.7074 390.918 65.5594 391.2 65.4004C391.311 65.3264 391.421 65.2654 391.532 65.1914C391.729 65.0434 391.913 64.8844 392.085 64.7124C392.638 64.1714 392.97 63.5684 393.192 63.0644C393.77 61.8344 393.966 59.5974 394.261 58.4294C394.335 58.1224 394.433 57.9004 394.544 57.7534C394.778 57.4214 395.331 56.8434 395.368 56.0934C395.405 55.3314 394.888 54.6674 394.409 54.5934C394.139 54.5444 393.844 54.5074 393.548 54.4584C390.757 54.0654 387.117 53.8434 384.929 54.3964C382.175 55.0854 381.204 55.9454 379.679 55.8964C378.265 55.8344 377.355 54.9004 374.773 54.0024C372.719 53.2894 369.314 53.2524 366.707 53.4374C366.424 53.4494 366.166 53.4744 365.895 53.4994C365.455 53.5494 364.975 54.2134 365.012 54.9634ZM382.964 57.0294C383.111 56.8204 383.394 56.6114 383.751 56.4144C383.8 56.3774 383.85 56.3654 383.899 56.3404C383.924 56.3154 383.948 56.3034 383.973 56.2914C384.096 56.2424 384.231 56.1804 384.366 56.1194C384.477 56.0704 384.599 56.0334 384.723 55.9844C385.092 55.8494 385.486 55.7384 385.903 55.6404C386.051 55.6034 386.21 55.5664 386.37 55.5424C386.763 55.4684 387.169 55.4074 387.575 55.3704C387.673 55.3704 387.759 55.3584 387.858 55.3584C390.489 55.1984 392.125 55.8504 392.702 56.4034C393.317 56.9694 392.985 59.4034 392.714 60.6334C392.702 60.6584 392.702 60.6954 392.689 60.7194C392.689 60.7564 392.677 60.7814 392.664 60.8174C392.639 60.9654 392.59 61.1374 392.541 61.3094C392.516 61.4074 392.492 61.5184 392.455 61.6164C392.455 61.6284 392.455 61.6284 392.455 61.6284C392.393 61.8004 392.332 61.9724 392.258 62.1444C392.246 62.2064 392.209 62.2674 392.184 62.3164C392.172 62.3534 392.159 62.3904 392.135 62.4274C392.123 62.4644 392.098 62.5014 392.086 62.5384C392.061 62.5874 392.037 62.6364 392.012 62.6864C391.975 62.7484 391.95 62.7974 391.914 62.8464C391.877 62.9084 391.853 62.9694 391.803 63.0184C391.766 63.0794 391.729 63.1414 391.692 63.1904C391.016 64.1254 389.897 64.8994 387.979 64.8624C386.073 64.8134 384.88 64.1374 384.118 63.3004C383.356 62.4644 383.036 61.4684 382.889 60.7794C382.595 59.3904 382.435 57.7674 382.964 57.0294ZM367.508 55.4434C367.656 55.3084 367.864 55.1604 368.16 55.0494C368.172 55.0374 368.185 55.0244 368.209 55.0244C368.295 54.9874 368.393 54.9504 368.492 54.9134C368.554 54.9014 368.615 54.8764 368.664 54.8644C368.713 54.8524 368.763 54.8394 368.812 54.8274C368.849 54.8154 368.886 54.8154 368.911 54.8024C368.923 54.8024 368.936 54.7904 368.948 54.7904C368.997 54.7784 369.047 54.7784 369.096 54.7654C369.28 54.7284 369.49 54.6914 369.699 54.6794C369.81 54.6674 369.92 54.6544 370.031 54.6544C370.093 54.6424 370.166 54.6424 370.228 54.6424C370.277 54.6424 370.339 54.6424 370.388 54.6304C370.523 54.6304 370.658 54.6304 370.806 54.6424H370.954C371.003 54.6424 371.052 54.6544 371.101 54.6544C371.482 54.6794 371.888 54.7164 372.319 54.7894C374.188 55.0964 376.131 56.0064 376.622 56.7934C377.126 57.5684 376.978 59.1664 376.708 60.5434C376.647 60.8144 376.573 61.1214 376.45 61.4534C376.438 61.4784 376.425 61.5024 376.425 61.5274C376.413 61.5644 376.4 61.5894 376.388 61.6254C376.376 61.6374 376.376 61.6624 376.363 61.6864C376.351 61.7234 376.326 61.7604 376.314 61.7974C376.277 61.8714 376.24 61.9444 376.203 62.0184C376.178 62.0804 376.141 62.1414 376.104 62.2154C376.092 62.2274 376.079 62.2524 376.067 62.2774C376.042 62.3144 376.018 62.3634 375.981 62.4124C375.968 62.4374 375.944 62.4744 375.907 62.5234V62.5354C375.231 63.5194 374.05 64.3674 371.96 64.2444C371.173 64.2074 370.521 64.0104 369.993 63.7284C368.149 62.7454 367.718 60.6424 367.509 59.6714C367.25 58.4184 366.943 55.9594 367.508 55.4434Z" fill="#263238"/>
<path d="M394.226 54.6364L406.181 57.3254C406.181 57.3254 404.738 57.5724 403.429 59.1004L394.217 57.3544L394.226 54.6364Z" fill="#263238"/>
<path d="M367.508 59.6734C367.717 60.6444 368.147 62.7474 369.992 63.7304C370.521 64.0134 371.172 64.2104 371.959 64.2464C374.049 64.3694 375.23 63.5214 375.906 62.5374V62.5254C375.943 62.4764 375.967 62.4394 375.98 62.4144C376.017 62.3654 376.041 62.3164 376.066 62.2794C376.078 62.2544 376.091 62.2304 376.103 62.2174C376.14 62.1434 376.177 62.0824 376.202 62.0204C376.239 61.9464 376.276 61.8734 376.313 61.7994C376.325 61.7624 376.35 61.7254 376.362 61.6884C376.374 61.6634 376.374 61.6394 376.387 61.6274C376.399 61.5904 376.412 61.5654 376.424 61.5294C376.424 61.5054 376.436 61.4804 376.449 61.4554C376.572 61.1234 376.646 60.8164 376.707 60.5454C376.977 59.1684 377.125 57.5694 376.621 56.7954C376.129 56.0084 374.186 55.0984 372.318 54.7914C371.888 54.7174 371.482 54.6804 371.1 54.6564C371.051 54.6564 371.002 54.6444 370.953 54.6444H370.805C370.658 54.6324 370.522 54.6324 370.387 54.6324C370.338 54.6444 370.276 54.6444 370.227 54.6444C370.166 54.6444 370.092 54.6444 370.03 54.6564C369.919 54.6564 369.809 54.6684 369.698 54.6814C369.489 54.6934 369.28 54.7304 369.095 54.7674C369.046 54.7794 368.997 54.7794 368.947 54.7924C368.935 54.7924 368.922 54.8044 368.91 54.8044C368.885 54.8164 368.849 54.8164 368.811 54.8294C368.762 54.8414 368.713 54.8544 368.663 54.8664C368.614 54.8784 368.553 54.9034 368.491 54.9154C368.393 54.9524 368.294 54.9894 368.208 55.0264C368.183 55.0264 368.171 55.0384 368.159 55.0514C367.864 55.1624 367.655 55.3094 367.507 55.4454C366.943 55.9594 367.25 58.4184 367.508 59.6734Z" fill="#37474F"/>
<path d="M382.89 60.7794C383.037 61.4674 383.357 62.4644 384.119 63.3004C384.881 64.1364 386.074 64.8124 387.98 64.8624C389.898 64.8994 391.017 64.1244 391.693 63.1904C391.73 63.1414 391.767 63.0794 391.804 63.0184C391.853 62.9694 391.878 62.9074 391.915 62.8464C391.952 62.7974 391.976 62.7484 392.013 62.6864C392.038 62.6374 392.062 62.5884 392.087 62.5384C392.099 62.5014 392.124 62.4644 392.136 62.4274C392.161 62.3904 392.173 62.3534 392.185 62.3164C392.21 62.2674 392.247 62.2054 392.259 62.1444C392.333 61.9724 392.394 61.8004 392.456 61.6284C392.456 61.6284 392.456 61.6284 392.456 61.6164C392.493 61.5184 392.518 61.4074 392.542 61.3094C392.591 61.1374 392.64 60.9654 392.665 60.8174C392.677 60.7804 392.69 60.7554 392.69 60.7194C392.702 60.6944 392.702 60.6574 392.715 60.6334C392.986 59.4044 393.317 56.9694 392.703 56.4034C392.125 55.8504 390.49 55.1984 387.859 55.3584C387.761 55.3584 387.674 55.3704 387.576 55.3704C387.17 55.4074 386.765 55.4684 386.371 55.5424C386.211 55.5674 386.051 55.6044 385.904 55.6404C385.486 55.7384 385.093 55.8494 384.724 55.9844C384.601 56.0334 384.478 56.0704 384.367 56.1194C384.232 56.1804 384.096 56.2424 383.974 56.2914C383.949 56.3034 383.925 56.3154 383.9 56.3404C383.851 56.3654 383.802 56.3774 383.752 56.4144C383.395 56.6114 383.113 56.8204 382.965 57.0294C382.435 57.7674 382.595 59.3904 382.89 60.7794Z" fill="#37474F"/>
<path d="M367.83 34.8524C367.845 34.7144 367.863 34.5774 367.882 34.4404C367.919 34.1864 367.972 33.9174 368.15 33.7324C368.701 33.1594 369.8 34.5964 370.193 34.9324C370.57 35.2534 370.956 35.5654 371.364 35.8474C371.494 35.9374 372.453 36.4064 372.463 36.5024C372.317 35.1434 372.116 33.7454 372.456 32.3854C372.617 31.4844 372.873 29.3984 373.988 29.1744C374.652 29.0414 375.231 29.5964 375.725 30.0594C380.194 34.2424 386.029 32.3064 391.414 32.4784C395.916 32.6224 401.35 34.4544 403.383 38.8334C404.313 40.8364 404.473 42.9474 402.634 44.3324C401.447 45.2264 400.286 45.1844 399.622 46.6144C399.459 46.9654 398.43 51.2274 399.037 51.1844C396.741 51.3464 394.548 49.9954 394.019 47.7554C393.909 47.2894 393.658 46.4414 393.555 45.9624C393.404 45.2554 392.818 45.0654 392.269 45.1834C390.904 45.4774 390.013 46.0364 388.719 46.3904C385.22 47.3494 380.939 47.7794 377.383 47.0594C374.714 46.5184 372.135 45.2344 370.26 43.2364C368.213 41.0504 367.509 37.7904 367.83 34.8524Z" fill="#263238"/>
<path d="M385.406 52.4274L389.356 53.0404C389.496 51.9194 388.724 50.8724 387.634 50.7034C386.542 50.5344 385.545 51.3064 385.406 52.4274Z" fill="#263238"/>
<path d="M384.48 70.8094L381.153 71.6734C381.373 72.6244 382.296 73.2014 383.215 72.9634C384.135 72.7244 384.701 71.7604 384.48 70.8094Z" fill="#F28F8F"/>
<path d="M370.421 52.6524L374.425 52.2134C374.345 51.0944 373.383 50.2854 372.278 50.4064C371.171 50.5284 370.34 51.5334 370.421 52.6524Z" fill="#263238"/>
<path d="M380.164 58.1544L379.624 67.4864L374.424 66.1284L379.608 58.0514C379.789 58.0404 379.974 58.0774 380.164 58.1544Z" fill="#F28F8F"/>
<path d="M402.466 64.6354C402.466 65.9784 403.555 67.0674 404.898 67.0674C406.241 67.0674 407.33 65.9784 407.33 64.6354C407.33 63.2924 406.241 62.2034 404.898 62.2034C403.555 62.2044 402.466 63.2924 402.466 64.6354Z" fill="#263238"/>
<path d="M402.201 60.1874C402.433 59.5144 402.771 58.7364 403.28 58.2234C403.718 57.7804 404.566 57.4554 405.211 57.5634C405.245 57.5694 405.278 57.6484 405.242 57.6694C404.976 57.8304 404.78 57.9134 404.516 58.1024C404.258 58.2864 403.979 58.4984 403.768 58.7344C403.569 58.9574 403.419 59.2244 403.3 59.4944C403.169 59.7914 403.038 60.2034 403.019 60.5284C402.98 61.1804 403.019 61.5944 403.253 62.1314C403.374 62.4084 403.506 62.6694 403.712 62.8934C403.889 63.0854 404.136 63.2504 404.25 63.4894C404.398 63.7984 403.974 64.3244 403.637 64.1444C402.987 63.7964 402.58 63.1244 402.315 62.4614C402.016 61.7134 401.935 60.9584 402.201 60.1874Z" fill="#263238"/>
<path d="M367.544 93.4114C364.161 95.6224 359.496 98.5064 358.356 101.633C357.216 104.76 353.926 122.915 353.56 128.763C353.56 128.763 358.481 131.159 363.064 131.443L367.544 93.4114Z" fill="#455A64"/>
<path d="M407.473 84.7614C416.035 89.4534 424.517 96.4784 426.292 99.1794C426.292 99.1794 421.281 115.852 416.883 123.759C412.485 131.666 410.117 155.06 410.117 155.06C410.117 155.06 379.955 165.07 370.502 165.849C361.049 166.628 359.85 162.617 359.85 162.617C359.85 162.617 359.653 136.472 361.823 119.016C363.993 101.561 363.544 96.3764 367.543 93.4114C370.129 91.4944 381.289 86.6574 381.289 86.6574C381.289 86.6574 381.289 88.9434 381.289 91.6754C387.424 91.7734 407.473 84.7614 407.473 84.7614Z" fill="#37474F"/>
<path d="M378.972 94.3514C378.972 94.3514 378.154 92.9434 378.33 90.7064L380.849 88.8744L380.892 92.0524L378.972 94.3514Z" fill="url(#paint12_linear_404_4851)"/>
<path opacity="0.25" d="M378.972 94.3514C378.972 94.3514 378.154 92.9434 378.33 90.7064L380.849 88.8744L380.892 92.0524L378.972 94.3514Z" fill="black"/>
<path d="M383.868 92.4114L390.395 88.6884L395.287 92.5714L385.39 96.6794L383.868 92.4114Z" fill="url(#paint13_linear_404_4851)"/>
<path opacity="0.25" d="M383.868 92.4114L390.395 88.6884L395.287 92.5714L385.39 96.6794L383.868 92.4114Z" fill="black"/>
<path d="M400.236 77.6784V78.9934C399.986 80.2464 397.525 83.1424 391.316 85.9294C384.996 88.7654 382.522 91.6754 382.522 91.6754C382.522 91.6754 384.874 91.6654 387.445 92.5864C390.271 93.5984 394.969 97.1834 396.31 97.1494C397.615 97.1164 399.498 93.4104 403.016 89.7214C405.972 86.6214 407.473 84.7614 407.473 84.7614C407.473 84.7614 402.648 77.7054 400.236 77.6784Z" fill="#455A64"/>
<path d="M382.522 91.6754C380.276 91.9294 378.167 93.4884 377.617 92.6634C377.067 91.8384 378.975 84.3234 382.507 82.0384L382.522 91.6754Z" fill="#455A64"/>
<path d="M360.726 131.135C360.726 131.135 360.45 135.808 360.378 137.404C360.306 139 362.986 166.427 362.986 166.427L353.559 170.411C353.559 170.411 352.423 159.852 352.052 153.966C351.681 148.08 352.123 140.836 352.864 135.833C353.605 130.829 353.88 128.914 353.88 128.914C356.411 130.084 358.735 130.657 360.726 131.135Z" fill="#F28F8F"/>
<path d="M354.319 183.794C354.319 183.794 354.308 184.218 354.327 185.814C354.346 187.41 355.308 192.121 355.898 193.597C356.489 195.074 357.923 198.322 358.641 198.702C359.481 199.147 360.046 199.195 360.942 199.112C362.436 198.973 363.995 199.742 365.404 199.066C365.955 198.802 366.474 198.449 367.068 198.307C367.947 198.097 368.946 198.358 369.724 197.899C370.221 197.606 370.532 197.066 371.025 196.766C371.746 196.327 372.694 196.487 373.462 196.135C374.079 195.852 374.515 195.257 374.73 194.613C375.172 193.292 374.741 191.809 374.471 190.488C374.471 190.488 375.104 189.771 375.146 188.252C375.188 186.733 374.893 184.159 374.555 183.189C374.218 182.219 367.382 178.295 367.382 178.295L366.032 177.409C366.032 177.409 361.602 176.228 357.636 178.759C353.67 181.292 354.319 183.794 354.319 183.794Z" fill="#FFA8A7"/>
<path d="M356.168 183.608C354.361 186.62 355.423 192.014 355.43 192.078C354.86 190.024 354.341 187.039 354.326 185.815C354.307 184.219 354.318 183.795 354.318 183.795C354.318 183.795 353.669 181.293 357.635 178.761C361.601 176.229 366.031 177.411 366.031 177.411C366.031 177.411 357.985 180.579 356.168 183.608Z" fill="#F28F8F"/>
<path d="M374.47 190.49C373.922 188.634 372.318 185.829 371.559 185.122C370.8 184.415 370.167 183.529 370.926 183.824C371.685 184.119 372.74 184.298 373.162 183.766C373.584 183.234 373.668 184.162 373.204 184.879C372.74 185.596 373.12 186.145 373.668 187.326C374.217 188.507 374.348 189.823 374.47 190.49Z" fill="#F28F8F"/>
<path d="M423.677 99.5114C426.528 100.492 426.909 108.308 426.291 115.303C425.673 122.298 420.215 138.856 417.724 144.619C414.93 151.083 413.237 154.819 411.38 156.85C409.522 158.881 405.632 160.543 400.655 163.123C396.147 165.46 393.068 166.637 385.395 169.019C376.736 171.707 373.413 171.872 371.555 173.158C369.697 174.444 369.191 177.252 367.381 178.297L366.031 177.411C363.678 177.885 359.745 179.454 357.418 181.005C355.213 182.475 354.317 183.795 354.317 183.795L354.325 185.815C354.325 185.815 352.131 186.743 350.273 182.802C348.415 178.861 347.558 173.003 349.701 170.43C351.844 167.858 358.616 164.379 364.09 162.617C369.564 160.855 372.321 159.097 378.742 155.216C385.582 151.082 390.327 148.334 393.707 146.476C395.004 145.73 395.873 144.815 396.451 142.431C396.908 140.544 398.284 134.983 399.125 130.807C400.523 123.87 403.532 102.732 423.677 99.5114Z" fill="#FFA8A7"/>
<path d="M426.292 99.1794C426.292 99.1794 427.619 99.4124 427.804 104.945C427.989 110.479 427.769 116.383 427.048 120.633C426.327 124.884 422.079 137.442 422.079 137.442C422.079 137.442 409.808 141.467 397.249 136.665C397.249 136.665 400.204 118.566 401.312 113.765C402.42 108.963 417.946 94.1584 426.292 99.1794Z" fill="#455A64"/>
<path d="M382.875 99.5394C382.176 104.035 381.207 114.728 381.207 129.817C381.207 133.517 375.809 141.024 374.539 140.865C373.269 140.705 370.94 133.645 370.61 129.548C371.122 119.629 377.119 104.237 379.739 98.9814L382.875 99.5394Z" fill="url(#paint14_linear_404_4851)"/>
<path opacity="0.15" d="M379.54 99.4094C379.607 99.2604 379.674 99.1124 379.739 98.9824L382.875 99.5404L382.687 100.858C381.399 100.786 379.955 99.8954 379.54 99.4094Z" fill="black"/>
<path d="M383.868 92.4114C382.522 92.0504 380.892 92.0504 380.892 92.0504C380.892 92.0504 379.715 92.9014 378.972 94.3504C378.972 94.3504 378.806 97.1374 379.738 98.9814C379.738 98.9814 380.896 99.9574 382.874 99.5394C382.874 99.5394 384.75 98.4064 385.389 96.6794C385.593 95.1674 384.538 92.9014 383.868 92.4114Z" fill="url(#paint15_linear_404_4851)"/>
<defs>
<linearGradient id="paint0_linear_404_4851" x1="434.094" y1="227.562" x2="434.094" y2="311.973" gradientUnits="userSpaceOnUse">
<stop stop-color="#27DEBF"/>
<stop offset="0.83" stop-color="#112751"/>
</linearGradient>
<linearGradient id="paint1_linear_404_4851" x1="436.681" y1="262.748" x2="436.681" y2="316.581" gradientUnits="userSpaceOnUse">
<stop stop-color="#27DEBF"/>
<stop offset="0.83" stop-color="#112751"/>
</linearGradient>
<linearGradient id="paint2_linear_404_4851" x1="142.227" y1="26.4129" x2="142.227" y2="283.242" gradientUnits="userSpaceOnUse">
<stop stop-color="#27DEBF"/>
<stop offset="0.83" stop-color="#112751"/>
</linearGradient>
<linearGradient id="paint3_linear_404_4851" x1="149.552" y1="79.3204" x2="149.552" y2="248.743" gradientUnits="userSpaceOnUse">
<stop stop-color="#27DEBF"/>
<stop offset="0.83" stop-color="#112751"/>
</linearGradient>
<linearGradient id="paint4_linear_404_4851" x1="161.826" y1="87.5774" x2="161.826" y2="255.579" gradientUnits="userSpaceOnUse">
<stop stop-color="#27DEBF"/>
<stop offset="0.83" stop-color="#112751"/>
</linearGradient>
<linearGradient id="paint5_linear_404_4851" x1="161.826" y1="96.6874" x2="161.826" y2="249.406" gradientUnits="userSpaceOnUse">
<stop stop-color="#27DEBF"/>
<stop offset="0.83" stop-color="#112751"/>
</linearGradient>
<linearGradient id="paint6_linear_404_4851" x1="159.426" y1="149.197" x2="159.426" y2="215.201" gradientUnits="userSpaceOnUse">
<stop stop-color="#27DEBF"/>
<stop offset="0.83" stop-color="#112751"/>
</linearGradient>
<linearGradient id="paint7_linear_404_4851" x1="215.762" y1="220.891" x2="215.762" y2="225.543" gradientUnits="userSpaceOnUse">
<stop stop-color="#27DEBF"/>
<stop offset="0.83" stop-color="#112751"/>
</linearGradient>
<linearGradient id="paint8_linear_404_4851" x1="228.704" y1="226.661" x2="228.704" y2="232.457" gradientUnits="userSpaceOnUse">
<stop stop-color="#27DEBF"/>
<stop offset="0.83" stop-color="#112751"/>
</linearGradient>
<linearGradient id="paint9_linear_404_4851" x1="237.413" y1="202.855" x2="237.413" y2="263.925" gradientUnits="userSpaceOnUse">
<stop stop-color="#27DEBF"/>
<stop offset="0.83" stop-color="#112751"/>
</linearGradient>
<linearGradient id="paint10_linear_404_4851" x1="235.214" y1="205.391" x2="235.214" y2="263.926" gradientUnits="userSpaceOnUse">
<stop stop-color="#27DEBF"/>
<stop offset="0.83" stop-color="#112751"/>
</linearGradient>
<linearGradient id="paint11_linear_404_4851" x1="267.88" y1="245.934" x2="267.88" y2="262.865" gradientUnits="userSpaceOnUse">
<stop stop-color="#27DEBF"/>
<stop offset="0.83" stop-color="#112751"/>
</linearGradient>
<linearGradient id="paint12_linear_404_4851" x1="379.599" y1="88.8744" x2="379.599" y2="94.3514" gradientUnits="userSpaceOnUse">
<stop stop-color="#27DEBF"/>
<stop offset="0.83" stop-color="#112751"/>
</linearGradient>
<linearGradient id="paint13_linear_404_4851" x1="389.577" y1="88.6884" x2="389.577" y2="96.6794" gradientUnits="userSpaceOnUse">
<stop stop-color="#27DEBF"/>
<stop offset="0.83" stop-color="#112751"/>
</linearGradient>
<linearGradient id="paint14_linear_404_4851" x1="376.742" y1="98.9814" x2="376.742" y2="140.868" gradientUnits="userSpaceOnUse">
<stop stop-color="#27DEBF"/>
<stop offset="0.83" stop-color="#112751"/>
</linearGradient>
<linearGradient id="paint15_linear_404_4851" x1="382.188" y1="92.0504" x2="382.188" y2="99.6435" gradientUnits="userSpaceOnUse">
<stop stop-color="#27DEBF"/>
<stop offset="0.83" stop-color="#112751"/>
</linearGradient>
</defs>
</svg>
