<svg width="500" height="500" viewBox="0 0 500 500" fill="none" xmlns="http://www.w3.org/2000/svg">
<g clip-path="url(#clip0_110_2009)">
<path d="M440.521 395.733H59.479C53.22 395.733 48.146 390.659 48.146 384.4V115.601C48.146 109.342 53.22 104.268 59.479 104.268H440.522C446.781 104.268 451.856 109.342 451.856 115.601V384.4C451.855 390.659 446.781 395.733 440.521 395.733Z" fill="url(#paint0_linear_110_2009)"/>
<path d="M48.7999 418.03C64.1805 418.03 76.6489 416.125 76.6489 413.775C76.6489 411.425 64.1805 409.52 48.7999 409.52C33.4193 409.52 20.9509 411.425 20.9509 413.775C20.9509 416.125 33.4193 418.03 48.7999 418.03Z" fill="#E4F2F6"/>
<path d="M102.447 409.64C102.447 411.99 89.979 413.895 74.598 413.895C59.218 413.895 46.749 411.99 46.749 409.64C46.749 407.29 59.217 405.385 74.598 405.385C89.978 405.385 102.447 407.29 102.447 409.64Z" fill="#E4F2F6"/>
<path d="M95.2819 400.431H54.4919V409.64H95.2819V400.431Z" fill="#6AD4CB"/>
<path d="M54.4919 402.72H95.2819" stroke="#4BA6D0" stroke-width="1.1579" stroke-miterlimit="10"/>
<path d="M54.4919 405.036H95.2819" stroke="#4BA6D0" stroke-width="1.1579" stroke-miterlimit="10"/>
<path d="M54.4919 407.352H95.2819" stroke="#4BA6D0" stroke-width="1.1579" stroke-miterlimit="10"/>
<path opacity="0.14" d="M82.6189 400.431H69.4719V409.64H82.6189V400.431Z" fill="black"/>
<path d="M81.461 400.431H68.314V409.64H81.461V400.431Z" fill="#B1D2DB"/>
<path d="M81.4609 400.431H77.3589V409.64H81.4609V400.431Z" fill="#A5C2C9"/>
<path d="M98.6699 391.222H57.8809V400.431H98.6699V391.222Z" fill="#6AD4CB"/>
<path d="M57.8809 393.511H98.6709" stroke="#4BA6D0" stroke-width="1.1579" stroke-miterlimit="10"/>
<path d="M57.8809 395.827H98.6709" stroke="#4BA6D0" stroke-width="1.1579" stroke-miterlimit="10"/>
<path d="M57.8809 398.143H98.6709" stroke="#4BA6D0" stroke-width="1.1579" stroke-miterlimit="10"/>
<path opacity="0.14" d="M86.0069 391.222H72.8599V400.431H86.0069V391.222Z" fill="black"/>
<path d="M84.8489 391.222H71.7019V400.431H84.8489V391.222Z" fill="#B1D2DB"/>
<path d="M84.8498 391.222H80.7478V400.431H84.8498V391.222Z" fill="#A5C2C9"/>
<path d="M90.4699 382.013H49.6809V391.222H90.4699V382.013Z" fill="#6AD4CB"/>
<path d="M49.6809 384.302H90.4699" stroke="#4BA6D0" stroke-width="1.1579" stroke-miterlimit="10"/>
<path d="M49.6809 386.618H90.4699" stroke="#4BA6D0" stroke-width="1.1579" stroke-miterlimit="10"/>
<path d="M49.6809 388.934H90.4699" stroke="#4BA6D0" stroke-width="1.1579" stroke-miterlimit="10"/>
<path opacity="0.14" d="M77.8069 382.013H64.6599V391.222H77.8069V382.013Z" fill="black"/>
<path d="M76.649 382.013H63.502V391.222H76.649V382.013Z" fill="#B1D2DB"/>
<path d="M76.6489 382.013H72.5469V391.222H76.6489V382.013Z" fill="#A5C2C9"/>
<path d="M69.4838 404.566H28.6948V413.775H69.4838V404.566Z" fill="#97F4EC"/>
<path d="M28.6948 406.854H69.4838" stroke="#73C8F0" stroke-width="1.1579" stroke-miterlimit="10"/>
<path d="M28.6948 409.17H69.4838" stroke="#73C8F0" stroke-width="1.1579" stroke-miterlimit="10"/>
<path d="M28.6948 411.486H69.4838" stroke="#73C8F0" stroke-width="1.1579" stroke-miterlimit="10"/>
<path opacity="0.14" d="M56.8208 404.566H43.6738V413.775H56.8208V404.566Z" fill="black"/>
<path d="M55.6629 404.566H42.5159V413.775H55.6629V404.566Z" fill="#E4F2F6"/>
<path d="M55.6628 404.566H51.5608V413.775H55.6628V404.566Z" fill="#DAE5E8"/>
<path d="M72.873 395.357H32.083V404.566H72.873V395.357Z" fill="#97F4EC"/>
<path d="M32.083 397.645H72.873" stroke="#73C8F0" stroke-width="1.1579" stroke-miterlimit="10"/>
<path d="M32.083 399.961H72.873" stroke="#73C8F0" stroke-width="1.1579" stroke-miterlimit="10"/>
<path d="M32.083 402.277H72.873" stroke="#73C8F0" stroke-width="1.1579" stroke-miterlimit="10"/>
<path opacity="0.14" d="M60.21 395.357H47.063V404.566H60.21V395.357Z" fill="black"/>
<path d="M59.052 395.357H45.905V404.566H59.052V395.357Z" fill="#E4F2F6"/>
<path d="M59.0519 395.357H54.95V404.566H59.0519V395.357Z" fill="#DAE5E8"/>
<path d="M64.6718 386.148H23.8828V395.357H64.6718V386.148Z" fill="#97F4EC"/>
<path d="M23.8828 388.436H64.6718" stroke="#73C8F0" stroke-width="1.1579" stroke-miterlimit="10"/>
<path d="M23.8828 390.752H64.6718" stroke="#73C8F0" stroke-width="1.1579" stroke-miterlimit="10"/>
<path d="M23.8828 393.068H64.6718" stroke="#73C8F0" stroke-width="1.1579" stroke-miterlimit="10"/>
<path opacity="0.14" d="M52.0088 386.148H38.8618V395.357H52.0088V386.148Z" fill="black"/>
<path d="M50.8509 386.148H37.7039V395.357H50.8509V386.148Z" fill="#E4F2F6"/>
<path d="M50.8518 386.148H46.7498V395.357H50.8518V386.148Z" fill="#DAE5E8"/>
<path d="M71.957 377.172H31.167V386.381H71.957V377.172Z" fill="#97F4EC"/>
<path d="M31.167 379.461H71.956" stroke="#73C8F0" stroke-width="1.1579" stroke-miterlimit="10"/>
<path d="M31.167 381.777H71.956" stroke="#73C8F0" stroke-width="1.1579" stroke-miterlimit="10"/>
<path d="M31.167 384.092H71.956" stroke="#73C8F0" stroke-width="1.1579" stroke-miterlimit="10"/>
<path opacity="0.14" d="M59.293 377.172H46.146V386.381H59.293V377.172Z" fill="black"/>
<path d="M58.135 377.172H44.988V386.381H58.135V377.172Z" fill="#E4F2F6"/>
<path d="M58.135 377.172H54.033V386.381H58.135V377.172Z" fill="#DAE5E8"/>
<path d="M53.037 369.484C58.5333 369.484 62.989 365.028 62.989 359.532C62.989 354.036 58.5333 349.58 53.037 349.58C47.5406 349.58 43.085 354.036 43.085 359.532C43.085 365.028 47.5406 369.484 53.037 369.484Z" fill="#FFD23C"/>
<path d="M53.0369 353.471C57.1459 353.471 60.5299 356.551 61.0209 360.527C61.0609 360.2 61.0889 359.87 61.0889 359.532C61.0889 355.085 57.4839 351.48 53.0369 351.48C48.5899 351.48 44.9849 355.085 44.9849 359.532C44.9849 359.87 45.0119 360.2 45.0529 360.527C45.5439 356.551 48.9279 353.471 53.0369 353.471Z" fill="url(#paint1_linear_110_2009)"/>
<path d="M52.7979 365.691V364.497C52.0336 364.473 51.349 364.321 50.7439 364.043V362.263L51.9261 362.18V362.872C51.9261 362.984 51.9421 363.067 51.9739 363.123C52.0058 363.171 52.0894 363.219 52.2247 363.267C52.36 363.314 52.5511 363.338 52.7979 363.338V361.105C52.1769 360.93 51.7271 360.735 51.4485 360.52C51.1698 360.305 50.9748 360.074 50.8633 359.827C50.7598 359.58 50.7081 359.29 50.7081 358.955C50.7081 358.366 50.8952 357.881 51.2693 357.499C51.6515 357.108 52.161 356.87 52.7979 356.782V355.683H53.6935V356.758C54.3623 356.798 54.9793 356.949 55.5445 357.212V358.896L54.3742 358.967V358.323C54.3742 358.211 54.3583 358.131 54.3265 358.084C54.2946 358.028 54.211 357.98 54.0757 357.94C53.9483 357.901 53.8209 357.877 53.6935 357.869V359.971H53.7055C54.3105 360.154 54.7962 360.385 55.1624 360.663C55.6242 360.998 55.855 361.495 55.855 362.156C55.855 362.817 55.656 363.342 55.2579 363.732C54.8678 364.122 54.3464 364.365 53.6935 364.461V365.691H52.7979ZM54.3742 362.263C54.3742 361.865 54.1473 361.575 53.6935 361.392V363.255C54.1473 363.111 54.3742 362.781 54.3742 362.263ZM52.7979 357.94C52.3839 358.084 52.1769 358.358 52.1769 358.764C52.1769 359.17 52.3839 359.469 52.7979 359.66V357.94Z" fill="#FFE796"/>
<path d="M53.037 351.571C57.427 351.571 60.998 355.142 60.998 359.532C60.998 363.922 57.427 367.493 53.037 367.493C48.647 367.493 45.076 363.921 45.076 359.532C45.076 355.142 48.647 351.571 53.037 351.571ZM53.037 349.581C47.541 349.581 43.085 354.036 43.085 359.533C43.085 365.029 47.54 369.485 53.037 369.485C58.533 369.485 62.989 365.029 62.989 359.533C62.989 354.036 58.533 349.581 53.037 349.581Z" fill="#FFE796"/>
<path d="M61.6589 373.328H41.0439V377.172H61.6589V373.328Z" fill="#FFD23C"/>
<path d="M50.2478 373.328H43.6738V377.172H50.2478V373.328Z" fill="#FFE796"/>
<path d="M65.971 369.484H45.356V373.328H65.971V369.484Z" fill="#FFD23C"/>
<path d="M54.5598 369.484H47.9858V373.328H54.5598V369.484Z" fill="#FFE796"/>
<path d="M181.389 152.017H68.5369V358.901H181.389V152.017Z" fill="#FFD23C"/>
<path d="M173.245 166.947H76.6809V341.805H173.245V166.947Z" fill="white"/>
<path d="M154.525 231.611H95.4009C92.5239 231.611 90.1919 229.279 90.1919 226.403V225.939C90.1919 223.062 92.5239 220.731 95.4009 220.731H154.525C157.402 220.731 159.733 223.063 159.733 225.939V226.403C159.733 229.279 157.401 231.611 154.525 231.611Z" fill="#B4D7DC"/>
<path d="M154.525 250.564H95.4009C92.5239 250.564 90.1919 248.232 90.1919 245.356V244.892C90.1919 242.015 92.5239 239.684 95.4009 239.684H154.525C157.402 239.684 159.733 242.016 159.733 244.892V245.356C159.733 248.232 157.401 250.564 154.525 250.564Z" fill="#B4D7DC"/>
<path d="M159.733 190.264L124.963 202.434L90.1919 190.264V152.017H159.733V190.264Z" fill="#FFE65A"/>
<path d="M149.699 317.826H100.225C94.6839 317.826 90.1909 313.334 90.1909 307.792V306.897C90.1909 301.356 94.6829 296.863 100.225 296.863H149.699C155.24 296.863 159.733 301.355 159.733 306.897V307.792C159.733 313.333 155.241 317.826 149.699 317.826Z" fill="url(#paint2_linear_110_2009)"/>
<path d="M124.424 192.529V188.873C122.084 188.799 119.988 188.336 118.135 187.483V182.036L121.755 181.78V183.9C121.755 184.242 121.803 184.498 121.901 184.668C121.998 184.814 122.254 184.961 122.669 185.107C123.083 185.253 123.668 185.326 124.424 185.326V178.49C122.523 177.953 121.145 177.356 120.292 176.698C119.439 176.04 118.842 175.333 118.501 174.578C118.184 173.822 118.026 172.933 118.026 171.909C118.026 170.105 118.598 168.619 119.744 167.449C120.914 166.254 122.474 165.523 124.424 165.255V161.892H127.166V165.182C129.213 165.304 131.102 165.767 132.832 166.571V171.726L129.249 171.945V169.971C129.249 169.63 129.201 169.386 129.103 169.24C129.006 169.069 128.75 168.923 128.335 168.801C127.946 168.679 127.556 168.606 127.166 168.582V175.016H127.202C129.054 175.577 130.541 176.284 131.662 177.137C133.076 178.161 133.783 179.684 133.783 181.707C133.783 183.73 133.174 185.338 131.955 186.533C130.761 187.727 129.164 188.47 127.166 188.763V192.529H124.424ZM129.249 182.036C129.249 180.817 128.555 179.928 127.166 179.367V185.07C128.555 184.632 129.249 183.62 129.249 182.036ZM124.424 168.801C123.156 169.24 122.523 170.081 122.523 171.324C122.523 172.567 123.156 173.481 124.424 174.066V168.801Z" fill="url(#paint3_linear_110_2009)"/>
<path d="M100.423 305.035C100.381 304.675 100.208 304.396 99.9047 304.197C99.6016 303.998 99.23 303.899 98.7896 303.899C98.4676 303.899 98.1859 303.951 97.9444 304.055C97.7053 304.159 97.5183 304.302 97.3834 304.484C97.2508 304.667 97.1845 304.874 97.1845 305.106C97.1845 305.3 97.2307 305.467 97.323 305.607C97.4177 305.744 97.5384 305.859 97.6852 305.951C97.832 306.041 97.9859 306.116 98.1469 306.175C98.3078 306.232 98.4558 306.278 98.5908 306.313L99.3294 306.512C99.5188 306.562 99.7295 306.631 99.9615 306.718C100.196 306.806 100.42 306.925 100.633 307.077C100.848 307.226 101.026 307.418 101.165 307.652C101.305 307.886 101.375 308.174 101.375 308.515C101.375 308.908 101.272 309.263 101.066 309.58C100.862 309.898 100.564 310.15 100.171 310.337C99.7804 310.524 99.3057 310.617 98.747 310.617C98.2262 310.617 97.7752 310.533 97.394 310.365C97.0152 310.197 96.7169 309.963 96.4991 309.662C96.2837 309.361 96.1618 309.012 96.1334 308.614H97.0425C97.0661 308.889 97.1585 309.116 97.3194 309.296C97.4828 309.474 97.6888 309.606 97.9373 309.694C98.1883 309.779 98.4582 309.822 98.747 309.822C99.0832 309.822 99.385 309.767 99.6525 309.658C99.9201 309.547 100.132 309.393 100.288 309.197C100.444 308.998 100.523 308.766 100.523 308.501C100.523 308.259 100.455 308.063 100.32 307.911C100.185 307.76 100.008 307.637 99.7875 307.542C99.5673 307.447 99.3294 307.364 99.0737 307.293L98.1788 307.038C97.6106 306.874 97.1608 306.641 96.8294 306.338C96.498 306.035 96.3322 305.639 96.3322 305.149C96.3322 304.741 96.4423 304.386 96.6625 304.083C96.885 303.778 97.1833 303.541 97.5574 303.373C97.9338 303.202 98.354 303.117 98.818 303.117C99.2868 303.117 99.7034 303.201 100.068 303.369C100.433 303.535 100.721 303.762 100.935 304.051C101.15 304.34 101.264 304.668 101.275 305.035H100.423ZM107.596 303.217H108.476V308.032C108.476 308.529 108.359 308.973 108.125 309.364C107.893 309.752 107.565 310.059 107.141 310.283C106.717 310.506 106.22 310.617 105.65 310.617C105.079 310.617 104.582 310.506 104.158 310.283C103.734 310.059 103.405 309.752 103.171 309.364C102.939 308.973 102.823 308.529 102.823 308.032V303.217H103.704V307.961C103.704 308.316 103.782 308.632 103.938 308.909C104.094 309.184 104.317 309.4 104.605 309.559C104.897 309.715 105.245 309.793 105.65 309.793C106.054 309.793 106.402 309.715 106.694 309.559C106.985 309.4 107.207 309.184 107.361 308.909C107.517 308.632 107.596 308.316 107.596 307.961V303.217ZM110.235 310.489V303.217H112.778C113.284 303.217 113.702 303.304 114.031 303.479C114.36 303.652 114.605 303.885 114.766 304.179C114.927 304.47 115.008 304.793 115.008 305.149C115.008 305.461 114.952 305.719 114.841 305.923C114.732 306.126 114.587 306.287 114.408 306.406C114.23 306.524 114.037 306.612 113.829 306.668V306.739C114.051 306.754 114.275 306.832 114.5 306.974C114.725 307.116 114.913 307.319 115.064 307.585C115.216 307.85 115.292 308.174 115.292 308.558C115.292 308.922 115.209 309.25 115.043 309.541C114.877 309.832 114.616 310.063 114.258 310.234C113.901 310.404 113.436 310.489 112.863 310.489H110.235ZM111.116 309.708H112.863C113.438 309.708 113.846 309.597 114.088 309.374C114.332 309.149 114.454 308.877 114.454 308.558C114.454 308.311 114.391 308.084 114.265 307.876C114.14 307.665 113.961 307.497 113.729 307.372C113.497 307.244 113.223 307.18 112.905 307.18H111.116V309.708ZM111.116 306.413H112.749C113.014 306.413 113.253 306.361 113.466 306.256C113.682 306.152 113.852 306.006 113.978 305.816C114.106 305.627 114.17 305.404 114.17 305.149C114.17 304.829 114.058 304.558 113.836 304.335C113.613 304.11 113.26 303.998 112.778 303.998H111.116V306.413ZM120.716 305.035C120.673 304.675 120.501 304.396 120.198 304.197C119.895 303.998 119.523 303.899 119.083 303.899C118.761 303.899 118.479 303.951 118.237 304.055C117.998 304.159 117.811 304.302 117.676 304.484C117.544 304.667 117.477 304.874 117.477 305.106C117.477 305.3 117.524 305.467 117.616 305.607C117.711 305.744 117.831 305.859 117.978 305.951C118.125 306.041 118.279 306.116 118.44 306.175C118.601 306.232 118.749 306.278 118.884 306.313L119.622 306.512C119.812 306.562 120.022 306.631 120.254 306.718C120.489 306.806 120.713 306.925 120.926 307.077C121.141 307.226 121.319 307.418 121.458 307.652C121.598 307.886 121.668 308.174 121.668 308.515C121.668 308.908 121.565 309.263 121.359 309.58C121.155 309.898 120.857 310.15 120.464 310.337C120.073 310.524 119.599 310.617 119.04 310.617C118.519 310.617 118.068 310.533 117.687 310.365C117.308 310.197 117.01 309.963 116.792 309.662C116.577 309.361 116.455 309.012 116.426 308.614H117.335C117.359 308.889 117.451 309.116 117.612 309.296C117.776 309.474 117.982 309.606 118.23 309.694C118.481 309.779 118.751 309.822 119.04 309.822C119.376 309.822 119.678 309.767 119.946 309.658C120.213 309.547 120.425 309.393 120.581 309.197C120.737 308.998 120.816 308.766 120.816 308.501C120.816 308.259 120.748 308.063 120.613 307.911C120.478 307.76 120.301 307.637 120.08 307.542C119.86 307.447 119.622 307.364 119.367 307.293L118.472 307.038C117.904 306.874 117.454 306.641 117.122 306.338C116.791 306.035 116.625 305.639 116.625 305.149C116.625 304.741 116.735 304.386 116.955 304.083C117.178 303.778 117.476 303.541 117.85 303.373C118.227 303.202 118.647 303.117 119.111 303.117C119.58 303.117 119.996 303.201 120.361 303.369C120.726 303.535 121.014 303.762 121.227 304.051C121.443 304.34 121.557 304.668 121.568 305.035H120.716ZM128.968 305.489H128.087C128.035 305.236 127.944 305.014 127.814 304.822C127.686 304.63 127.53 304.469 127.345 304.339C127.163 304.206 126.96 304.107 126.738 304.041C126.515 303.974 126.283 303.941 126.042 303.941C125.602 303.941 125.203 304.052 124.845 304.275C124.49 304.497 124.207 304.825 123.996 305.259C123.788 305.692 123.684 306.223 123.684 306.853C123.684 307.483 123.788 308.014 123.996 308.448C124.207 308.881 124.49 309.209 124.845 309.431C125.203 309.654 125.602 309.765 126.042 309.765C126.283 309.765 126.515 309.732 126.738 309.666C126.96 309.599 127.163 309.501 127.345 309.371C127.53 309.238 127.686 309.076 127.814 308.884C127.944 308.69 128.035 308.468 128.087 308.217H128.968C128.902 308.588 128.781 308.921 128.606 309.215C128.431 309.508 128.213 309.758 127.952 309.964C127.692 310.167 127.4 310.323 127.075 310.429C126.753 310.536 126.409 310.589 126.042 310.589C125.422 310.589 124.87 310.437 124.387 310.134C123.904 309.831 123.524 309.4 123.247 308.842C122.97 308.283 122.832 307.62 122.832 306.853C122.832 306.086 122.97 305.423 123.247 304.864C123.524 304.306 123.904 303.875 124.387 303.572C124.87 303.269 125.422 303.117 126.042 303.117C126.409 303.117 126.753 303.171 127.075 303.277C127.4 303.384 127.692 303.54 127.952 303.746C128.213 303.949 128.431 304.198 128.606 304.492C128.781 304.783 128.902 305.115 128.968 305.489ZM130.391 310.489V303.217H132.849C133.417 303.217 133.883 303.314 134.248 303.508C134.612 303.7 134.882 303.964 135.057 304.3C135.233 304.636 135.32 305.018 135.32 305.447C135.32 305.875 135.233 306.255 135.057 306.587C134.882 306.918 134.613 307.179 134.251 307.368C133.889 307.555 133.426 307.649 132.863 307.649H130.874V306.853H132.834C133.223 306.853 133.535 306.796 133.772 306.683C134.011 306.569 134.184 306.408 134.29 306.2C134.399 305.989 134.454 305.738 134.454 305.447C134.454 305.156 134.399 304.901 134.29 304.683C134.181 304.465 134.007 304.297 133.768 304.179C133.529 304.058 133.213 303.998 132.82 303.998H131.272V310.489H130.391ZM133.814 307.222L135.604 310.489H134.582L132.82 307.222H133.814ZM137.668 303.217V310.489H136.788V303.217H137.668ZM139.434 310.489V303.217H141.977C142.483 303.217 142.901 303.304 143.23 303.479C143.559 303.652 143.804 303.885 143.965 304.179C144.126 304.47 144.207 304.793 144.207 305.149C144.207 305.461 144.151 305.719 144.04 305.923C143.931 306.126 143.787 306.287 143.607 306.406C143.429 306.524 143.236 306.612 143.028 306.668V306.739C143.25 306.754 143.474 306.832 143.699 306.974C143.924 307.116 144.112 307.319 144.264 307.585C144.415 307.85 144.491 308.174 144.491 308.558C144.491 308.922 144.408 309.25 144.242 309.541C144.077 309.832 143.815 310.063 143.458 310.234C143.1 310.404 142.635 310.489 142.062 310.489H139.434ZM140.315 309.708H142.062C142.637 309.708 143.046 309.597 143.287 309.374C143.531 309.149 143.653 308.877 143.653 308.558C143.653 308.311 143.59 308.084 143.465 307.876C143.339 307.665 143.16 307.497 142.928 307.372C142.696 307.244 142.422 307.18 142.105 307.18H140.315V309.708ZM140.315 306.413H141.948C142.214 306.413 142.453 306.361 142.666 306.256C142.881 306.152 143.052 306.006 143.177 305.816C143.305 305.627 143.369 305.404 143.369 305.149C143.369 304.829 143.258 304.558 143.035 304.335C142.812 304.11 142.46 303.998 141.977 303.998H140.315V306.413ZM145.938 310.489V303.217H150.327V303.998H146.819V306.455H150.1V307.237H146.819V309.708H150.384V310.489H145.938Z" fill="white"/>
<path d="M306.25 150.934H193.398V357.818H306.25V150.934Z" fill="#FFD23C"/>
<path d="M298.107 165.865H201.543V340.723H298.107V165.865Z" fill="white"/>
<path d="M279.386 230.871H220.262C217.385 230.871 215.054 228.539 215.054 225.663V225.199C215.054 222.323 217.386 219.991 220.262 219.991H279.386C282.262 219.991 284.594 222.323 284.594 225.199V225.663C284.595 228.539 282.263 230.871 279.386 230.871Z" fill="#B4D7DC"/>
<path d="M279.386 249.824H220.262C217.385 249.824 215.054 247.492 215.054 244.616V244.152C215.054 241.275 217.386 238.943 220.262 238.943H279.386C282.262 238.943 284.594 241.275 284.594 244.152V244.616C284.595 247.492 282.263 249.824 279.386 249.824Z" fill="#B4D7DC"/>
<path d="M279.386 268.777H220.262C217.385 268.777 215.054 266.445 215.054 263.569V263.105C215.054 260.228 217.386 257.897 220.262 257.897H279.386C282.262 257.897 284.594 260.229 284.594 263.105V263.569C284.595 266.445 282.263 268.777 279.386 268.777Z" fill="#B4D7DC"/>
<path d="M284.595 189.182L249.824 201.351L215.054 189.182V150.934H284.595V189.182Z" fill="#FFE65A"/>
<path d="M274.561 317.826H225.087C219.546 317.826 215.053 313.334 215.053 307.792V306.897C215.053 301.356 219.545 296.863 225.087 296.863H274.561C280.102 296.863 284.595 301.355 284.595 306.897V307.792C284.595 313.333 280.102 317.826 274.561 317.826Z" fill="url(#paint4_linear_110_2009)"/>
<path d="M248.338 192.529V188.873C245.999 188.799 243.902 188.336 242.05 187.483V182.036L245.67 181.78V183.9C245.67 184.242 245.718 184.498 245.816 184.668C245.913 184.814 246.169 184.961 246.584 185.107C246.998 185.253 247.583 185.326 248.338 185.326V178.49C246.437 177.953 245.06 177.356 244.207 176.698C243.354 176.04 242.757 175.333 242.416 174.578C242.099 173.822 241.94 172.933 241.94 171.909C241.94 170.105 242.513 168.619 243.659 167.449C244.829 166.254 246.389 165.523 248.338 165.255V161.892H251.08V165.182C253.128 165.304 255.017 165.767 256.747 166.571V171.726L253.164 171.945V169.971C253.164 169.63 253.116 169.386 253.018 169.24C252.921 169.069 252.665 168.923 252.25 168.801C251.86 168.679 251.47 168.606 251.08 168.582V175.016H251.117C252.969 175.577 254.456 176.284 255.577 177.137C256.991 178.161 257.698 179.684 257.698 181.707C257.698 183.73 257.088 185.338 255.87 186.533C254.675 187.727 253.079 188.47 251.08 188.763V192.529H248.338ZM253.164 182.036C253.164 180.817 252.47 179.928 251.08 179.367V185.07C252.47 184.632 253.164 183.62 253.164 182.036ZM248.338 168.801C247.071 169.24 246.437 170.081 246.437 171.324C246.437 172.567 247.071 173.481 248.338 174.066V168.801Z" fill="url(#paint5_linear_110_2009)"/>
<path d="M227.372 305.091C227.334 304.767 227.178 304.516 226.906 304.337C226.633 304.158 226.298 304.068 225.902 304.068C225.612 304.068 225.359 304.115 225.141 304.209C224.926 304.303 224.758 304.431 224.636 304.596C224.517 304.76 224.457 304.946 224.457 305.155C224.457 305.33 224.499 305.48 224.582 305.605C224.667 305.729 224.776 305.832 224.908 305.915C225.04 305.996 225.179 306.064 225.324 306.117C225.468 306.168 225.602 306.21 225.723 306.241L226.388 306.42C226.558 306.465 226.748 306.527 226.957 306.606C227.168 306.685 227.369 306.792 227.561 306.929C227.755 307.063 227.914 307.235 228.04 307.446C228.166 307.657 228.229 307.916 228.229 308.223C228.229 308.577 228.136 308.896 227.951 309.182C227.767 309.467 227.499 309.694 227.145 309.863C226.794 310.031 226.366 310.115 225.864 310.115C225.395 310.115 224.989 310.039 224.646 309.888C224.305 309.737 224.037 309.526 223.841 309.255C223.647 308.985 223.537 308.67 223.511 308.312H224.33C224.351 308.56 224.434 308.764 224.579 308.926C224.726 309.086 224.911 309.205 225.135 309.284C225.361 309.361 225.604 309.399 225.864 309.399C226.166 309.399 226.438 309.35 226.679 309.252C226.919 309.152 227.11 309.013 227.251 308.837C227.391 308.658 227.462 308.449 227.462 308.21C227.462 307.993 227.401 307.816 227.279 307.68C227.158 307.543 226.998 307.433 226.8 307.347C226.602 307.262 226.388 307.187 226.158 307.124L225.352 306.893C224.841 306.746 224.436 306.537 224.138 306.264C223.839 305.991 223.69 305.634 223.69 305.193C223.69 304.827 223.789 304.507 223.988 304.234C224.188 303.96 224.456 303.746 224.793 303.595C225.132 303.442 225.51 303.365 225.928 303.365C226.349 303.365 226.724 303.441 227.053 303.592C227.381 303.741 227.641 303.946 227.832 304.206C228.026 304.466 228.129 304.761 228.139 305.091H227.372ZM233.827 303.455H234.62V307.788C234.62 308.236 234.514 308.635 234.304 308.987C234.095 309.336 233.8 309.612 233.418 309.815C233.037 310.015 232.589 310.115 232.076 310.115C231.562 310.115 231.115 310.015 230.734 309.815C230.352 309.612 230.056 309.336 229.845 308.987C229.636 308.635 229.532 308.236 229.532 307.788V303.455H230.324V307.724C230.324 308.044 230.395 308.328 230.535 308.578C230.676 308.825 230.876 309.02 231.136 309.163C231.398 309.303 231.712 309.374 232.076 309.374C232.44 309.374 232.753 309.303 233.016 309.163C233.278 309.02 233.478 308.825 233.616 308.578C233.757 308.328 233.827 308.044 233.827 307.724V303.455ZM236.203 310V303.455H238.491C238.947 303.455 239.323 303.533 239.619 303.691C239.915 303.847 240.136 304.056 240.281 304.321C240.426 304.583 240.498 304.874 240.498 305.193C240.498 305.474 240.448 305.707 240.348 305.89C240.25 306.073 240.12 306.218 239.958 306.325C239.798 306.431 239.625 306.51 239.437 306.561V306.625C239.637 306.638 239.839 306.708 240.041 306.836C240.244 306.964 240.413 307.147 240.549 307.386C240.686 307.624 240.754 307.916 240.754 308.261C240.754 308.589 240.679 308.885 240.53 309.147C240.381 309.409 240.146 309.616 239.824 309.77C239.502 309.923 239.083 310 238.568 310H236.203ZM236.995 309.297H238.568C239.086 309.297 239.453 309.197 239.67 308.996C239.89 308.794 240 308.549 240 308.261C240 308.04 239.943 307.835 239.83 307.648C239.717 307.458 239.556 307.307 239.348 307.194C239.139 307.079 238.892 307.021 238.606 307.021H236.995V309.297ZM236.995 306.331H238.466C238.704 306.331 238.919 306.284 239.111 306.19C239.305 306.097 239.458 305.964 239.571 305.794C239.686 305.624 239.744 305.423 239.744 305.193C239.744 304.906 239.644 304.662 239.444 304.461C239.243 304.259 238.926 304.158 238.491 304.158H236.995V306.331ZM245.636 305.091C245.597 304.767 245.442 304.516 245.169 304.337C244.896 304.158 244.562 304.068 244.166 304.068C243.876 304.068 243.622 304.115 243.405 304.209C243.19 304.303 243.021 304.431 242.9 304.596C242.781 304.76 242.721 304.946 242.721 305.155C242.721 305.33 242.763 305.48 242.846 305.605C242.931 305.729 243.04 305.832 243.172 305.915C243.304 305.996 243.442 306.064 243.587 306.117C243.732 306.168 243.865 306.21 243.987 306.241L244.651 306.42C244.822 306.465 245.012 306.527 245.22 306.606C245.431 306.685 245.633 306.792 245.824 306.929C246.018 307.063 246.178 307.235 246.304 307.446C246.43 307.657 246.492 307.916 246.492 308.223C246.492 308.577 246.4 308.896 246.214 309.182C246.031 309.467 245.763 309.694 245.409 309.863C245.057 310.031 244.63 310.115 244.127 310.115C243.659 310.115 243.253 310.039 242.91 309.888C242.569 309.737 242.3 309.526 242.104 309.255C241.91 308.985 241.801 308.67 241.775 308.312H242.593C242.615 308.56 242.698 308.764 242.843 308.926C242.99 309.086 243.175 309.205 243.399 309.284C243.624 309.361 243.867 309.399 244.127 309.399C244.43 309.399 244.702 309.35 244.942 309.252C245.183 309.152 245.374 309.013 245.514 308.837C245.655 308.658 245.725 308.449 245.725 308.21C245.725 307.993 245.665 307.816 245.543 307.68C245.422 307.543 245.262 307.433 245.064 307.347C244.866 307.262 244.651 307.187 244.421 307.124L243.616 306.893C243.105 306.746 242.7 306.537 242.401 306.264C242.103 305.991 241.954 305.634 241.954 305.193C241.954 304.827 242.053 304.507 242.251 304.234C242.452 303.96 242.72 303.746 243.057 303.595C243.395 303.442 243.774 303.365 244.191 303.365C244.613 303.365 244.988 303.441 245.316 303.592C245.644 303.741 245.904 303.946 246.096 304.206C246.29 304.466 246.392 304.761 246.403 305.091H245.636ZM253.063 305.5H252.27C252.223 305.272 252.141 305.072 252.024 304.899C251.909 304.727 251.768 304.582 251.602 304.464C251.438 304.345 251.256 304.256 251.055 304.196C250.855 304.136 250.646 304.107 250.429 304.107C250.033 304.107 249.674 304.207 249.352 304.407C249.032 304.607 248.778 304.902 248.588 305.292C248.401 305.682 248.307 306.161 248.307 306.727C248.307 307.294 248.401 307.772 248.588 308.162C248.778 308.552 249.032 308.847 249.352 309.048C249.674 309.248 250.033 309.348 250.429 309.348C250.646 309.348 250.855 309.318 251.055 309.259C251.256 309.199 251.438 309.11 251.602 308.993C251.768 308.874 251.909 308.728 252.024 308.555C252.141 308.381 252.223 308.18 252.27 307.955H253.063C253.003 308.289 252.894 308.588 252.737 308.853C252.579 309.117 252.383 309.342 252.149 309.527C251.914 309.71 251.651 309.85 251.359 309.946C251.069 310.042 250.759 310.089 250.429 310.089C249.871 310.089 249.374 309.953 248.94 309.68C248.505 309.408 248.163 309.02 247.914 308.517C247.665 308.014 247.54 307.418 247.54 306.727C247.54 306.037 247.665 305.44 247.914 304.938C248.163 304.435 248.505 304.047 248.94 303.774C249.374 303.501 249.871 303.365 250.429 303.365C250.759 303.365 251.069 303.413 251.359 303.509C251.651 303.605 251.914 303.745 252.149 303.931C252.383 304.114 252.579 304.338 252.737 304.602C252.894 304.864 253.003 305.163 253.063 305.5ZM254.343 310V303.455H256.555C257.066 303.455 257.486 303.542 257.814 303.717C258.142 303.889 258.385 304.127 258.543 304.429C258.701 304.732 258.779 305.076 258.779 305.462C258.779 305.847 258.701 306.189 258.543 306.488C258.385 306.786 258.143 307.02 257.817 307.191C257.491 307.359 257.075 307.443 256.568 307.443H254.778V306.727H256.542C256.892 306.727 257.173 306.676 257.386 306.574C257.601 306.472 257.757 306.327 257.853 306.139C257.951 305.95 258 305.724 258 305.462C258 305.2 257.951 304.971 257.853 304.775C257.755 304.578 257.598 304.427 257.383 304.321C257.168 304.212 256.883 304.158 256.529 304.158H255.136V310H254.343ZM257.424 307.06L259.035 310H258.115L256.529 307.06H257.424ZM260.893 303.455V310H260.1V303.455H260.893ZM262.482 310V303.455H264.77C265.226 303.455 265.602 303.533 265.899 303.691C266.195 303.847 266.415 304.056 266.56 304.321C266.705 304.583 266.778 304.874 266.778 305.193C266.778 305.474 266.727 305.707 266.627 305.89C266.529 306.073 266.399 306.218 266.237 306.325C266.078 306.431 265.904 306.51 265.716 306.561V306.625C265.917 306.638 266.118 306.708 266.32 306.836C266.523 306.964 266.692 307.147 266.829 307.386C266.965 307.624 267.033 307.916 267.033 308.261C267.033 308.589 266.959 308.885 266.809 309.147C266.66 309.409 266.425 309.616 266.103 309.77C265.781 309.923 265.363 310 264.847 310H262.482ZM263.275 309.297H264.847C265.365 309.297 265.732 309.197 265.95 308.996C266.169 308.794 266.279 308.549 266.279 308.261C266.279 308.04 266.222 307.835 266.11 307.648C265.997 307.458 265.836 307.307 265.627 307.194C265.418 307.079 265.171 307.021 264.885 307.021H263.275V309.297ZM263.275 306.331H264.745C264.983 306.331 265.199 306.284 265.39 306.19C265.584 306.097 265.738 305.964 265.851 305.794C265.966 305.624 266.023 305.423 266.023 305.193C266.023 304.906 265.923 304.662 265.723 304.461C265.523 304.259 265.205 304.158 264.77 304.158H263.275V306.331ZM268.336 310V303.455H272.286V304.158H269.128V306.369H272.081V307.072H269.128V309.297H272.337V310H268.336Z" fill="white"/>
<path d="M431.114 147.8H319.549V354.684H431.114V147.8Z" stroke="#FFD23C" stroke-width="1.0386" stroke-miterlimit="10" stroke-dasharray="2.08 4.15"/>
<path d="M319.549 139.37L431.114 354.684" stroke="#FFD23C" stroke-width="1.0386" stroke-miterlimit="10" stroke-dasharray="2.08 4.15"/>
<path d="M431.114 139.37L319.549 354.684" stroke="#FFD23C" stroke-width="1.0386" stroke-miterlimit="10" stroke-dasharray="2.08 4.15"/>
<path d="M431.758 77.636H318.906V284.52H431.758V77.636Z" fill="#FFD23C"/>
<path d="M423.614 92.567H327.05V267.425H423.614V92.567Z" fill="white"/>
<path d="M404.894 157.573H345.77C342.893 157.573 340.562 155.241 340.562 152.364V151.9C340.562 149.023 342.894 146.691 345.77 146.691H404.894C407.771 146.691 410.102 149.023 410.102 151.9V152.364C410.102 155.241 407.77 157.573 404.894 157.573Z" fill="#B4D7DC"/>
<path d="M404.894 176.156H345.77C342.893 176.156 340.562 173.824 340.562 170.948V170.484C340.562 167.607 342.894 165.275 345.77 165.275H404.894C407.771 165.275 410.102 167.607 410.102 170.484V170.948C410.102 173.824 407.77 176.156 404.894 176.156Z" fill="#B4D7DC"/>
<path d="M404.894 194.74H345.77C342.893 194.74 340.562 192.408 340.562 189.532V189.068C340.562 186.192 342.894 183.86 345.77 183.86H404.894C407.771 183.86 410.102 186.192 410.102 189.068V189.532C410.102 192.408 407.77 194.74 404.894 194.74Z" fill="#B4D7DC"/>
<path d="M404.894 213.323H345.77C342.893 213.323 340.562 210.991 340.562 208.114V207.65C340.562 204.773 342.894 202.441 345.77 202.441H404.894C407.771 202.441 410.102 204.773 410.102 207.65V208.114C410.102 210.991 407.77 213.323 404.894 213.323Z" fill="#B4D7DC"/>
<path d="M410.102 115.884L375.332 128.053L340.561 115.884V77.636H410.102V115.884Z" fill="#FFE65A"/>
<path d="M400.069 244.528H350.596C345.055 244.528 340.562 240.036 340.562 234.494V233.6C340.562 228.059 345.054 223.566 350.596 223.566H400.069C405.611 223.566 410.103 228.058 410.103 233.6V234.495C410.102 240.036 405.61 244.528 400.069 244.528Z" fill="url(#paint6_linear_110_2009)"/>
<path d="M373.846 119.231V115.575C371.506 115.502 369.41 115.039 367.558 114.186V108.738L371.177 108.482V110.603C371.177 110.944 371.226 111.2 371.324 111.37C371.421 111.517 371.677 111.663 372.091 111.809C372.506 111.955 373.091 112.028 373.846 112.028V105.192C371.945 104.656 370.568 104.058 369.715 103.4C368.862 102.742 368.265 102.036 367.924 101.28C367.607 100.524 367.448 99.6348 367.448 98.6111C367.448 96.8075 368.021 95.3208 369.167 94.1508C370.336 92.9566 371.896 92.2254 373.846 91.9573V88.5938H376.588V91.8842C378.636 92.006 380.524 92.4691 382.255 93.2734V98.4283L378.672 98.6477V96.6735C378.672 96.3322 378.623 96.0885 378.526 95.9423C378.428 95.7717 378.172 95.6254 377.758 95.5036C377.368 95.3817 376.978 95.3086 376.588 95.2842V101.719H376.625C378.477 102.279 379.964 102.986 381.085 103.839C382.499 104.863 383.205 106.386 383.205 108.409C383.205 110.432 382.596 112.041 381.377 113.235C380.183 114.429 378.587 115.173 376.588 115.465V119.231H373.846ZM378.672 108.738C378.672 107.519 377.977 106.63 376.588 106.069V111.773C377.977 111.334 378.672 110.322 378.672 108.738ZM373.846 95.5036C372.579 95.9423 371.945 96.7831 371.945 98.0262C371.945 99.2692 372.579 100.183 373.846 100.768V95.5036Z" fill="url(#paint7_linear_110_2009)"/>
<path d="M327.05 77.636L365.855 59.522" stroke="#C8E6EB" stroke-width="1.0446" stroke-miterlimit="10" stroke-linecap="round"/>
<path d="M358.227 43.7C358.227 52.209 365.125 59.108 373.635 59.108C382.144 59.108 389.043 52.21 389.043 43.7C389.043 35.19 382.145 28.292 373.635 28.292V0" stroke="#87AFB9" stroke-width="4.1783" stroke-miterlimit="10"/>
<path d="M373.635 56.4L423.614 77.636" stroke="#C8E6EB" stroke-width="1.0446" stroke-miterlimit="10" stroke-linecap="round"/>
<path d="M377.421 5.673H369.848V26.303H377.421V5.673Z" fill="#FF8C46"/>
<path d="M340.984 447.646C356.733 447.646 369.5 446.455 369.5 444.985C369.5 443.515 356.733 442.324 340.984 442.324C325.235 442.324 312.468 443.515 312.468 444.985C312.468 446.455 325.235 447.646 340.984 447.646Z" fill="#E4F2F6"/>
<path d="M297.987 403.647C298.14 411.52 304.558 417.858 312.467 417.858C320.376 417.858 326.795 411.52 326.947 403.647H297.987Z" fill="#FFDA5E"/>
<path d="M299.213 405.005L312.468 375.26L325.722 405.005" stroke="#FFDA5E" stroke-width="1.2343" stroke-miterlimit="10" stroke-linejoin="round"/>
<path d="M354.219 403.647C354.371 411.52 360.79 417.858 368.699 417.858C376.608 417.858 383.027 411.52 383.179 403.647H354.219Z" fill="#FFDA5E"/>
<path d="M355.444 405.005L368.699 375.26L381.954 405.005" stroke="#FFDA5E" stroke-width="1.2343" stroke-miterlimit="10" stroke-linejoin="round"/>
<path d="M346.517 365.342H334.65V386.832H346.517V365.342Z" fill="#FFDA5E"/>
<path d="M343.377 363.338C343.377 364.881 342.126 366.132 340.583 366.132C339.04 366.132 337.789 364.881 337.789 363.338C337.789 361.795 339.04 360.544 340.583 360.544C342.126 360.544 343.377 361.795 343.377 363.338Z" fill="#FFDA5E"/>
<path d="M343.377 386.832H337.79V436.723H343.377V386.832Z" fill="#FFDA5E"/>
<path d="M357.681 436.724H323.485V441.949H357.681V436.724Z" fill="#FFDA5E"/>
<path d="M361.081 441.727H320.086V444.985H361.081V441.727Z" fill="#FFDA5E"/>
<path d="M373.734 375.802H362.675L359.381 369.132H321.785L318.491 375.802H307.433" stroke="#FFDA5E" stroke-width="3.2341" stroke-miterlimit="10"/>
<path d="M129.989 423.865H272.759" stroke="#73C8F0" stroke-miterlimit="10"/>
<path d="M142.591 394.864C148.114 394.864 152.591 390.387 152.591 384.864C152.591 379.341 148.114 374.864 142.591 374.864C137.068 374.864 132.591 379.341 132.591 384.864C132.591 390.387 137.068 394.864 142.591 394.864Z" fill="#FFD23C"/>
<path d="M142.591 378.773C146.72 378.773 150.12 381.868 150.614 385.864C150.655 385.536 150.682 385.203 150.682 384.864C150.682 380.395 147.059 376.773 142.591 376.773C138.122 376.773 134.5 380.395 134.5 384.864C134.5 385.203 134.527 385.536 134.568 385.864C135.062 381.868 138.462 378.773 142.591 378.773Z" fill="url(#paint8_linear_110_2009)"/>
<path d="M142.351 390.99V389.79C141.583 389.766 140.895 389.614 140.287 389.334V387.546L141.475 387.462V388.158C141.475 388.27 141.491 388.354 141.523 388.41C141.555 388.458 141.639 388.506 141.775 388.554C141.911 388.602 142.103 388.626 142.351 388.626V386.382C141.727 386.206 141.275 386.01 140.995 385.794C140.715 385.578 140.519 385.346 140.407 385.098C140.303 384.85 140.251 384.558 140.251 384.222C140.251 383.63 140.439 383.142 140.815 382.758C141.199 382.366 141.711 382.126 142.351 382.038V380.934H143.251V382.014C143.923 382.054 144.543 382.206 145.111 382.47V384.162L143.935 384.234V383.586C143.935 383.474 143.919 383.394 143.887 383.346C143.855 383.29 143.771 383.242 143.635 383.202C143.507 383.162 143.379 383.138 143.251 383.13V385.242H143.263C143.871 385.426 144.359 385.658 144.727 385.938C145.191 386.274 145.423 386.774 145.423 387.438C145.423 388.102 145.223 388.63 144.823 389.022C144.431 389.414 143.907 389.658 143.251 389.754V390.99H142.351ZM143.935 387.546C143.935 387.146 143.707 386.854 143.251 386.67V388.542C143.707 388.398 143.935 388.066 143.935 387.546ZM142.351 383.202C141.935 383.346 141.727 383.622 141.727 384.03C141.727 384.438 141.935 384.738 142.351 384.93V383.202Z" fill="#FFE796"/>
<path d="M142.591 376.864C147.002 376.864 150.591 380.453 150.591 384.864C150.591 389.275 147.002 392.864 142.591 392.864C138.18 392.864 134.591 389.275 134.591 384.864C134.591 380.453 138.18 376.864 142.591 376.864ZM142.591 374.864C137.068 374.864 132.591 379.341 132.591 384.864C132.591 390.387 137.068 394.864 142.591 394.864C148.114 394.864 152.591 390.387 152.591 384.864C152.591 379.341 148.114 374.864 142.591 374.864Z" fill="#FFE796"/>
<path d="M142.591 394.864V424.328" stroke="#73C8F0" stroke-miterlimit="10"/>
<path d="M148.914 407.549C146.83 409.633 142.824 409.005 142.824 409.005C142.824 409.005 142.196 404.998 144.279 402.915C146.363 400.831 150.369 401.459 150.369 401.459C150.369 401.459 150.998 405.466 148.914 407.549Z" stroke="#73C8F0" stroke-miterlimit="10"/>
<path d="M148.914 418.549C146.83 420.633 142.824 420.005 142.824 420.005C142.824 420.005 142.196 415.998 144.279 413.915C146.363 411.831 150.369 412.459 150.369 412.459C150.369 412.459 150.998 416.466 148.914 418.549Z" stroke="#73C8F0" stroke-miterlimit="10"/>
<path d="M136.268 407.549C138.352 409.633 142.358 409.005 142.358 409.005C142.358 409.005 142.986 404.998 140.902 402.915C138.818 400.831 134.812 401.459 134.812 401.459C134.812 401.459 134.184 405.466 136.268 407.549Z" stroke="#73C8F0" stroke-miterlimit="10"/>
<path d="M169.941 385.4C175.464 385.4 179.941 380.923 179.941 375.4C179.941 369.877 175.464 365.4 169.941 365.4C164.418 365.4 159.941 369.877 159.941 375.4C159.941 380.923 164.418 385.4 169.941 385.4Z" fill="#FFD23C"/>
<path d="M169.941 369.309C174.07 369.309 177.47 372.404 177.964 376.4C178.005 376.072 178.032 375.739 178.032 375.4C178.032 370.931 174.41 367.309 169.941 367.309C165.473 367.309 161.85 370.931 161.85 375.4C161.85 375.739 161.878 376.072 161.918 376.4C162.412 372.405 165.812 369.309 169.941 369.309Z" fill="url(#paint9_linear_110_2009)"/>
<path d="M169.702 381.526V380.326C168.934 380.302 168.246 380.15 167.638 379.87V378.082L168.826 377.998V378.694C168.826 378.806 168.842 378.89 168.874 378.946C168.906 378.994 168.99 379.042 169.126 379.09C169.262 379.138 169.454 379.162 169.702 379.162V376.918C169.078 376.742 168.626 376.546 168.346 376.33C168.066 376.114 167.87 375.882 167.758 375.634C167.654 375.386 167.602 375.094 167.602 374.758C167.602 374.166 167.79 373.678 168.166 373.294C168.55 372.902 169.062 372.662 169.702 372.574V371.47H170.602V372.55C171.274 372.59 171.894 372.742 172.462 373.006V374.698L171.286 374.77V374.122C171.286 374.01 171.27 373.93 171.238 373.882C171.206 373.826 171.122 373.778 170.986 373.738C170.858 373.698 170.73 373.674 170.602 373.666V375.778H170.614C171.222 375.962 171.71 376.194 172.078 376.474C172.542 376.81 172.774 377.31 172.774 377.974C172.774 378.638 172.574 379.166 172.174 379.558C171.782 379.95 171.258 380.194 170.602 380.29V381.526H169.702ZM171.286 378.082C171.286 377.682 171.058 377.39 170.602 377.206V379.078C171.058 378.934 171.286 378.602 171.286 378.082ZM169.702 373.738C169.286 373.882 169.078 374.158 169.078 374.566C169.078 374.974 169.286 375.274 169.702 375.466V373.738Z" fill="#FFE796"/>
<path d="M169.941 367.4C174.352 367.4 177.941 370.989 177.941 375.4C177.941 379.811 174.352 383.4 169.941 383.4C165.53 383.4 161.941 379.811 161.941 375.4C161.941 370.989 165.53 367.4 169.941 367.4ZM169.941 365.4C164.418 365.4 159.941 369.877 159.941 375.4C159.941 380.923 164.418 385.4 169.941 385.4C175.464 385.4 179.941 380.923 179.941 375.4C179.941 369.877 175.464 365.4 169.941 365.4Z" fill="#FFE796"/>
<path d="M169.941 385.4V423.865" stroke="#73C8F0" stroke-miterlimit="10"/>
<path d="M176.265 398.086C174.181 400.17 170.175 399.542 170.175 399.542C170.175 399.542 169.547 395.535 171.63 393.452C173.714 391.368 177.72 391.996 177.72 391.996C177.72 391.996 178.348 396.002 176.265 398.086Z" stroke="#73C8F0" stroke-miterlimit="10"/>
<path d="M176.265 409.086C174.181 411.17 170.175 410.542 170.175 410.542C170.175 410.542 169.547 406.535 171.63 404.452C173.714 402.368 177.72 402.996 177.72 402.996C177.72 402.996 178.348 407.002 176.265 409.086Z" stroke="#73C8F0" stroke-miterlimit="10"/>
<path d="M163.618 398.086C165.702 400.17 169.708 399.542 169.708 399.542C169.708 399.542 170.336 395.535 168.252 393.452C166.168 391.368 162.162 391.996 162.162 391.996C162.162 391.996 161.535 396.002 163.618 398.086Z" stroke="#73C8F0" stroke-miterlimit="10"/>
<path d="M198.171 394.898C203.694 394.898 208.171 390.421 208.171 384.898C208.171 379.375 203.694 374.898 198.171 374.898C192.648 374.898 188.171 379.375 188.171 384.898C188.171 390.421 192.648 394.898 198.171 394.898Z" fill="#FFD23C"/>
<path d="M198.171 378.807C202.3 378.807 205.7 381.902 206.194 385.898C206.235 385.57 206.262 385.237 206.262 384.898C206.262 380.43 202.64 376.807 198.171 376.807C193.703 376.807 190.08 380.429 190.08 384.898C190.08 385.237 190.108 385.57 190.148 385.898C190.642 381.902 194.042 378.807 198.171 378.807Z" fill="url(#paint10_linear_110_2009)"/>
<path d="M197.932 391.024V389.824C197.164 389.8 196.476 389.648 195.868 389.368V387.58L197.056 387.496V388.192C197.056 388.304 197.072 388.388 197.104 388.444C197.136 388.492 197.22 388.54 197.356 388.588C197.492 388.636 197.684 388.66 197.932 388.66V386.416C197.308 386.24 196.856 386.044 196.576 385.828C196.296 385.612 196.1 385.38 195.988 385.132C195.884 384.884 195.832 384.592 195.832 384.256C195.832 383.664 196.02 383.176 196.396 382.792C196.78 382.4 197.292 382.16 197.932 382.072V380.968H198.832V382.048C199.504 382.088 200.124 382.24 200.692 382.504V384.196L199.516 384.268V383.62C199.516 383.508 199.5 383.428 199.468 383.38C199.436 383.324 199.352 383.276 199.216 383.236C199.088 383.196 198.96 383.172 198.832 383.164V385.276H198.844C199.452 385.46 199.94 385.692 200.308 385.972C200.772 386.308 201.004 386.808 201.004 387.472C201.004 388.136 200.804 388.664 200.404 389.056C200.012 389.448 199.488 389.692 198.832 389.788V391.024H197.932ZM199.516 387.58C199.516 387.18 199.288 386.888 198.832 386.704V388.576C199.288 388.432 199.516 388.1 199.516 387.58ZM197.932 383.236C197.516 383.38 197.308 383.656 197.308 384.064C197.308 384.472 197.516 384.772 197.932 384.964V383.236Z" fill="#FFE796"/>
<path d="M198.171 376.898C202.582 376.898 206.171 380.487 206.171 384.898C206.171 389.309 202.582 392.898 198.171 392.898C193.76 392.898 190.171 389.309 190.171 384.898C190.171 380.487 193.76 376.898 198.171 376.898ZM198.171 374.898C192.648 374.898 188.171 379.375 188.171 384.898C188.171 390.421 192.648 394.898 198.171 394.898C203.694 394.898 208.171 390.421 208.171 384.898C208.171 379.375 203.694 374.898 198.171 374.898Z" fill="#FFE796"/>
<path d="M198.171 394.898V424.362" stroke="#73C8F0" stroke-miterlimit="10"/>
<path d="M204.495 407.583C202.411 409.667 198.405 409.039 198.405 409.039C198.405 409.039 197.777 405.032 199.861 402.949C201.945 400.865 205.951 401.494 205.951 401.494C205.951 401.494 206.578 405.5 204.495 407.583Z" stroke="#73C8F0" stroke-miterlimit="10"/>
<path d="M204.495 418.583C202.411 420.667 198.405 420.039 198.405 420.039C198.405 420.039 197.777 416.032 199.861 413.949C201.945 411.865 205.951 412.494 205.951 412.494C205.951 412.494 206.578 416.5 204.495 418.583Z" stroke="#73C8F0" stroke-miterlimit="10"/>
<path d="M191.848 407.583C193.932 409.667 197.938 409.039 197.938 409.039C197.938 409.039 198.566 405.032 196.482 402.949C194.398 400.865 190.392 401.494 190.392 401.494C190.392 401.494 189.765 405.5 191.848 407.583Z" stroke="#73C8F0" stroke-miterlimit="10"/>
<path d="M226.786 391.036C232.309 391.036 236.786 386.559 236.786 381.036C236.786 375.513 232.309 371.036 226.786 371.036C221.263 371.036 216.786 375.513 216.786 381.036C216.786 386.559 221.263 391.036 226.786 391.036Z" fill="#FFD23C"/>
<path d="M226.786 374.945C230.915 374.945 234.315 378.04 234.809 382.036C234.85 381.708 234.877 381.375 234.877 381.036C234.877 376.567 231.255 372.945 226.786 372.945C222.318 372.945 218.695 376.567 218.695 381.036C218.695 381.375 218.722 381.708 218.763 382.036C219.257 378.04 222.657 374.945 226.786 374.945Z" fill="url(#paint11_linear_110_2009)"/>
<path d="M226.546 387.162V385.962C225.778 385.938 225.09 385.786 224.482 385.506V383.718L225.67 383.634V384.33C225.67 384.442 225.686 384.526 225.718 384.582C225.75 384.63 225.834 384.678 225.97 384.726C226.106 384.774 226.298 384.798 226.546 384.798V382.554C225.922 382.378 225.47 382.182 225.19 381.966C224.91 381.75 224.714 381.518 224.602 381.27C224.498 381.022 224.446 380.73 224.446 380.394C224.446 379.802 224.634 379.314 225.01 378.93C225.394 378.538 225.906 378.298 226.546 378.21V377.106H227.446V378.186C228.118 378.226 228.738 378.378 229.306 378.642V380.334L228.13 380.406V379.758C228.13 379.646 228.114 379.566 228.082 379.518C228.05 379.462 227.966 379.414 227.83 379.374C227.702 379.334 227.574 379.31 227.446 379.302V381.414H227.458C228.066 381.598 228.554 381.83 228.922 382.11C229.386 382.446 229.618 382.946 229.618 383.61C229.618 384.274 229.418 384.802 229.018 385.194C228.626 385.586 228.102 385.83 227.446 385.926V387.162H226.546ZM228.13 383.718C228.13 383.318 227.902 383.026 227.446 382.842V384.714C227.902 384.57 228.13 384.238 228.13 383.718ZM226.546 379.374C226.13 379.518 225.922 379.794 225.922 380.202C225.922 380.61 226.13 380.91 226.546 381.102V379.374Z" fill="#FFE796"/>
<path d="M226.786 373.036C231.197 373.036 234.786 376.625 234.786 381.036C234.786 385.447 231.197 389.036 226.786 389.036C222.375 389.036 218.786 385.447 218.786 381.036C218.786 376.625 222.375 373.036 226.786 373.036ZM226.786 371.036C221.263 371.036 216.786 375.513 216.786 381.036C216.786 386.559 221.263 391.036 226.786 391.036C232.309 391.036 236.786 386.559 236.786 381.036C236.786 375.513 232.309 371.036 226.786 371.036Z" fill="#FFE796"/>
<path d="M226.786 391.036V423.865" stroke="#73C8F0" stroke-miterlimit="10"/>
<path d="M233.109 403.721C231.025 405.805 227.019 405.177 227.019 405.177C227.019 405.177 226.391 401.17 228.474 399.087C230.558 397.003 234.564 397.631 234.564 397.631C234.564 397.631 235.193 401.638 233.109 403.721Z" stroke="#73C8F0" stroke-miterlimit="10"/>
<path d="M233.109 414.721C231.025 416.805 227.019 416.177 227.019 416.177C227.019 416.177 226.391 412.17 228.474 410.087C230.558 408.003 234.564 408.631 234.564 408.631C234.564 408.631 235.193 412.638 233.109 414.721Z" stroke="#73C8F0" stroke-miterlimit="10"/>
<path d="M220.463 403.721C222.547 405.805 226.553 405.177 226.553 405.177C226.553 405.177 227.181 401.17 225.098 399.087C223.014 397.003 219.008 397.631 219.008 397.631C219.008 397.631 218.379 401.638 220.463 403.721Z" stroke="#73C8F0" stroke-miterlimit="10"/>
<path d="M277.767 423.865H293.123" stroke="#73C8F0" stroke-miterlimit="10"/>
<path d="M355.886 232.636C355.852 232.348 355.714 232.125 355.472 231.966C355.229 231.807 354.932 231.727 354.58 231.727C354.322 231.727 354.097 231.769 353.903 231.852C353.712 231.936 353.563 232.05 353.455 232.196C353.348 232.342 353.295 232.508 353.295 232.693C353.295 232.848 353.332 232.982 353.406 233.094C353.482 233.204 353.579 233.295 353.696 233.369C353.813 233.441 353.937 233.501 354.065 233.548C354.194 233.594 354.312 233.631 354.42 233.659L355.011 233.818C355.163 233.858 355.331 233.913 355.517 233.983C355.705 234.053 355.884 234.149 356.054 234.27C356.226 234.389 356.368 234.543 356.48 234.73C356.592 234.918 356.648 235.148 356.648 235.42C356.648 235.735 356.565 236.019 356.401 236.273C356.238 236.527 355.999 236.728 355.685 236.878C355.372 237.027 354.992 237.102 354.545 237.102C354.129 237.102 353.768 237.035 353.463 236.901C353.16 236.766 352.921 236.579 352.747 236.338C352.575 236.098 352.477 235.818 352.455 235.5H353.182C353.201 235.72 353.275 235.902 353.403 236.045C353.534 236.187 353.699 236.294 353.898 236.364C354.098 236.432 354.314 236.466 354.545 236.466C354.814 236.466 355.056 236.422 355.27 236.335C355.484 236.246 355.653 236.123 355.778 235.966C355.903 235.807 355.966 235.621 355.966 235.409C355.966 235.216 355.912 235.059 355.804 234.938C355.696 234.816 355.554 234.718 355.378 234.642C355.202 234.566 355.011 234.5 354.807 234.443L354.091 234.239C353.636 234.108 353.277 233.921 353.011 233.679C352.746 233.437 352.614 233.119 352.614 232.727C352.614 232.402 352.702 232.117 352.878 231.875C353.056 231.631 353.295 231.441 353.594 231.307C353.895 231.17 354.231 231.102 354.602 231.102C354.977 231.102 355.311 231.17 355.602 231.304C355.894 231.437 356.125 231.618 356.295 231.849C356.468 232.08 356.559 232.343 356.568 232.636H355.886ZM361.624 231.182H362.329V235.034C362.329 235.432 362.235 235.787 362.048 236.099C361.862 236.41 361.6 236.655 361.261 236.835C360.922 237.013 360.524 237.102 360.067 237.102C359.611 237.102 359.213 237.013 358.874 236.835C358.535 236.655 358.272 236.41 358.085 236.099C357.899 235.787 357.806 235.432 357.806 235.034V231.182H358.511V234.977C358.511 235.261 358.573 235.514 358.698 235.736C358.823 235.955 359.001 236.129 359.232 236.256C359.465 236.381 359.744 236.443 360.067 236.443C360.391 236.443 360.67 236.381 360.903 236.256C361.136 236.129 361.314 235.955 361.437 235.736C361.562 235.514 361.624 235.261 361.624 234.977V231.182ZM363.736 237V231.182H365.77C366.175 231.182 366.509 231.252 366.773 231.392C367.036 231.53 367.232 231.717 367.361 231.952C367.49 232.185 367.554 232.443 367.554 232.727C367.554 232.977 367.509 233.184 367.42 233.347C367.333 233.509 367.218 233.638 367.074 233.733C366.932 233.828 366.777 233.898 366.611 233.943V234C366.789 234.011 366.968 234.074 367.148 234.188C367.328 234.301 367.478 234.464 367.599 234.676C367.721 234.888 367.781 235.148 367.781 235.455C367.781 235.746 367.715 236.009 367.582 236.241C367.45 236.474 367.241 236.659 366.955 236.795C366.669 236.932 366.296 237 365.838 237H363.736ZM364.44 236.375H365.838C366.298 236.375 366.625 236.286 366.818 236.108C367.013 235.928 367.111 235.71 367.111 235.455C367.111 235.258 367.061 235.076 366.96 234.909C366.86 234.741 366.717 234.606 366.531 234.506C366.346 234.403 366.126 234.352 365.872 234.352H364.44V236.375ZM364.44 233.739H365.747C365.959 233.739 366.151 233.697 366.321 233.614C366.493 233.53 366.63 233.413 366.73 233.261C366.832 233.11 366.884 232.932 366.884 232.727C366.884 232.472 366.795 232.255 366.616 232.077C366.438 231.897 366.156 231.807 365.77 231.807H364.44V233.739ZM372.121 232.636C372.087 232.348 371.948 232.125 371.706 231.966C371.464 231.807 371.166 231.727 370.814 231.727C370.556 231.727 370.331 231.769 370.138 231.852C369.946 231.936 369.797 232.05 369.689 232.196C369.583 232.342 369.53 232.508 369.53 232.693C369.53 232.848 369.567 232.982 369.641 233.094C369.716 233.204 369.813 233.295 369.93 233.369C370.048 233.441 370.171 233.501 370.3 233.548C370.429 233.594 370.547 233.631 370.655 233.659L371.246 233.818C371.397 233.858 371.566 233.913 371.751 233.983C371.939 234.053 372.118 234.149 372.288 234.27C372.461 234.389 372.603 234.543 372.714 234.73C372.826 234.918 372.882 235.148 372.882 235.42C372.882 235.735 372.8 236.019 372.635 236.273C372.472 236.527 372.233 236.728 371.919 236.878C371.607 237.027 371.227 237.102 370.78 237.102C370.363 237.102 370.002 237.035 369.697 236.901C369.394 236.766 369.156 236.579 368.982 236.338C368.809 236.098 368.712 235.818 368.689 235.5H369.416C369.435 235.72 369.509 235.902 369.638 236.045C369.768 236.187 369.933 236.294 370.132 236.364C370.333 236.432 370.549 236.466 370.78 236.466C371.049 236.466 371.29 236.422 371.504 236.335C371.718 236.246 371.888 236.123 372.013 235.966C372.138 235.807 372.2 235.621 372.2 235.409C372.2 235.216 372.146 235.059 372.038 234.938C371.93 234.816 371.788 234.718 371.612 234.642C371.436 234.566 371.246 234.5 371.041 234.443L370.325 234.239C369.871 234.108 369.511 233.921 369.246 233.679C368.981 233.437 368.848 233.119 368.848 232.727C368.848 232.402 368.936 232.117 369.112 231.875C369.29 231.631 369.529 231.441 369.828 231.307C370.129 231.17 370.465 231.102 370.837 231.102C371.212 231.102 371.545 231.17 371.837 231.304C372.128 231.437 372.359 231.618 372.53 231.849C372.702 232.08 372.793 232.343 372.803 232.636H372.121ZM378.722 233H378.018C377.976 232.797 377.903 232.619 377.799 232.466C377.697 232.312 377.572 232.184 377.424 232.08C377.278 231.973 377.116 231.894 376.938 231.841C376.76 231.788 376.575 231.761 376.381 231.761C376.029 231.761 375.71 231.85 375.424 232.028C375.14 232.206 374.914 232.469 374.745 232.815C374.578 233.162 374.495 233.587 374.495 234.091C374.495 234.595 374.578 235.02 374.745 235.366C374.914 235.713 375.14 235.975 375.424 236.153C375.71 236.331 376.029 236.42 376.381 236.42C376.575 236.42 376.76 236.394 376.938 236.341C377.116 236.288 377.278 236.209 377.424 236.105C377.572 235.999 377.697 235.869 377.799 235.716C377.903 235.561 377.976 235.383 378.018 235.182H378.722C378.669 235.479 378.573 235.745 378.433 235.98C378.292 236.215 378.118 236.415 377.91 236.58C377.701 236.742 377.468 236.866 377.208 236.952C376.951 237.037 376.675 237.08 376.381 237.08C375.885 237.08 375.444 236.958 375.058 236.716C374.671 236.473 374.367 236.129 374.146 235.682C373.924 235.235 373.813 234.705 373.813 234.091C373.813 233.477 373.924 232.947 374.146 232.5C374.367 232.053 374.671 231.708 375.058 231.466C375.444 231.223 375.885 231.102 376.381 231.102C376.675 231.102 376.951 231.145 377.208 231.23C377.468 231.315 377.701 231.44 377.91 231.605C378.118 231.768 378.292 231.967 378.433 232.202C378.573 232.435 378.669 232.701 378.722 233ZM379.861 237V231.182H381.827C382.281 231.182 382.654 231.259 382.946 231.415C383.238 231.568 383.454 231.779 383.594 232.048C383.734 232.317 383.804 232.623 383.804 232.966C383.804 233.309 383.734 233.613 383.594 233.878C383.454 234.143 383.239 234.351 382.949 234.503C382.659 234.652 382.289 234.727 381.838 234.727H380.247V234.091H381.815C382.126 234.091 382.376 234.045 382.565 233.955C382.757 233.864 382.895 233.735 382.98 233.568C383.067 233.4 383.111 233.199 383.111 232.966C383.111 232.733 383.067 232.529 382.98 232.355C382.893 232.181 382.754 232.046 382.562 231.952C382.371 231.855 382.118 231.807 381.804 231.807H380.565V237H379.861ZM382.599 234.386L384.031 237H383.213L381.804 234.386H382.599ZM385.683 231.182V237H384.978V231.182H385.683ZM387.095 237V231.182H389.129C389.535 231.182 389.869 231.252 390.132 231.392C390.395 231.53 390.591 231.717 390.72 231.952C390.849 232.185 390.913 232.443 390.913 232.727C390.913 232.977 390.869 233.184 390.78 233.347C390.693 233.509 390.577 233.638 390.433 233.733C390.291 233.828 390.137 233.898 389.97 233.943V234C390.148 234.011 390.327 234.074 390.507 234.188C390.687 234.301 390.838 234.464 390.959 234.676C391.08 234.888 391.141 235.148 391.141 235.455C391.141 235.746 391.074 236.009 390.942 236.241C390.809 236.474 390.6 236.659 390.314 236.795C390.028 236.932 389.656 237 389.197 237H387.095ZM387.8 236.375H389.197C389.658 236.375 389.984 236.286 390.178 236.108C390.373 235.928 390.47 235.71 390.47 235.455C390.47 235.258 390.42 235.076 390.32 234.909C390.219 234.741 390.076 234.606 389.891 234.506C389.705 234.403 389.485 234.352 389.232 234.352H387.8V236.375ZM387.8 233.739H389.107C389.319 233.739 389.51 233.697 389.68 233.614C389.853 233.53 389.989 233.413 390.089 233.261C390.192 233.11 390.243 232.932 390.243 232.727C390.243 232.472 390.154 232.255 389.976 232.077C389.798 231.897 389.516 231.807 389.129 231.807H387.8V233.739ZM392.298 237V231.182H395.81V231.807H393.003V233.773H395.628V234.398H393.003V236.375H395.855V237H392.298Z" fill="white"/>
<path d="M113.985 433.894C113.985 435.938 99.013 437.596 80.544 437.596C62.075 437.596 47.103 435.939 47.103 433.894C47.103 431.849 62.075 430.192 80.544 430.192C99.012 430.193 113.985 431.85 113.985 433.894Z" fill="#E4F2F6"/>
<path d="M98.681 428.059C96.764 429.354 94.53 430.337 90.752 429.808C90.264 428.265 90.316 426.332 90.752 424.12H98.1611C96.8801 425.556 97.369 427.203 98.681 428.059Z" fill="#C8E6EB"/>
<path d="M88.6782 429.439C88.9242 428.914 89.4941 428.617 90.0721 428.66C91.7041 428.781 95.2051 429.353 97.3901 427.717C98.3011 427.035 99.4872 426.842 100.608 427.035C103.953 427.612 110.01 428.82 110.832 433.894C110.832 433.894 103.775 433.769 98.6811 433.444C93.2871 433.1 88.3572 431.91 88.3572 431.91C88.3532 431.119 88.2492 430.356 88.6782 429.439Z" fill="#73C8F0"/>
<path d="M63.2732 427.945L72.1232 429.808C72.9622 428.14 72.7962 426.199 72.1232 424.12H64.7142C65.2062 425.757 65.3852 426.964 63.2732 427.945Z" fill="#C8E6EB"/>
<path d="M96.4042 343.871H70.6362C64.4932 369.636 66.5872 370.616 65.8202 384.208C65.1372 396.309 63.3352 424.953 63.3352 424.953C65.1052 427.085 70.3172 426.66 73.0012 425.317C73.0012 425.317 77.1632 396.386 77.6282 390.819C77.9292 387.216 81.5482 368.005 83.0942 359.893L84.7712 359.281C85.3302 365.196 87.2052 385.182 87.4982 390.325C88.0682 400.327 90.2012 425.533 90.2012 425.533C91.9012 426.281 98.1622 425.479 99.0872 423.927C99.0872 423.927 99.5882 399.592 99.5882 387.472C99.5882 373.857 98.3112 368.664 96.4042 343.871Z" fill="#1E87DC"/>
<path d="M73.6511 429.439C73.4051 428.914 72.8351 428.617 72.2561 428.66C70.6241 428.781 67.1241 429.353 64.9381 427.717C64.0271 427.035 62.8411 426.842 61.7201 427.035C58.3751 427.612 52.3181 428.82 51.4961 433.894C51.4961 433.894 57.9841 433.894 63.8861 433.444C68.0621 433.126 73.9701 431.91 73.9701 431.91C73.9761 431.119 74.0811 430.356 73.6511 429.439Z" fill="#73C8F0"/>
<path d="M70.3391 353.26C69.4031 352.49 68.1401 350.918 67.8681 349.737C65.8891 341.175 63.9251 330.234 63.0351 327.175C64.8641 322.06 66.4751 318.061 67.0881 314.804L59.8701 308.603C59.8701 308.603 54.9571 326.843 54.9051 326.874C53.6651 334.936 63.9911 352.233 63.9911 352.233L63.1361 357.01C63.1181 357.111 63.1321 357.211 63.1271 357.312C62.7341 358.297 61.3271 361.898 61.6941 362.089C62.0431 362.271 63.0761 360.66 63.9491 359.15C64.0231 359.21 64.0831 359.283 64.1671 359.333C64.1991 359.353 64.2381 359.373 64.2721 359.393C64.0551 360.576 63.3981 364.387 63.9101 364.535C64.5101 364.708 65.4751 362.112 66.0721 360.292C66.2171 360.351 66.3701 360.406 66.5221 360.461C66.4331 361.384 66.0531 365.657 66.6071 365.762C67.2621 365.886 68.0391 362.826 68.4491 360.967C68.5941 360.989 68.7431 361 68.8901 361.015C69.0211 362.373 69.3871 365.619 69.8861 365.639C70.8401 365.676 71.0791 359.214 71.0791 359.214C71.1501 358.772 71.1971 358.318 71.2241 357.933C71.2541 357.506 71.7221 357.27 72.0941 357.481C72.7951 357.879 74.9731 359.011 75.7891 358.502C76.5631 358.021 72.6311 355.145 70.3391 353.26Z" fill="#FFC8B4"/>
<path d="M112.442 299.253C106.43 302.051 100.968 301.734 96.8932 298.986C96.8932 298.95 96.8942 298.906 96.8932 298.872C93.3312 296.992 88.9502 294.903 88.9502 294.903L79.5282 292.633C79.5282 292.633 72.1922 294.388 67.4852 295.993C67.4812 295.981 67.4772 295.971 67.4732 295.959C66.6532 296.264 65.9282 296.579 65.3892 296.901C60.7922 299.647 56.8042 318.43 56.8042 318.43C58.7312 322.002 62.4932 324.335 65.3922 324.001C66.2572 320.847 66.5742 319.119 67.4712 315.698C66.0362 329.049 67.5342 348.281 67.5342 348.281C84.0552 353.293 97.8332 349.582 97.8332 349.582C97.8332 349.582 95.9232 337.868 95.6732 333.724C95.3272 327.962 94.9852 323.191 95.0462 321.32C95.0212 321.476 95.4802 317.008 95.9462 311.952C95.9672 311.966 95.9912 311.982 96.0122 311.995C99.9432 314.017 106.487 313.412 113.12 310.545C114.798 307.371 113.734 302.214 112.442 299.253Z" fill="#97F4EC"/>
<path d="M73.795 279.553C74.496 286.307 78.998 289.167 84.868 289.167C90.738 289.167 93.247 283.339 93.247 276.549C93.247 269.759 91.073 265.803 84.265 265.81C75.562 265.818 73.075 272.616 73.795 279.553Z" fill="#32285F"/>
<path d="M75.5662 278.989C75.5662 281.047 77.2622 283.335 78.0042 285.18C79.4682 288.818 82.1362 291.569 85.0582 291.569C87.0272 291.569 88.9562 290.24 90.4862 288.224C92.3772 285.732 92.5502 282.074 92.5502 278.693C92.5502 272.575 90.3812 268.464 84.9482 268.464C80.5442 268.463 75.5662 271.185 75.5662 278.989Z" fill="#FFC8B4"/>
<path d="M78.852 297.044C82.01 298.879 85.949 299.186 88.269 297.912C88.863 297.586 89.151 296.906 89.074 296.233C88.739 293.324 88.802 290.16 89.205 286.778L79.85 286.085C79.506 289.317 79.047 291.619 77.863 293.858C77.262 294.993 77.741 296.398 78.852 297.044Z" fill="#FFC8B4"/>
<path d="M88.8711 292.246C87.9521 292.83 86.9771 293.162 85.9931 293.162C83.4551 293.162 81.1211 291.073 79.5891 288.143C79.5911 288.127 79.5941 288.111 79.5961 288.095C81.0711 290.181 82.9971 291.568 85.0591 291.568C86.4121 291.568 87.7431 290.93 88.9411 289.883C88.8951 290.686 88.8711 291.473 88.8711 292.246Z" fill="#F5876E"/>
<path d="M75.1802 281.058H77.8902C78.5592 281.058 79.1012 280.516 79.1012 279.847V274.382H75.1802V281.058Z" fill="#32285F"/>
<path d="M75.217 281.465C75.375 283.153 76.185 284.364 77.019 284.286C77.853 284.208 78.203 282.824 78.045 281.137C77.887 279.449 77.082 278.145 76.248 278.223C75.414 278.301 75.059 279.778 75.217 281.465Z" fill="#FFC8B4"/>
<path d="M75.8892 277.027H88.5862C90.5352 277.027 92.1152 275.447 92.1152 273.498V271.092C92.1152 269.439 90.7752 268.1 89.1232 268.1H78.6202C77.1122 268.1 75.8892 269.323 75.8892 270.831V277.027Z" fill="#32285F"/>
<path d="M133.084 274.285C132.432 272.491 129.153 270.443 129.153 270.443C129.153 270.443 129.544 263.447 128.402 263.774C127.261 264.1 126.194 269.692 126.194 269.692C126.194 269.692 125.378 269.94 124.4 273.391C123.422 276.842 125.128 279.603 125.128 279.603C124.858 282.492 122.304 286.051 120.755 289.582C119.292 292.914 113.985 299.572 113.985 299.572C113.985 299.572 113.495 299.742 112.728 299.987C113.697 302.536 114.401 306.198 113.672 309.05C115.613 308.408 117.239 307.626 118.07 306.93C124.882 301.256 129.586 289.221 130.435 280.647C130.435 280.647 133.736 276.079 133.084 274.285Z" fill="#FFC8B4"/>
<path d="M113.671 309.049C100.951 313.163 95.949 309.049 95.949 309.049V311.951C95.97 311.965 95.994 311.981 96.015 311.994C99.946 314.016 106.49 313.411 113.123 310.544C113.365 310.086 113.536 309.578 113.671 309.049Z" fill="#81E2D6"/>
<path d="M67.526 316.793L68.737 309.666L63.73 323.895C64.301 324.004 64.865 324.06 65.395 323.999C66.26 320.845 66.577 319.117 67.474 315.696C67.387 316.51 67.31 317.345 67.244 318.197L67.526 316.793Z" fill="#81E2D6"/>
<path d="M429.796 454.276C444.689 454.276 456.762 452.431 456.762 450.155C456.762 447.879 444.689 446.034 429.796 446.034C414.903 446.034 402.83 447.879 402.83 450.155C402.83 452.431 414.903 454.276 429.796 454.276Z" fill="#E4F2F6"/>
<path d="M414.093 308.948C414.093 308.948 393.241 297.866 392.188 297.445C391.135 297.024 385.113 295.826 385.113 295.826C385.113 295.826 374.859 296.067 374.745 297.582C374.664 298.66 381.267 298.502 381.267 298.502C381.267 298.502 381.632 302.134 383.106 302.766C384.58 303.398 390.38 302.432 390.38 302.432C390.38 302.432 405.71 318.109 414.219 318.098L414.093 308.948Z" fill="#FFC8B4"/>
<path d="M428.345 311.133C428.345 311.133 423.328 310.725 413.355 308.41C413.355 308.41 412.189 315.854 412.996 319.429C412.996 319.429 422.834 323.916 425.632 323.226L428.345 311.133Z" fill="#5FD2D0"/>
<path d="M421.489 444.181L430.154 446.184C431.011 444.561 430.885 442.649 430.264 440.592L422.98 440.449C423.432 442.067 423.584 443.257 421.489 444.181Z" fill="#C8E6EB"/>
<path d="M431.663 445.851C431.431 445.33 430.877 445.027 430.307 445.058C428.7 445.145 425.247 445.64 423.131 443.989C422.249 443.301 421.086 443.088 419.98 443.257C416.68 443.759 410.702 444.83 409.796 449.803C409.796 449.803 416.175 449.928 421.987 449.6C426.099 449.368 431.932 448.287 431.932 448.287C431.951 447.508 432.068 446.76 431.663 445.851Z" fill="#73C8F0"/>
<path d="M441.163 444.51L449.828 446.513C450.685 444.89 450.559 442.978 449.938 440.921L442.654 440.778C443.106 442.396 443.258 443.586 441.163 444.51Z" fill="#C8E6EB"/>
<path d="M451.337 446.18C451.105 445.659 450.55 445.356 449.981 445.387C448.374 445.474 444.921 445.969 442.805 444.318C441.923 443.63 440.76 443.417 439.654 443.586C436.354 444.088 430.376 445.159 429.47 450.132C429.47 450.132 435.849 450.257 441.661 449.929C445.773 449.697 451.605 448.616 451.605 448.616C451.625 447.837 451.742 447.089 451.337 446.18Z" fill="#73C8F0"/>
<path d="M448.389 361.401H422.557C422.758 374.18 420.551 389.99 420.879 403.374C421.171 415.288 421.843 441.454 421.843 441.454C423.748 443.403 428.822 442.572 431.346 441.043C431.346 441.043 430.744 411.5 430.757 406.007C430.762 403.906 432.516 394.469 434.395 384.949C434.449 385.487 434.503 386.035 434.56 386.608C435.737 398.468 440.62 441.493 440.62 441.493C442.664 443.295 447.663 442.089 450.066 440.376L448.389 361.401Z" fill="#3C5A73"/>
<path d="M446.174 295.329C445.676 300.215 440.679 304.783 434.48 304.783C428.28 304.783 425.631 299.052 425.631 292.374C425.631 285.696 427.927 281.807 435.117 281.814C444.307 281.823 446.871 288.501 446.174 295.329Z" fill="#32285F"/>
<path d="M444.123 290.015C443.305 282.411 437.442 282.53 430.574 283.511C426.111 284.149 424.913 288.615 424.586 293.193L424.584 293.158C424.584 293.158 423.604 296.71 422.601 298.136C422.343 298.503 422.434 299.008 422.798 299.269C423.045 299.446 423.351 299.614 423.697 299.718C424.158 299.857 424.471 300.28 424.533 300.757C424.796 302.768 425.79 307.316 429.347 307.14C431.334 307.042 438.163 304.106 441.284 301.907C442.962 300.726 444.941 297.619 444.123 290.015Z" fill="#FFC8B4"/>
<path d="M425.631 310.644C426.973 308.736 437.383 308.192 437.383 308.192C437.383 308.192 443.689 308.819 447.597 310.957C446.603 314.805 448.394 326.38 448.958 332.543C449.145 341.859 448.969 362.79 448.969 362.79C432.607 368.984 422.24 363.889 422.24 363.889C422.24 363.889 420.845 348.823 422.758 334.499C423.953 325.547 422.015 315.782 425.631 310.644Z" fill="#97F4EC"/>
<path d="M440.942 308.593C441.532 309.71 441.061 311.092 439.968 311.726C436.862 313.531 432.989 313.832 430.708 312.579C430.124 312.258 429.841 311.59 429.917 310.928C430.246 308.067 430.185 304.956 429.789 301.63L438.989 300.949C439.327 304.128 439.778 306.391 440.942 308.593Z" fill="#FFC8B4"/>
<path d="M438.944 296.205H436.279C435.621 296.205 435.088 295.672 435.088 295.014V289.64H438.944V296.205Z" fill="#32285F"/>
<path d="M442.71 290.893H428.301C424.927 290.893 422.193 288.766 422.193 286.143C422.193 283.918 424.109 281.088 426.969 281.088H436.966C439.577 281.088 442.71 283.761 442.71 285.792V290.893Z" fill="#32285F"/>
<path d="M438.161 300.216C438.161 300.216 438.344 301.309 437.801 302.394C437.801 302.394 439.817 305.496 441.756 305.108L442.439 302.161L438.161 300.216Z" fill="#32285F"/>
<path d="M437.589 289.641L438.166 301.093L442.439 302.162C442.439 302.162 447.51 292.388 444.313 287.132C441.117 281.875 437.589 289.641 437.589 289.641Z" fill="#32285F"/>
<path d="M439.102 297.572C438.947 299.232 437.812 300.391 436.582 300.276C435.353 300.161 434.775 298.778 434.931 297.119C435.086 295.46 436.209 294.208 437.438 294.323C438.668 294.437 439.257 295.912 439.102 297.572Z" fill="#FFC8B4"/>
<path d="M426.818 370.046H465.745V341.574H426.818V370.046Z" fill="#87AFB9"/>
<path d="M448.468 365.153C449.257 364.26 450.237 362.536 450.318 361.347C450.904 352.725 451.106 341.796 451.493 338.688C448.92 334.007 446.732 330.376 445.629 327.308L451.67 320.162C451.67 320.162 459.284 337.106 459.339 337.128C461.8 344.762 454.471 363.167 454.471 363.167L455.703 366.941C456.004 367.801 456.541 369.915 455.846 370.504C454.668 371.5 452.114 371.832 449.754 372.071C449.037 372.144 448.606 370.982 448.337 369.829C448.241 369.419 447.75 369.263 447.422 369.526C446.804 370.022 444.866 371.46 443.994 371.094C443.168 370.746 446.536 367.341 448.468 365.153Z" fill="#FFC8B4"/>
<path d="M444.882 323.914C444.198 318.057 443.539 315.522 447.442 310.879C447.484 310.901 447.529 310.921 447.571 310.944C447.579 310.951 447.588 310.959 447.596 310.966C446.606 314.822 448.395 326.384 448.959 332.543C448.999 334.557 449.023 337.115 449.035 339.886C447.28 338.151 444.362 329.488 444.882 323.914Z" fill="#5FD2D0"/>
<path d="M447.464 310.85C452.055 314.564 458.71 331.925 458.71 331.925C457.192 335.616 452.601 337.601 449.731 337.572C447.978 335.86 445.953 328.676 444.881 323.914C444.196 318.045 443.534 315.512 447.464 310.85Z" fill="#97F4EC"/>
</g>
<defs>
<linearGradient id="paint0_linear_110_2009" x1="250.001" y1="104.268" x2="250.001" y2="395.733" gradientUnits="userSpaceOnUse">
<stop stop-color="#091941"/>
<stop offset="1" stop-color="#0A5524"/>
</linearGradient>
<linearGradient id="paint1_linear_110_2009" x1="53.0369" y1="351.48" x2="53.0369" y2="360.527" gradientUnits="userSpaceOnUse">
<stop stop-color="#091941"/>
<stop offset="1" stop-color="#0A5524"/>
</linearGradient>
<linearGradient id="paint2_linear_110_2009" x1="124.962" y1="296.863" x2="124.962" y2="317.826" gradientUnits="userSpaceOnUse">
<stop stop-color="#091941"/>
<stop offset="1" stop-color="#0A5524"/>
</linearGradient>
<linearGradient id="paint3_linear_110_2009" x1="126.015" y1="149.202" x2="126.015" y2="199.202" gradientUnits="userSpaceOnUse">
<stop stop-color="#091941"/>
<stop offset="1" stop-color="#0A5524"/>
</linearGradient>
<linearGradient id="paint4_linear_110_2009" x1="249.824" y1="296.863" x2="249.824" y2="317.826" gradientUnits="userSpaceOnUse">
<stop stop-color="#091941"/>
<stop offset="1" stop-color="#0A5524"/>
</linearGradient>
<linearGradient id="paint5_linear_110_2009" x1="249.93" y1="149.202" x2="249.93" y2="199.202" gradientUnits="userSpaceOnUse">
<stop stop-color="#091941"/>
<stop offset="1" stop-color="#0A5524"/>
</linearGradient>
<linearGradient id="paint6_linear_110_2009" x1="375.332" y1="223.566" x2="375.332" y2="244.528" gradientUnits="userSpaceOnUse">
<stop stop-color="#091941"/>
<stop offset="1" stop-color="#0A5524"/>
</linearGradient>
<linearGradient id="paint7_linear_110_2009" x1="375.438" y1="75.9038" x2="375.438" y2="125.904" gradientUnits="userSpaceOnUse">
<stop stop-color="#091941"/>
<stop offset="1" stop-color="#0A5524"/>
</linearGradient>
<linearGradient id="paint8_linear_110_2009" x1="142.591" y1="376.773" x2="142.591" y2="385.864" gradientUnits="userSpaceOnUse">
<stop stop-color="#091941"/>
<stop offset="1" stop-color="#0A5524"/>
</linearGradient>
<linearGradient id="paint9_linear_110_2009" x1="169.941" y1="367.309" x2="169.941" y2="376.4" gradientUnits="userSpaceOnUse">
<stop stop-color="#091941"/>
<stop offset="1" stop-color="#0A5524"/>
</linearGradient>
<linearGradient id="paint10_linear_110_2009" x1="198.171" y1="376.807" x2="198.171" y2="385.898" gradientUnits="userSpaceOnUse">
<stop stop-color="#091941"/>
<stop offset="1" stop-color="#0A5524"/>
</linearGradient>
<linearGradient id="paint11_linear_110_2009" x1="226.786" y1="372.945" x2="226.786" y2="382.036" gradientUnits="userSpaceOnUse">
<stop stop-color="#091941"/>
<stop offset="1" stop-color="#0A5524"/>
</linearGradient>
<clipPath id="clip0_110_2009">
<rect width="500" height="500" fill="white"/>
</clipPath>
</defs>
</svg>
