<svg width="374" height="420" viewBox="0 0 374 420" fill="none" xmlns="http://www.w3.org/2000/svg">
<path d="M33.0201 308.86L23.8741 314.173C23.8741 314.173 28.4891 299.44 25.9281 284.619C24.9611 279.025 22.9261 276.246 22.2081 274.753C21.4901 273.26 15.9751 264.016 20.8301 259.754C25.6851 255.493 37.0751 263.969 36.5641 286.795C36.3011 298.511 33.0201 308.86 33.0201 308.86Z" fill="url(#paint0_linear_406_120)"/>
<path opacity="0.3" d="M33.0201 308.86L23.8741 314.173C23.8741 314.173 28.4891 299.44 25.9281 284.619C24.9611 279.025 22.9261 276.246 22.2081 274.753C21.4901 273.26 15.9751 264.016 20.8301 259.754C25.6851 255.493 37.0751 263.969 36.5641 286.795C36.3011 298.511 33.0201 308.86 33.0201 308.86Z" fill="black"/>
<path d="M28.7681 311.753C28.7201 311.753 28.6701 311.744 28.6221 311.727C28.4031 311.647 28.2901 311.404 28.3711 311.184C28.4051 311.09 31.8111 301.617 31.6311 286.379C31.4521 271.222 23.5501 263.202 23.4701 263.123C23.3041 262.958 23.3031 262.69 23.4681 262.525C23.6331 262.36 23.9011 262.358 24.0661 262.523C24.1491 262.604 32.2941 270.87 32.4771 286.37C32.6591 301.775 29.2001 311.381 29.1651 311.476C29.1021 311.647 28.9401 311.753 28.7681 311.753Z" fill="white"/>
<path d="M25.9261 313.011L10.8161 321.898C10.8161 321.898 3.89706 320.879 4.42106 314.366C4.94506 307.853 7.75507 306.319 4.25507 303.457C0.755068 300.596 -0.148932 300.406 0.0190683 297.601C0.186068 294.796 2.07406 293.573 2.96106 292.461C3.84906 291.349 6.32406 289.018 4.58206 285.635C2.84006 282.252 0.481064 278.985 3.98506 277.434C6.07606 276.508 9.59307 277.668 11.9251 280.143C14.2561 282.618 16.1791 284.397 18.3881 284.971C20.5971 285.546 25.2021 285.591 25.0471 289.397C24.8921 293.203 23.9041 294.517 24.8271 296.206C26.5661 299.39 33.9941 301.104 25.9261 313.011Z" fill="url(#paint1_linear_406_120)"/>
<path d="M19.7731 317.053C19.7611 317.053 19.7501 317.053 19.7381 317.052C19.5051 317.033 19.3321 316.829 19.3501 316.596C19.3681 316.374 20.9751 294.235 5.61911 279.721C5.44911 279.56 5.44211 279.293 5.60211 279.123C5.76411 278.954 6.03211 278.946 6.20011 279.106C21.8571 293.904 20.2121 316.439 20.1941 316.665C20.1761 316.885 19.9911 317.053 19.7731 317.053Z" fill="white"/>
<path d="M17.064 297.745C17.053 297.745 17.043 297.745 17.032 297.744C16.799 297.727 16.624 297.524 16.641 297.291C17.109 290.978 21.398 287.822 21.58 287.691C21.77 287.555 22.034 287.599 22.17 287.787C22.307 287.977 22.264 288.241 22.075 288.378C22.033 288.408 17.923 291.447 17.485 297.354C17.469 297.575 17.283 297.745 17.064 297.745Z" fill="white"/>
<path d="M18.179 301.589C18.064 301.589 17.949 301.542 17.865 301.45C17.828 301.409 14.024 297.346 5.38704 298.529C5.15104 298.562 4.94204 298.399 4.91004 298.168C4.87804 297.936 5.04004 297.723 5.27104 297.691C14.382 296.438 18.329 300.701 18.493 300.883C18.649 301.056 18.634 301.323 18.461 301.479C18.381 301.553 18.28 301.589 18.179 301.589Z" fill="white"/>
<path d="M370.469 350.844L219.563 263.719C214.084 260.555 207.333 260.555 201.853 263.719L148.509 294.517C144.656 296.741 144.656 302.302 148.509 304.526L299.415 391.651C304.894 394.815 311.645 394.815 317.125 391.651L370.469 360.853C374.321 358.629 374.321 353.069 370.469 350.844Z" fill="#E0E0E0"/>
<path d="M82.1181 390.844C108.661 390.844 130.179 378.42 130.179 363.096C130.179 347.771 108.661 335.348 82.1181 335.348C55.5748 335.348 34.0571 347.771 34.0571 363.096C34.0571 378.42 55.5748 390.844 82.1181 390.844Z" fill="#E0E0E0"/>
<path d="M304.274 382.391L182.562 312.121C173.974 307.163 167.013 293.862 167.013 282.412V21.7866C167.013 10.3366 173.975 5.07355 182.562 10.0316L304.274 80.3016C312.862 85.2596 319.823 98.5605 319.823 110.011V370.637C319.823 382.087 312.862 387.349 304.274 382.391Z" fill="#455A64"/>
<path d="M318.289 72.1326L196.577 1.86255C192.905 -0.257446 189.533 -0.503445 186.873 0.798555L186.87 0.800554C186.543 0.960554 186.227 1.14455 185.923 1.35155L172.287 9.27855C175.027 7.64055 178.622 7.75855 182.562 10.0326L304.274 80.3026C312.862 85.2606 319.823 98.5616 319.823 110.012V370.637C319.823 376.69 317.876 381.013 314.773 383.011L328.23 375.172L328.228 375.17C331.655 373.346 333.838 368.877 333.838 362.467V101.842C333.838 90.3916 326.877 77.0906 318.289 72.1326Z" fill="#37474F"/>
<path d="M319.823 110.012V370.637C319.823 376.69 317.876 381.013 314.773 383.011L328.23 375.172L328.228 375.17C331.655 373.346 333.838 368.877 333.838 362.467V101.842C333.838 101.835 333.838 101.828 333.838 101.821L319.822 109.959C319.822 109.977 319.823 109.994 319.823 110.012Z" fill="#263238"/>
<path d="M333.838 122.075L319.823 130.167V136.485L333.838 128.394V122.075Z" fill="#37474F"/>
<path d="M327.698 164.123C326.444 164.847 325.428 164.078 325.428 162.407V148.815C325.428 147.143 326.444 145.202 327.698 144.478C328.952 143.754 329.968 144.522 329.968 146.194V159.786C329.968 161.458 328.951 163.399 327.698 164.123Z" fill="#37474F"/>
<path d="M325.428 162.407V148.815C325.428 147.143 326.444 145.202 327.698 144.478C328.244 144.163 328.738 144.145 329.13 144.347L329.133 144.331L327.438 143.452L327.435 143.466C327.038 143.241 326.528 143.251 325.964 143.576C324.71 144.3 323.694 146.242 323.694 147.913V161.505C323.694 162.407 323.996 163.034 324.466 163.317L324.463 163.331L326.244 164.259L326.247 164.243C325.75 163.975 325.428 163.338 325.428 162.407Z" fill="#455A64"/>
<path d="M327.698 197.027C326.444 197.751 325.428 196.983 325.428 195.311V181.719C325.428 180.047 326.444 178.106 327.698 177.382C328.952 176.658 329.968 177.427 329.968 179.098V192.69C329.968 194.362 328.951 196.304 327.698 197.027Z" fill="#37474F"/>
<path d="M325.428 195.311V181.719C325.428 180.047 326.444 178.106 327.698 177.382C328.244 177.067 328.738 177.049 329.13 177.251L329.133 177.235L327.438 176.356L327.435 176.37C327.038 176.145 326.528 176.155 325.964 176.48C324.71 177.204 323.694 179.146 323.694 180.817V194.409C323.694 195.311 323.996 195.938 324.466 196.221L324.463 196.235L326.244 197.163L326.247 197.147C325.75 196.879 325.428 196.243 325.428 195.311Z" fill="#455A64"/>
<path d="M300.043 87.6306L180.425 18.5566C178.226 17.2866 175.477 18.8736 175.477 21.4126V282.411C175.477 291.126 181.653 301.823 189.2 306.18L305.911 373.563C308.333 374.961 311.361 373.213 311.361 370.417V107.234C311.36 100.046 306.267 91.2246 300.043 87.6306Z" fill="url(#paint2_linear_406_120)"/>
<path opacity="0.5" d="M300.043 87.6306L180.425 18.5566C178.226 17.2866 175.477 18.8736 175.477 21.4126V282.411C175.477 291.126 181.653 301.823 189.2 306.18L305.911 373.563C308.333 374.961 311.361 373.213 311.361 370.417V107.234C311.36 100.046 306.267 91.2246 300.043 87.6306Z" fill="white"/>
<path d="M216.192 36.5895L218.045 44.3945L257.692 67.2535L264.538 63.6045L216.192 36.5895Z" fill="#455A64"/>
<path d="M227.844 44.1305C227.844 45.4245 226.935 45.9495 225.815 45.3025C224.694 44.6555 223.786 43.0815 223.786 41.7875C223.786 40.4935 224.695 39.9685 225.815 40.6155C226.935 41.2625 227.844 42.8365 227.844 44.1305Z" fill="#263238"/>
<path d="M254.555 60.6395C254.345 60.6395 254.133 60.5875 253.937 60.4775L233.686 49.1615C233.074 48.8195 232.855 48.0465 233.197 47.4345C233.539 46.8215 234.314 46.6035 234.924 46.9455L255.174 58.2615C255.786 58.6035 256.005 59.3765 255.663 59.9885C255.432 60.4055 255 60.6395 254.555 60.6395Z" fill="#263238"/>
<path d="M283.378 126.718V400.499C283.378 405.477 281.549 408.822 278.753 409.919L278.675 409.945L278.662 409.958L266.785 416.465L266.85 405.895L268.169 121.962L280.712 115.547C282.372 119.101 283.378 123.047 283.378 126.718Z" fill="#E0E0E0"/>
<path d="M266.173 417.49L266.245 405.891L267.566 121.591L280.994 114.722L281.259 115.29C283.014 119.049 283.982 123.107 283.982 126.717V400.498C283.982 405.518 282.11 409.25 278.973 410.481L278.942 410.492L266.173 417.49ZM268.773 122.333L267.455 405.898L267.396 415.441L278.485 409.371C281.187 408.314 282.773 405.002 282.773 400.499V126.718C282.773 123.462 281.942 119.812 280.424 116.373L268.773 122.333Z" fill="#E0E0E0"/>
<path d="M280.712 115.547L268.169 121.962L133.934 43.8686L124.971 38.6556L137.357 31.6786L137.71 31.4696V31.4566C139.683 30.2676 142.27 30.3466 145.118 31.9926L272.181 105.356C275.604 107.329 278.661 111.131 280.712 115.547Z" fill="#E0E0E0"/>
<path d="M268.151 122.651L267.865 122.485L123.753 38.6476L137.397 30.9386C139.64 29.5866 142.489 29.7746 145.42 31.4686L272.482 104.832C275.883 106.792 279.083 110.604 281.26 115.292L281.506 115.82L268.151 122.651ZM126.188 38.6646L268.188 121.274L279.913 115.277C277.85 111.052 274.943 107.647 271.878 105.881L144.815 32.5166C142.372 31.1046 140.042 30.8756 138.219 31.8616L137.665 32.1986L126.188 38.6646Z" fill="#E0E0E0"/>
<path d="M271.07 133.63V407.216C271.07 411.528 269.698 414.624 267.503 416.074L266.784 416.466C264.876 417.368 262.485 417.172 259.885 415.669L198.464 380.209L169.772 363.642L132.823 342.306C126.643 338.739 121.626 329.162 121.626 320.931V47.3576C121.626 43.1896 122.906 40.1716 124.971 38.6566C125.324 38.3946 125.703 38.1726 126.108 38.0166C127.976 37.2196 130.302 37.4546 132.824 38.9046L259.887 112.268C263.18 114.163 266.132 117.769 268.171 121.963C269.972 125.634 271.07 129.775 271.07 133.63Z" fill="#FAFAFA"/>
<path d="M132.823 340.699C158.969 356.296 226.987 396.891 260.658 417.171C265.067 419.826 270.678 416.648 270.678 411.501V130.18C270.678 123.667 267.226 117.642 261.607 114.349L132.212 38.5156C127.802 35.9316 122.253 39.1116 122.253 44.2226V322.082C122.253 329.717 126.265 336.788 132.823 340.699Z" fill="#FAFAFA"/>
<path d="M132.318 341.563C153.313 354.087 174.303 366.619 195.286 379.162C207.546 386.491 219.804 393.824 232.057 401.166C237.535 404.448 243.012 407.733 248.487 411.02C250.925 412.484 253.363 413.949 255.799 415.415C258.029 416.756 260.4 418.692 263.037 419.05C267.673 419.679 271.552 416.01 271.677 411.458C271.691 410.967 271.677 410.473 271.677 409.982C271.677 407.065 271.677 404.147 271.677 401.23C271.677 389.02 271.677 376.81 271.677 364.6C271.677 346.862 271.677 329.123 271.677 311.385C271.677 291.329 271.677 271.274 271.677 251.218C271.677 232.25 271.677 213.281 271.677 194.313C271.677 179.823 271.677 165.334 271.677 150.844C271.677 144.09 271.702 137.336 271.677 130.582C271.651 123.357 268.022 116.986 261.8 113.304C258.846 111.556 255.877 109.833 252.915 108.097C238.791 99.8186 224.667 91.5416 210.543 83.2636C193.78 73.4396 177.018 63.6156 160.255 53.7916C151.181 48.4736 142.155 43.0596 133.027 37.8336C127.566 34.7076 121.304 38.4016 121.252 44.6446C121.234 46.8696 121.252 49.0956 121.252 51.3206C121.252 62.5606 121.252 73.8006 121.252 85.0406C121.252 102.302 121.252 119.564 121.252 136.825C121.252 156.803 121.252 176.782 121.252 196.76C121.252 215.966 121.252 235.172 121.252 254.378C121.252 269.332 121.252 284.286 121.252 299.24C121.252 306.601 121.242 313.963 121.252 321.324C121.264 329.646 125.16 337.164 132.318 341.563C133.418 342.239 134.423 340.51 133.327 339.836C126.536 335.663 123.252 328.631 123.252 320.844C123.252 318.097 123.252 315.35 123.252 312.603C123.252 300.839 123.252 289.074 123.252 277.31C123.252 259.922 123.252 242.535 123.252 225.147C123.252 205.42 123.252 185.694 123.252 165.967C123.252 147.186 123.252 128.406 123.252 109.625C123.252 95.0386 123.252 80.4526 123.252 65.8676C123.252 58.8626 123.215 51.8556 123.252 44.8506C123.262 43.0046 123.707 41.2336 125.195 39.9686C127.434 38.0646 130.133 38.4576 132.454 39.8176C135.792 41.7736 139.13 43.7306 142.468 45.6866C156.766 54.0656 171.063 62.4456 185.361 70.8246C201.744 80.4266 218.127 90.0276 234.511 99.6296C243.288 104.774 252.09 109.877 260.842 115.062C266.585 118.464 269.665 124.277 269.677 130.885C269.681 133.276 269.677 135.668 269.677 138.059C269.677 149.22 269.677 160.381 269.677 171.542C269.677 188.539 269.677 205.537 269.677 222.534C269.677 242.166 269.677 261.798 269.677 281.43C269.677 300.495 269.677 319.559 269.677 338.623C269.677 353.918 269.677 369.213 269.677 384.509C269.677 392.845 269.677 401.181 269.677 409.517C269.677 410.121 269.694 410.727 269.677 411.331C269.541 416.043 264.834 418.471 260.839 416.115C250.512 410.025 240.283 403.763 229.998 397.602C206.208 383.351 182.401 369.128 158.59 354.914C150.17 349.887 141.749 344.862 133.327 339.838C132.219 339.175 131.212 340.903 132.318 341.563Z" fill="#EBEBEB"/>
<path d="M139.615 79.4056C139.615 81.5336 138.121 82.3956 136.278 81.3316C134.435 80.2676 132.942 77.6806 132.942 75.5526C132.942 73.4246 134.436 72.5626 136.278 73.6266C138.121 74.6916 139.615 77.2786 139.615 79.4056Z" fill="url(#paint3_linear_406_120)"/>
<path d="M136.279 81.3325C133.554 79.7595 131.345 81.4295 131.345 85.0625V86.1895L141.212 91.8865V90.7595C141.212 87.1255 139.004 82.9055 136.279 81.3325Z" fill="url(#paint4_linear_406_120)"/>
<path d="M261.606 114.349L132.212 38.5156C127.802 35.9316 122.253 39.1116 122.253 44.2226V56.4276L122.292 56.4296L270.678 142.101V130.18C270.678 123.668 267.225 117.643 261.606 114.349Z" fill="#EBEBEB"/>
<path d="M225.956 233.281C242.246 223.875 242.246 193.377 225.955 165.161C209.664 136.945 183.251 121.696 166.961 131.102C150.67 140.508 150.67 171.006 166.961 199.222C183.252 227.438 209.665 242.687 225.956 233.281Z" fill="#455A64"/>
<path d="M177.976 160.358C177.976 160.358 175.264 161.732 177.462 168.109C179.66 174.486 174.687 177.673 173.392 175.166C173.392 175.166 173.476 179.209 178.385 179.209C183.294 179.209 184.17 175.145 184.17 175.145C184.17 175.145 185.937 177.082 185.937 182.519C185.937 187.956 180.744 208.402 198.915 208.402C217.086 208.402 216.754 192.921 216.754 192.921C216.754 192.921 221.41 193.005 221.41 186.037C221.41 186.037 214.331 190.435 214.331 180.611C214.331 170.787 215.95 158.345 208.453 158.345C208.453 158.345 211.031 153.01 205.898 149.593C200.765 146.177 185.367 150.824 185.367 150.824C185.367 150.824 180.738 148.044 177.425 151.328C173.391 155.326 177.976 160.358 177.976 160.358Z" fill="#263238"/>
<path d="M186.8 188.977L186.173 199.898L184.931 221.395L184.791 221.708C181.291 218.521 177.975 214.913 174.918 211.014C173.687 209.437 172.498 207.816 171.353 206.164C172.336 202.156 173.254 198.592 173.989 196.161C175.847 190.058 182.469 189.096 185.396 188.977C186.26 188.945 186.8 188.977 186.8 188.977Z" fill="#FFA8A7"/>
<path d="M213.752 236.021C212.521 235.967 211.246 235.816 209.95 235.578C205.716 234.8 201.189 233.083 196.469 230.36C192.418 228.027 188.497 225.099 184.792 221.707C181.292 218.52 177.976 214.912 174.919 211.013C174.779 210.019 174.768 208.906 174.941 207.664C175.74 201.842 182.297 193.956 185.3 190.596C186.218 189.581 186.802 188.976 186.802 188.976L191.793 188.846L203.017 189.462L208.181 190.877C208.192 190.877 208.213 190.888 208.224 190.888C208.84 191.072 209.272 191.612 209.315 192.26L210.222 205.45L210.6 210.873L210.006 212.979V212.99L207.683 221.189C207.165 223.047 207.51 225.035 208.644 226.59C209.044 227.141 209.497 227.789 209.962 228.524C211.203 230.447 212.607 232.986 213.752 236.021Z" fill="url(#paint5_linear_406_120)"/>
<path d="M203.016 189.46L188.707 198.727C188.146 199.09 187.457 198.499 187.73 197.889L191.789 188.842V173.964H203.015V189.46H203.016Z" fill="#FFA8A7"/>
<path d="M191.79 187.55C195.758 186.018 199.903 182.945 202.103 177.742V173.964H191.79V187.55Z" fill="#F28F8F"/>
<path d="M189.174 155.562C189.174 155.562 178.907 156.163 180.176 173.717C180.763 181.835 182.664 186.038 188.914 185.73C195.997 185.381 206.05 180.514 205.39 166.626C204.731 152.737 189.174 155.562 189.174 155.562Z" fill="#FFA8A7"/>
<path d="M203.016 173.964C203.016 173.964 200.202 174.705 200.202 170.674C200.202 170.674 187.694 169.827 184.932 157.415C184.932 157.415 186.165 153.7 193.974 153.7C201.783 153.7 208.346 160.604 206.308 170.095L203.016 173.964Z" fill="#263238"/>
<path d="M187.703 170.195V176.23L184.169 175.145L187.703 170.195Z" fill="#F28F8F"/>
<path d="M193.02 170.837C193.02 171.516 192.47 172.066 191.791 172.066C191.112 172.066 190.562 171.515 190.562 170.837C190.562 170.158 191.113 169.608 191.791 169.608C192.469 169.607 193.02 170.158 193.02 170.837Z" fill="#263238"/>
<path d="M184.933 169.979C184.933 170.658 184.383 171.209 183.703 171.209C183.024 171.209 182.474 170.658 182.474 169.979C182.474 169.3 183.024 168.75 183.703 168.75C184.382 168.75 184.933 169.3 184.933 169.979Z" fill="#263238"/>
<path d="M182.205 167.419L184.609 165.991C184.609 165.991 183.686 165.032 182.768 165.608C181.85 166.184 182.205 167.419 182.205 167.419Z" fill="#263238"/>
<path d="M188.008 178.229C188.008 178.229 190.341 178.442 191.966 177.169C191.966 177.169 192.236 179.253 190.49 179.652C188.744 180.051 188.008 178.229 188.008 178.229Z" fill="#F28F8F"/>
<path d="M202.021 174.421C201.993 173.4 202.157 172.374 202.574 171.442C203.043 170.398 203.87 169.343 205.306 169.304C208.459 169.218 208.885 172.253 208.842 173.334C208.73 176.172 206.433 179.238 202.156 179.355L202.021 174.421Z" fill="#FFA8A7"/>
<path d="M223.28 234.585C220.407 235.708 217.209 236.205 213.752 236.022C212.521 235.968 211.246 235.817 209.95 235.579L209.961 228.525L210.004 212.991V212.98C208.827 210.83 207.984 208.81 207.39 206.942C204.117 196.745 208.222 190.89 208.222 190.89C211.182 191.7 214.196 192.824 216.637 194.541C218.495 195.837 220.018 197.479 220.915 199.586C223.766 206.272 223.949 215.767 223.28 234.585Z" fill="#FFA8A7"/>
<path opacity="0.2" d="M202.306 215.097C202.306 215.097 197.545 221.3 189.835 218.529C189.835 218.529 197.673 224.198 202.306 215.097Z" fill="black"/>
<path d="M256.453 145.897C256.453 146.778 255.834 147.136 255.071 146.695C254.308 146.254 253.689 145.183 253.689 144.301C253.689 143.42 254.308 143.062 255.071 143.503C255.834 143.943 256.453 145.015 256.453 145.897Z" fill="url(#paint6_linear_406_120)"/>
<path d="M256.453 152.146C256.453 153.027 255.834 153.385 255.071 152.944C254.308 152.503 253.689 151.432 253.689 150.55C253.689 149.669 254.308 149.311 255.071 149.752C255.834 150.193 256.453 151.265 256.453 152.146Z" fill="url(#paint7_linear_406_120)"/>
<path d="M256.453 158.396C256.453 159.277 255.834 159.635 255.071 159.194C254.308 158.753 253.689 157.682 253.689 156.8C253.689 155.919 254.308 155.561 255.071 156.002C255.834 156.443 256.453 157.515 256.453 158.396Z" fill="url(#paint8_linear_406_120)"/>
<path d="M260.261 365.58C260.176 365.58 260.09 365.559 260.011 365.513L132.419 291.847C132.18 291.709 132.098 291.403 132.236 291.164C132.374 290.925 132.679 290.843 132.919 290.981L260.511 364.646C260.75 364.784 260.832 365.09 260.694 365.329C260.602 365.49 260.434 365.58 260.261 365.58Z" fill="url(#paint9_linear_406_120)"/>
<path d="M260.261 352.646C260.176 352.646 260.09 352.625 260.011 352.579L132.419 278.914C132.18 278.776 132.098 278.47 132.236 278.231C132.374 277.992 132.679 277.91 132.919 278.048L260.511 351.713C260.75 351.851 260.832 352.157 260.694 352.396C260.602 352.556 260.434 352.646 260.261 352.646Z" fill="url(#paint10_linear_406_120)"/>
<path d="M260.261 339.712C260.176 339.712 260.09 339.69 260.011 339.645L132.419 265.98C132.18 265.842 132.098 265.536 132.236 265.297C132.374 265.058 132.679 264.976 132.919 265.114L260.511 338.779C260.75 338.917 260.832 339.223 260.694 339.462C260.602 339.623 260.434 339.712 260.261 339.712Z" fill="url(#paint11_linear_406_120)"/>
<path d="M180.82 110.824V102.967L183.119 104.295C183.653 104.603 184.089 104.966 184.428 105.384C184.769 105.801 185.021 106.245 185.185 106.715C185.349 107.186 185.431 107.652 185.431 108.115C185.431 108.578 185.349 108.952 185.185 109.235C185.024 109.521 184.773 109.678 184.434 109.707C184.096 109.734 183.662 109.595 183.132 109.289L181.484 108.338V107.494L183.106 108.43C183.471 108.641 183.764 108.737 183.986 108.719C184.207 108.702 184.368 108.597 184.468 108.407C184.57 108.215 184.62 107.962 184.62 107.647C184.62 107.333 184.57 107.022 184.468 106.715C184.368 106.41 184.206 106.122 183.983 105.852C183.759 105.58 183.462 105.337 183.092 105.123L181.644 104.287V111.299L180.82 110.824ZM186.652 114.191V108.298L187.409 108.736V109.626L187.462 109.656C187.555 109.419 187.724 109.279 187.967 109.238C188.211 109.197 188.486 109.265 188.791 109.442C188.849 109.475 188.921 109.518 189.007 109.57C189.094 109.623 189.159 109.664 189.203 109.695V110.615C189.177 110.592 189.116 110.546 189.02 110.475C188.927 110.404 188.829 110.338 188.725 110.278C188.477 110.135 188.255 110.067 188.06 110.075C187.868 110.081 187.715 110.156 187.602 110.301C187.491 110.444 187.436 110.649 187.436 110.915V114.643L186.652 114.191ZM192.05 117.43C191.589 117.164 191.185 116.804 190.838 116.35C190.492 115.898 190.222 115.388 190.027 114.82C189.834 114.253 189.738 113.666 189.738 113.057C189.738 112.443 189.834 111.963 190.027 111.617C190.222 111.271 190.492 111.072 190.838 111.018C191.185 110.966 191.589 111.073 192.05 111.339C192.511 111.605 192.914 111.964 193.259 112.416C193.607 112.87 193.877 113.382 194.07 113.951C194.265 114.521 194.362 115.113 194.362 115.727C194.362 116.336 194.265 116.811 194.07 117.154C193.877 117.498 193.607 117.696 193.259 117.749C192.914 117.802 192.511 117.696 192.05 117.43ZM192.05 116.617C192.4 116.819 192.688 116.882 192.914 116.805C193.14 116.728 193.307 116.552 193.415 116.277C193.524 116.003 193.578 115.668 193.578 115.274C193.578 114.881 193.524 114.482 193.415 114.079C193.307 113.677 193.14 113.305 192.914 112.965C192.688 112.625 192.4 112.354 192.05 112.152C191.7 111.95 191.412 111.888 191.186 111.968C190.961 112.047 190.793 112.225 190.685 112.503C190.576 112.78 190.522 113.116 190.522 113.51C190.522 113.904 190.576 114.301 190.685 114.701C190.793 115.101 190.961 115.47 191.186 115.808C191.412 116.145 191.7 116.415 192.05 116.617ZM197.831 114.753V115.52L195.081 113.932V113.165L197.831 114.753ZM195.905 119.533V112.827C195.905 112.49 195.973 112.248 196.11 112.102C196.248 111.957 196.426 111.891 196.645 111.905C196.865 111.919 197.096 111.996 197.34 112.137C197.532 112.248 197.69 112.357 197.811 112.463C197.933 112.569 198.024 112.655 198.084 112.72L197.858 113.372C197.818 113.334 197.763 113.283 197.692 113.219C197.623 113.156 197.532 113.092 197.419 113.027C197.16 112.877 196.973 112.845 196.858 112.929C196.745 113.015 196.689 113.203 196.689 113.495V119.985L195.905 119.533ZM198.93 121.28V115.388L199.714 115.84V121.732L198.93 121.28ZM199.329 114.636C199.176 114.547 199.044 114.411 198.933 114.227C198.825 114.044 198.771 113.868 198.771 113.7C198.771 113.531 198.825 113.418 198.933 113.36C199.044 113.304 199.176 113.32 199.329 113.408C199.481 113.496 199.612 113.632 199.721 113.815C199.831 113.999 199.887 114.175 199.887 114.344C199.887 114.513 199.831 114.625 199.721 114.682C199.612 114.739 199.481 114.724 199.329 114.636ZM201.934 115.158V123.014L201.15 122.561V114.705L201.934 115.158ZM205.509 125.201C205.018 124.917 204.594 124.547 204.237 124.091C203.883 123.633 203.609 123.122 203.416 122.558C203.226 121.993 203.131 121.408 203.131 120.805C203.131 120.201 203.226 119.724 203.416 119.374C203.609 119.022 203.877 118.817 204.22 118.757C204.566 118.695 204.969 118.797 205.43 119.063C205.695 119.217 205.958 119.42 206.217 119.671C206.476 119.923 206.712 120.226 206.924 120.579C207.137 120.929 207.306 121.329 207.433 121.777C207.559 122.226 207.622 122.726 207.622 123.275V123.659L203.689 121.388V120.605L206.825 122.416C206.825 122.084 206.767 121.754 206.652 121.426C206.539 121.1 206.377 120.801 206.167 120.529C205.959 120.258 205.713 120.04 205.43 119.877C205.117 119.696 204.847 119.63 204.619 119.677C204.393 119.723 204.219 119.853 204.097 120.067C203.976 120.28 203.915 120.549 203.915 120.874V121.396C203.915 121.841 203.981 122.256 204.114 122.642C204.249 123.027 204.436 123.369 204.675 123.669C204.915 123.965 205.193 124.205 205.509 124.388C205.715 124.507 205.901 124.581 206.067 124.61C206.236 124.638 206.381 124.62 206.503 124.555C206.624 124.487 206.718 124.37 206.785 124.204L207.542 124.887C207.463 125.137 207.329 125.321 207.14 125.437C206.952 125.551 206.72 125.59 206.443 125.556C206.166 125.519 205.855 125.401 205.509 125.201Z" fill="#455A64"/>
<path d="M171.805 231.113L172.742 231.654L174.616 236.38L174.696 236.426L176.57 233.865L177.507 234.406L175.065 237.584V240.801L174.247 240.328V237.112L171.805 231.113ZM179.803 243.658C179.345 243.394 178.943 243.036 178.598 242.585C178.255 242.135 177.986 241.628 177.793 241.064C177.601 240.502 177.506 239.918 177.506 239.313C177.506 238.704 177.601 238.227 177.793 237.882C177.986 237.539 178.255 237.341 178.598 237.288C178.943 237.236 179.345 237.342 179.803 237.606C180.26 237.87 180.661 238.227 181.004 238.677C181.349 239.128 181.618 239.636 181.809 240.201C182.003 240.768 182.1 241.356 182.1 241.966C182.1 242.57 182.003 243.043 181.809 243.383C181.618 243.725 181.349 243.922 181.004 243.974C180.661 244.027 180.26 243.922 179.803 243.658ZM179.803 242.85C180.15 243.051 180.436 243.113 180.661 243.037C180.885 242.96 181.051 242.786 181.159 242.513C181.267 242.239 181.321 241.907 181.321 241.516C181.321 241.125 181.267 240.729 181.159 240.329C181.051 239.929 180.885 239.56 180.661 239.222C180.436 238.884 180.15 238.615 179.803 238.414C179.455 238.213 179.169 238.152 178.945 238.231C178.72 238.31 178.554 238.487 178.446 238.763C178.338 239.038 178.285 239.372 178.285 239.763C178.285 240.154 178.338 240.549 178.446 240.946C178.554 241.344 178.72 241.71 178.945 242.046C179.169 242.381 179.455 242.649 179.803 242.85ZM186.483 245V241.539L187.262 241.989V247.843L186.483 247.393V246.402L186.43 246.372C186.312 246.6 186.127 246.746 185.876 246.81C185.625 246.871 185.308 246.791 184.925 246.57C184.609 246.387 184.327 246.144 184.081 245.842C183.834 245.537 183.641 245.181 183.5 244.775C183.359 244.366 183.289 243.912 183.289 243.414V239.695L184.067 240.145V243.803C184.067 244.23 184.171 244.63 184.378 245.003C184.587 245.378 184.853 245.659 185.176 245.846C185.37 245.957 185.567 246.014 185.767 246.015C185.969 246.018 186.139 245.94 186.275 245.783C186.414 245.627 186.483 245.366 186.483 245ZM188.689 248.666V242.813L189.441 243.247V244.131L189.494 244.162C189.586 243.925 189.753 243.787 189.995 243.746C190.237 243.706 190.51 243.773 190.814 243.948C190.871 243.981 190.943 244.024 191.028 244.076C191.114 244.128 191.179 244.169 191.223 244.2V245.114C191.197 245.092 191.136 245.045 191.042 244.975C190.949 244.904 190.851 244.839 190.748 244.779C190.501 244.637 190.281 244.57 190.088 244.577C189.896 244.583 189.745 244.658 189.632 244.802C189.522 244.944 189.467 245.148 189.467 245.412V249.116L188.689 248.666ZM192.925 247.591V251.112L192.146 250.663V244.809L192.899 245.244V246.158L192.965 246.196C193.084 245.968 193.264 245.833 193.506 245.792C193.748 245.749 194.061 245.838 194.443 246.059C194.787 246.257 195.087 246.512 195.344 246.823C195.602 247.132 195.802 247.491 195.945 247.902C196.088 248.309 196.159 248.762 196.159 249.26V252.98L195.381 252.53V248.872C195.381 248.412 195.277 247.994 195.07 247.618C194.864 247.239 194.58 246.946 194.219 246.737C193.97 246.594 193.748 246.528 193.552 246.539C193.359 246.552 193.206 246.645 193.094 246.819C192.981 246.993 192.925 247.251 192.925 247.591ZM199.074 254.8C198.753 254.614 198.462 254.376 198.2 254.085C197.938 253.792 197.73 253.467 197.576 253.112C197.422 252.753 197.345 252.384 197.345 252.003C197.345 251.667 197.402 251.429 197.517 251.286C197.631 251.141 197.784 251.065 197.975 251.056C198.167 251.047 198.378 251.08 198.609 251.155C198.842 251.228 199.077 251.315 199.312 251.416C199.62 251.548 199.87 251.658 200.061 251.745C200.255 251.832 200.396 251.871 200.484 251.864C200.574 251.857 200.619 251.782 200.619 251.637V251.606C200.619 251.23 200.53 250.887 200.352 250.576C200.176 250.266 199.908 250.007 199.55 249.8C199.178 249.585 198.886 249.511 198.675 249.577C198.464 249.643 198.315 249.758 198.23 249.922L197.49 249.19C197.622 248.911 197.798 248.735 198.018 248.664C198.241 248.592 198.483 248.592 198.744 248.664C199.008 248.735 199.268 248.845 199.523 248.992C199.686 249.086 199.873 249.217 200.084 249.385C200.298 249.551 200.503 249.76 200.701 250.011C200.902 250.264 201.068 250.567 201.2 250.92C201.332 251.274 201.398 251.683 201.398 252.148V256.004L200.619 255.554V254.762L200.579 254.739C200.527 254.835 200.439 254.921 200.315 254.994C200.192 255.068 200.028 255.097 199.824 255.08C199.619 255.063 199.369 254.97 199.074 254.8ZM199.193 254.061C199.501 254.238 199.761 254.318 199.972 254.301C200.185 254.284 200.346 254.196 200.454 254.038C200.564 253.88 200.619 253.679 200.619 253.436V252.612C200.586 252.639 200.513 252.639 200.401 252.612C200.291 252.584 200.163 252.543 200.018 252.487C199.875 252.43 199.736 252.372 199.599 252.313C199.465 252.254 199.356 252.206 199.272 252.17C199.07 252.084 198.881 252.024 198.705 251.991C198.531 251.957 198.39 251.976 198.282 252.048C198.177 252.12 198.124 252.269 198.124 252.498C198.124 252.811 198.224 253.105 198.424 253.38C198.627 253.655 198.883 253.881 199.193 254.061ZM202.819 256.825V250.971L203.572 251.406V252.32L203.638 252.359C203.743 252.107 203.914 251.963 204.149 251.926C204.385 251.887 204.667 251.962 204.998 252.153C205.332 252.346 205.61 252.594 205.832 252.898C206.057 253.2 206.232 253.544 206.357 253.929L206.41 253.959C206.54 253.732 206.735 253.604 206.994 253.576C207.254 253.546 207.565 253.635 207.928 253.845C208.381 254.106 208.752 254.484 209.04 254.979C209.329 255.47 209.473 256.06 209.473 256.749V260.666L208.694 260.217V256.299C208.694 255.867 208.591 255.499 208.387 255.196C208.182 254.892 207.941 254.66 207.664 254.5C207.308 254.294 207.032 254.26 206.836 254.395C206.64 254.529 206.542 254.785 206.542 255.163V258.974L205.75 258.517V254.508C205.75 254.175 205.656 253.853 205.469 253.542C205.282 253.228 205.042 252.986 204.747 252.816C204.544 252.699 204.355 252.652 204.179 252.675C204.005 252.699 203.864 252.79 203.757 252.949C203.651 253.107 203.598 253.329 203.598 253.616V257.275L202.819 256.825ZM213.022 262.838C212.534 262.556 212.112 262.188 211.758 261.734C211.406 261.28 211.134 260.772 210.943 260.212C210.754 259.65 210.659 259.07 210.659 258.47C210.659 257.871 210.754 257.397 210.943 257.049C211.134 256.699 211.401 256.495 211.742 256.435C212.085 256.374 212.485 256.476 212.943 256.74C213.207 256.893 213.468 257.094 213.725 257.344C213.982 257.594 214.217 257.895 214.428 258.245C214.639 258.593 214.807 258.99 214.933 259.436C215.058 259.882 215.121 260.378 215.121 260.924V261.306L211.214 259.05V258.272L214.329 260.071C214.329 259.741 214.272 259.413 214.157 259.088C214.045 258.764 213.885 258.466 213.675 258.196C213.469 257.927 213.224 257.711 212.943 257.548C212.633 257.369 212.364 257.303 212.138 257.35C211.913 257.396 211.74 257.525 211.619 257.737C211.498 257.949 211.438 258.216 211.438 258.539V259.057C211.438 259.499 211.504 259.912 211.636 260.296C211.77 260.678 211.956 261.018 212.194 261.315C212.431 261.61 212.707 261.848 213.022 262.03C213.227 262.148 213.411 262.221 213.576 262.251C213.744 262.279 213.888 262.26 214.009 262.195C214.13 262.128 214.223 262.012 214.289 261.847L215.042 262.525C214.963 262.774 214.829 262.956 214.642 263.072C214.455 263.185 214.224 263.224 213.949 263.19C213.674 263.153 213.365 263.036 213.022 262.838Z" fill="#455A64"/>
<path d="M201.783 356.638C201.541 356.494 201.299 356.301 201.056 356.059C200.814 355.817 200.593 355.517 200.393 355.16C200.193 354.8 200.033 354.378 199.912 353.893C199.791 353.406 199.73 352.847 199.73 352.217C199.73 351.613 199.779 351.107 199.877 350.697C199.975 350.285 200.118 349.974 200.304 349.762C200.49 349.547 200.715 349.433 200.979 349.419C201.244 349.405 201.543 349.495 201.875 349.687C202.206 349.878 202.5 350.124 202.757 350.426C203.017 350.726 203.228 351.059 203.392 351.424C203.555 351.79 203.661 352.162 203.709 352.543L203.005 352.137C202.94 351.793 202.813 351.466 202.625 351.155C202.436 350.844 202.187 350.599 201.875 350.419C201.418 350.155 201.057 350.177 200.794 350.484C200.533 350.793 200.401 351.361 200.399 352.19L200.445 352.217C200.553 352.09 200.681 352.003 200.829 351.955C200.979 351.907 201.144 351.898 201.325 351.929C201.505 351.96 201.696 352.034 201.898 352.15C202.237 352.346 202.546 352.622 202.827 352.979C203.107 353.334 203.332 353.732 203.501 354.171C203.67 354.608 203.755 355.047 203.755 355.486C203.755 355.908 203.673 356.247 203.51 356.503C203.347 356.757 203.117 356.902 202.821 356.938C202.527 356.972 202.181 356.872 201.783 356.638ZM201.783 355.906C202.025 356.045 202.242 356.101 202.435 356.072C202.629 356.044 202.781 355.945 202.893 355.774C203.006 355.604 203.063 355.375 203.063 355.087C203.063 354.805 203.008 354.517 202.899 354.223C202.791 353.927 202.642 353.656 202.452 353.409C202.263 353.162 202.048 352.969 201.806 352.829C201.623 352.724 201.453 352.668 201.296 352.661C201.138 352.652 201 352.686 200.881 352.761C200.763 352.838 200.671 352.95 200.604 353.097C200.537 353.243 200.503 353.418 200.503 353.622C200.503 353.893 200.558 354.177 200.667 354.476C200.779 354.775 200.931 355.053 201.123 355.308C201.317 355.564 201.537 355.763 201.783 355.906ZM206.815 359.543C206.38 359.292 206.01 358.942 205.705 358.493C205.399 358.041 205.166 357.508 205.004 356.893C204.843 356.276 204.762 355.597 204.762 354.856C204.762 354.119 204.843 353.536 205.004 353.108C205.167 352.678 205.402 352.414 205.708 352.315C206.015 352.216 206.384 352.29 206.815 352.539C207.245 352.787 207.613 353.138 207.919 353.592C208.226 354.045 208.461 354.58 208.622 355.197C208.786 355.813 208.867 356.489 208.867 357.226C208.867 357.967 208.787 358.553 208.625 358.984C208.464 359.412 208.23 359.676 207.925 359.774C207.619 359.871 207.249 359.794 206.815 359.543ZM206.815 358.811C207.245 359.059 207.58 359.013 207.818 358.671C208.056 358.329 208.175 357.714 208.175 356.826C208.175 356.236 208.121 355.702 208.011 355.223C207.903 354.746 207.748 354.34 207.544 354.005C207.342 353.671 207.099 353.422 206.815 353.258C206.388 353.011 206.054 353.062 205.814 353.409C205.574 353.754 205.454 354.37 205.454 355.255C205.454 355.845 205.508 356.378 205.615 356.853C205.723 357.328 205.878 357.731 206.079 358.063C206.283 358.396 206.528 358.645 206.815 358.811ZM211.889 362.473C211.454 362.222 211.084 361.872 210.779 361.422C210.473 360.971 210.24 360.437 210.078 359.823C209.917 359.206 209.836 358.527 209.836 357.785C209.836 357.048 209.917 356.466 210.078 356.037C210.242 355.608 210.476 355.344 210.782 355.245C211.089 355.145 211.458 355.22 211.889 355.468C212.319 355.717 212.687 356.068 212.993 356.522C213.301 356.975 213.535 357.51 213.696 358.127C213.86 358.742 213.942 359.419 213.942 360.156C213.942 360.897 213.861 361.483 213.699 361.913C213.538 362.342 213.304 362.605 212.999 362.704C212.693 362.801 212.323 362.724 211.889 362.473ZM211.889 361.74C212.319 361.989 212.654 361.942 212.892 361.6C213.13 361.259 213.25 360.644 213.25 359.756C213.25 359.166 213.195 358.631 213.085 358.153C212.978 357.676 212.822 357.27 212.618 356.935C212.416 356.601 212.173 356.352 211.889 356.187C211.462 355.941 211.129 355.991 210.888 356.339C210.648 356.684 210.528 357.299 210.528 358.185C210.528 358.775 210.582 359.308 210.689 359.783C210.797 360.258 210.952 360.661 211.154 360.993C211.357 361.326 211.602 361.575 211.889 361.74Z" fill="url(#paint12_linear_406_120)"/>
<path d="M217.424 365.575V358.757L220.965 360.801V361.534L218.139 359.903V362.206L220.699 363.685V364.417L218.139 362.939V365.988L217.424 365.575ZM223.571 369.231C223.171 369 222.82 368.688 222.519 368.294C222.219 367.901 221.984 367.458 221.815 366.965C221.648 366.474 221.564 365.964 221.564 365.436C221.564 364.903 221.648 364.486 221.815 364.186C221.984 363.886 222.219 363.713 222.519 363.666C222.82 363.621 223.171 363.713 223.571 363.944C223.971 364.175 224.32 364.487 224.62 364.88C224.922 365.274 225.157 365.718 225.324 366.211C225.493 366.706 225.577 367.22 225.577 367.753C225.577 368.281 225.493 368.694 225.324 368.991C225.157 369.29 224.922 369.462 224.62 369.507C224.32 369.554 223.971 369.462 223.571 369.231ZM223.571 368.525C223.875 368.7 224.124 368.755 224.32 368.688C224.517 368.622 224.662 368.469 224.756 368.23C224.85 367.992 224.897 367.702 224.897 367.36C224.897 367.018 224.85 366.672 224.756 366.323C224.662 365.973 224.517 365.651 224.32 365.356C224.124 365.061 223.875 364.825 223.571 364.65C223.267 364.475 223.017 364.421 222.821 364.49C222.625 364.559 222.48 364.714 222.386 364.955C222.292 365.195 222.245 365.487 222.245 365.829C222.245 366.17 222.292 366.515 222.386 366.862C222.48 367.21 222.625 367.53 222.821 367.823C223.017 368.116 223.267 368.35 223.571 368.525ZM227.297 364.457V371.275L226.616 370.883V364.064L227.297 364.457ZM229.223 365.57V372.388L228.543 371.995V365.177L229.223 365.57ZM232.268 374.253C231.869 374.022 231.518 373.709 231.216 373.315C230.916 372.923 230.682 372.48 230.513 371.987C230.345 371.495 230.262 370.986 230.262 370.457C230.262 369.925 230.345 369.508 230.513 369.207C230.682 368.908 230.916 368.734 231.216 368.688C231.518 368.642 231.869 368.735 232.268 368.966C232.668 369.197 233.018 369.508 233.318 369.901C233.62 370.295 233.854 370.739 234.021 371.233C234.19 371.728 234.275 372.242 234.275 372.774C234.275 373.303 234.19 373.715 234.021 374.013C233.854 374.311 233.62 374.483 233.318 374.529C233.018 374.575 232.668 374.483 232.268 374.253ZM232.268 373.547C232.572 373.722 232.822 373.776 233.018 373.71C233.214 373.643 233.359 373.491 233.453 373.252C233.547 373.014 233.595 372.723 233.595 372.382C233.595 372.04 233.547 371.694 233.453 371.344C233.359 370.995 233.214 370.673 233.018 370.377C232.822 370.082 232.572 369.847 232.268 369.672C231.965 369.496 231.715 369.443 231.519 369.512C231.323 369.581 231.178 369.735 231.083 369.976C230.989 370.217 230.942 370.508 230.942 370.85C230.942 371.192 230.989 371.536 231.083 371.884C231.178 372.231 231.323 372.551 231.519 372.844C231.715 373.137 231.965 373.371 232.268 373.547ZM236.166 376.396L234.817 370.504L235.532 370.917L236.489 375.384L236.535 375.411L237.481 372.042L238.207 372.461L239.142 376.903L239.188 376.929L240.145 373.58L240.86 373.993L239.511 378.327L238.842 377.941L237.873 373.454L237.804 373.414L236.835 376.783L236.166 376.396ZM243.465 380.717C243.039 380.471 242.671 380.15 242.361 379.754C242.054 379.356 241.816 378.913 241.649 378.424C241.484 377.933 241.401 377.426 241.401 376.902C241.401 376.378 241.484 375.964 241.649 375.66C241.816 375.355 242.049 375.176 242.347 375.124C242.647 375.071 242.996 375.16 243.396 375.391C243.627 375.524 243.855 375.7 244.079 375.918C244.304 376.137 244.509 376.399 244.694 376.706C244.878 377.01 245.025 377.357 245.135 377.746C245.244 378.136 245.299 378.569 245.299 379.046V379.379L241.885 377.408V376.729L244.607 378.3C244.607 378.012 244.557 377.726 244.457 377.441C244.359 377.158 244.219 376.899 244.036 376.662C243.856 376.427 243.642 376.238 243.396 376.096C243.125 375.94 242.891 375.882 242.693 375.923C242.497 375.963 242.346 376.076 242.24 376.261C242.134 376.447 242.082 376.68 242.082 376.962V377.415C242.082 377.801 242.139 378.162 242.254 378.497C242.372 378.831 242.534 379.128 242.742 379.387C242.949 379.645 243.191 379.853 243.465 380.012C243.644 380.115 243.806 380.179 243.95 380.205C244.096 380.229 244.222 380.213 244.327 380.156C244.433 380.098 244.515 379.996 244.572 379.852L245.23 380.444C245.161 380.662 245.044 380.821 244.881 380.922C244.718 381.021 244.516 381.055 244.276 381.025C244.035 380.993 243.765 380.89 243.465 380.717ZM246.334 382.267V377.153L246.991 377.533V378.305L247.037 378.332C247.118 378.126 247.264 378.005 247.476 377.969C247.687 377.934 247.925 377.992 248.191 378.146C248.241 378.174 248.303 378.212 248.378 378.257C248.453 378.303 248.51 378.339 248.548 378.365V379.164C248.525 379.144 248.472 379.104 248.39 379.043C248.309 378.981 248.223 378.923 248.133 378.871C247.918 378.747 247.726 378.688 247.556 378.695C247.389 378.7 247.257 378.766 247.159 378.891C247.062 379.016 247.014 379.193 247.014 379.424V382.66L246.334 382.267ZM252.491 381.854L251.88 381.701C251.842 381.561 251.785 381.414 251.71 381.26C251.637 381.104 251.537 380.953 251.41 380.807C251.283 380.66 251.121 380.53 250.923 380.416C250.652 380.259 250.426 380.201 250.246 380.241C250.067 380.28 249.977 380.409 249.977 380.629C249.977 380.824 250.039 381.014 250.162 381.198C250.285 381.382 250.477 381.587 250.739 381.814L251.396 382.38C251.792 382.719 252.087 383.06 252.281 383.4C252.475 383.739 252.572 384.087 252.572 384.444C252.572 384.737 252.499 384.957 252.353 385.103C252.209 385.251 252.007 385.316 251.748 385.299C251.488 385.283 251.186 385.175 250.842 384.977C250.391 384.716 250.017 384.387 249.721 383.989C249.425 383.592 249.237 383.153 249.159 382.673L249.804 382.859C249.866 383.17 249.982 383.443 250.153 383.68C250.326 383.917 250.552 384.117 250.831 384.277C251.148 384.461 251.4 384.528 251.586 384.481C251.775 384.432 251.869 384.297 251.869 384.078C251.869 383.9 251.815 383.72 251.707 383.538C251.6 383.354 251.434 383.168 251.211 382.979L250.473 382.353C250.068 382.008 249.77 381.664 249.58 381.321C249.391 380.977 249.297 380.629 249.297 380.276C249.297 379.987 249.367 379.773 249.508 379.632C249.65 379.492 249.843 379.429 250.087 379.443C250.333 379.459 250.612 379.557 250.923 379.736C251.361 379.989 251.705 380.299 251.955 380.665C252.207 381.033 252.386 381.429 252.491 381.854Z" fill="#455A64"/>
<path d="M134.901 317.956C134.563 317.761 134.258 317.507 133.987 317.195C133.716 316.883 133.499 316.545 133.336 316.18C133.172 315.815 133.083 315.455 133.068 315.099L133.76 315.499C133.787 315.823 133.908 316.148 134.123 316.474C134.34 316.8 134.6 317.049 134.901 317.223C135.143 317.363 135.359 317.422 135.547 317.4C135.737 317.379 135.886 317.285 135.994 317.119C136.104 316.951 136.158 316.722 136.158 316.431C136.158 316.134 136.102 315.836 135.988 315.537C135.877 315.238 135.723 314.964 135.527 314.715C135.331 314.466 135.107 314.268 134.855 314.121C134.675 314.014 134.489 313.939 134.299 313.896C134.108 313.85 133.952 313.843 133.829 313.874L133.16 313.395L133.517 310.246L136.585 312.017V312.749L134.117 311.324L133.91 313.215L133.944 313.235C134.065 313.194 134.217 313.19 134.4 313.222C134.582 313.254 134.773 313.327 134.97 313.442C135.332 313.65 135.654 313.936 135.936 314.299C136.221 314.661 136.444 315.06 136.605 315.497C136.769 315.936 136.85 316.376 136.85 316.817C136.85 317.252 136.766 317.592 136.597 317.836C136.429 318.079 136.199 318.214 135.905 318.242C135.611 318.268 135.276 318.172 134.901 317.956ZM139.921 320.854C139.487 320.604 139.117 320.253 138.811 319.804C138.506 319.352 138.272 318.819 138.111 318.204C137.949 317.587 137.869 316.908 137.869 316.167C137.869 315.43 137.949 314.847 138.111 314.419C138.274 313.99 138.509 313.726 138.814 313.627C139.122 313.527 139.491 313.601 139.921 313.85C140.352 314.098 140.72 314.45 141.026 314.903C141.333 315.356 141.568 315.891 141.729 316.508C141.892 317.124 141.974 317.8 141.974 318.537C141.974 319.279 141.893 319.864 141.732 320.295C141.571 320.723 141.337 320.987 141.031 321.086C140.726 321.182 140.356 321.105 139.921 320.854ZM139.921 320.122C140.352 320.371 140.686 320.324 140.925 319.982C141.163 319.64 141.282 319.026 141.282 318.138C141.282 317.547 141.227 317.013 141.118 316.535C141.01 316.058 140.855 315.651 140.651 315.316C140.449 314.982 140.206 314.733 139.921 314.569C139.495 314.323 139.161 314.373 138.921 314.72C138.681 315.065 138.561 315.681 138.561 316.566C138.561 317.157 138.614 317.689 138.722 318.164C138.83 318.639 138.984 319.043 139.186 319.375C139.39 319.707 139.635 319.957 139.921 320.122ZM144.996 323.784C144.561 323.533 144.191 323.183 143.886 322.734C143.58 322.282 143.346 321.749 143.185 321.134C143.024 320.517 142.943 319.838 142.943 319.097C142.943 318.36 143.024 317.777 143.185 317.349C143.348 316.919 143.583 316.655 143.888 316.556C144.196 316.457 144.565 316.531 144.996 316.779C145.426 317.028 145.794 317.379 146.1 317.833C146.407 318.286 146.642 318.821 146.803 319.438C146.967 320.054 147.048 320.73 147.048 321.467C147.048 322.208 146.968 322.794 146.806 323.225C146.645 323.653 146.411 323.917 146.106 324.015C145.8 324.112 145.43 324.035 144.996 323.784ZM144.996 323.052C145.426 323.3 145.761 323.254 145.999 322.912C146.237 322.57 146.356 321.955 146.356 321.067C146.356 320.477 146.302 319.943 146.192 319.464C146.084 318.987 145.929 318.581 145.725 318.246C145.523 317.912 145.28 317.663 144.996 317.499C144.569 317.252 144.235 317.303 143.995 317.65C143.755 317.995 143.635 318.61 143.635 319.496C143.635 320.086 143.689 320.619 143.796 321.094C143.904 321.569 144.059 321.972 144.26 322.304C144.464 322.637 144.709 322.886 144.996 323.052Z" fill="url(#paint13_linear_406_120)"/>
<path d="M150.531 326.887V320.069L154.071 322.113V322.845L151.246 321.214V323.518L153.806 324.996V325.728L151.246 324.25V327.3L150.531 326.887ZM156.678 330.542C156.278 330.311 155.927 329.999 155.625 329.605C155.326 329.212 155.091 328.769 154.922 328.277C154.755 327.785 154.671 327.275 154.671 326.747C154.671 326.214 154.755 325.798 154.922 325.497C155.091 325.197 155.326 325.024 155.625 324.977C155.927 324.932 156.278 325.025 156.678 325.255C157.077 325.486 157.427 325.798 157.727 326.191C158.029 326.585 158.263 327.029 158.431 327.523C158.6 328.018 158.684 328.531 158.684 329.064C158.684 329.592 158.6 330.005 158.431 330.302C158.263 330.601 158.029 330.773 157.727 330.819C157.427 330.865 157.077 330.773 156.678 330.542ZM156.678 329.836C156.981 330.012 157.231 330.066 157.427 330C157.623 329.933 157.768 329.78 157.863 329.542C157.957 329.303 158.004 329.013 158.004 328.671C158.004 328.329 157.957 327.984 157.863 327.634C157.768 327.285 157.623 326.962 157.427 326.667C157.231 326.372 156.981 326.137 156.678 325.961C156.374 325.786 156.124 325.733 155.928 325.801C155.732 325.87 155.587 326.025 155.493 326.266C155.399 326.507 155.351 326.798 155.351 327.14C155.351 327.482 155.399 327.826 155.493 328.173C155.587 328.521 155.732 328.841 155.928 329.134C156.124 329.427 156.374 329.661 156.678 329.836ZM160.403 325.769V332.587L159.723 332.194V325.376L160.403 325.769ZM162.33 326.881V333.699L161.65 333.306V326.488L162.33 326.881ZM165.375 335.564C164.975 335.333 164.625 335.021 164.323 334.627C164.023 334.234 163.788 333.791 163.619 333.298C163.452 332.807 163.369 332.297 163.369 331.769C163.369 331.236 163.452 330.819 163.619 330.518C163.788 330.219 164.023 330.046 164.323 329.999C164.625 329.954 164.975 330.046 165.375 330.277C165.775 330.508 166.125 330.82 166.425 331.213C166.726 331.607 166.961 332.05 167.128 332.544C167.297 333.039 167.382 333.553 167.382 334.086C167.382 334.614 167.297 335.027 167.128 335.324C166.961 335.623 166.726 335.795 166.425 335.84C166.125 335.887 165.775 335.795 165.375 335.564ZM165.375 334.858C165.679 335.033 165.929 335.088 166.125 335.021C166.321 334.955 166.466 334.802 166.56 334.563C166.654 334.325 166.701 334.035 166.701 333.693C166.701 333.351 166.654 333.005 166.56 332.656C166.466 332.306 166.321 331.984 166.125 331.689C165.929 331.393 165.679 331.158 165.375 330.983C165.071 330.808 164.822 330.754 164.626 330.823C164.429 330.892 164.284 331.047 164.19 331.287C164.096 331.528 164.049 331.82 164.049 332.161C164.049 332.503 164.096 332.848 164.19 333.195C164.284 333.542 164.429 333.863 164.626 334.156C164.822 334.449 165.071 334.683 165.375 334.858ZM169.273 337.708L167.924 331.815L168.639 332.228L169.596 336.696L169.642 336.722L170.588 333.353L171.314 333.773L172.248 338.214L172.294 338.24L173.252 334.891L173.967 335.304L172.617 339.639L171.948 339.252L170.98 334.765L170.911 334.725L169.942 338.094L169.273 337.708ZM174.866 340.937V335.823L175.547 336.216V341.33L174.866 340.937ZM175.212 335.171C175.079 335.094 174.965 334.976 174.869 334.816C174.775 334.658 174.728 334.505 174.728 334.359C174.728 334.212 174.775 334.114 174.869 334.064C174.965 334.015 175.079 334.029 175.212 334.106C175.345 334.182 175.458 334.3 175.552 334.459C175.648 334.618 175.696 334.771 175.696 334.918C175.696 335.064 175.648 335.162 175.552 335.211C175.458 335.261 175.345 335.248 175.212 335.171ZM177.473 339.366V342.442L176.793 342.049V336.936L177.45 337.315V338.114L177.508 338.148C177.611 337.948 177.769 337.83 177.981 337.795C178.192 337.757 178.465 337.835 178.799 338.028C179.099 338.201 179.362 338.423 179.586 338.695C179.811 338.965 179.986 339.279 180.111 339.637C180.236 339.994 180.298 340.389 180.298 340.824V344.074L179.618 343.681V340.485C179.618 340.083 179.528 339.718 179.347 339.389C179.166 339.059 178.918 338.802 178.603 338.62C178.386 338.495 178.192 338.437 178.021 338.447C177.852 338.458 177.718 338.54 177.62 338.692C177.522 338.844 177.473 339.069 177.473 339.366ZM183.329 347.848C183.001 347.658 182.718 347.446 182.482 347.212C182.245 346.98 182.048 346.739 181.891 346.491C181.735 346.246 181.611 346.008 181.519 345.777L182.061 345.65C182.122 345.779 182.2 345.931 182.294 346.105C182.388 346.281 182.517 346.461 182.681 346.644C182.846 346.83 183.062 347.001 183.329 347.155C183.687 347.361 183.982 347.432 184.214 347.366C184.447 347.301 184.563 347.055 184.563 346.629V345.59L184.506 345.557C184.456 345.621 184.384 345.696 184.292 345.78C184.202 345.863 184.071 345.909 183.9 345.917C183.731 345.923 183.502 345.843 183.214 345.677C182.856 345.471 182.536 345.188 182.251 344.828C181.969 344.47 181.745 344.056 181.579 343.588C181.416 343.121 181.334 342.621 181.334 342.088C181.334 341.564 181.414 341.154 181.574 340.858C181.733 340.559 181.955 340.386 182.24 340.337C182.524 340.286 182.853 340.368 183.226 340.583C183.514 340.75 183.743 340.937 183.912 341.146C184.083 341.353 184.213 341.553 184.304 341.745C184.396 341.936 184.467 342.09 184.517 342.208L184.586 342.248V341.436L185.244 341.815V347.075C185.244 347.515 185.157 347.822 184.984 347.997C184.813 348.176 184.582 348.246 184.292 348.207C184.004 348.172 183.683 348.052 183.329 347.848ZM183.306 345.024C183.579 345.182 183.81 345.243 183.998 345.208C184.187 345.172 184.33 345.047 184.428 344.833C184.526 344.619 184.575 344.323 184.575 343.946C184.575 343.577 184.527 343.224 184.431 342.887C184.335 342.55 184.192 342.247 184.004 341.978C183.816 341.71 183.583 341.496 183.306 341.336C183.018 341.169 182.778 341.115 182.585 341.173C182.395 341.231 182.252 341.375 182.156 341.604C182.062 341.833 182.015 342.121 182.015 342.468C182.015 342.823 182.063 343.165 182.159 343.493C182.257 343.82 182.401 344.117 182.591 344.382C182.783 344.646 183.022 344.86 183.306 345.024Z" fill="#455A64"/>
<path d="M171.806 254.504C171.132 254.115 170.537 253.665 170.02 253.153C169.503 252.643 169.069 252.081 168.717 251.466C168.365 250.851 168.098 250.193 167.918 249.492C167.738 248.791 167.647 248.055 167.647 247.286C167.647 246.541 167.739 245.928 167.921 245.447C168.106 244.967 168.373 244.623 168.723 244.416C169.075 244.208 169.502 244.14 170.004 244.214C170.508 244.289 171.077 244.51 171.713 244.877C172.331 245.234 172.873 245.664 173.337 246.165C173.803 246.666 174.193 247.204 174.505 247.781C174.82 248.357 175.055 248.936 175.211 249.519C175.37 250.103 175.449 250.657 175.449 251.18C175.449 251.549 175.434 251.913 175.403 252.274C175.372 252.635 175.307 252.946 175.208 253.206C175.109 253.464 174.956 253.63 174.749 253.703C174.545 253.778 174.268 253.715 173.918 253.513C173.764 253.424 173.594 253.298 173.41 253.135C173.225 252.973 173.061 252.785 172.918 252.573C172.775 252.361 172.69 252.138 172.664 251.905L172.624 251.882C172.571 251.999 172.49 252.091 172.38 252.16C172.272 252.23 172.13 252.253 171.954 252.23C171.78 252.209 171.568 252.12 171.317 251.965C171.031 251.788 170.779 251.569 170.561 251.308C170.344 251.045 170.161 250.754 170.014 250.435C169.868 250.115 169.758 249.779 169.684 249.426C169.611 249.071 169.575 248.714 169.575 248.353C169.575 248.01 169.619 247.721 169.707 247.488C169.795 247.254 169.917 247.075 170.073 246.952C170.231 246.83 170.416 246.767 170.627 246.762C170.841 246.755 171.071 246.808 171.317 246.92C171.537 247.021 171.737 247.149 171.918 247.301C172.098 247.451 172.247 247.606 172.363 247.768C172.48 247.927 172.554 248.071 172.584 248.2L172.624 248.223V247.796L173.324 248.2V251.645C173.324 251.859 173.375 252.077 173.479 252.299C173.582 252.521 173.733 252.69 173.931 252.804C174.155 252.933 174.327 252.944 174.446 252.834C174.567 252.726 174.649 252.5 174.693 252.154C174.74 251.81 174.763 251.348 174.763 250.769C174.763 250.428 174.722 250.07 174.641 249.692C174.561 249.314 174.44 248.933 174.278 248.549C174.117 248.167 173.913 247.794 173.667 247.431C173.421 247.067 173.131 246.727 172.799 246.411C172.469 246.094 172.094 245.813 171.674 245.571C171.157 245.272 170.693 245.098 170.284 245.047C169.877 244.995 169.531 245.063 169.245 245.251C168.961 245.437 168.744 245.739 168.594 246.156C168.447 246.571 168.373 247.098 168.373 247.735C168.373 248.383 168.447 249.001 168.594 249.589C168.744 250.179 168.964 250.73 169.255 251.243C169.547 251.758 169.909 252.228 170.34 252.655C170.772 253.085 171.269 253.462 171.832 253.787C172.074 253.927 172.313 254.038 172.548 254.121C172.784 254.203 172.992 254.265 173.172 254.305C173.352 254.346 173.482 254.374 173.561 254.389L173.746 255.197C173.61 255.184 173.432 255.148 173.212 255.087C172.994 255.027 172.76 254.947 172.512 254.847C172.265 254.747 172.03 254.633 171.806 254.504ZM171.423 251.249C171.718 251.419 171.956 251.488 172.139 251.457C172.322 251.425 172.455 251.295 172.538 251.066C172.622 250.837 172.664 250.512 172.664 250.091C172.664 249.664 172.617 249.304 172.525 249.012C172.433 248.72 172.296 248.473 172.116 248.273C171.935 248.072 171.713 247.895 171.449 247.743C171.198 247.598 170.984 247.551 170.806 247.6C170.63 247.648 170.494 247.771 170.4 247.968C170.307 248.163 170.261 248.409 170.261 248.703C170.261 249.029 170.299 249.356 170.373 249.687C170.448 250.014 170.57 250.316 170.74 250.592C170.909 250.865 171.137 251.084 171.423 251.249ZM179.81 254.674V251.213L180.588 251.663V257.517L179.81 257.067V256.076L179.757 256.046C179.638 256.274 179.453 256.42 179.202 256.484C178.951 256.545 178.635 256.465 178.252 256.244C177.935 256.061 177.653 255.818 177.407 255.516C177.161 255.211 176.967 254.855 176.826 254.449C176.685 254.04 176.615 253.586 176.615 253.088V249.369L177.394 249.819V253.477C177.394 253.904 177.497 254.304 177.704 254.677C177.913 255.052 178.179 255.333 178.503 255.52C178.696 255.631 178.893 255.688 179.093 255.689C179.296 255.692 179.465 255.614 179.602 255.457C179.74 255.3 179.81 255.039 179.81 254.674ZM185.606 255.871L184.906 255.695C184.862 255.535 184.797 255.367 184.711 255.19C184.628 255.013 184.513 254.84 184.368 254.672C184.223 254.504 184.037 254.355 183.81 254.224C183.5 254.045 183.242 253.979 183.035 254.024C182.83 254.069 182.728 254.217 182.728 254.468C182.728 254.692 182.798 254.909 182.939 255.12C183.08 255.331 183.3 255.566 183.599 255.825L184.351 256.473C184.805 256.862 185.142 257.251 185.365 257.641C185.587 258.028 185.698 258.427 185.698 258.836C185.698 259.171 185.614 259.422 185.447 259.59C185.282 259.759 185.051 259.834 184.754 259.815C184.457 259.796 184.112 259.673 183.718 259.445C183.201 259.147 182.773 258.77 182.434 258.315C182.095 257.861 181.881 257.358 181.791 256.808L182.53 257.022C182.6 257.377 182.733 257.69 182.929 257.961C183.127 258.233 183.386 258.461 183.705 258.645C184.068 258.855 184.356 258.932 184.569 258.878C184.785 258.822 184.893 258.668 184.893 258.416C184.893 258.213 184.831 258.007 184.708 257.799C184.585 257.588 184.395 257.375 184.14 257.159L183.295 256.442C182.831 256.047 182.49 255.653 182.272 255.261C182.057 254.867 181.949 254.468 181.949 254.064C181.949 253.734 182.029 253.488 182.19 253.327C182.353 253.167 182.574 253.095 182.853 253.112C183.135 253.129 183.454 253.241 183.81 253.447C184.312 253.737 184.706 254.091 184.992 254.51C185.28 254.931 185.485 255.384 185.606 255.871ZM188.996 262.493C188.507 262.211 188.086 261.843 187.732 261.389C187.38 260.935 187.108 260.427 186.917 259.867C186.727 259.305 186.633 258.725 186.633 258.125C186.633 257.526 186.727 257.052 186.917 256.704C187.108 256.355 187.374 256.15 187.715 256.09C188.058 256.029 188.459 256.131 188.917 256.395C189.181 256.548 189.441 256.749 189.699 256.999C189.956 257.249 190.19 257.55 190.402 257.9C190.613 258.249 190.781 258.646 190.907 259.091C191.032 259.537 191.095 260.033 191.095 260.58V260.961L187.187 258.705V257.927L190.303 259.726C190.303 259.396 190.245 259.068 190.131 258.743C190.019 258.419 189.858 258.122 189.649 257.851C189.442 257.582 189.198 257.366 188.917 257.203C188.606 257.024 188.338 256.958 188.111 257.005C187.887 257.051 187.714 257.18 187.593 257.392C187.472 257.604 187.412 257.871 187.412 258.194V258.712C187.412 259.154 187.478 259.567 187.61 259.951C187.744 260.333 187.93 260.673 188.167 260.97C188.405 261.265 188.681 261.503 188.996 261.685C189.2 261.803 189.385 261.877 189.55 261.906C189.717 261.934 189.862 261.915 189.983 261.85C190.104 261.783 190.197 261.667 190.263 261.502L191.015 262.18C190.936 262.429 190.803 262.611 190.616 262.727C190.429 262.84 190.198 262.879 189.923 262.845C189.648 262.808 189.339 262.691 188.996 262.493ZM192.279 264.267V258.413L193.032 258.847V259.732L193.085 259.762C193.177 259.526 193.344 259.387 193.586 259.347C193.828 259.306 194.101 259.373 194.405 259.549C194.462 259.582 194.534 259.624 194.619 259.676C194.705 259.728 194.77 259.77 194.814 259.8V260.715C194.788 260.692 194.727 260.646 194.633 260.576C194.54 260.505 194.442 260.439 194.339 260.379C194.092 260.237 193.872 260.17 193.679 260.177C193.487 260.184 193.336 260.259 193.223 260.402C193.113 260.545 193.058 260.748 193.058 261.012V264.716L192.279 264.267ZM196.516 263.191V266.713L195.737 266.263V260.409L196.49 260.844V261.759L196.556 261.797C196.675 261.568 196.855 261.433 197.097 261.393C197.339 261.35 197.651 261.438 198.034 261.659C198.378 261.858 198.678 262.112 198.935 262.424C199.193 262.732 199.393 263.092 199.536 263.502C199.679 263.91 199.75 264.363 199.75 264.861V268.58L198.972 268.13V264.472C198.972 264.012 198.868 263.594 198.661 263.218C198.455 262.84 198.171 262.546 197.81 262.338C197.561 262.194 197.339 262.128 197.143 262.14C196.95 262.152 196.797 262.246 196.684 262.42C196.572 262.594 196.516 262.851 196.516 263.191ZM202.665 270.4C202.344 270.215 202.053 269.977 201.791 269.686C201.529 269.392 201.321 269.068 201.167 268.712C201.013 268.354 200.936 267.984 200.936 267.603C200.936 267.268 200.993 267.029 201.108 266.887C201.222 266.742 201.375 266.665 201.566 266.656C201.758 266.647 201.969 266.68 202.2 266.755C202.433 266.829 202.668 266.916 202.903 267.016C203.211 267.148 203.461 267.258 203.652 267.346C203.846 267.432 203.987 267.472 204.075 267.464C204.165 267.458 204.21 267.382 204.21 267.237V267.207C204.21 266.831 204.121 266.487 203.943 266.176C203.767 265.866 203.499 265.607 203.141 265.4C202.769 265.186 202.477 265.111 202.266 265.177C202.055 265.243 201.906 265.358 201.82 265.522L201.081 264.791C201.213 264.511 201.389 264.336 201.609 264.265C201.831 264.192 202.074 264.192 202.335 264.265C202.599 264.336 202.859 264.445 203.114 264.592C203.277 264.686 203.464 264.817 203.675 264.985C203.889 265.151 204.094 265.36 204.292 265.612C204.493 265.865 204.659 266.168 204.791 266.521C204.923 266.874 204.989 267.283 204.989 267.748V271.604L204.21 271.155V270.362L204.17 270.339C204.117 270.436 204.029 270.521 203.906 270.595C203.783 270.668 203.619 270.697 203.415 270.68C203.21 270.664 202.96 270.57 202.665 270.4ZM202.784 269.661C203.092 269.839 203.352 269.919 203.563 269.901C203.776 269.884 203.937 269.797 204.045 269.638C204.155 269.481 204.21 269.28 204.21 269.036V268.213C204.177 268.239 204.104 268.239 203.992 268.213C203.882 268.185 203.754 268.143 203.609 268.087C203.466 268.03 203.326 267.972 203.19 267.914C203.056 267.854 202.947 267.806 202.863 267.771C202.661 267.684 202.472 267.625 202.296 267.592C202.122 267.557 201.981 267.576 201.873 267.649C201.768 267.72 201.715 267.87 201.715 268.098C201.715 268.411 201.815 268.705 202.015 268.981C202.218 269.255 202.474 269.482 202.784 269.661ZM206.41 272.425V266.572L207.163 267.006V267.921L207.229 267.959C207.334 267.707 207.505 267.563 207.74 267.526C207.976 267.487 208.258 267.563 208.588 267.753C208.923 267.946 209.201 268.195 209.423 268.498C209.648 268.8 209.823 269.144 209.948 269.529L210.001 269.559C210.131 269.332 210.325 269.204 210.585 269.176C210.845 269.146 211.156 269.236 211.519 269.445C211.972 269.707 212.343 270.085 212.631 270.579C212.919 271.07 213.064 271.661 213.064 272.349V276.267L212.285 275.817V271.899C212.285 271.467 212.182 271.1 211.978 270.796C211.773 270.492 211.532 270.261 211.255 270.101C210.899 269.895 210.623 269.86 210.427 269.996C210.231 270.129 210.133 270.385 210.133 270.764V274.575L209.341 274.117V270.108C209.341 269.775 209.247 269.453 209.06 269.142C208.873 268.828 208.632 268.586 208.338 268.416C208.135 268.299 207.946 268.252 207.77 268.275C207.596 268.299 207.455 268.391 207.348 268.55C207.242 268.707 207.189 268.929 207.189 269.216V272.875L206.41 272.425ZM216.613 278.438C216.125 278.156 215.703 277.788 215.349 277.335C214.997 276.88 214.725 276.372 214.534 275.812C214.345 275.251 214.25 274.67 214.25 274.071C214.25 273.471 214.345 272.997 214.534 272.649C214.725 272.3 214.991 272.095 215.333 272.036C215.676 271.975 216.076 272.076 216.534 272.34C216.798 272.493 217.059 272.694 217.316 272.944C217.573 273.195 217.808 273.495 218.019 273.846C218.23 274.194 218.398 274.591 218.524 275.037C218.649 275.483 218.712 275.979 218.712 276.525V276.906L214.804 274.65V273.872L217.92 275.671C217.92 275.341 217.863 275.013 217.748 274.688C217.636 274.364 217.475 274.067 217.266 273.796C217.06 273.527 216.815 273.311 216.534 273.148C216.224 272.969 215.955 272.903 215.729 272.95C215.504 272.996 215.331 273.125 215.21 273.337C215.089 273.549 215.029 273.817 215.029 274.139V274.657C215.029 275.1 215.095 275.512 215.227 275.896C215.361 276.278 215.547 276.618 215.785 276.915C216.022 277.21 216.298 277.448 216.613 277.63C216.818 277.748 217.002 277.822 217.167 277.851C217.335 277.879 217.479 277.861 217.6 277.796C217.721 277.728 217.814 277.612 217.88 277.447L218.633 278.125C218.554 278.374 218.42 278.557 218.233 278.672C218.046 278.785 217.815 278.825 217.54 278.79C217.265 278.754 216.956 278.636 216.613 278.438Z" fill="url(#paint14_linear_406_120)"/>
<path d="M161.633 266.688V258.883L163.996 260.248C164.466 260.519 164.855 260.838 165.161 261.202C165.466 261.564 165.694 261.946 165.844 262.347C165.993 262.746 166.068 263.136 166.068 263.517C166.068 263.853 166.016 264.1 165.913 264.258C165.812 264.419 165.678 264.514 165.51 264.544C165.345 264.576 165.166 264.567 164.972 264.516V264.592C165.179 264.727 165.387 264.93 165.596 265.204C165.805 265.477 165.98 265.796 166.121 266.162C166.262 266.528 166.332 266.917 166.332 267.328C166.332 267.719 166.255 268.027 166.101 268.25C165.947 268.474 165.704 268.581 165.372 268.572C165.039 268.564 164.607 268.405 164.075 268.098L161.633 266.688ZM162.451 266.322L164.075 267.26C164.609 267.568 164.989 267.668 165.213 267.559C165.44 267.448 165.553 267.221 165.553 266.878C165.553 266.614 165.495 266.337 165.378 266.046C165.262 265.752 165.096 265.476 164.88 265.217C164.664 264.955 164.409 264.739 164.114 264.569L162.451 263.609V266.322ZM162.451 262.786L163.969 263.662C164.216 263.804 164.438 263.877 164.636 263.879C164.836 263.883 164.994 263.817 165.111 263.681C165.23 263.546 165.289 263.342 165.289 263.068C165.289 262.725 165.186 262.374 164.979 262.016C164.772 261.655 164.444 261.345 163.996 261.086L162.451 260.194V262.786ZM167.571 270.117V264.263L168.35 264.713V270.566L167.571 270.117ZM167.967 263.516C167.816 263.429 167.685 263.293 167.575 263.11C167.467 262.929 167.413 262.754 167.413 262.586C167.413 262.419 167.467 262.306 167.575 262.249C167.685 262.193 167.816 262.209 167.967 262.297C168.119 262.384 168.249 262.519 168.357 262.701C168.467 262.884 168.522 263.059 168.522 263.227C168.522 263.394 168.467 263.506 168.357 263.562C168.249 263.619 168.119 263.604 167.967 263.516ZM171.836 272.701C171.378 272.437 170.977 272.079 170.631 271.628C170.288 271.179 170.02 270.672 169.826 270.108C169.635 269.545 169.539 268.961 169.539 268.357C169.539 267.747 169.635 267.27 169.826 266.926C170.02 266.583 170.288 266.385 170.631 266.331C170.977 266.279 171.378 266.385 171.836 266.649C172.294 266.914 172.694 267.271 173.037 267.72C173.383 268.171 173.651 268.679 173.843 269.245C174.036 269.811 174.133 270.399 174.133 271.009C174.133 271.614 174.036 272.086 173.843 272.427C173.651 272.768 173.383 272.965 173.037 273.017C172.694 273.071 172.294 272.965 171.836 272.701ZM171.836 271.893C172.184 272.094 172.47 272.156 172.694 272.08C172.919 272.004 173.085 271.829 173.192 271.556C173.3 271.283 173.354 270.951 173.354 270.559C173.354 270.168 173.3 269.772 173.192 269.372C173.085 268.972 172.919 268.603 172.694 268.265C172.47 267.927 172.184 267.658 171.836 267.457C171.488 267.257 171.202 267.196 170.978 267.274C170.754 267.353 170.587 267.53 170.48 267.806C170.372 268.082 170.318 268.415 170.318 268.806C170.318 269.198 170.372 269.592 170.48 269.99C170.587 270.387 170.754 270.754 170.978 271.089C171.202 271.424 171.488 271.692 171.836 271.893ZM179.85 277.328C179.427 277.084 179.055 276.746 178.731 276.312C178.408 275.877 178.155 275.38 177.972 274.822C177.789 274.262 177.698 273.672 177.698 273.052C177.698 272.437 177.789 271.957 177.972 271.61C178.155 271.263 178.409 271.06 178.734 271.002C179.06 270.943 179.436 271.037 179.863 271.284C180.193 271.474 180.454 271.688 180.645 271.926C180.839 272.162 180.986 272.39 181.087 272.608C181.191 272.825 181.271 273.001 181.328 273.136L181.394 273.174V270.293L182.173 270.743V278.547L181.421 278.113V277.214L181.328 277.16C181.271 277.234 181.19 277.322 181.084 277.423C180.979 277.522 180.828 277.579 180.632 277.593C180.436 277.604 180.176 277.516 179.85 277.328ZM179.955 276.581C180.268 276.761 180.532 276.82 180.748 276.756C180.963 276.69 181.127 276.522 181.239 276.251C181.351 275.978 181.408 275.621 181.408 275.179C181.408 274.742 181.353 274.328 181.243 273.936C181.133 273.542 180.97 273.192 180.754 272.884C180.539 272.575 180.272 272.328 179.955 272.145C179.625 271.955 179.35 271.894 179.13 271.962C178.913 272.03 178.749 272.198 178.639 272.467C178.531 272.735 178.477 273.075 178.477 273.487C178.477 273.903 178.532 274.314 178.642 274.718C178.754 275.12 178.919 275.485 179.137 275.811C179.357 276.136 179.63 276.393 179.955 276.581ZM185.833 280.783C185.345 280.501 184.923 280.133 184.569 279.679C184.217 279.225 183.945 278.717 183.754 278.157C183.565 277.595 183.47 277.015 183.47 276.415C183.47 275.816 183.565 275.342 183.754 274.994C183.945 274.644 184.212 274.44 184.553 274.38C184.896 274.319 185.296 274.421 185.754 274.685C186.018 274.838 186.279 275.039 186.536 275.289C186.794 275.539 187.028 275.84 187.239 276.19C187.45 276.538 187.619 276.935 187.744 277.381C187.869 277.827 187.932 278.323 187.932 278.869V279.251L184.025 276.995V276.217L187.14 278.016C187.14 277.686 187.083 277.358 186.968 277.033C186.856 276.709 186.696 276.411 186.487 276.141C186.28 275.872 186.036 275.656 185.754 275.493C185.444 275.314 185.175 275.248 184.949 275.295C184.724 275.341 184.552 275.47 184.431 275.682C184.31 275.894 184.249 276.161 184.249 276.484V277.002C184.249 277.444 184.315 277.857 184.447 278.241C184.581 278.623 184.767 278.963 185.005 279.26C185.242 279.555 185.519 279.793 185.833 279.975C186.038 280.093 186.223 280.166 186.388 280.196C186.555 280.224 186.699 280.205 186.82 280.14C186.941 280.073 187.035 279.957 187.101 279.792L187.853 280.47C187.774 280.719 187.641 280.901 187.454 281.017C187.267 281.13 187.036 281.169 186.761 281.135C186.486 281.098 186.176 280.981 185.833 280.783ZM192.708 280.087L192.008 279.912C191.964 279.752 191.899 279.583 191.813 279.407C191.73 279.229 191.615 279.056 191.47 278.889C191.325 278.721 191.139 278.572 190.912 278.441C190.602 278.262 190.344 278.195 190.137 278.241C189.932 278.285 189.83 278.433 189.83 278.685C189.83 278.908 189.9 279.125 190.041 279.336C190.182 279.547 190.402 279.782 190.701 280.041L191.454 280.689C191.907 281.078 192.244 281.467 192.467 281.857C192.689 282.245 192.8 282.643 192.8 283.052C192.8 283.387 192.716 283.639 192.549 283.807C192.384 283.975 192.153 284.05 191.856 284.031C191.559 284.012 191.214 283.889 190.82 283.662C190.303 283.363 189.875 282.987 189.536 282.532C189.197 282.077 188.983 281.575 188.893 281.025L189.632 281.238C189.702 281.594 189.835 281.907 190.031 282.177C190.229 282.449 190.488 282.677 190.807 282.861C191.17 283.071 191.458 283.148 191.671 283.094C191.887 283.038 191.995 282.884 191.995 282.633C191.995 282.43 191.933 282.224 191.81 282.015C191.687 281.805 191.498 281.591 191.242 281.375L190.397 280.659C189.933 280.264 189.592 279.87 189.374 279.477C189.159 279.084 189.051 278.685 189.051 278.281C189.051 277.95 189.131 277.705 189.292 277.543C189.455 277.383 189.676 277.311 189.955 277.328C190.237 277.346 190.556 277.458 190.912 277.663C191.414 277.953 191.808 278.307 192.094 278.727C192.382 279.147 192.587 279.601 192.708 280.087ZM196.032 286.671C195.557 286.396 195.147 286.031 194.804 285.573C194.461 285.116 194.197 284.607 194.012 284.045C193.827 283.484 193.735 282.911 193.735 282.326C193.735 281.732 193.829 281.262 194.019 280.916C194.21 280.57 194.476 280.366 194.817 280.307C195.161 280.246 195.561 280.347 196.019 280.612C196.375 280.817 196.696 281.079 196.982 281.397C197.268 281.714 197.503 282.063 197.685 282.443C197.868 282.823 197.981 283.208 198.025 283.599L197.246 283.15C197.187 282.849 197.055 282.536 196.85 282.212C196.648 281.887 196.375 281.625 196.032 281.427C195.728 281.252 195.462 281.19 195.233 281.24C195.007 281.29 194.829 281.443 194.702 281.7C194.576 281.955 194.514 282.304 194.514 282.746C194.514 283.198 194.575 283.627 194.698 284.034C194.824 284.442 195 284.804 195.227 285.12C195.455 285.437 195.724 285.685 196.032 285.863C196.234 285.98 196.418 286.045 196.583 286.059C196.748 286.073 196.888 286.037 197.002 285.951C197.116 285.864 197.198 285.728 197.246 285.543L198.025 285.993C197.981 286.313 197.872 286.561 197.698 286.738C197.527 286.913 197.299 287 197.015 286.999C196.734 286.996 196.406 286.887 196.032 286.671ZM199.164 288.357V282.504L199.916 282.938V283.822L199.969 283.853C200.061 283.616 200.229 283.478 200.471 283.437C200.713 283.397 200.985 283.464 201.289 283.639C201.346 283.672 201.418 283.715 201.504 283.767C201.589 283.819 201.654 283.86 201.698 283.891V284.805C201.672 284.783 201.611 284.736 201.517 284.666C201.424 284.595 201.326 284.53 201.223 284.47C200.977 284.328 200.757 284.26 200.563 284.268C200.372 284.274 200.22 284.349 200.108 284.493C199.998 284.635 199.943 284.838 199.943 285.103V288.807L199.164 288.357ZM202.622 290.354V284.5L203.4 284.95V290.803L202.622 290.354ZM203.018 283.753C202.866 283.666 202.735 283.53 202.625 283.347C202.517 283.166 202.463 282.991 202.463 282.823C202.463 282.656 202.517 282.543 202.625 282.486C202.735 282.43 202.866 282.446 203.018 282.534C203.169 282.621 203.299 282.756 203.407 282.938C203.517 283.121 203.572 283.296 203.572 283.464C203.572 283.631 203.517 283.743 203.407 283.799C203.299 283.856 203.169 283.841 203.018 283.753ZM204.827 293.822V285.773L205.579 286.208V287.138L205.672 287.191C205.729 287.122 205.808 287.039 205.909 286.94C206.013 286.839 206.16 286.782 206.352 286.768C206.545 286.753 206.807 286.84 207.137 287.031C207.564 287.277 207.94 287.618 208.266 288.052C208.591 288.487 208.846 288.983 209.028 289.54C209.211 290.098 209.302 290.684 209.302 291.299C209.302 291.919 209.211 292.404 209.028 292.753C208.846 293.1 208.593 293.304 208.269 293.367C207.946 293.426 207.573 293.334 207.15 293.09C206.825 292.902 206.564 292.69 206.368 292.452C206.172 292.212 206.022 291.981 205.916 291.76C205.81 291.537 205.729 291.355 205.672 291.215L205.606 291.177V294.272L204.827 293.822ZM205.593 289.142C205.593 289.584 205.649 290.007 205.761 290.409C205.873 290.81 206.037 291.167 206.253 291.482C206.468 291.795 206.732 292.041 207.045 292.221C207.37 292.409 207.642 292.467 207.86 292.395C208.08 292.321 208.245 292.147 208.355 291.873C208.467 291.597 208.523 291.251 208.523 290.834C208.523 290.423 208.468 290.02 208.358 289.626C208.25 289.231 208.086 288.874 207.866 288.553C207.649 288.232 207.375 287.976 207.045 287.786C206.728 287.603 206.462 287.542 206.246 287.603C206.03 287.661 205.868 287.824 205.758 288.09C205.648 288.355 205.593 288.705 205.593 289.142ZM212.695 290.316V291.078L210.068 289.561V288.799L212.695 290.316ZM210.833 287.839L211.612 288.289V293.868C211.612 294.122 211.644 294.331 211.708 294.495C211.774 294.657 211.858 294.789 211.959 294.891C212.062 294.991 212.171 295.075 212.285 295.141C212.371 295.19 212.442 295.226 212.497 295.247C212.552 295.266 212.596 295.282 212.629 295.293L212.787 296.192C212.734 296.185 212.661 296.165 212.566 296.133C212.471 296.104 212.351 296.048 212.206 295.964C211.986 295.837 211.771 295.658 211.559 295.426C211.35 295.197 211.177 294.93 211.038 294.626C210.902 294.324 210.833 294.002 210.833 293.662V287.839ZM213.866 296.846V290.992L214.645 291.442V297.296L213.866 296.846ZM214.262 290.246C214.111 290.158 213.98 290.023 213.87 289.84C213.762 289.658 213.708 289.483 213.708 289.316C213.708 289.148 213.762 289.036 213.87 288.978C213.98 288.922 214.111 288.938 214.262 289.026C214.414 289.114 214.544 289.248 214.652 289.43C214.762 289.613 214.817 289.788 214.817 289.956C214.817 290.124 214.762 290.235 214.652 290.291C214.544 290.348 214.414 290.333 214.262 290.246ZM218.131 299.43C217.673 299.166 217.272 298.808 216.926 298.357C216.583 297.908 216.315 297.401 216.121 296.837C215.93 296.274 215.834 295.69 215.834 295.086C215.834 294.476 215.93 293.999 216.121 293.655C216.315 293.312 216.583 293.114 216.926 293.06C217.272 293.008 217.673 293.114 218.131 293.379C218.589 293.643 218.989 294 219.332 294.449C219.678 294.9 219.946 295.408 220.138 295.974C220.331 296.54 220.428 297.128 220.428 297.738C220.428 298.343 220.331 298.815 220.138 299.156C219.946 299.498 219.678 299.694 219.332 299.747C218.989 299.8 218.589 299.694 218.131 299.43ZM218.131 298.622C218.479 298.823 218.765 298.885 218.989 298.809C219.214 298.733 219.38 298.558 219.487 298.285C219.595 298.012 219.649 297.68 219.649 297.289C219.649 296.897 219.595 296.502 219.487 296.101C219.38 295.701 219.214 295.332 218.989 294.994C218.765 294.656 218.479 294.387 218.131 294.186C217.783 293.986 217.497 293.925 217.273 294.004C217.049 294.082 216.882 294.26 216.775 294.535C216.667 294.811 216.613 295.144 216.613 295.536C216.613 295.927 216.667 296.321 216.775 296.719C216.882 297.116 217.049 297.483 217.273 297.818C217.497 298.154 217.783 298.422 218.131 298.622ZM222.396 298.249V301.771L221.617 301.321V295.467L222.369 295.902V296.816L222.435 296.855C222.554 296.626 222.735 296.491 222.977 296.451C223.219 296.407 223.531 296.496 223.914 296.717C224.257 296.916 224.557 297.17 224.815 297.481C225.072 297.79 225.272 298.15 225.415 298.56C225.558 298.968 225.63 299.421 225.63 299.919V303.638L224.851 303.188V299.53C224.851 299.07 224.748 298.652 224.541 298.276C224.334 297.897 224.05 297.604 223.689 297.396C223.441 297.252 223.219 297.186 223.023 297.198C222.829 297.21 222.676 297.304 222.564 297.478C222.452 297.652 222.396 297.909 222.396 298.249Z" fill="#455A64"/>
<defs>
<linearGradient id="paint0_linear_406_120" x1="27.7158" y1="258.692" x2="27.7158" y2="314.173" gradientUnits="userSpaceOnUse">
<stop stop-color="#108979"/>
<stop offset="0.62" stop-color="#132F4A"/>
</linearGradient>
<linearGradient id="paint1_linear_406_120" x1="14.8071" y1="277.116" x2="14.8071" y2="321.898" gradientUnits="userSpaceOnUse">
<stop stop-color="#108979"/>
<stop offset="0.62" stop-color="#132F4A"/>
</linearGradient>
<linearGradient id="paint2_linear_406_120" x1="243.419" y1="18.1095" x2="243.419" y2="374.055" gradientUnits="userSpaceOnUse">
<stop stop-color="#108979"/>
<stop offset="0.62" stop-color="#132F4A"/>
</linearGradient>
<linearGradient id="paint3_linear_406_120" x1="136.279" y1="73.1707" x2="136.279" y2="81.7874" gradientUnits="userSpaceOnUse">
<stop stop-color="#108979"/>
<stop offset="0.62" stop-color="#132F4A"/>
</linearGradient>
<linearGradient id="paint4_linear_406_120" x1="136.279" y1="80.7406" x2="136.279" y2="91.8865" gradientUnits="userSpaceOnUse">
<stop stop-color="#108979"/>
<stop offset="0.62" stop-color="#132F4A"/>
</linearGradient>
<linearGradient id="paint5_linear_406_120" x1="194.282" y1="188.846" x2="194.282" y2="236.021" gradientUnits="userSpaceOnUse">
<stop stop-color="#108979"/>
<stop offset="0.62" stop-color="#132F4A"/>
</linearGradient>
<linearGradient id="paint6_linear_406_120" x1="255.071" y1="143.314" x2="255.071" y2="146.883" gradientUnits="userSpaceOnUse">
<stop stop-color="#108979"/>
<stop offset="0.62" stop-color="#132F4A"/>
</linearGradient>
<linearGradient id="paint7_linear_406_120" x1="255.071" y1="149.563" x2="255.071" y2="153.132" gradientUnits="userSpaceOnUse">
<stop stop-color="#108979"/>
<stop offset="0.62" stop-color="#132F4A"/>
</linearGradient>
<linearGradient id="paint8_linear_406_120" x1="255.071" y1="155.813" x2="255.071" y2="159.382" gradientUnits="userSpaceOnUse">
<stop stop-color="#108979"/>
<stop offset="0.62" stop-color="#132F4A"/>
</linearGradient>
<linearGradient id="paint9_linear_406_120" x1="196.465" y1="290.914" x2="196.465" y2="365.58" gradientUnits="userSpaceOnUse">
<stop stop-color="#108979"/>
<stop offset="0.62" stop-color="#132F4A"/>
</linearGradient>
<linearGradient id="paint10_linear_406_120" x1="196.465" y1="277.981" x2="196.465" y2="352.646" gradientUnits="userSpaceOnUse">
<stop stop-color="#108979"/>
<stop offset="0.62" stop-color="#132F4A"/>
</linearGradient>
<linearGradient id="paint11_linear_406_120" x1="196.465" y1="265.047" x2="196.465" y2="339.712" gradientUnits="userSpaceOnUse">
<stop stop-color="#108979"/>
<stop offset="0.62" stop-color="#132F4A"/>
</linearGradient>
<linearGradient id="paint12_linear_406_120" x1="226.49" y1="361.81" x2="221.727" y2="370.06" gradientUnits="userSpaceOnUse">
<stop stop-color="#108979"/>
<stop offset="0.62" stop-color="#132F4A"/>
</linearGradient>
<linearGradient id="paint13_linear_406_120" x1="159.291" y1="322.944" x2="154.528" y2="331.194" gradientUnits="userSpaceOnUse">
<stop stop-color="#108979"/>
<stop offset="0.62" stop-color="#132F4A"/>
</linearGradient>
<linearGradient id="paint14_linear_406_120" x1="193.611" y1="255.036" x2="187.982" y2="264.786" gradientUnits="userSpaceOnUse">
<stop stop-color="#108979"/>
<stop offset="0.62" stop-color="#132F4A"/>
</linearGradient>
</defs>
</svg>
