<svg width="458" height="425" viewBox="0 0 458 425" fill="none" xmlns="http://www.w3.org/2000/svg">
<path d="M394.22 351.405C428.912 351.405 457.036 335.167 457.036 315.138C457.036 295.108 428.912 278.871 394.22 278.871C359.527 278.871 331.404 295.108 331.404 315.138C331.404 335.167 359.527 351.405 394.22 351.405Z" fill="#E0E0E0"/>
<path d="M45.1626 325.568L64.8596 336.944C66.3336 337.795 68.7236 337.796 70.1976 336.944L300.22 204.139C301.694 203.288 301.694 201.908 300.22 201.057L280.52 189.683C279.046 188.832 276.656 188.832 275.182 189.683L45.1626 322.485C43.6886 323.336 43.6886 324.716 45.1626 325.568Z" fill="#E0E0E0"/>
<path d="M310.462 373.127L222.116 424.134C220.932 424.817 219.013 424.817 217.829 424.134L98.6047 355.3C97.4207 354.616 97.4207 353.508 98.6047 352.825L186.951 301.818C188.135 301.135 190.054 301.135 191.238 301.818L310.463 370.652C311.646 371.335 311.646 372.443 310.462 373.127Z" fill="#E0E0E0"/>
<path opacity="0.1" d="M362.414 239.071L353.577 233.969C351.91 233.006 349.854 233.013 348.193 233.986L238.193 298.337L227.835 310.534C227.331 311.128 227.892 312.017 228.645 311.818L251.194 305.845L362.414 241.659C363.41 241.083 363.41 239.646 362.414 239.071Z" fill="#455A64"/>
<path d="M94.4466 20.2176L90.5436 21.5176V14.0716C90.5436 8.16865 85.1066 6.75365 79.2046 9.70465C73.3026 12.6556 68.5166 19.8337 68.5166 25.7367V26.8177C67.1776 26.3557 65.4486 26.5346 63.5566 27.4796C59.3096 29.6036 55.8656 34.7686 55.8656 39.0156V39.5066L50.4236 42.2276C47.6266 43.6266 45.3586 47.0276 45.3586 49.8246C45.3586 52.6216 47.6266 53.7557 50.4236 52.3567L94.4456 30.3457C97.2426 28.9467 99.5106 25.5457 99.5106 22.7487C99.5116 19.9527 97.2446 18.8186 94.4466 20.2176Z" fill="#EBEBEB"/>
<path d="M139.794 36.9927L132.719 40.5297C132.754 40.2557 132.778 39.9847 132.778 39.7187V37.9437C132.778 34.7847 130.217 33.5047 127.058 35.0837C125.779 35.7227 124.602 36.7367 123.649 37.9227C123.132 33.9507 119.533 32.4707 115.162 34.6567C110.436 37.0197 106.605 42.7667 106.605 47.4927V50.1487C106.605 51.3727 106.866 52.4037 107.33 53.2247L101.453 56.1627C99.7007 57.0387 98.2797 59.1697 98.2797 60.9217C98.2797 62.6737 99.6997 63.3837 101.453 62.5077L139.793 43.3377C141.545 42.4617 142.966 40.3307 142.966 38.5787C142.966 36.8277 141.546 36.1167 139.794 36.9927Z" fill="#EBEBEB"/>
<path d="M53.4417 298.094L61.5987 295.16C61.5987 295.16 63.9927 277.355 61.7777 262.72C58.4637 240.82 39.9277 219.617 26.7177 215.517C2.35674 207.955 2.54074 230.968 20.8797 243.798C36.8297 254.955 51.0377 271.639 53.4417 298.094Z" fill="url(#paint0_linear_406_794)"/>
<path d="M57.4418 297.079C57.4088 297.075 57.3768 297.07 57.3448 297.063C56.8278 296.95 56.4998 296.439 56.6138 295.921C60.9868 275.889 45.4548 238.074 23.5778 226.849C23.1068 226.607 22.9218 226.029 23.1628 225.558C23.4038 225.089 23.9768 224.9 24.4538 225.144C46.9938 236.709 62.9958 275.682 58.4868 296.332C58.3818 296.817 57.9258 297.135 57.4418 297.079Z" fill="white"/>
<path d="M64.1157 315.758C64.5097 313.388 64.7557 309.903 64.8247 309.047C65.0697 306.03 64.7617 302.955 63.7717 300.087C63.3337 298.819 62.4627 297.593 62.3047 296.3C62.1527 295.057 62.4457 293.864 62.1187 292.579C61.4747 290.046 59.8287 287.746 57.5477 286.442C55.3667 285.195 52.5307 284.638 51.3167 282.439C50.4997 280.959 50.6877 279.157 50.7547 277.467C50.8567 274.882 50.5457 272.103 48.8857 270.118C46.7497 267.565 43.0047 267.058 39.6927 267.398C36.3807 267.738 33.1037 268.734 29.7857 268.463C24.1757 268.004 19.3867 264.018 13.8167 263.205C11.8477 262.918 9.83073 263.04 7.88273 263.444C5.00373 264.041 2.05173 265.443 0.718727 268.064C-0.501273 270.464 -0.0782722 273.47 1.31173 275.776C2.85973 278.344 5.33773 279.956 7.90273 281.367C10.5807 282.84 12.4797 284.311 11.1737 287.656C10.7957 288.624 10.3437 289.593 10.2997 290.63C10.2217 292.462 11.4697 294.146 13.0297 295.111C14.5897 296.076 16.4287 296.459 18.2257 296.825C20.3477 297.258 22.4697 297.69 24.5907 298.123C26.4427 298.501 28.7207 299.344 28.8127 301.232C28.8697 302.402 27.9977 303.384 27.5457 304.465C26.6387 306.631 27.5247 309.252 29.2227 310.874C30.9207 312.496 33.2717 313.263 35.5957 313.601C37.9197 313.939 40.2827 313.898 42.6167 314.163C46.2197 314.572 49.7367 315.719 52.8867 317.513C53.6997 317.976 54.5107 318.49 55.4287 318.671C56.7737 318.938 63.8677 317.249 64.1157 315.758Z" fill="url(#paint1_linear_406_794)"/>
<g opacity="0.1">
<path d="M64.1157 315.758C64.5097 313.388 64.7557 309.903 64.8247 309.047C65.0697 306.03 64.7617 302.955 63.7717 300.087C63.3337 298.819 62.4627 297.593 62.3047 296.3C62.1527 295.057 62.4457 293.864 62.1187 292.579C61.4747 290.046 59.8287 287.746 57.5477 286.442C55.3667 285.195 52.5307 284.638 51.3167 282.439C50.4997 280.959 50.6877 279.157 50.7547 277.467C50.8567 274.882 50.5457 272.103 48.8857 270.118C46.7497 267.565 43.0047 267.058 39.6927 267.398C36.3807 267.738 33.1037 268.734 29.7857 268.463C24.1757 268.004 19.3867 264.018 13.8167 263.205C11.8477 262.918 9.83073 263.04 7.88273 263.444C5.00373 264.041 2.05173 265.443 0.718727 268.064C-0.501273 270.464 -0.0782722 273.47 1.31173 275.776C2.85973 278.344 5.33773 279.956 7.90273 281.367C10.5807 282.84 12.4797 284.311 11.1737 287.656C10.7957 288.624 10.3437 289.593 10.2997 290.63C10.2217 292.462 11.4697 294.146 13.0297 295.111C14.5897 296.076 16.4287 296.459 18.2257 296.825C20.3477 297.258 22.4697 297.69 24.5907 298.123C26.4427 298.501 28.7207 299.344 28.8127 301.232C28.8697 302.402 27.9977 303.384 27.5457 304.465C26.6387 306.631 27.5247 309.252 29.2227 310.874C30.9207 312.496 33.2717 313.263 35.5957 313.601C37.9197 313.939 40.2827 313.898 42.6167 314.163C46.2197 314.572 49.7367 315.719 52.8867 317.513C53.6997 317.976 54.5107 318.49 55.4287 318.671C56.7737 318.938 63.8677 317.249 64.1157 315.758Z" fill="black"/>
</g>
<path d="M60.2708 317.966C59.9448 317.939 59.6488 317.729 59.5258 317.404C51.5498 296.334 32.5878 279.487 6.13378 269.969C5.67978 269.806 5.44378 269.304 5.60678 268.85C5.77178 268.395 6.27878 268.166 6.72578 268.323C33.6688 278.017 53.0008 295.228 61.1608 316.784C61.3308 317.236 61.1038 317.741 60.6528 317.912C60.5268 317.959 60.3958 317.976 60.2708 317.966Z" fill="white"/>
<path d="M342.674 246.438L340.849 247.5L338.652 248.79L250.788 299.902C251.462 298.359 250.905 295.291 249.315 292.353C247.463 288.93 244.645 286.232 242.619 286.142L329.9 235.371L334.108 232.92C331.472 234.658 340.005 248.145 342.674 246.438Z" fill="url(#paint2_linear_406_794)"/>
<path d="M333.837 233.079C334.996 232.354 337.032 234.521 338.983 237.274C341.584 240.925 343.707 245.767 342.172 246.731L339.169 248.48L338.084 249.087C339.619 248.123 337.499 243.278 334.897 239.627C333.024 236.991 330.888 234.971 329.704 235.47L329.692 235.477L333.837 233.079Z" fill="#EBEBEB"/>
<path d="M330.596 234.952C333.285 233.262 341.801 246.817 339.112 248.507L335.037 250.889C337.726 249.199 329.211 235.646 326.522 237.336L330.596 234.952Z" fill="url(#paint3_linear_406_794)"/>
<path d="M322.641 239.602L326.663 237.25C329.291 235.572 337.64 248.576 335.415 250.669C335.381 250.711 335.329 250.746 335.276 250.782L331.207 253.119C333.843 251.382 325.309 237.895 322.641 239.602Z" fill="#EBEBEB"/>
<path d="M242.613 286.134L242.619 286.144L242.632 286.135C242.626 286.135 242.62 286.134 242.613 286.134Z" fill="#FAFAFA"/>
<path d="M230.566 299.984L227.643 303.344L230.566 299.984Z" fill="#E0E0E0"/>
<path d="M248.892 289.774C247.22 287.667 244.957 286.147 242.633 286.135L242.619 286.143L242.613 286.134L230.565 299.984C231.042 300.062 231.502 300.302 231.825 300.662C233.247 302.562 233.113 303.5 233.113 303.5L250.785 299.902C252.526 297.207 251.342 292.862 248.892 289.774Z" fill="#FFA8A7"/>
<path d="M231.826 300.662C231.493 300.183 230.803 299.939 230.566 299.984L227.643 303.344C227.371 303.657 227.444 304.074 227.695 304.31C227.846 304.452 228.061 304.529 228.305 304.479L233.114 303.5C233.114 303.5 233.325 302.567 231.826 300.662Z" fill="#37474F"/>
<path d="M358.694 237.089L342.676 246.448C342.581 246.503 342.486 246.539 342.392 246.556C343.487 245.277 341.46 240.744 338.982 237.275C337.183 234.74 335.047 232.781 333.837 233.08L350.54 223.312C354.198 220.762 359.013 227.669 359.978 232.616C360.359 234.484 360.047 236.134 358.694 237.089Z" fill="#F28F8F"/>
<path opacity="0.15" d="M358.694 237.089C360.047 236.135 360.359 234.484 359.978 232.615C359.933 232.382 359.871 232.14 359.808 231.899L251.344 294.731L227.695 304.31C227.846 304.452 228.061 304.529 228.305 304.479L233.114 303.5L250.786 299.902C250.789 299.897 250.79 299.892 250.793 299.887C250.791 299.892 250.79 299.898 250.788 299.903L358.694 237.089Z" fill="black"/>
<path d="M290.197 4.93565C288.693 4.13465 286.757 4.24564 284.637 5.46564L72.6568 127.859C70.3518 129.19 68.2558 131.607 66.6898 134.467L58.1498 129.535C60.0208 125.979 62.6688 124.774 64.9748 123.43L276.942 1.03564C279.161 -0.234356 281.171 -0.295357 282.699 0.628643V0.616645L290.197 4.93565Z" fill="#455A64"/>
<path d="M59.3158 326.287V326.275C57.4418 325.227 56.2588 322.749 56.2588 319.223V140.072C56.2588 136.064 56.5388 132.483 58.1498 129.534L66.6898 134.466C66.4678 134.873 66.2578 135.292 66.0488 135.724C65.8888 136.069 65.7408 136.414 65.6048 136.76C65.5798 136.809 65.5558 136.871 65.5428 136.92C65.3698 137.315 65.2218 137.721 65.0868 138.128C64.9388 138.547 64.8038 138.979 64.6918 139.398C64.5928 139.718 64.5188 140.039 64.4578 140.36C64.1248 141.741 63.9528 143.146 63.9528 144.502V323.653C63.9528 327.216 65.1608 329.718 67.0598 330.754L59.3158 326.287Z" fill="#263238"/>
<path d="M284.633 5.47764L70.7398 128.79C65.9288 131.567 63.9478 136.341 63.9478 142.755V323.661C63.9478 330.075 67.8478 333.024 72.6578 330.246L284.632 207.863C289.443 205.085 293.342 197.634 293.342 191.22V12.0626C293.343 5.64764 289.443 2.69964 284.633 5.47764Z" fill="#37474F"/>
<path d="M272.956 206.256L84.3348 315.156C81.8418 316.595 79.8208 315.067 79.8208 311.743V138.078C79.8208 134.754 81.8418 130.892 84.3348 129.453L272.956 20.5526C275.449 19.1136 277.47 20.6406 277.47 23.9646V197.631C277.47 200.956 275.449 204.817 272.956 206.256Z" fill="url(#paint4_linear_406_794)"/>
<path opacity="0.1" d="M272.956 206.256L84.3348 315.156C81.8418 316.595 79.8208 315.067 79.8208 311.743V138.078C79.8208 134.754 81.8418 130.892 84.3348 129.453L272.956 20.5526C275.449 19.1136 277.47 20.6406 277.47 23.9646V197.631C277.47 200.956 275.449 204.817 272.956 206.256Z" fill="black"/>
<path d="M74.1558 234.94C74.1558 236.612 73.1388 238.555 71.8848 239.279C70.6308 240.003 69.6138 239.235 69.6138 237.562C69.6138 235.89 70.6308 233.948 71.8848 233.223C73.1388 232.499 74.1558 233.268 74.1558 234.94Z" fill="#263238"/>
<path d="M71.8848 205.854C70.9098 206.417 70.1198 207.927 70.1198 209.227V224.688C70.1198 225.988 70.9098 226.585 71.8848 226.023C72.8598 225.46 73.6498 223.95 73.6498 222.65V207.189C73.6498 205.889 72.8598 205.291 71.8848 205.854Z" fill="#263238"/>
<path d="M270.704 37.7876C270.561 36.7096 269.693 36.3186 268.662 36.9196L92.5098 138.612C91.9468 138.946 91.4318 139.509 91.0498 140.158L87.1758 137.916C87.3668 137.592 87.5858 137.296 87.8338 137.029C87.8908 136.962 87.9578 136.905 88.0248 136.838C88.2158 136.657 88.4258 136.504 88.6358 136.38L264.789 34.6866C265.648 34.1906 266.898 34.0476 267.909 34.2856C268.233 34.3526 268.529 34.4666 268.787 34.6196C268.911 34.6866 269.026 34.7726 269.15 34.8676C269.226 34.9246 269.303 34.9916 269.369 35.0676C269.426 35.1156 269.483 35.1726 269.531 35.2296C269.636 35.3346 269.722 35.4486 269.808 35.5636C269.884 35.6586 269.951 35.7636 270.018 35.8686C270.161 36.0976 270.295 36.3356 270.39 36.5936C270.457 36.7366 270.504 36.8796 270.552 37.0326C270.581 37.1376 270.609 37.2426 270.638 37.3566C270.666 37.5016 270.694 37.6446 270.704 37.7876Z" fill="#FAFAFA"/>
<path d="M91.5947 300.868C90.9177 300.868 90.4477 300.328 90.4477 299.392V142.193C90.4477 141.535 90.6767 140.8 91.0487 140.161L87.1757 137.919C86.9387 138.312 86.7627 138.768 86.6577 139.198C86.6197 139.37 86.5937 139.517 86.5777 139.71C86.5707 139.796 86.5677 139.873 86.5677 139.959L86.5737 297.16C86.5737 298.477 87.4327 300.042 88.5107 300.662C89.1497 301.034 90.0357 301.163 90.8857 301.079C91.9847 300.97 92.4797 300.597 92.5087 300.587C92.0597 300.839 91.6907 300.868 91.5947 300.868Z" fill="#E0E0E0"/>
<path d="M270.723 38.1165C270.723 36.7995 269.798 36.2655 268.662 36.9235L92.5088 138.616C91.3738 139.274 90.4478 140.877 90.4478 142.194V299.393C90.4478 300.71 91.3738 301.245 92.5098 300.587L268.663 198.897C269.808 198.239 270.725 196.634 270.725 195.317L270.723 38.1165Z" fill="#F0F0F0"/>
<path d="M118.174 182.533L108.399 194.934L102.693 202.174C101.542 199.841 100.946 196.883 100.946 193.52C100.946 185.169 104.551 175.515 110.408 168.072L111.7 170.465L118.174 182.533Z" fill="url(#paint5_linear_406_794)"/>
<path d="M126.545 157.59L118.9 180.735L115.446 174.323L111.417 166.83C113.921 163.861 116.618 161.538 119.435 159.913C121.89 158.489 124.314 157.701 126.545 157.59Z" fill="url(#paint6_linear_406_794)"/>
<path d="M135.291 162.771L120.921 179.322L128.091 157.631C131.181 157.954 133.705 159.761 135.291 162.771Z" fill="url(#paint7_linear_406_794)"/>
<path d="M137.199 171.708C137.199 184.341 128.898 199.418 118.689 205.305C112.347 208.971 106.712 208.304 103.491 203.548L119.568 183.149L119.659 183.038L135.968 164.255C136.785 166.366 137.199 168.87 137.199 171.708Z" fill="url(#paint8_linear_406_794)"/>
<path opacity="0.7" d="M126.545 157.59L118.9 180.735L115.446 174.323L111.417 166.83C113.921 163.861 116.618 161.538 119.435 159.913C121.89 158.489 124.314 157.701 126.545 157.59Z" fill="white"/>
<path opacity="0.3" d="M135.291 162.771L120.921 179.322L128.091 157.631C131.181 157.954 133.705 159.761 135.291 162.771Z" fill="black"/>
<path opacity="0.5" d="M137.199 171.708C137.199 184.341 128.898 199.418 118.689 205.305C112.347 208.971 106.712 208.304 103.491 203.548L119.568 183.149L119.659 183.038L135.968 164.255C136.785 166.366 137.199 168.87 137.199 171.708Z" fill="white"/>
<path d="M103.505 147.402C103.882 147.184 104.221 147.05 104.518 147.001C104.816 146.953 105.07 146.992 105.278 147.117C105.488 147.243 105.647 147.466 105.759 147.785C105.871 148.104 105.927 148.52 105.927 149.03C105.927 149.691 105.838 150.291 105.661 150.83C105.483 151.369 105.231 151.847 104.905 152.264L105.97 154.796C105.988 154.839 105.995 154.883 105.995 154.927C105.995 155.006 105.976 155.085 105.939 155.164C105.903 155.242 105.858 155.297 105.807 155.327L104.638 156.001C104.523 156.067 104.442 156.074 104.394 156.023C104.345 155.972 104.306 155.915 104.278 155.852L103.326 153.572L102.536 154.028V156.858C102.536 156.955 102.513 157.052 102.466 157.149C102.421 157.246 102.366 157.313 102.303 157.349L101.178 157.998C101.116 158.034 101.061 158.03 101.015 157.986C100.969 157.943 100.947 157.872 100.947 157.775V149.235C100.947 149.138 100.969 149.041 101.015 148.944C101.061 148.848 101.116 148.781 101.178 148.745L103.505 147.402ZM102.535 151.968L103.505 151.408C103.745 151.269 103.945 151.083 104.102 150.852C104.259 150.62 104.337 150.319 104.337 149.949C104.337 149.579 104.259 149.368 104.102 149.318C103.944 149.268 103.745 149.312 103.505 149.451L102.535 150.011V151.968Z" fill="#455A64"/>
<path d="M111.644 149.842C111.707 149.806 111.762 149.809 111.808 149.853C111.853 149.898 111.877 149.968 111.877 150.065V151.466C111.877 151.563 111.853 151.66 111.808 151.756C111.762 151.853 111.707 151.92 111.644 151.957L107.574 154.307C107.511 154.343 107.457 154.339 107.411 154.295C107.365 154.252 107.342 154.181 107.342 154.084V145.544C107.342 145.447 107.365 145.35 107.411 145.253C107.457 145.157 107.511 145.09 107.574 145.054L111.576 142.744C111.638 142.708 111.693 142.711 111.738 142.755C111.785 142.799 111.808 142.87 111.808 142.967V144.368C111.808 144.465 111.785 144.562 111.738 144.659C111.693 144.756 111.638 144.823 111.576 144.859L108.932 146.386V147.814L111.387 146.396C111.45 146.36 111.504 146.364 111.55 146.408C111.596 146.452 111.618 146.522 111.618 146.619V148.021C111.618 148.118 111.596 148.214 111.55 148.311C111.503 148.408 111.449 148.475 111.387 148.511L108.932 149.929V151.409L111.644 149.842Z" fill="#455A64"/>
<path d="M115.981 140.199C116.347 139.987 116.677 139.861 116.969 139.82C117.261 139.78 117.509 139.83 117.715 139.971C117.922 140.112 118.081 140.344 118.192 140.668C118.304 140.991 118.359 141.408 118.359 141.92C118.359 142.44 118.304 142.926 118.192 143.378C118.081 143.831 117.922 144.244 117.715 144.619C117.509 144.994 117.26 145.332 116.969 145.632C116.677 145.932 116.348 146.188 115.981 146.4L114.882 147.034V149.732C114.882 149.829 114.859 149.926 114.812 150.023C114.767 150.12 114.712 150.187 114.649 150.223L113.524 150.872C113.461 150.908 113.407 150.904 113.361 150.86C113.315 150.817 113.292 150.746 113.292 150.649V142.109C113.292 142.012 113.315 141.915 113.361 141.818C113.407 141.722 113.461 141.655 113.524 141.619L115.981 140.199ZM114.882 144.971L115.938 144.361C116.178 144.222 116.377 144.027 116.534 143.772C116.692 143.518 116.771 143.206 116.771 142.836C116.771 142.466 116.692 142.245 116.534 142.173C116.377 142.101 116.178 142.133 115.938 142.272L114.882 142.882V144.971Z" fill="#455A64"/>
<path d="M119.416 141.666C119.433 141.162 119.503 140.657 119.627 140.15C119.75 139.643 119.924 139.163 120.151 138.711C120.377 138.259 120.652 137.844 120.976 137.468C121.298 137.092 121.672 136.782 122.096 136.537C122.514 136.296 122.886 136.176 123.213 136.176C123.538 136.177 123.815 136.274 124.041 136.464C124.267 136.655 124.442 136.934 124.565 137.298C124.688 137.663 124.758 138.088 124.776 138.571C124.787 138.944 124.793 139.337 124.793 139.751C124.793 140.166 124.787 140.556 124.776 140.925C124.758 141.429 124.688 141.934 124.565 142.441C124.442 142.948 124.268 143.43 124.041 143.887C123.815 144.344 123.538 144.759 123.213 145.132C122.886 145.506 122.514 145.813 122.096 146.055C121.672 146.3 121.298 146.423 120.976 146.424C120.653 146.425 120.377 146.329 120.151 146.133C119.925 145.937 119.75 145.657 119.627 145.292C119.503 144.926 119.433 144.503 119.416 144.019C119.405 143.664 119.399 143.28 119.399 142.865C119.399 142.452 119.405 142.052 119.416 141.666ZM123.186 141.777C123.192 141.614 123.197 141.435 123.203 141.238C123.209 141.041 123.212 140.841 123.212 140.638C123.212 140.435 123.208 140.241 123.203 140.054C123.197 139.868 123.192 139.702 123.186 139.555C123.175 139.342 123.144 139.156 123.096 138.999C123.048 138.843 122.979 138.721 122.89 138.635C122.801 138.55 122.691 138.506 122.559 138.503C122.428 138.5 122.273 138.549 122.095 138.652C121.918 138.755 121.763 138.884 121.632 139.039C121.5 139.195 121.39 139.366 121.301 139.553C121.212 139.741 121.143 139.942 121.095 140.154C121.046 140.368 121.016 140.588 121.005 140.815C120.994 140.972 120.986 141.145 120.984 141.336C120.981 141.527 120.979 141.724 120.979 141.927C120.979 142.129 120.981 142.327 120.984 142.519C120.987 142.711 120.994 142.883 121.005 143.036C121.027 143.464 121.127 143.772 121.301 143.962C121.475 144.153 121.74 144.146 122.095 143.941C122.45 143.736 122.714 143.438 122.885 143.048C123.056 142.657 123.157 142.234 123.186 141.777Z" fill="#455A64"/>
<path d="M128.766 132.817C129.144 132.599 129.483 132.465 129.78 132.416C130.078 132.368 130.332 132.407 130.54 132.533C130.749 132.659 130.909 132.882 131.021 133.201C131.133 133.52 131.188 133.936 131.188 134.446C131.188 135.107 131.099 135.707 130.921 136.246C130.744 136.784 130.492 137.262 130.166 137.68L131.23 140.212C131.248 140.255 131.256 140.299 131.256 140.342C131.256 140.421 131.237 140.5 131.2 140.579C131.163 140.657 131.119 140.712 131.067 140.742L129.9 141.416C129.785 141.482 129.704 141.489 129.656 141.438C129.607 141.387 129.567 141.33 129.539 141.267L128.586 138.988L127.796 139.444V142.274C127.796 142.371 127.773 142.468 127.727 142.565C127.681 142.662 127.627 142.729 127.564 142.765L126.439 143.414C126.376 143.45 126.322 143.446 126.276 143.402C126.229 143.359 126.207 143.288 126.207 143.191V134.651C126.207 134.554 126.229 134.457 126.276 134.36C126.322 134.264 126.376 134.197 126.439 134.161L128.766 132.817ZM127.796 137.383L128.766 136.823C129.006 136.684 129.206 136.498 129.363 136.267C129.521 136.036 129.599 135.734 129.599 135.364C129.599 134.994 129.521 134.783 129.363 134.733C129.205 134.683 129.006 134.727 128.766 134.866L127.796 135.426V137.383Z" fill="#455A64"/>
<path d="M136.967 128.082C137.029 128.046 137.084 128.05 137.13 128.093C137.176 128.137 137.198 128.208 137.198 128.305V129.706C137.198 129.803 137.176 129.9 137.13 129.996C137.083 130.093 137.029 130.16 136.967 130.196L135.456 131.068V137.85C135.456 137.947 135.433 138.044 135.387 138.14C135.341 138.237 135.286 138.304 135.223 138.341L134.098 138.99C134.035 139.026 133.981 139.022 133.935 138.978C133.889 138.935 133.866 138.864 133.866 138.767V131.985L132.355 132.858C132.293 132.894 132.239 132.89 132.192 132.846C132.146 132.803 132.124 132.732 132.124 132.635V131.234C132.124 131.137 132.146 131.04 132.192 130.943C132.239 130.847 132.293 130.78 132.355 130.744L136.967 128.082Z" fill="#455A64"/>
<path d="M144.95 123.478L257.343 58.5867V67.5377L144.95 132.428V123.478Z" fill="url(#paint9_linear_406_794)"/>
<g opacity="0.3">
<path d="M144.259 151.674C143.929 151.674 143.609 151.503 143.432 151.197C143.168 150.74 143.325 150.157 143.781 149.893L209.667 111.854C210.121 111.591 210.706 111.746 210.97 112.203C211.234 112.659 211.077 113.243 210.621 113.506L144.735 151.545C144.585 151.633 144.421 151.674 144.259 151.674Z" fill="#455A64"/>
<path d="M144.259 160.625C143.929 160.625 143.609 160.454 143.432 160.148C143.168 159.692 143.325 159.108 143.781 158.845L209.667 120.805C210.121 120.542 210.706 120.697 210.97 121.154C211.234 121.611 211.077 122.194 210.621 122.457L144.735 160.497C144.585 160.584 144.421 160.625 144.259 160.625Z" fill="#455A64"/>
<path d="M144.259 169.575C143.929 169.575 143.609 169.404 143.432 169.098C143.168 168.641 143.325 168.058 143.781 167.794L209.667 129.755C210.121 129.491 210.706 129.648 210.97 130.104C211.234 130.56 211.077 131.144 210.621 131.407L144.735 169.446C144.585 169.534 144.421 169.575 144.259 169.575Z" fill="#455A64"/>
<path d="M144.259 178.525C143.929 178.525 143.609 178.354 143.432 178.048C143.168 177.591 143.325 177.008 143.781 176.744L209.667 138.705C210.121 138.441 210.706 138.597 210.97 139.054C211.234 139.51 211.077 140.094 210.621 140.357L144.735 178.396C144.585 178.484 144.421 178.525 144.259 178.525Z" fill="#455A64"/>
<path d="M144.259 187.475C143.929 187.475 143.609 187.304 143.432 186.998C143.168 186.542 143.325 185.958 143.781 185.695L209.667 147.656C210.121 147.392 210.706 147.548 210.97 148.005C211.234 148.461 211.077 149.045 210.621 149.308L144.735 187.347C144.585 187.434 144.421 187.475 144.259 187.475Z" fill="#455A64"/>
</g>
<path d="M219.62 102.685L228.097 97.7908C228.667 97.4618 229.13 97.7288 229.13 98.3868V108.175C229.13 108.834 228.668 109.635 228.097 109.964L219.62 114.858C219.05 115.187 218.587 114.92 218.587 114.262V104.473C218.587 103.815 219.049 103.014 219.62 102.685Z" fill="url(#paint10_linear_406_794)"/>
<path d="M233.677 94.5687L242.154 89.6747C242.724 89.3457 243.187 89.6127 243.187 90.2707V100.059C243.187 100.718 242.725 101.519 242.154 101.848L233.677 106.742C233.106 107.071 232.644 106.804 232.644 106.146V96.3577C232.644 95.6987 233.106 94.8987 233.677 94.5687Z" fill="url(#paint11_linear_406_794)"/>
<path d="M247.734 86.4527L256.211 81.5587C256.781 81.2297 257.244 81.4967 257.244 82.1547V91.9427C257.244 92.6017 256.782 93.4027 256.211 93.7317L247.734 98.6257C247.163 98.9547 246.701 98.6877 246.701 98.0297V88.2417C246.701 87.5837 247.163 86.7827 247.734 86.4527Z" fill="url(#paint12_linear_406_794)"/>
<path d="M219.62 118.916L228.097 114.022C228.667 113.693 229.13 113.96 229.13 114.618V124.406C229.13 125.065 228.668 125.866 228.097 126.195L219.62 131.089C219.05 131.418 218.587 131.151 218.587 130.493V120.705C218.587 120.047 219.049 119.246 219.62 118.916Z" fill="url(#paint13_linear_406_794)"/>
<path d="M233.677 110.801L242.154 105.907C242.724 105.578 243.187 105.845 243.187 106.503V116.291C243.187 116.95 242.725 117.751 242.154 118.08L233.677 122.974C233.106 123.303 232.644 123.036 232.644 122.378V112.59C232.644 111.931 233.106 111.13 233.677 110.801Z" fill="url(#paint14_linear_406_794)"/>
<path d="M247.734 102.685L256.211 97.7908C256.781 97.4618 257.244 97.7288 257.244 98.3868V108.175C257.244 108.834 256.782 109.635 256.211 109.964L247.734 114.858C247.163 115.187 246.701 114.92 246.701 114.262V104.474C246.701 103.815 247.163 103.014 247.734 102.685Z" fill="url(#paint15_linear_406_794)"/>
<path d="M219.62 135.148L228.097 130.254C228.667 129.925 229.13 130.192 229.13 130.85V140.638C229.13 141.297 228.668 142.098 228.097 142.427L219.62 147.321C219.05 147.65 218.587 147.383 218.587 146.725V136.937C218.587 136.278 219.049 135.478 219.62 135.148Z" fill="url(#paint16_linear_406_794)"/>
<path d="M233.677 127.032L242.154 122.138C242.724 121.809 243.187 122.076 243.187 122.734V132.522C243.187 133.181 242.725 133.982 242.154 134.311L233.677 139.205C233.106 139.534 232.644 139.267 232.644 138.609V128.821C232.644 128.163 233.106 127.362 233.677 127.032Z" fill="url(#paint17_linear_406_794)"/>
<path d="M247.734 118.917L256.211 114.023C256.781 113.694 257.244 113.961 257.244 114.619V124.407C257.244 125.066 256.782 125.867 256.211 126.196L247.734 131.09C247.163 131.419 246.701 131.152 246.701 130.494V120.706C246.701 120.047 247.163 119.246 247.734 118.917Z" fill="url(#paint18_linear_406_794)"/>
<path d="M102.318 277.872L210.836 215.219V219.694L102.318 282.347V277.872Z" fill="#455A64"/>
<path d="M102.318 273.397V246.545L111.877 252.064L121.081 235.002L132.061 241.342L137.199 235.357L144.95 239.833L156.224 222.985L165.221 226.741L175.955 204.031L183.47 217.078L193.726 202.206L197.549 209.465L210.836 188.368V210.744L102.318 273.397Z" fill="url(#paint19_linear_406_794)"/>
<path d="M102.318 244.046L111.235 248.783L120.482 231.584L131.524 237.96L136.484 232.171L144.235 236.646L155.331 220.414L164.329 224.17L175.955 199.556L183.707 212.982L193.963 198.11L197.715 205.366L210.836 184.532V165.992L197.115 187.381L191.458 177.18L183.707 190.605L175.955 186.131L168.204 199.556L160.453 195.081L148.825 215.219L141.074 208.506L133.395 219.653L121.279 212.982L111.477 229.457L102.318 224.17V244.046Z" fill="url(#paint20_linear_406_794)"/>
<path opacity="0.3" d="M102.318 244.046L111.235 248.783L120.482 231.584L131.524 237.96L136.484 232.171L144.235 236.646L155.331 220.414L164.329 224.17L175.955 199.556L183.707 212.982L193.963 198.11L197.715 205.366L210.836 184.532V165.992L197.115 187.381L191.458 177.18L183.707 190.605L175.955 186.131L168.204 199.556L160.453 195.081L148.825 215.219L141.074 208.506L133.395 219.653L121.279 212.982L111.477 229.457L102.318 224.17V244.046Z" fill="black"/>
<g opacity="0.3">
<path d="M218.588 162.471C218.258 162.471 217.938 162.3 217.761 161.994C217.497 161.537 217.654 160.954 218.11 160.69L256.867 138.314C257.322 138.05 257.906 138.207 258.17 138.664C258.434 139.12 258.277 139.704 257.821 139.967L219.064 162.343C218.914 162.43 218.75 162.471 218.588 162.471Z" fill="#455A64"/>
<path d="M218.588 171.421C218.258 171.421 217.938 171.25 217.761 170.944C217.497 170.488 217.654 169.904 218.11 169.641L256.867 147.265C257.322 147.001 257.906 147.157 258.17 147.614C258.434 148.071 258.277 148.654 257.821 148.918L219.064 171.294C218.914 171.38 218.75 171.421 218.588 171.421Z" fill="#455A64"/>
<path d="M218.588 180.371C218.258 180.371 217.938 180.2 217.761 179.894C217.497 179.437 217.654 178.854 218.11 178.59L256.867 156.214C257.322 155.95 257.906 156.106 258.17 156.563C258.434 157.019 258.277 157.603 257.821 157.866L219.064 180.242C218.914 180.33 218.75 180.371 218.588 180.371Z" fill="#455A64"/>
<path d="M218.588 189.322C218.258 189.322 217.938 189.151 217.761 188.844C217.497 188.388 217.654 187.805 218.11 187.541L256.867 165.165C257.322 164.901 257.906 165.057 258.17 165.514C258.434 165.97 258.277 166.554 257.821 166.817L219.064 189.193C218.914 189.28 218.75 189.322 218.588 189.322Z" fill="#455A64"/>
<path d="M218.588 198.272C218.258 198.272 217.938 198.101 217.761 197.795C217.497 197.338 217.654 196.755 218.11 196.492L256.867 174.116C257.322 173.852 257.906 174.008 258.17 174.465C258.434 174.921 258.277 175.505 257.821 175.768L219.064 198.144C218.914 198.231 218.75 198.272 218.588 198.272Z" fill="#455A64"/>
<path d="M218.588 207.222C218.258 207.222 217.938 207.052 217.761 206.745C217.497 206.288 217.654 205.705 218.11 205.441L256.867 183.065C257.322 182.802 257.906 182.958 258.17 183.414C258.434 183.871 258.277 184.454 257.821 184.718L219.064 207.094C218.914 207.181 218.75 207.222 218.588 207.222Z" fill="#455A64"/>
<path d="M218.588 216.172C218.258 216.172 217.938 216.001 217.761 215.695C217.497 215.238 217.654 214.655 218.11 214.391L256.867 192.015C257.322 191.751 257.906 191.907 258.17 192.364C258.434 192.82 258.277 193.404 257.821 193.667L219.064 216.043C218.914 216.131 218.75 216.172 218.588 216.172Z" fill="#455A64"/>
</g>
<path d="M101.261 347.887V349.988C101.261 350.65 101.726 351.455 102.299 351.786L219.048 419.192C219.622 419.523 220.551 419.523 221.125 419.192L304.758 370.906C305.331 370.575 305.796 369.77 305.796 369.108V367.006C305.796 366.344 305.331 365.539 304.758 365.208L188.009 297.803C187.436 297.472 186.506 297.472 185.933 297.803L102.3 346.089C101.725 346.42 101.261 347.225 101.261 347.887Z" fill="url(#paint21_linear_406_794)"/>
<path opacity="0.5" d="M304.897 365.303C305.326 365.634 305.278 366.11 304.758 366.408L221.124 414.694C220.839 414.862 220.467 414.94 220.088 414.944L220.086 419.445C220.464 419.442 220.832 419.361 221.122 419.196L304.756 370.91C305.33 370.577 305.796 369.772 305.794 369.112L305.796 367.009C305.796 366.403 305.404 365.673 304.897 365.303Z" fill="black"/>
<path opacity="0.6" d="M102.136 346.206C102.114 346.215 102.098 346.234 102.084 346.248C102.055 346.27 102.025 346.292 101.998 346.32C101.987 346.33 101.975 346.34 101.964 346.35C101.916 346.394 101.873 346.441 101.827 346.492L101.815 346.513C101.542 346.832 101.344 347.243 101.284 347.635C101.268 347.72 101.263 347.806 101.26 347.887L101.258 349.99C101.263 350.652 101.724 351.455 102.297 351.786L219.047 419.192C219.333 419.358 219.711 419.443 220.087 419.444L220.089 414.943C219.711 414.946 219.333 414.861 219.047 414.696L102.297 347.29C102.093 347.173 101.96 347.029 101.903 346.88C101.831 346.689 101.871 346.485 102.027 346.309C102.059 346.272 102.095 346.238 102.136 346.206Z" fill="black"/>
<g opacity="0.3">
<path d="M101.339 347.371C101.298 347.505 101.277 347.639 101.267 347.762C101.277 347.721 101.277 347.68 101.288 347.638C101.298 347.546 101.319 347.464 101.339 347.371Z" fill="black"/>
<path d="M304.759 366.41L221.126 414.693C220.837 414.858 220.467 414.94 220.086 414.94C219.715 414.94 219.334 414.858 219.046 414.693L102.297 347.288C102.091 347.175 101.957 347.031 101.906 346.876C101.834 346.691 101.875 346.485 102.03 346.31C102.051 346.279 102.081 346.248 102.112 346.228C102.112 346.218 102.122 346.218 102.133 346.207C102.184 346.166 102.246 346.125 102.298 346.094L185.931 297.8C186.508 297.471 187.434 297.471 188.011 297.8L304.76 365.205C304.812 365.236 304.853 365.267 304.894 365.298L304.904 365.308C305.326 365.648 305.274 366.112 304.759 366.41Z" fill="black"/>
<path opacity="0.15" d="M101.895 346.424C101.864 346.455 101.844 346.486 101.813 346.517L101.823 346.496C101.854 346.475 101.875 346.444 101.895 346.424Z" fill="black"/>
</g>
<path d="M132.874 318.017C132.866 319.902 135.496 321.876 136.22 323.551C136.283 323.696 136.333 323.837 136.373 323.974C136.011 325.162 134.914 325.986 134.682 326.782C134.623 326.974 134.599 327.151 134.598 327.325C134.595 327.626 134.597 328.726 134.598 328.908C134.599 329.258 134.686 329.596 134.748 330.01C134.698 330.349 134.614 330.729 134.475 331.169C134.199 332.052 134.09 332.688 134.091 333.155C134.091 333.428 134.094 334.45 134.093 334.693C134.088 335.603 134.488 335.89 134.881 336.116L139.566 338.821L174.612 318.582V317.025L169.931 314.323C169.545 314.1 169.069 313.875 167.572 313.869C167.475 313.868 167.371 313.869 167.263 313.868C166.48 313.881 165.447 313.949 164.059 314.095C161.425 314.368 159.959 314.286 158.782 314.215C158.3 314.186 157.871 314.16 157.425 314.163C157.116 314.162 156.802 314.174 156.458 314.208C154.443 314.407 152.334 315.67 148.286 315.116C148.248 315.111 148.198 315.104 148.16 315.099C145.283 314.684 141.886 313.177 138.635 313.166C138.527 313.164 138.423 313.165 138.311 313.167C137.041 313.203 135.789 313.483 134.602 314.165C133.342 314.893 132.876 315.665 132.872 316.453C132.87 316.729 132.875 317.771 132.874 318.017ZM138.192 319.101C138.361 318.793 138.638 318.514 139.038 318.283C139.298 318.134 139.592 318.01 139.91 317.917C141.72 317.39 144.365 317.754 146.325 318.885C147.28 319.436 147.914 320.083 148.212 320.722C148.043 321.028 147.767 321.306 147.369 321.536C146.22 322.202 144.381 322.303 142.605 321.903C141.713 321.704 140.843 321.379 140.075 320.935C139.121 320.386 138.489 319.74 138.192 319.101Z" fill="#263238"/>
<path d="M167.571 313.87C167.474 313.869 167.37 313.87 167.262 313.869C166.479 313.882 165.446 313.95 164.058 314.096C161.424 314.369 159.958 314.287 158.78 314.216C158.299 314.187 157.87 314.161 157.424 314.164C157.115 314.163 156.801 314.175 156.457 314.209C154.442 314.408 152.333 315.671 148.285 315.117C148.247 315.112 148.197 315.105 148.159 315.1C145.282 314.685 141.885 313.177 138.634 313.167C138.526 313.165 138.422 313.166 138.31 313.168C137.04 313.204 135.788 313.484 134.601 314.166C130.32 316.64 135.192 319.618 136.219 321.994C137.254 324.375 135.024 325.606 134.681 326.782C134.32 327.958 135.286 328.593 134.474 331.17C133.669 333.745 134.286 334.218 134.88 334.561L139.565 337.266L174.611 317.027L169.93 314.325C169.544 314.101 169.069 313.876 167.571 313.87ZM141.301 333.571C140.846 333.834 139.985 333.764 139.374 333.411C138.768 333.061 138.636 332.559 139.091 332.295C139.553 332.03 140.411 332.105 141.022 332.457C141.628 332.808 141.763 333.306 141.301 333.571ZM147.369 321.537C146.22 322.202 144.381 322.304 142.605 321.904C141.713 321.705 140.843 321.38 140.075 320.936C137.774 319.608 137.312 317.724 139.038 316.727C139.298 316.578 139.592 316.454 139.91 316.361C141.72 315.833 144.365 316.197 146.325 317.329C148.625 318.657 149.095 320.54 147.369 321.537ZM168.341 317.958C167.879 318.223 167.018 318.152 166.411 317.802C165.801 317.449 165.678 316.952 166.14 316.687C166.595 316.424 167.456 316.494 168.067 316.847C168.673 317.197 168.796 317.694 168.341 317.958Z" fill="#37474F"/>
<path d="M216.844 407.36L289.621 365.342C289.965 365.143 290.244 364.66 290.244 364.263V363.453C290.244 363.056 289.965 362.573 289.621 362.374L193.468 306.86C193.124 306.661 192.566 306.661 192.222 306.86L119.446 348.877C119.102 349.076 118.823 349.559 118.823 349.956V350.768C118.823 351.165 119.102 351.648 119.446 351.847L215.597 407.36C215.942 407.558 216.5 407.558 216.844 407.36Z" fill="#FAFAFA"/>
<path d="M289.773 362.487C289.955 362.681 289.905 362.929 289.623 363.092L216.846 405.109C216.672 405.208 216.448 405.261 216.223 405.259L216.221 407.506C216.446 407.509 216.675 407.458 216.844 407.356L289.621 365.339C289.966 365.145 290.246 364.659 290.242 364.263L290.246 363.451C290.242 363.112 290.045 362.716 289.773 362.487Z" fill="#F0F0F0"/>
<path d="M119.316 348.973C119.255 349.021 119.2 349.078 119.147 349.141C119.124 349.172 119.098 349.207 119.075 349.238C119.004 349.341 118.944 349.456 118.898 349.573C118.87 349.651 118.848 349.727 118.837 349.804C118.83 349.855 118.826 349.909 118.826 349.958L118.825 350.766C118.827 351.166 119.103 351.646 119.448 351.845L215.599 407.358C215.773 407.459 215.998 407.511 216.222 407.507L216.224 405.26C215.998 405.257 215.772 405.209 215.601 405.111L119.45 349.598C119.153 349.427 119.108 349.169 119.316 348.973Z" fill="#E0E0E0"/>
<path d="M144.115 338.815C144.115 339.083 144.116 340.128 144.116 340.383C144.115 341.125 144.423 341.83 144.933 342.524L187.815 317.778V316.221C186.511 315.551 185.055 315.176 183.633 315.168C183.615 315.168 183.596 315.169 183.577 315.169C182.584 315.172 181.606 315.36 180.725 315.76C177.619 317.173 176.709 317.617 174.807 318.418C174.299 318.634 172.844 318.818 171.889 318.001C171.86 317.984 171.845 317.965 171.823 317.947L170.539 316.768L167.068 313.552C167.068 313.552 166.634 313.025 165.422 313.028C165.392 313.027 165.366 313.029 165.336 313.029C165.095 313.034 164.824 313.06 164.518 313.116C163.628 313.278 162.286 313.267 160.955 313.063C159.432 312.832 157.924 312.348 157.09 311.585C155.588 310.208 153.346 309.473 151.119 309.467C151.059 309.466 150.999 309.464 150.944 309.466C149.544 309.483 148.159 309.791 146.987 310.41C144.909 311.506 144.01 313.294 144.394 315.04C144.098 316.383 144.571 317.835 145.886 319.039C146.423 319.531 146.718 320.18 146.84 320.867C146.71 321.661 146.401 322.389 146.002 322.86C145.653 323.276 145.539 323.625 145.539 323.903C145.538 324.27 145.54 325.23 145.54 325.462C145.541 325.972 145.922 326.241 145.922 326.241L149.942 329.924L151.226 331.103C151.278 331.15 151.322 331.199 151.362 331.249C151.219 331.503 151.069 331.671 151.069 331.671L145.881 335.719C144.627 336.85 144.116 337.863 144.115 338.815ZM155.567 315.3C155.338 315.918 154.835 316.482 154.061 316.889C152.745 317.58 151.019 317.641 149.557 317.152C148.914 316.93 148.315 316.601 147.843 316.168C147.44 315.797 147.168 315.388 147.016 314.969C147.246 314.348 147.752 313.783 148.53 313.376C148.72 313.276 148.92 313.186 149.126 313.111C150.983 312.45 153.364 312.839 154.737 314.097C155.141 314.468 155.414 314.879 155.567 315.3Z" fill="#37474F"/>
<path d="M183.633 315.168C183.615 315.168 183.596 315.169 183.577 315.169C182.584 315.172 181.606 315.36 180.725 315.76C177.619 317.173 176.709 317.617 174.807 318.418C174.299 318.634 172.843 318.818 171.889 318.001C171.86 317.984 171.845 317.965 171.823 317.947L170.539 316.768L167.068 313.552C167.068 313.552 166.635 313.025 165.422 313.028C165.392 313.027 165.366 313.029 165.336 313.029C165.095 313.034 164.824 313.06 164.518 313.116C163.628 313.278 162.286 313.267 160.955 313.063C159.432 312.832 157.924 312.348 157.09 311.585C155.588 310.208 153.346 309.473 151.119 309.467C151.059 309.466 150.999 309.464 150.944 309.466C149.544 309.483 148.159 309.791 146.987 310.41C143.894 312.041 143.4 315.205 145.886 317.483C147.455 318.92 146.996 321.684 146.002 322.86C145.009 324.042 145.921 324.685 145.921 324.685L149.941 328.368L151.225 329.547C152.191 330.426 151.068 331.671 151.068 331.671L145.88 335.719C143.642 337.739 143.763 339.381 144.931 340.969L187.813 316.223C186.511 315.551 185.056 315.176 183.633 315.168ZM154.736 312.539C156.261 313.94 155.968 315.886 154.061 316.889C152.745 317.58 151.019 317.641 149.557 317.152C148.914 316.93 148.315 316.601 147.843 316.168C146.318 314.767 146.619 312.82 148.53 311.819C148.72 311.718 148.92 311.629 149.126 311.554C150.982 310.892 153.364 311.281 154.736 312.539Z" fill="#455A64"/>
<path opacity="0.1" d="M152.551 361.736L175.305 374.873C175.713 375.108 176.373 375.108 176.781 374.873L208.19 356.74C208.598 356.505 208.598 356.123 208.19 355.888L185.436 342.75C185.028 342.515 184.368 342.515 183.96 342.75L152.551 360.883C152.143 361.119 152.143 361.501 152.551 361.736Z" fill="url(#paint22_linear_406_794)"/>
<path d="M176.047 371.304L158.739 361.312L159.931 360.624L177.239 370.616L176.047 371.304Z" fill="url(#paint23_linear_406_794)"/>
<path d="M176.978 372.153L178.709 371.154L179.239 371.46L177.508 372.459L176.978 372.153Z" fill="#455A64"/>
<path d="M178.317 369.994L164.469 361.999L165.662 361.312L179.509 369.306L178.317 369.994Z" fill="url(#paint24_linear_406_794)"/>
<path d="M179.248 370.843L180.978 369.843L181.509 370.149L179.778 371.149L179.248 370.843Z" fill="#455A64"/>
<path d="M181.778 367.995L166.739 359.312L167.931 358.624L182.97 367.307L181.778 367.995Z" fill="url(#paint25_linear_406_794)"/>
<path d="M182.71 368.839L184.441 367.839L184.971 368.146L183.24 369.145L182.71 368.839Z" fill="#455A64"/>
<path d="M184.049 366.684L171.604 359.5L172.797 358.812L185.24 365.997L184.049 366.684Z" fill="url(#paint26_linear_406_794)"/>
<path d="M184.98 367.528L186.71 366.529L187.241 366.835L185.51 367.834L184.98 367.528Z" fill="#455A64"/>
<path d="M187.513 364.687L180.574 360.682L181.767 359.994L188.705 364L187.513 364.687Z" fill="url(#paint27_linear_406_794)"/>
<path d="M188.436 365.536L190.166 364.536L190.697 364.843L188.966 365.842L188.436 365.536Z" fill="#455A64"/>
<path d="M189.784 363.377L181.906 358.83L183.098 358.142L190.975 362.69L189.784 363.377Z" fill="url(#paint28_linear_406_794)"/>
<path d="M190.706 364.225L192.436 363.226L192.967 363.532L191.236 364.531L190.706 364.225Z" fill="#455A64"/>
<path d="M193.242 361.377L183.75 355.897L184.943 355.21L194.433 360.689L193.242 361.377Z" fill="url(#paint29_linear_406_794)"/>
<path d="M194.191 362.218L195.922 361.219L196.452 361.525L194.721 362.524L194.191 362.218Z" fill="#455A64"/>
<path d="M195.512 360.066L189.335 356.501L190.528 355.813L196.704 359.379L195.512 360.066Z" fill="url(#paint30_linear_406_794)"/>
<path d="M196.461 360.908L198.191 359.908L198.722 360.214L196.991 361.214L196.461 360.908Z" fill="#455A64"/>
<path d="M198.974 358.068L196.275 356.51L197.468 355.822L200.166 357.38L198.974 358.068Z" fill="url(#paint31_linear_406_794)"/>
<path d="M176.047 371.304L158.739 361.312L159.931 360.624L177.239 370.616L176.047 371.304Z" fill="url(#paint32_linear_406_794)"/>
<path d="M181.778 367.995L166.739 359.312L167.931 358.624L182.97 367.307L181.778 367.995Z" fill="url(#paint33_linear_406_794)"/>
<path d="M187.513 364.687L180.574 360.682L181.767 359.994L188.705 364L187.513 364.687Z" fill="url(#paint34_linear_406_794)"/>
<path d="M193.242 361.377L183.75 355.897L184.943 355.21L194.433 360.689L193.242 361.377Z" fill="url(#paint35_linear_406_794)"/>
<path d="M198.974 358.068L196.275 356.51L197.468 355.822L200.166 357.38L198.974 358.068Z" fill="url(#paint36_linear_406_794)"/>
<path d="M199.92 358.906L201.65 357.907L202.181 358.213L200.45 359.212L199.92 358.906Z" fill="#455A64"/>
<path d="M201.245 356.758L199.902 355.983L201.095 355.295L202.436 356.07L201.245 356.758Z" fill="url(#paint37_linear_406_794)"/>
<path d="M202.189 357.595L203.92 356.596L204.45 356.902L202.72 357.901L202.189 357.595Z" fill="#455A64"/>
<path d="M175.436 350.967L174.138 351.716L175.439 352.465L176.734 351.716L175.436 350.967Z" fill="url(#paint38_linear_406_794)"/>
<path opacity="0.25" d="M175.436 350.967L174.138 351.716L175.439 352.465L176.734 351.716L175.436 350.967Z" fill="black"/>
<path d="M185.665 345.272L176.386 350.628C176.199 350.736 176.199 350.911 176.387 351.019L176.64 351.165C176.827 351.273 177.131 351.273 177.318 351.165L186.594 345.809C186.781 345.701 186.781 345.526 186.594 345.418L186.342 345.273C186.155 345.164 185.852 345.164 185.665 345.272Z" fill="#455A64"/>
<path d="M177.6 352.216L176.302 352.965L177.603 353.715L178.898 352.965L177.6 352.216Z" fill="url(#paint39_linear_406_794)"/>
<path d="M187.829 346.521L178.55 351.877C178.363 351.985 178.363 352.16 178.551 352.268L178.804 352.414C178.991 352.522 179.295 352.522 179.482 352.414L188.758 347.058C188.945 346.95 188.945 346.775 188.758 346.667L188.506 346.521C188.319 346.413 188.016 346.413 187.829 346.521Z" fill="#455A64"/>
<path d="M176.047 371.304L158.739 361.312L159.931 360.624L177.239 370.616L176.047 371.304Z" fill="url(#paint40_linear_406_794)"/>
<path d="M181.778 367.995L166.739 359.312L167.931 358.624L182.97 367.307L181.778 367.995Z" fill="url(#paint41_linear_406_794)"/>
<path d="M187.513 364.687L180.574 360.682L181.767 359.994L188.705 364L187.513 364.687Z" fill="url(#paint42_linear_406_794)"/>
<path d="M193.242 361.377L183.75 355.897L184.943 355.21L194.433 360.689L193.242 361.377Z" fill="url(#paint43_linear_406_794)"/>
<path d="M176.047 371.304L158.739 361.312L159.931 360.624L177.239 370.616L176.047 371.304Z" fill="url(#paint44_linear_406_794)"/>
<path d="M181.778 367.995L166.739 359.312L167.931 358.624L182.97 367.307L181.778 367.995Z" fill="url(#paint45_linear_406_794)"/>
<path d="M187.513 364.687L180.574 360.682L181.767 359.994L188.705 364L187.513 364.687Z" fill="url(#paint46_linear_406_794)"/>
<path d="M193.242 361.377L183.75 355.897L184.943 355.21L194.433 360.689L193.242 361.377Z" fill="url(#paint47_linear_406_794)"/>
<path d="M198.974 358.068L196.275 356.51L197.468 355.822L200.166 357.38L198.974 358.068Z" fill="url(#paint48_linear_406_794)"/>
<path opacity="0.25" d="M176.047 371.304L158.739 361.312L159.931 360.624L177.239 370.616L176.047 371.304Z" fill="black"/>
<path opacity="0.25" d="M181.778 367.995L166.739 359.312L167.931 358.624L182.97 367.307L181.778 367.995Z" fill="black"/>
<path opacity="0.25" d="M187.513 364.687L180.574 360.682L181.767 359.994L188.705 364L187.513 364.687Z" fill="black"/>
<path opacity="0.25" d="M193.242 361.377L183.75 355.897L184.943 355.21L194.433 360.689L193.242 361.377Z" fill="black"/>
<path opacity="0.25" d="M198.974 358.068L196.275 356.51L197.468 355.822L200.166 357.38L198.974 358.068Z" fill="black"/>
<path opacity="0.1" d="M184.523 380.189L214.491 397.491C215.028 397.801 215.898 397.801 216.435 397.491L247.375 379.627C247.912 379.317 247.912 378.814 247.375 378.505L217.406 361.202C216.869 360.892 215.999 360.892 215.462 361.202L184.522 379.066C183.986 379.376 183.986 379.879 184.523 380.189Z" fill="url(#paint49_linear_406_794)"/>
<path d="M189.822 378.642L188.112 379.629L189.825 380.617L191.532 379.629L189.822 378.642Z" fill="url(#paint50_linear_406_794)"/>
<path d="M196.567 375.253L190.921 378.509C190.773 378.594 190.773 378.732 190.922 378.818L191.389 379.086C191.537 379.171 191.777 379.171 191.925 379.086L197.568 375.83C197.716 375.745 197.716 375.606 197.568 375.521L197.103 375.253C196.955 375.168 196.715 375.168 196.567 375.253Z" fill="#455A64"/>
<path d="M199.506 373.047L197.796 374.034L199.509 375.021L201.215 374.034L199.506 373.047Z" fill="url(#paint51_linear_406_794)"/>
<path opacity="0.25" d="M199.506 373.047L197.796 374.034L199.509 375.021L201.215 374.034L199.506 373.047Z" fill="black"/>
<path d="M206.35 369.674L200.704 372.93C200.556 373.015 200.556 373.153 200.704 373.239L201.171 373.507C201.319 373.592 201.559 373.592 201.707 373.507L207.35 370.251C207.498 370.166 207.498 370.027 207.35 369.942L206.885 369.674C206.737 369.589 206.498 369.589 206.35 369.674Z" fill="#455A64"/>
<path d="M209.189 367.451L207.479 368.438L209.192 369.425L210.899 368.438L209.189 367.451Z" fill="url(#paint52_linear_406_794)"/>
<path opacity="0.4" d="M209.189 367.451L207.479 368.438L209.192 369.425L210.899 368.438L209.189 367.451Z" fill="black"/>
<path d="M216.132 364.096L210.486 367.352C210.338 367.437 210.338 367.576 210.487 367.661L210.954 367.93C211.102 368.015 211.342 368.015 211.49 367.93L217.133 364.674C217.281 364.589 217.281 364.45 217.133 364.365L216.668 364.097C216.519 364.011 216.28 364.011 216.132 364.096Z" fill="#455A64"/>
<path d="M226.969 374.617C226.826 374.545 226.675 374.478 226.514 374.416C226.38 374.359 226.255 374.308 226.122 374.251C225.123 373.86 224.044 373.556 222.929 373.345C222.581 373.278 222.216 373.221 221.868 373.165C221.154 373.062 220.432 372.995 219.701 372.975C219.335 372.96 218.97 372.954 218.604 372.96C218.31 372.965 218.024 372.976 217.73 372.991C217.48 373.001 217.239 373.017 217.008 373.037C216.651 373.068 216.304 373.104 215.947 373.145C215.742 373.171 215.528 373.202 215.332 373.243C215.198 373.258 215.073 373.279 214.957 373.305C214.779 373.336 214.591 373.372 214.413 373.413C213.771 373.547 213.147 373.712 212.549 373.902C212.335 373.974 212.112 374.051 211.907 374.129C211.639 374.222 211.39 374.325 211.149 374.433C210.899 374.536 210.658 374.644 210.426 374.768C210.194 374.881 209.962 375.005 209.74 375.133C204.701 378.042 204.702 382.758 209.74 385.667C214.769 388.571 222.938 388.571 227.976 385.662C233.005 382.758 233.005 378.042 227.976 375.138C227.656 374.951 227.317 374.776 226.969 374.617ZM225.988 384.512C224.133 385.583 221.761 386.149 219.317 386.201C219.201 386.217 219.067 386.211 218.934 386.216C218.791 386.216 218.649 386.216 218.524 386.206C218.39 386.201 218.274 386.196 218.15 386.185C215.804 386.108 213.513 385.547 211.729 384.517C207.787 382.241 207.787 378.555 211.729 376.279C212.166 376.027 212.639 375.805 213.12 375.61C213.485 375.461 213.878 375.327 214.27 375.214C214.466 375.152 214.662 375.101 214.867 375.054C215.036 375.008 215.206 374.972 215.366 374.941C215.571 374.895 215.767 374.853 215.981 374.823C216.168 374.787 216.347 374.756 216.534 374.741C216.588 374.731 216.641 374.72 216.703 374.715C216.962 374.689 217.229 374.658 217.497 374.638C217.533 374.628 217.568 374.628 217.604 374.628C217.613 374.623 217.613 374.623 217.631 374.633C217.898 374.602 218.166 374.592 218.46 374.597C218.701 374.582 218.933 374.582 219.156 374.587C220.137 374.597 221.1 374.7 222.036 374.88C223.481 375.158 224.836 375.621 225.986 376.286C229.921 378.555 229.921 382.242 225.988 384.512Z" fill="url(#paint53_linear_406_794)"/>
<path opacity="0.25" d="M222.929 373.345L222.037 374.879C221.101 374.699 220.137 374.596 219.157 374.586C218.934 374.581 218.702 374.581 218.461 374.596C218.167 374.591 217.899 374.601 217.632 374.632C217.614 374.622 217.614 374.622 217.605 374.627C217.569 374.627 217.534 374.627 217.498 374.637C217.231 374.647 216.963 374.678 216.704 374.714C216.642 374.719 216.588 374.729 216.535 374.74C216.348 374.756 216.169 374.786 215.982 374.822C215.768 374.853 215.572 374.894 215.367 374.94C215.206 374.971 215.037 375.007 214.868 375.053C214.663 375.099 214.467 375.151 214.271 375.213C213.878 375.326 213.486 375.46 213.121 375.609C212.631 375.8 212.167 376.026 211.73 376.278L209.741 375.13C209.964 375.001 210.196 374.878 210.427 374.765C210.659 374.641 210.9 374.533 211.15 374.43C211.391 374.322 211.64 374.219 211.908 374.126C212.113 374.049 212.336 373.972 212.55 373.899C213.147 373.709 213.772 373.544 214.414 373.41C214.592 373.369 214.78 373.333 214.958 373.302C215.074 373.276 215.199 373.256 215.333 373.24C215.529 373.199 215.743 373.168 215.948 373.142C216.305 373.101 216.653 373.065 217.009 373.034C217.241 373.013 217.482 372.998 217.731 372.988C218.025 372.973 218.311 372.962 218.605 372.957C218.971 372.952 219.336 372.957 219.702 372.972C220.433 373.003 221.156 373.07 221.869 373.162C222.216 373.222 222.582 373.278 222.929 373.345Z" fill="black"/>
<path opacity="0.4" d="M227.977 375.137L225.988 376.285C224.838 375.621 223.482 375.157 222.038 374.879L222.93 373.345C224.045 373.556 225.124 373.86 226.123 374.251C226.257 374.308 226.382 374.359 226.515 374.416C226.676 374.478 226.827 374.545 226.97 374.617C227.317 374.776 227.656 374.951 227.977 375.137Z" fill="black"/>
<path d="M141.685 353.135C141.981 352.964 142.289 352.835 142.606 352.748C142.925 352.661 143.25 352.619 143.581 352.621C143.914 352.623 144.253 352.674 144.602 352.774C144.951 352.874 145.3 353.024 145.647 353.225C146.097 353.485 146.399 353.741 146.558 353.993C146.715 354.245 146.743 354.49 146.643 354.728L149.621 355.481C149.671 355.494 149.71 355.509 149.739 355.527C149.793 355.558 149.824 355.593 149.834 355.633C149.844 355.672 149.829 355.704 149.789 355.727L148.871 356.257C148.781 356.309 148.69 356.33 148.598 356.321C148.505 356.312 148.422 356.299 148.345 356.281L145.672 355.601L145.051 355.959L146.976 357.071C147.042 357.109 147.081 357.153 147.092 357.201C147.105 357.249 147.086 357.288 147.036 357.317L146.152 357.827C146.103 357.855 146.036 357.866 145.952 357.859C145.869 357.852 145.794 357.83 145.728 357.791L139.917 354.436C139.851 354.398 139.812 354.355 139.799 354.306C139.787 354.258 139.807 354.219 139.855 354.191L141.685 353.135ZM143.649 355.149L144.411 354.709C144.6 354.6 144.708 354.482 144.736 354.355C144.763 354.229 144.65 354.092 144.398 353.947C144.146 353.802 143.91 353.737 143.692 353.753C143.473 353.769 143.268 353.832 143.079 353.941L142.317 354.381L143.649 355.149Z" fill="#455A64"/>
<path d="M152.939 352.247C152.989 352.218 153.056 352.207 153.14 352.214C153.223 352.222 153.3 352.244 153.366 352.282L154.319 352.833C154.385 352.871 154.423 352.915 154.435 352.963C154.447 353.012 154.428 353.05 154.378 353.079L151.18 354.925C151.13 354.954 151.063 354.964 150.98 354.957C150.897 354.95 150.821 354.928 150.755 354.89L144.944 351.535C144.878 351.497 144.84 351.454 144.827 351.405C144.815 351.357 144.834 351.318 144.884 351.29L148.029 349.475C148.078 349.447 148.145 349.436 148.228 349.443C148.313 349.45 148.388 349.472 148.454 349.51L149.408 350.06C149.474 350.098 149.513 350.142 149.523 350.19C149.536 350.238 149.517 350.277 149.468 350.306L147.39 351.505L148.361 352.066L150.29 350.952C150.339 350.924 150.405 350.913 150.491 350.92C150.575 350.927 150.649 350.949 150.715 350.988L151.669 351.539C151.735 351.577 151.774 351.62 151.786 351.668C151.797 351.717 151.779 351.755 151.73 351.784L149.801 352.898L150.808 353.48L152.939 352.247Z" fill="#455A64"/>
<path d="M151.488 347.475C151.776 347.309 152.078 347.184 152.394 347.102C152.711 347.02 153.038 346.983 153.377 346.992C153.717 347 154.063 347.056 154.413 347.157C154.765 347.259 155.113 347.41 155.461 347.611C155.815 347.815 156.081 348.019 156.256 348.222C156.433 348.425 156.527 348.624 156.538 348.818C156.551 349.012 156.487 349.201 156.348 349.385C156.208 349.569 155.994 349.744 155.706 349.911L154.843 350.41L156.678 351.47C156.744 351.508 156.783 351.552 156.793 351.6C156.806 351.648 156.787 351.687 156.737 351.716L155.853 352.226C155.803 352.255 155.737 352.265 155.653 352.258C155.57 352.251 155.494 352.229 155.428 352.191L149.617 348.836C149.551 348.798 149.513 348.755 149.5 348.706C149.488 348.658 149.507 348.619 149.557 348.591L151.488 347.475ZM153.441 349.599L154.27 349.12C154.459 349.011 154.56 348.889 154.572 348.753C154.585 348.618 154.466 348.477 154.214 348.332C153.962 348.187 153.719 348.118 153.484 348.125C153.249 348.132 153.038 348.19 152.849 348.299L152.02 348.778L153.441 349.599Z" fill="#455A64"/>
<path d="M156.535 347.272C156.212 347.07 155.95 346.856 155.751 346.629C155.551 346.402 155.429 346.174 155.389 345.945C155.347 345.716 155.39 345.491 155.515 345.27C155.639 345.049 155.868 344.842 156.202 344.65C156.531 344.46 156.888 344.329 157.273 344.255C157.657 344.182 158.049 344.157 158.445 344.18C158.842 344.204 159.237 344.274 159.63 344.389C160.024 344.505 160.395 344.655 160.745 344.841C161.012 344.985 161.286 345.138 161.568 345.301C161.85 345.464 162.11 345.619 162.347 345.766C162.669 345.968 162.93 346.182 163.131 346.409C163.331 346.636 163.454 346.865 163.498 347.096C163.542 347.327 163.498 347.552 163.369 347.773C163.238 347.994 163.009 348.199 162.68 348.389C162.347 348.581 161.991 348.715 161.611 348.788C161.231 348.862 160.84 348.887 160.441 348.861C160.041 348.835 159.645 348.765 159.252 348.65C158.857 348.534 158.487 348.384 158.137 348.197C157.882 348.06 157.614 347.91 157.332 347.748C157.05 347.585 156.784 347.426 156.535 347.272ZM161.054 346.461C160.95 346.396 160.834 346.324 160.707 346.245C160.579 346.166 160.448 346.087 160.31 346.007C160.172 345.927 160.035 345.852 159.902 345.78C159.769 345.708 159.649 345.644 159.543 345.588C159.385 345.507 159.222 345.441 159.058 345.39C158.894 345.339 158.73 345.307 158.568 345.294C158.406 345.281 158.245 345.288 158.088 345.317C157.931 345.346 157.782 345.4 157.642 345.481C157.503 345.561 157.409 345.647 157.359 345.738C157.309 345.829 157.296 345.921 157.319 346.015C157.343 346.109 157.398 346.204 157.486 346.298C157.573 346.393 157.688 346.487 157.829 346.578C157.922 346.642 158.032 346.712 158.158 346.788C158.285 346.864 158.417 346.942 158.555 347.021C158.693 347.1 158.829 347.178 158.963 347.253C159.097 347.328 159.223 347.394 159.34 347.451C159.657 347.614 159.984 347.712 160.319 347.748C160.654 347.783 160.961 347.721 161.24 347.559C161.519 347.398 161.627 347.221 161.564 347.029C161.5 346.836 161.331 346.647 161.054 346.461Z" fill="#455A64"/>
<path d="M161.534 341.675C161.831 341.504 162.139 341.374 162.456 341.288C162.775 341.201 163.1 341.159 163.431 341.161C163.763 341.163 164.103 341.214 164.452 341.314C164.801 341.414 165.149 341.565 165.496 341.765C165.946 342.025 166.25 342.28 166.407 342.533C166.565 342.785 166.594 343.03 166.493 343.267L169.47 344.02C169.52 344.033 169.56 344.048 169.59 344.065C169.644 344.096 169.675 344.131 169.685 344.171C169.694 344.21 169.68 344.241 169.639 344.265L168.722 344.795C168.632 344.847 168.541 344.868 168.449 344.859C168.356 344.85 168.271 344.837 168.196 344.818L165.522 344.139L164.901 344.497L166.826 345.609C166.892 345.647 166.931 345.691 166.943 345.739C166.955 345.787 166.937 345.826 166.887 345.855L166.003 346.365C165.953 346.394 165.887 346.404 165.803 346.397C165.719 346.391 165.644 346.368 165.578 346.33L159.767 342.975C159.701 342.937 159.662 342.894 159.65 342.845C159.638 342.797 159.657 342.758 159.706 342.73L161.534 341.675ZM163.497 343.689L164.259 343.249C164.448 343.14 164.556 343.022 164.584 342.895C164.612 342.768 164.499 342.632 164.247 342.487C163.995 342.342 163.759 342.277 163.54 342.293C163.321 342.309 163.116 342.372 162.927 342.481L162.165 342.921L163.497 343.689Z" fill="#455A64"/>
<path d="M167.978 337.955C168.027 337.927 168.093 337.916 168.178 337.922C168.262 337.929 168.336 337.952 168.402 337.99L169.356 338.541C169.422 338.579 169.462 338.622 169.473 338.67C169.484 338.719 169.466 338.757 169.417 338.786L168.23 339.472L172.845 342.136C172.911 342.174 172.95 342.218 172.961 342.266C172.973 342.315 172.954 342.353 172.904 342.382L172.02 342.892C171.97 342.921 171.903 342.931 171.82 342.924C171.737 342.917 171.661 342.895 171.595 342.857L166.98 340.193L165.793 340.879C165.744 340.907 165.678 340.918 165.593 340.911C165.51 340.904 165.435 340.882 165.369 340.844L164.415 340.293C164.349 340.255 164.31 340.212 164.297 340.163C164.286 340.115 164.305 340.076 164.354 340.048L167.978 337.955Z" fill="#455A64"/>
<path d="M177.349 338.615L206.629 321.711L200.353 318.087L171.073 334.992L177.349 338.615Z" fill="url(#paint54_linear_406_794)"/>
<g opacity="0.3">
<path d="M191.986 341.03L216.221 327.038" stroke="#455A64" stroke-width="1.0297" stroke-miterlimit="10" stroke-linecap="round"/>
<path d="M196.169 343.445L220.404 329.453" stroke="#455A64" stroke-width="1.0297" stroke-miterlimit="10" stroke-linecap="round"/>
<path d="M200.351 345.86L224.586 331.868" stroke="#455A64" stroke-width="1.0297" stroke-miterlimit="10" stroke-linecap="round"/>
<path d="M204.534 348.275L228.769 334.283" stroke="#455A64" stroke-width="1.0297" stroke-miterlimit="10" stroke-linecap="round"/>
<path d="M208.717 350.69L232.952 336.698" stroke="#455A64" stroke-width="1.0297" stroke-miterlimit="10" stroke-linecap="round"/>
</g>
<g opacity="0.3">
<path d="M225.463 360.341L249.699 346.348" stroke="#455A64" stroke-width="1.0297" stroke-miterlimit="10" stroke-linecap="round"/>
<path d="M229.646 362.756L253.881 348.764" stroke="#455A64" stroke-width="1.0297" stroke-miterlimit="10" stroke-linecap="round"/>
<path d="M233.829 365.171L258.064 351.179" stroke="#455A64" stroke-width="1.0297" stroke-miterlimit="10" stroke-linecap="round"/>
<path d="M238.011 367.586L262.246 353.594" stroke="#455A64" stroke-width="1.0297" stroke-miterlimit="10" stroke-linecap="round"/>
<path d="M242.194 370.001L266.429 356.009" stroke="#455A64" stroke-width="1.0297" stroke-miterlimit="10" stroke-linecap="round"/>
<path d="M246.37 372.42L270.605 358.428" stroke="#455A64" stroke-width="1.0297" stroke-miterlimit="10" stroke-linecap="round"/>
</g>
<path d="M366.937 153.52L342.587 161.996L341.901 163.109L365.067 199.822L388.129 189.422L388.815 188.308L366.937 153.52Z" fill="#37474F"/>
<path d="M367.624 152.406L342.587 161.996L365.754 198.708L388.815 188.308L367.624 152.406Z" fill="#455A64"/>
<path d="M367.819 156.082L346.545 164.893L365.816 194.901L385.432 185.41L367.819 156.082Z" fill="#F0F0F0"/>
<path opacity="0.15" d="M363.153 159.259C363.153 159.259 362.62 158.662 361.963 157.926C361.306 157.19 359.374 157.115 357.646 157.759L354.339 158.992C352.612 159.636 351.745 160.755 352.401 161.491L353.59 162.824L363.153 159.259Z" fill="black"/>
<path d="M359.902 154.26C359.493 153.8 358.593 153.662 357.89 153.951L356.618 154.474C356.618 154.474 354.032 151.592 350.945 152.509C347.858 153.426 350.518 156.692 350.518 156.692C350.518 156.692 349.919 156.949 349.179 157.267C348.439 157.585 348.139 158.213 348.508 158.67L349.176 159.497L360.66 155.114C360.66 155.114 360.311 154.72 359.902 154.26Z" fill="url(#paint55_linear_406_794)"/>
<path opacity="0.15" d="M359.902 154.26C359.493 153.8 358.593 153.662 357.89 153.951L356.618 154.474C356.618 154.474 354.032 151.592 350.945 152.509C347.858 153.426 350.518 156.692 350.518 156.692C350.518 156.692 349.919 156.949 349.179 157.267C348.439 157.585 348.139 158.213 348.508 158.67L349.176 159.497L360.66 155.114C360.66 155.114 360.311 154.72 359.902 154.26Z" fill="black"/>
<path d="M359.277 155.642C358.185 156.007 357.694 156.225 358.705 157.359C359.86 158.655 360.793 159.608 360.793 159.608L355.719 161.556C355.719 161.556 354.282 159.916 353.698 159.276C353.113 158.636 352.441 158.244 351.634 158.554L350.98 158.042L359.063 155.111L359.277 155.642Z" fill="url(#paint56_linear_406_794)"/>
<path opacity="0.4" d="M359.277 155.642C358.185 156.007 357.694 156.225 358.705 157.359C359.86 158.655 360.793 159.608 360.793 159.608L355.719 161.556C355.719 161.556 354.282 159.916 353.698 159.276C353.113 158.636 352.441 158.244 351.634 158.554L350.98 158.042L359.063 155.111L359.277 155.642Z" fill="black"/>
<path d="M363.492 159.389C363.492 159.389 362.959 158.793 362.303 158.056C361.646 157.32 359.713 157.245 357.986 157.89L354.679 159.123C352.952 159.767 352.085 160.886 352.742 161.622L353.931 162.955L363.492 159.389Z" fill="url(#paint57_linear_406_794)"/>
<path opacity="0.15" d="M363.492 159.389C363.492 159.389 362.959 158.793 362.303 158.056C361.646 157.32 359.713 157.245 357.986 157.89L354.679 159.123C352.952 159.767 352.085 160.886 352.742 161.622L353.931 162.955L363.492 159.389Z" fill="black"/>
<path d="M378.996 171.271C378.996 171.271 379.332 167.076 377.97 165.764C376.608 164.453 371.528 165.141 368.922 164.261C366.126 163.318 366.8 166.371 368.204 167.216C371.255 169.055 377.063 169.512 378.996 171.271Z" fill="#B16668"/>
<path d="M424.399 296.833C425.136 297.108 425.557 298.496 425.884 301.888C426.086 303.988 426.803 306.766 423.6 308.471C421.778 309.441 418.496 309.923 416.027 308.392C413.254 306.672 412.39 302.745 409.136 300.193C406.283 297.956 401.697 295.722 400.093 292.266C398.771 289.418 398.779 285.352 403.507 285.57C409.271 285.836 412.533 290.379 416.445 290.466C418.632 290.515 423.662 296.558 424.399 296.833Z" fill="#263238"/>
<path d="M424.391 295.16L424.408 298.58C424.409 300.255 417.298 302.745 415.305 298.926C415.154 298.597 414.382 293.912 414.382 293.912L424.391 295.16Z" fill="#B16668"/>
<path d="M393.948 315.348C393.948 315.348 395.201 315.348 395.694 320.465C395.882 322.413 396.348 326.41 395.684 327.856C395.019 329.302 391.412 329.942 387.368 330.305C384.35 330.576 381.624 332.036 378.826 333.616C376.246 335.073 373.084 335.979 370.169 336.002C370.105 336.003 370.041 336.003 369.976 336.003C367.328 336.014 364.81 335.704 362.357 334.677C360.46 333.883 358.326 332.597 357.745 330.48C357.668 330.198 357.616 329.905 357.648 329.614C357.705 329.104 358.022 328.651 358.415 328.322C358.809 327.993 359.278 327.77 359.742 327.55C362.486 326.251 365.256 325.003 367.956 323.625C370.579 322.286 373.2 320.934 375.714 319.396C376.965 318.63 378.188 317.819 379.365 316.944C379.88 316.561 380.432 316.193 380.932 315.802C381.202 315.591 381.714 314.669 382.093 314.69C382.097 314.69 393.948 315.348 393.948 315.348Z" fill="#263238"/>
<path d="M393.623 311.563C393.623 311.563 393.623 314.132 393.644 315.599C393.664 317.067 391.927 319.263 387.401 319.126C384.222 319.03 381.999 318.193 382.112 315.597L382.093 311.856L393.623 311.563Z" fill="#B16668"/>
<path d="M426.363 253.226C424.858 242.87 422.534 236.726 422.534 236.726C422.534 236.726 423.594 222.468 424.068 208.953C424.58 194.354 423.831 176.32 422.913 167.433C422.913 167.433 376.982 163.078 376.228 179.955C375.474 196.832 376.364 238.666 376.364 246.78C376.364 254.213 377.277 261.602 378.626 275.413C379.92 288.647 381.909 313.009 381.909 313.009C387.304 315.89 393.929 312.701 393.929 312.701C393.929 312.701 397.659 279.04 398.611 270.533C399.733 260.504 396.774 252.398 396.774 252.398C396.774 252.398 397.311 245.921 399.016 231.584C400.22 221.455 401.218 209.365 401.218 209.365C401.218 209.365 402.125 225.8 403.08 233.759C403.965 241.139 405.022 244.093 407.856 258.558C410.609 272.61 413.788 295.858 413.788 295.858C419.183 298.74 424.515 295.328 424.515 295.328C424.515 295.328 427.868 263.582 426.363 253.226Z" fill="#37474F"/>
<path d="M401.218 209.365L403.39 195.265C403.39 195.265 412.328 192.422 416.873 187.102C416.873 187.102 414.449 193.295 406.117 196.628L402.78 208.501L401.853 219.514L401.218 209.365Z" fill="#263238"/>
<path d="M413.461 110.846C420.625 109.117 425.15 112.592 427.794 122.335C430.06 130.684 433.377 147.965 434.666 154.424C435.142 156.812 436.082 159.553 431.052 162.569C421.111 168.53 408.517 173.944 408.517 173.944L405.768 163.644L416.874 140.902L413.461 110.846Z" fill="#37474F"/>
<path d="M393.674 106.311L395.819 121.382L410.681 120.618L409.377 103.007L393.674 106.311Z" fill="#B16668"/>
<path d="M383.941 87.7057C383.941 87.7057 380.303 93.0407 380.699 93.5757C381.095 94.1117 383.702 94.6307 383.702 94.6307L383.941 87.7057Z" fill="#9A4A4D"/>
<path d="M385.135 91.1886C382.693 91.1496 380.738 89.1316 380.776 86.6886C380.814 84.2466 382.833 82.2916 385.275 82.3296C387.717 82.3686 389.672 84.3866 389.634 86.8286C389.595 89.2716 387.577 91.2276 385.135 91.1886ZM385.259 83.3146C383.36 83.2846 381.791 84.8046 381.761 86.7046C381.731 88.6036 383.251 90.1736 385.151 90.2036C387.05 90.2336 388.619 88.7126 388.649 86.8126C388.679 84.9136 387.159 83.3446 385.259 83.3146Z" fill="#263238"/>
<path d="M394.041 72.9476C386.827 74.3506 384.702 77.4776 383.844 88.8886C382.948 100.812 384.107 104.582 385.649 106.214C386.691 107.315 392.568 107.604 395.548 106.833C399.278 105.868 407.716 103.026 411.741 97.0857C416.475 90.0957 417.841 80.5436 412.954 76.5386C406.077 70.9026 396.977 72.3766 394.041 72.9476Z" fill="#B16668"/>
<path d="M393.788 107.136C390.685 107.478 386.512 107.125 385.65 106.214C389.116 106.428 393.365 104.695 393.365 104.695L393.788 107.136Z" fill="#9A4A4D"/>
<path d="M382.495 76.5397C382.504 76.6877 382.521 76.8367 382.549 76.9837C382.756 78.0687 383.536 78.9927 384.5 79.5307C385.228 79.9367 386.054 80.1377 386.881 80.1987C387.181 80.2207 389.298 80.3067 389.374 80.0717C389.113 80.8857 388.582 81.4857 388.591 82.4227C388.599 83.2507 389.003 84.1037 389.729 84.5017C390.147 84.7307 390.651 84.8047 391.019 85.1087C391.685 85.6577 391.428 86.9167 391.715 87.6497C391.808 87.8877 393.456 90.0837 393.537 89.7877C393.537 89.7877 394.799 85.1907 398.68 85.8327C402.586 86.4787 403.036 91.4777 400.521 94.4717C398.005 97.4647 395.724 96.2657 395.724 96.2657C395.724 96.2657 395.741 102.865 398.604 106.646C398.604 106.646 401.914 107.775 408.052 106.568C411.825 105.826 417.216 101.21 419.531 96.2677C424.426 85.8147 424.906 76.3457 418.229 73.3997C417.309 66.5167 409.824 64.4887 403.95 64.3127C400.132 64.1987 396.291 64.5827 392.502 64.1017C390.699 63.8727 388.926 63.4497 387.158 63.0257C386.046 62.7587 384.899 62.4907 383.771 62.6727C381.504 63.0387 379.833 65.2707 379.657 67.5607C379.565 68.7567 379.785 69.9697 380.278 71.0617C380.816 72.2537 381.63 73.0807 382.686 73.7987C382.744 73.8387 382.805 73.8817 382.833 73.9457C382.865 74.0187 382.847 74.1017 382.829 74.1797C382.651 74.9557 382.449 75.7527 382.495 76.5397Z" fill="#263238"/>
<path d="M417.731 74.2077L422.073 71.7397C421.391 70.5407 419.867 70.1207 418.668 70.8027C417.469 71.4847 417.05 73.0087 417.731 74.2077Z" fill="#263238"/>
<path d="M393.464 92.3707L393.675 87.3807C392.297 87.3227 391.133 88.3927 391.074 89.7697C391.016 91.1477 392.086 92.3117 393.464 92.3707Z" fill="#263238"/>
<path d="M381.204 85.7708L394.551 87.7128L393.998 88.6438L381.189 86.7757L381.204 85.7708Z" fill="#263238"/>
<path d="M424.347 118.77C422.765 112.584 420.531 110.564 415.147 110.42C413.535 110.377 408.034 111.239 406.869 111.477C406.303 114.09 399.548 115.868 392.71 114.456C390.677 115.05 385.294 116.514 383.604 117.127C378.766 118.883 376.422 123.906 376.102 139.853C376.102 139.853 375.176 177.672 376.115 184.202C388.312 188.957 400.971 188.744 407.961 187.18C422.512 183.923 424.238 177.872 424.238 177.872C424.238 177.872 423.475 162.693 422.98 151.151C423.709 143.801 424.806 138.273 425.202 132.41C425.605 126.47 424.943 121.097 424.347 118.77Z" fill="#455A64"/>
<path d="M328.184 130.312C328.63 130.619 331.878 133.29 333.3 134.614C333.3 134.614 336.133 122.286 336.134 122.281C336.144 122.241 334.829 121.058 334.708 120.919C334.261 120.407 333.796 119.902 333.419 119.334C332.554 118.03 331.914 116.503 331.304 115.076C330.598 113.426 329.703 112.009 328.635 110.566C327.594 109.16 326.552 107.753 325.511 106.347C325.309 106.074 325.088 105.787 324.768 105.675C324.248 105.492 323.662 105.871 323.433 106.372C323.204 106.873 323.245 107.453 323.321 107.999C323.473 109.093 323.748 110.17 324.139 111.203C324.368 111.81 325.041 113.315 323.651 113.156C323.207 113.105 322.845 112.791 322.518 112.486C320.828 110.913 319.249 109.222 317.796 107.428C317.311 106.829 316.829 106.209 316.194 105.773C315.558 105.337 314.726 105.109 314.005 105.381C313.081 105.729 312.622 106.742 312.256 107.659C311.792 108.821 311.323 110.011 311.268 111.261C311.233 112.057 311.369 112.852 311.566 113.624C312.347 116.684 314.088 119.41 316.237 121.693C318.179 123.756 319.747 125.173 322.161 126.67C322.647 126.972 323.566 127.495 324.478 128.059C325.819 128.889 326.634 129.244 328.184 130.312Z" fill="#B16668"/>
<path d="M355.886 136.679L334.021 120.647L329.758 131.31C329.758 131.31 344.381 145.215 351.478 151.246C354.504 153.905 357.787 153.311 361.02 151.728C366.571 149.01 380.768 138.008 380.768 138.008C380.768 138.008 388.348 124.809 383.605 117.127C383.605 117.127 379.989 117.669 376.83 120.326C373.437 123.181 356.304 136.599 356.304 136.599" fill="#B16668"/>
<path d="M384.534 116.817C384.534 116.817 381.239 116.481 377.782 118.445C375.295 119.858 356.303 136.191 356.303 136.191L340.933 125.308C336.69 126.375 333.823 131.938 333.425 135.747C333.425 135.747 341.659 143.37 346.544 148.321C354.504 156.39 356.374 155.378 360.793 153.077C365.357 150.7 381.396 138.973 381.396 138.973C381.396 138.973 386.345 135.289 387.288 131.126C389.888 119.644 384.534 116.817 384.534 116.817Z" fill="#37474F"/>
<path opacity="0.1" d="M356.304 136.191C356.304 136.191 353.536 138.088 352.183 142.156C352.183 142.156 351.705 138.305 355.031 135.29L356.304 136.191Z" fill="black"/>
<path d="M340.934 125.308L337.097 122.557C337.097 122.557 334.342 123.897 332.13 126.997C329.918 130.097 329.758 132.433 329.758 132.433L333.425 135.747C335.016 131.78 337.526 127.991 340.934 125.308Z" fill="#263238"/>
<path d="M331.442 132.347C331.576 132.719 331.986 132.913 332.358 132.779C332.73 132.645 332.924 132.235 332.79 131.863C332.656 131.491 332.246 131.297 331.874 131.431C331.501 131.565 331.308 131.975 331.442 132.347Z" fill="url(#paint58_linear_406_794)"/>
<path d="M409.693 107.269L409.8 108.719C409.8 108.719 407.783 111.063 403.67 111.827C396.755 113.111 394.337 110.964 394.337 110.964L394.16 109.719C394.16 109.719 393.497 109.446 392.375 110.309C391.253 111.172 387.59 115.913 387.59 115.913C387.59 115.913 388.907 115.528 393.229 117.366C397.712 119.272 403.267 119.028 406.721 117.875C410.174 116.722 412.781 113.314 412.953 112.047C413.125 110.78 410.882 106.751 409.693 107.269Z" fill="#263238"/>
<defs>
<linearGradient id="paint0_linear_406_794" x1="35.2168" y1="214.025" x2="35.2168" y2="298.094" gradientUnits="userSpaceOnUse">
<stop stop-color="#27DEBF"/>
<stop offset="0.585" stop-color="#074339"/>
</linearGradient>
<linearGradient id="paint1_linear_406_794" x1="32.4524" y1="263.048" x2="32.4524" y2="318.699" gradientUnits="userSpaceOnUse">
<stop stop-color="#27DEBF"/>
<stop offset="0.585" stop-color="#074339"/>
</linearGradient>
<linearGradient id="paint2_linear_406_794" x1="292.646" y1="232.92" x2="292.646" y2="299.902" gradientUnits="userSpaceOnUse">
<stop stop-color="#27DEBF"/>
<stop offset="0.585" stop-color="#074339"/>
</linearGradient>
<linearGradient id="paint3_linear_406_794" x1="333.076" y1="234.806" x2="333.076" y2="250.889" gradientUnits="userSpaceOnUse">
<stop stop-color="#27DEBF"/>
<stop offset="0.585" stop-color="#074339"/>
</linearGradient>
<linearGradient id="paint4_linear_406_794" x1="178.645" y1="20.011" x2="178.645" y2="315.697" gradientUnits="userSpaceOnUse">
<stop stop-color="#27DEBF"/>
<stop offset="0.585" stop-color="#074339"/>
</linearGradient>
<linearGradient id="paint5_linear_406_794" x1="109.56" y1="168.072" x2="109.56" y2="202.174" gradientUnits="userSpaceOnUse">
<stop stop-color="#27DEBF"/>
<stop offset="0.585" stop-color="#074339"/>
</linearGradient>
<linearGradient id="paint6_linear_406_794" x1="118.981" y1="157.59" x2="118.981" y2="180.735" gradientUnits="userSpaceOnUse">
<stop stop-color="#27DEBF"/>
<stop offset="0.585" stop-color="#074339"/>
</linearGradient>
<linearGradient id="paint7_linear_406_794" x1="128.106" y1="157.631" x2="128.106" y2="179.322" gradientUnits="userSpaceOnUse">
<stop stop-color="#27DEBF"/>
<stop offset="0.585" stop-color="#074339"/>
</linearGradient>
<linearGradient id="paint8_linear_406_794" x1="120.345" y1="164.255" x2="120.345" y2="207.65" gradientUnits="userSpaceOnUse">
<stop stop-color="#27DEBF"/>
<stop offset="0.585" stop-color="#074339"/>
</linearGradient>
<linearGradient id="paint9_linear_406_794" x1="201.146" y1="58.5867" x2="201.146" y2="132.428" gradientUnits="userSpaceOnUse">
<stop stop-color="#27DEBF"/>
<stop offset="0.585" stop-color="#074339"/>
</linearGradient>
<linearGradient id="paint10_linear_406_794" x1="223.858" y1="97.6499" x2="223.858" y2="114.999" gradientUnits="userSpaceOnUse">
<stop stop-color="#27DEBF"/>
<stop offset="0.585" stop-color="#074339"/>
</linearGradient>
<linearGradient id="paint11_linear_406_794" x1="237.915" y1="89.5338" x2="237.915" y2="106.883" gradientUnits="userSpaceOnUse">
<stop stop-color="#27DEBF"/>
<stop offset="0.585" stop-color="#074339"/>
</linearGradient>
<linearGradient id="paint12_linear_406_794" x1="251.972" y1="81.4178" x2="251.972" y2="98.7666" gradientUnits="userSpaceOnUse">
<stop stop-color="#27DEBF"/>
<stop offset="0.585" stop-color="#074339"/>
</linearGradient>
<linearGradient id="paint13_linear_406_794" x1="223.858" y1="113.881" x2="223.858" y2="131.23" gradientUnits="userSpaceOnUse">
<stop stop-color="#27DEBF"/>
<stop offset="0.585" stop-color="#074339"/>
</linearGradient>
<linearGradient id="paint14_linear_406_794" x1="237.915" y1="105.766" x2="237.915" y2="123.115" gradientUnits="userSpaceOnUse">
<stop stop-color="#27DEBF"/>
<stop offset="0.585" stop-color="#074339"/>
</linearGradient>
<linearGradient id="paint15_linear_406_794" x1="251.972" y1="97.6499" x2="251.972" y2="114.999" gradientUnits="userSpaceOnUse">
<stop stop-color="#27DEBF"/>
<stop offset="0.585" stop-color="#074339"/>
</linearGradient>
<linearGradient id="paint16_linear_406_794" x1="223.858" y1="130.113" x2="223.858" y2="147.462" gradientUnits="userSpaceOnUse">
<stop stop-color="#27DEBF"/>
<stop offset="0.585" stop-color="#074339"/>
</linearGradient>
<linearGradient id="paint17_linear_406_794" x1="237.915" y1="121.997" x2="237.915" y2="139.346" gradientUnits="userSpaceOnUse">
<stop stop-color="#27DEBF"/>
<stop offset="0.585" stop-color="#074339"/>
</linearGradient>
<linearGradient id="paint18_linear_406_794" x1="251.972" y1="113.882" x2="251.972" y2="131.231" gradientUnits="userSpaceOnUse">
<stop stop-color="#27DEBF"/>
<stop offset="0.585" stop-color="#074339"/>
</linearGradient>
<linearGradient id="paint19_linear_406_794" x1="156.577" y1="188.368" x2="156.577" y2="273.397" gradientUnits="userSpaceOnUse">
<stop stop-color="#27DEBF"/>
<stop offset="0.585" stop-color="#074339"/>
</linearGradient>
<linearGradient id="paint20_linear_406_794" x1="156.577" y1="165.992" x2="156.577" y2="248.783" gradientUnits="userSpaceOnUse">
<stop stop-color="#27DEBF"/>
<stop offset="0.585" stop-color="#074339"/>
</linearGradient>
<linearGradient id="paint21_linear_406_794" x1="203.528" y1="297.554" x2="203.528" y2="419.44" gradientUnits="userSpaceOnUse">
<stop stop-color="#27DEBF"/>
<stop offset="0.585" stop-color="#074339"/>
</linearGradient>
<linearGradient id="paint22_linear_406_794" x1="180.37" y1="342.573" x2="180.37" y2="375.049" gradientUnits="userSpaceOnUse">
<stop stop-color="#27DEBF"/>
<stop offset="0.585" stop-color="#074339"/>
</linearGradient>
<linearGradient id="paint23_linear_406_794" x1="167.989" y1="360.624" x2="167.989" y2="371.304" gradientUnits="userSpaceOnUse">
<stop stop-color="#27DEBF"/>
<stop offset="0.585" stop-color="#074339"/>
</linearGradient>
<linearGradient id="paint24_linear_406_794" x1="171.989" y1="361.312" x2="171.989" y2="369.994" gradientUnits="userSpaceOnUse">
<stop stop-color="#27DEBF"/>
<stop offset="0.585" stop-color="#074339"/>
</linearGradient>
<linearGradient id="paint25_linear_406_794" x1="174.854" y1="358.624" x2="174.854" y2="367.995" gradientUnits="userSpaceOnUse">
<stop stop-color="#27DEBF"/>
<stop offset="0.585" stop-color="#074339"/>
</linearGradient>
<linearGradient id="paint26_linear_406_794" x1="178.422" y1="358.812" x2="178.422" y2="366.684" gradientUnits="userSpaceOnUse">
<stop stop-color="#27DEBF"/>
<stop offset="0.585" stop-color="#074339"/>
</linearGradient>
<linearGradient id="paint27_linear_406_794" x1="184.639" y1="359.994" x2="184.639" y2="364.687" gradientUnits="userSpaceOnUse">
<stop stop-color="#27DEBF"/>
<stop offset="0.585" stop-color="#074339"/>
</linearGradient>
<linearGradient id="paint28_linear_406_794" x1="186.44" y1="358.142" x2="186.44" y2="363.377" gradientUnits="userSpaceOnUse">
<stop stop-color="#27DEBF"/>
<stop offset="0.585" stop-color="#074339"/>
</linearGradient>
<linearGradient id="paint29_linear_406_794" x1="189.091" y1="355.21" x2="189.091" y2="361.377" gradientUnits="userSpaceOnUse">
<stop stop-color="#27DEBF"/>
<stop offset="0.585" stop-color="#074339"/>
</linearGradient>
<linearGradient id="paint30_linear_406_794" x1="193.019" y1="355.813" x2="193.019" y2="360.066" gradientUnits="userSpaceOnUse">
<stop stop-color="#27DEBF"/>
<stop offset="0.585" stop-color="#074339"/>
</linearGradient>
<linearGradient id="paint31_linear_406_794" x1="198.22" y1="355.822" x2="198.22" y2="358.068" gradientUnits="userSpaceOnUse">
<stop stop-color="#27DEBF"/>
<stop offset="0.585" stop-color="#074339"/>
</linearGradient>
<linearGradient id="paint32_linear_406_794" x1="167.989" y1="360.624" x2="167.989" y2="371.304" gradientUnits="userSpaceOnUse">
<stop stop-color="#27DEBF"/>
<stop offset="0.585" stop-color="#074339"/>
</linearGradient>
<linearGradient id="paint33_linear_406_794" x1="174.854" y1="358.624" x2="174.854" y2="367.995" gradientUnits="userSpaceOnUse">
<stop stop-color="#27DEBF"/>
<stop offset="0.585" stop-color="#074339"/>
</linearGradient>
<linearGradient id="paint34_linear_406_794" x1="184.639" y1="359.994" x2="184.639" y2="364.687" gradientUnits="userSpaceOnUse">
<stop stop-color="#27DEBF"/>
<stop offset="0.585" stop-color="#074339"/>
</linearGradient>
<linearGradient id="paint35_linear_406_794" x1="189.091" y1="355.21" x2="189.091" y2="361.377" gradientUnits="userSpaceOnUse">
<stop stop-color="#27DEBF"/>
<stop offset="0.585" stop-color="#074339"/>
</linearGradient>
<linearGradient id="paint36_linear_406_794" x1="198.22" y1="355.822" x2="198.22" y2="358.068" gradientUnits="userSpaceOnUse">
<stop stop-color="#27DEBF"/>
<stop offset="0.585" stop-color="#074339"/>
</linearGradient>
<linearGradient id="paint37_linear_406_794" x1="201.169" y1="355.295" x2="201.169" y2="356.758" gradientUnits="userSpaceOnUse">
<stop stop-color="#27DEBF"/>
<stop offset="0.585" stop-color="#074339"/>
</linearGradient>
<linearGradient id="paint38_linear_406_794" x1="175.436" y1="350.967" x2="175.436" y2="352.465" gradientUnits="userSpaceOnUse">
<stop stop-color="#27DEBF"/>
<stop offset="0.585" stop-color="#074339"/>
</linearGradient>
<linearGradient id="paint39_linear_406_794" x1="177.6" y1="352.216" x2="177.6" y2="353.715" gradientUnits="userSpaceOnUse">
<stop stop-color="#27DEBF"/>
<stop offset="0.585" stop-color="#074339"/>
</linearGradient>
<linearGradient id="paint40_linear_406_794" x1="167.989" y1="360.624" x2="167.989" y2="371.304" gradientUnits="userSpaceOnUse">
<stop stop-color="#27DEBF"/>
<stop offset="0.585" stop-color="#074339"/>
</linearGradient>
<linearGradient id="paint41_linear_406_794" x1="174.854" y1="358.624" x2="174.854" y2="367.995" gradientUnits="userSpaceOnUse">
<stop stop-color="#27DEBF"/>
<stop offset="0.585" stop-color="#074339"/>
</linearGradient>
<linearGradient id="paint42_linear_406_794" x1="184.639" y1="359.994" x2="184.639" y2="364.687" gradientUnits="userSpaceOnUse">
<stop stop-color="#27DEBF"/>
<stop offset="0.585" stop-color="#074339"/>
</linearGradient>
<linearGradient id="paint43_linear_406_794" x1="189.091" y1="355.21" x2="189.091" y2="361.377" gradientUnits="userSpaceOnUse">
<stop stop-color="#27DEBF"/>
<stop offset="0.585" stop-color="#074339"/>
</linearGradient>
<linearGradient id="paint44_linear_406_794" x1="167.989" y1="360.624" x2="167.989" y2="371.304" gradientUnits="userSpaceOnUse">
<stop stop-color="#27DEBF"/>
<stop offset="0.585" stop-color="#074339"/>
</linearGradient>
<linearGradient id="paint45_linear_406_794" x1="174.854" y1="358.624" x2="174.854" y2="367.995" gradientUnits="userSpaceOnUse">
<stop stop-color="#27DEBF"/>
<stop offset="0.585" stop-color="#074339"/>
</linearGradient>
<linearGradient id="paint46_linear_406_794" x1="184.639" y1="359.994" x2="184.639" y2="364.687" gradientUnits="userSpaceOnUse">
<stop stop-color="#27DEBF"/>
<stop offset="0.585" stop-color="#074339"/>
</linearGradient>
<linearGradient id="paint47_linear_406_794" x1="189.091" y1="355.21" x2="189.091" y2="361.377" gradientUnits="userSpaceOnUse">
<stop stop-color="#27DEBF"/>
<stop offset="0.585" stop-color="#074339"/>
</linearGradient>
<linearGradient id="paint48_linear_406_794" x1="198.22" y1="355.822" x2="198.22" y2="358.068" gradientUnits="userSpaceOnUse">
<stop stop-color="#27DEBF"/>
<stop offset="0.585" stop-color="#074339"/>
</linearGradient>
<linearGradient id="paint49_linear_406_794" x1="215.949" y1="360.969" x2="215.949" y2="397.723" gradientUnits="userSpaceOnUse">
<stop stop-color="#27DEBF"/>
<stop offset="0.585" stop-color="#074339"/>
</linearGradient>
<linearGradient id="paint50_linear_406_794" x1="189.822" y1="378.642" x2="189.822" y2="380.617" gradientUnits="userSpaceOnUse">
<stop stop-color="#27DEBF"/>
<stop offset="0.585" stop-color="#074339"/>
</linearGradient>
<linearGradient id="paint51_linear_406_794" x1="199.505" y1="373.047" x2="199.505" y2="375.021" gradientUnits="userSpaceOnUse">
<stop stop-color="#27DEBF"/>
<stop offset="0.585" stop-color="#074339"/>
</linearGradient>
<linearGradient id="paint52_linear_406_794" x1="209.189" y1="367.451" x2="209.189" y2="369.425" gradientUnits="userSpaceOnUse">
<stop stop-color="#27DEBF"/>
<stop offset="0.585" stop-color="#074339"/>
</linearGradient>
<linearGradient id="paint53_linear_406_794" x1="218.854" y1="372.957" x2="218.854" y2="387.844" gradientUnits="userSpaceOnUse">
<stop stop-color="#27DEBF"/>
<stop offset="0.585" stop-color="#074339"/>
</linearGradient>
<linearGradient id="paint54_linear_406_794" x1="188.851" y1="318.087" x2="188.851" y2="338.615" gradientUnits="userSpaceOnUse">
<stop stop-color="#27DEBF"/>
<stop offset="0.585" stop-color="#074339"/>
</linearGradient>
<linearGradient id="paint55_linear_406_794" x1="354.505" y1="152.328" x2="354.505" y2="159.497" gradientUnits="userSpaceOnUse">
<stop stop-color="#27DEBF"/>
<stop offset="0.585" stop-color="#074339"/>
</linearGradient>
<linearGradient id="paint56_linear_406_794" x1="355.886" y1="155.111" x2="355.886" y2="161.556" gradientUnits="userSpaceOnUse">
<stop stop-color="#27DEBF"/>
<stop offset="0.585" stop-color="#074339"/>
</linearGradient>
<linearGradient id="paint57_linear_406_794" x1="358.007" y1="157.451" x2="358.007" y2="162.955" gradientUnits="userSpaceOnUse">
<stop stop-color="#27DEBF"/>
<stop offset="0.585" stop-color="#074339"/>
</linearGradient>
<linearGradient id="paint58_linear_406_794" x1="332.116" y1="131.388" x2="332.116" y2="132.821" gradientUnits="userSpaceOnUse">
<stop stop-color="#27DEBF"/>
<stop offset="0.585" stop-color="#074339"/>
</linearGradient>
</defs>
</svg>
