<svg width="395" height="325" viewBox="0 0 395 325" fill="none" xmlns="http://www.w3.org/2000/svg">
<path d="M250.127 323.566L44.1149 204.625C42.6799 203.797 42.6799 202.453 44.1149 201.625L164.822 131.913C166.257 131.084 168.583 131.084 170.018 131.913L376.05 250.864C377.485 251.692 377.485 253.036 376.05 253.864L255.323 323.566C253.888 324.394 251.562 324.394 250.127 323.566Z" fill="#E6E6E6"/>
<path d="M207.288 152.098C209.832 152.148 214.029 148.857 214.665 144.779C215.301 140.701 216.518 137.478 222.333 135.273C228.148 133.069 231.405 132.08 233.269 127.022C235.132 121.964 232.218 116.261 231.455 111.946C230.692 107.631 234.635 102.618 240.486 97.875C246.337 93.132 249.666 88.141 244.459 85.135C239.252 82.128 232.819 83.402 227.168 87.027C221.517 90.652 217.089 95.422 210.147 94.786C203.204 94.15 199.318 97.118 197.962 102.566C196.606 108.014 198.573 114.928 193.41 116.637V139.794L207.288 152.098Z" fill="url(#paint0_linear_125_1569)"/>
<path d="M196.808 141.655C196.771 141.655 196.733 141.651 196.695 141.642C196.426 141.579 196.258 141.311 196.32 141.042C201.609 118.147 225.488 92.798 238.392 87.533C238.645 87.429 238.939 87.551 239.043 87.807C239.147 88.063 239.025 88.354 238.769 88.459C226.054 93.647 202.516 118.661 197.294 141.267C197.242 141.499 197.036 141.655 196.808 141.655Z" fill="white"/>
<path d="M210.108 114.285C209.868 114.285 209.656 114.112 209.616 113.867C208.595 107.705 205.583 102.88 205.552 102.832C205.405 102.598 205.475 102.29 205.708 102.142C205.939 101.995 206.25 102.063 206.397 102.298C206.525 102.501 209.548 107.344 210.601 113.704C210.646 113.976 210.462 114.234 210.19 114.279C210.162 114.283 210.135 114.285 210.108 114.285Z" fill="white"/>
<path d="M205.975 121.25C205.753 121.25 205.551 121.102 205.492 120.878C205.422 120.611 205.581 120.338 205.847 120.267C213.703 118.187 223.636 120.175 224.055 120.261C224.325 120.316 224.499 120.58 224.445 120.851C224.389 121.121 224.129 121.294 223.855 121.241C223.753 121.22 213.73 119.215 206.103 121.235C206.06 121.244 206.017 121.25 205.975 121.25Z" fill="white"/>
<path d="M294.353 17.567L298.188 19.042V10.594C298.188 3.89699 303.53 2.29199 309.329 5.63999C315.129 8.98799 319.83 17.132 319.83 23.828V25.055C321.146 24.53 322.845 24.734 324.703 25.806C328.877 28.216 332.26 34.075 332.26 38.894V39.452L337.607 42.539C340.355 44.126 342.583 47.985 342.583 51.158C342.583 54.331 340.355 55.618 337.607 54.031L294.353 29.059C291.605 27.472 289.377 23.613 289.377 20.44C289.377 17.267 291.605 15.98 294.353 17.567Z" fill="#EBEBEB"/>
<path d="M337.766 20.369L344.718 24.383C344.683 24.072 344.659 23.764 344.659 23.463V21.448C344.659 17.864 347.175 16.411 350.279 18.203C351.536 18.929 352.692 20.079 353.628 21.424C354.136 16.917 357.672 15.239 361.966 17.718C366.609 20.399 370.374 26.919 370.374 32.281V35.294C370.374 36.683 370.117 37.852 369.662 38.784L375.436 42.118C377.158 43.112 378.553 45.529 378.553 47.517C378.553 49.505 377.157 50.311 375.436 49.317L337.766 27.568C336.044 26.574 334.649 24.157 334.649 22.169C334.649 20.181 336.045 19.375 337.766 20.369Z" fill="#EBEBEB"/>
<path d="M195.934 23.406L232.413 2.34497L240.537 7.03597L232.413 21.107L195.934 42.168V23.406Z" fill="#455A64"/>
<path d="M232.413 2.345L228.351 0L191.793 21.107L195.934 23.406L232.413 2.345Z" fill="#37474F"/>
<path d="M201.23 32.8381C200.802 32.9881 200.46 33.0491 200.205 33.0231C200.123 33.0141 200.084 32.9871 200.084 32.9431C200.084 32.9001 200.096 32.8551 200.121 32.8091L200.43 32.1441C200.467 32.0661 200.502 32.0191 200.534 32.0011C200.565 31.9831 200.604 31.9761 200.655 31.9781C200.885 31.9811 201.153 31.9381 201.46 31.8451C201.765 31.7531 202.075 31.6161 202.386 31.4361C202.812 31.1911 203.13 30.9361 203.345 30.6721C203.56 30.4071 203.669 30.1181 203.669 29.8071C203.669 29.6191 203.628 29.4941 203.546 29.4281C203.466 29.3631 203.347 29.3341 203.192 29.3431C203.034 29.3521 202.782 29.3891 202.432 29.4541L202.217 29.4931C201.811 29.5651 201.477 29.6031 201.211 29.6061C200.945 29.6101 200.727 29.5411 200.553 29.3981C200.377 29.2561 200.289 29.0091 200.289 28.6611C200.289 28.0931 200.506 27.5301 200.939 26.9701C201.373 26.4111 201.941 25.9281 202.648 25.5211C203.078 25.2721 203.449 25.0991 203.765 24.9971C204.079 24.8961 204.353 24.8641 204.583 24.8981C204.657 24.9111 204.696 24.9421 204.696 24.9921C204.696 25.0291 204.682 25.0711 204.657 25.1161L204.358 25.7751C204.321 25.8531 204.29 25.8991 204.264 25.9141C204.239 25.9291 204.2 25.9331 204.143 25.9281C203.745 25.9031 203.248 26.0611 202.655 26.4031C202.262 26.6301 201.966 26.8731 201.766 27.1321C201.567 27.3911 201.467 27.6761 201.467 27.9871C201.467 28.1801 201.51 28.3101 201.592 28.3771C201.678 28.4441 201.801 28.4711 201.963 28.4591C202.125 28.4461 202.387 28.4041 202.748 28.3331L202.982 28.2911C203.437 28.2101 203.793 28.1711 204.048 28.1761C204.304 28.1811 204.501 28.2571 204.642 28.4031C204.783 28.5501 204.853 28.8011 204.853 29.1561C204.853 29.6931 204.652 30.2311 204.25 30.7721C203.848 31.3141 203.275 31.7981 202.533 32.2271C202.091 32.4861 201.656 32.6881 201.23 32.8381Z" fill="white"/>
<path d="M206.413 29.121C205.86 28.86 205.583 28.202 205.583 27.147C205.583 26.093 205.86 25.116 206.413 24.217C206.964 23.318 207.755 22.572 208.784 21.978C209.807 21.387 210.597 21.222 211.151 21.481C211.706 21.741 211.983 22.397 211.983 23.451C211.983 24.506 211.706 25.484 211.151 26.384C210.596 27.284 209.807 28.03 208.784 28.621C207.755 29.216 206.964 29.383 206.413 29.121ZM210.281 26.256C210.625 25.643 210.797 24.937 210.797 24.138C210.797 23.34 210.625 22.834 210.281 22.621C209.939 22.407 209.439 22.489 208.785 22.867C208.131 23.245 207.629 23.74 207.283 24.352C206.937 24.963 206.763 25.668 206.763 26.466C206.763 27.265 206.937 27.771 207.283 27.987C207.629 28.202 208.131 28.12 208.785 27.742C209.439 27.364 209.939 26.869 210.281 26.256Z" fill="white"/>
<path d="M214.212 25.203C213.78 25.262 213.446 25.179 213.21 24.954C212.972 24.729 212.855 24.373 212.855 23.887V20.116C212.855 19.998 212.88 19.895 212.933 19.808C212.988 19.722 213.076 19.642 213.201 19.57L213.697 19.284C213.822 19.212 213.912 19.188 213.968 19.211C214.023 19.235 214.052 19.306 214.052 19.424V23.223C214.052 23.71 214.193 23.995 214.478 24.081C214.761 24.167 215.169 24.056 215.699 23.75C216.222 23.448 216.627 23.089 216.91 22.677C217.195 22.263 217.338 21.814 217.338 21.326V17.527C217.338 17.409 217.365 17.306 217.42 17.217C217.477 17.129 217.566 17.048 217.691 16.976L218.177 16.695C218.421 16.554 218.542 16.599 218.542 16.83V20.601C218.542 21.087 218.423 21.58 218.183 22.077C217.943 22.574 217.609 23.044 217.177 23.486C216.747 23.928 216.253 24.309 215.699 24.63C215.138 24.954 214.642 25.145 214.212 25.203Z" fill="white"/>
<path d="M221.275 21.186C221.218 21.162 221.191 21.094 221.191 20.982V15.874L219.552 16.819C219.429 16.891 219.343 16.915 219.296 16.892C219.249 16.869 219.226 16.799 219.226 16.681V16.428C219.226 16.31 219.249 16.21 219.296 16.13C219.343 16.05 219.429 15.974 219.552 15.902L224.027 13.319C224.15 13.247 224.238 13.223 224.287 13.247C224.338 13.272 224.363 13.343 224.363 13.461V13.714C224.363 13.832 224.338 13.931 224.287 14.009C224.238 14.088 224.15 14.163 224.027 14.235L222.388 15.18V20.288C222.388 20.4 222.361 20.5 222.31 20.587C222.255 20.673 222.163 20.755 222.033 20.831L221.547 21.112C221.421 21.186 221.331 21.21 221.275 21.186Z" fill="white"/>
<path d="M225.171 18.9361C225.118 18.9101 225.093 18.8411 225.093 18.7291V13.0491C225.093 12.9311 225.118 12.8291 225.171 12.7411C225.224 12.6551 225.314 12.5761 225.439 12.5031L225.935 12.2171C226.06 12.1451 226.15 12.1211 226.206 12.1441C226.263 12.1681 226.29 12.2391 226.29 12.3571V14.7151L229.358 12.9431V10.5851C229.358 10.4671 229.387 10.3641 229.442 10.2751C229.499 10.1871 229.588 10.1061 229.713 10.0341L230.199 9.75306C230.324 9.68106 230.414 9.65706 230.471 9.68006C230.528 9.70406 230.555 9.77506 230.555 9.89306V15.5731C230.555 15.6851 230.53 15.7851 230.477 15.8721C230.422 15.9591 230.33 16.0401 230.2 16.1161L229.714 16.3971C229.589 16.4691 229.499 16.4931 229.443 16.4701C229.388 16.4461 229.359 16.3781 229.359 16.2651V13.8511L226.291 15.6231V18.0371C226.291 18.1491 226.264 18.2491 226.211 18.3361C226.158 18.4221 226.066 18.5041 225.936 18.5801L225.44 18.8661C225.314 18.9381 225.224 18.9611 225.171 18.9361Z" fill="white"/>
<path d="M191.714 44.49L155.235 23.429L147.111 28.12L155.235 42.191L191.714 63.252V44.49Z" fill="#455A64"/>
<path d="M155.235 23.429L159.297 21.084L195.855 42.191L191.714 44.49L155.235 23.429Z" fill="#37474F"/>
<path d="M158.684 38.4089C158.63 38.3429 158.593 38.2609 158.571 38.1609L156.865 31.2719C156.857 31.2479 156.854 31.2189 156.854 31.1809C156.854 31.0879 156.922 31.0799 157.059 31.1599L157.933 31.6649C158.041 31.7279 158.118 31.7869 158.16 31.8429C158.204 31.8989 158.232 31.9649 158.247 32.0419L159.327 36.7829L160.623 33.9009C160.652 33.8419 160.687 33.8109 160.727 33.8059C160.766 33.7999 160.832 33.8249 160.926 33.8789L161.424 34.1659C161.517 34.2199 161.583 34.2719 161.623 34.3239C161.663 34.3749 161.696 34.4459 161.726 34.5369L163.034 38.9219L164.103 35.4219C164.118 35.3619 164.148 35.3299 164.195 35.3249C164.242 35.3209 164.315 35.3479 164.417 35.4059L165.303 35.9179C165.44 35.9969 165.508 36.0829 165.508 36.1759C165.508 36.2139 165.504 36.2389 165.497 36.2549L163.779 41.1669C163.75 41.2369 163.71 41.2749 163.655 41.2779C163.601 41.2809 163.523 41.2529 163.423 41.1949L162.839 40.8579C162.738 40.7999 162.661 40.7379 162.607 40.6719C162.554 40.6069 162.512 40.5219 162.484 40.4179L161.176 35.9199L159.879 38.9139C159.851 38.9849 159.809 39.0219 159.755 39.0249C159.701 39.0279 159.623 38.9999 159.523 38.9419L158.929 38.5989C158.82 38.5389 158.739 38.4749 158.684 38.4089Z" fill="white"/>
<path d="M166.668 42.9859C166.606 42.8949 166.576 42.7929 166.576 42.6799V37.0009C166.576 36.8819 166.606 36.8129 166.668 36.7919C166.729 36.7709 166.832 36.8029 166.976 36.8859L171.471 39.4809C171.615 39.5639 171.713 39.6459 171.768 39.7269C171.822 39.8079 171.849 39.9079 171.849 40.0259V40.2789C171.849 40.3979 171.822 40.4669 171.768 40.4899C171.713 40.5119 171.615 40.4809 171.471 40.3979L167.959 38.3709V40.1859L170.509 41.6579C170.653 41.7409 170.754 41.8239 170.811 41.9069C170.869 41.9899 170.899 42.0909 170.899 42.2099V42.4439C170.899 42.5629 170.869 42.6309 170.811 42.6509C170.754 42.6709 170.653 42.6389 170.509 42.5559L167.959 41.0839V42.9079L171.46 44.9289C171.604 45.0119 171.704 45.0969 171.763 45.1829C171.821 45.2689 171.849 45.3719 171.849 45.4899V45.7419C171.849 45.8539 171.821 45.9189 171.763 45.9359C171.704 45.9519 171.604 45.9189 171.46 45.8359L166.976 43.2469C166.832 43.1639 166.73 43.0779 166.668 42.9859Z" fill="white"/>
<path d="M173.917 47.2509C173.424 46.8689 173.029 46.506 172.734 46.161C172.64 46.051 172.593 45.974 172.593 45.93C172.593 45.886 172.608 45.857 172.636 45.843L172.993 45.563C173.036 45.532 173.075 45.5259 173.111 45.5469C173.147 45.5679 173.194 45.61 173.252 45.674C173.518 45.965 173.827 46.2549 174.181 46.5429C174.535 46.8309 174.891 47.079 175.251 47.287C175.74 47.57 176.109 47.713 176.358 47.716C176.606 47.719 176.73 47.5649 176.73 47.2529C176.73 47.0659 176.683 46.8889 176.59 46.7229C176.496 46.5569 176.358 46.3809 176.179 46.1959C175.998 46.0109 175.707 45.7329 175.303 45.3629L175.056 45.136C174.587 44.703 174.2 44.323 173.894 43.997C173.587 43.67 173.333 43.328 173.132 42.968C172.93 42.608 172.829 42.2539 172.829 41.9039C172.829 41.3369 173.08 41.043 173.58 41.023C174.081 41.003 174.738 41.2279 175.552 41.6979C176.049 41.9849 176.48 42.275 176.843 42.566C177.207 42.857 177.522 43.163 177.789 43.486C177.875 43.592 177.918 43.67 177.918 43.72C177.918 43.757 177.903 43.7839 177.875 43.7979L177.529 44.0849C177.486 44.1159 177.449 44.123 177.421 44.106C177.393 44.089 177.346 44.044 177.28 43.969C176.819 43.447 176.247 42.989 175.562 42.594C175.108 42.332 174.766 42.206 174.536 42.216C174.306 42.227 174.191 42.3879 174.191 42.6989C174.191 42.8919 174.239 43.075 174.337 43.246C174.434 43.417 174.576 43.598 174.764 43.787C174.95 43.976 175.253 44.26 175.671 44.638L175.941 44.887C176.467 45.371 176.877 45.7749 177.172 46.0979C177.468 46.4219 177.696 46.744 177.86 47.065C178.021 47.386 178.102 47.724 178.102 48.08C178.102 48.617 177.87 48.9049 177.406 48.9459C176.941 48.9859 176.28 48.759 175.424 48.264C174.913 47.97 174.41 47.6319 173.917 47.2509Z" fill="white"/>
<path d="M180.827 51.16C180.763 51.067 180.729 50.9639 180.729 50.8509V45.743L178.839 44.652C178.694 44.569 178.595 44.4859 178.542 44.4049C178.487 44.3239 178.461 44.224 178.461 44.106V43.8529C178.461 43.7339 178.487 43.6639 178.542 43.6429C178.595 43.6209 178.694 43.651 178.839 43.735L184.003 46.716C184.147 46.799 184.248 46.884 184.306 46.97C184.364 47.056 184.392 47.158 184.392 47.277V47.5299C184.392 47.6489 184.364 47.716 184.306 47.733C184.248 47.75 184.147 47.716 184.003 47.633L182.112 46.5419V51.65C182.112 51.762 182.081 51.8289 182.02 51.8489C181.959 51.8699 181.852 51.837 181.701 51.749L181.139 51.425C180.995 51.342 180.892 51.253 180.827 51.16Z" fill="white"/>
<path d="M195.927 3.94401C195.907 3.34701 195.51 2.75401 194.721 2.29901C193.103 1.36501 190.481 1.36501 188.863 2.29901C188.074 2.75401 187.677 3.34801 187.657 3.94401H187.649V224.11H195.933V3.94401H195.927Z" fill="#455A64"/>
<path d="M268.982 170.282L220.232 156.212L169.715 113.587C168.449 112.519 166.259 112.324 164.824 113.152L44.087 182.853C42.652 183.681 42.5149 185.219 43.7819 186.288L94.2989 228.913L143.049 242.983L195.849 287.543L249.87 305.363C251.443 305.882 253.882 305.632 255.318 304.804L260.849 301.613L376.054 235.102C377.489 234.274 377.377 233.181 375.803 232.662L321.782 214.842L268.982 170.282Z" fill="#455A64"/>
<path d="M220.232 156.212L94.299 228.913L143.049 242.983L268.982 170.282L220.232 156.212Z" fill="#455A64"/>
<path d="M195.849 287.543L249.87 305.363C251.443 305.882 253.882 305.631 255.317 304.803L376.054 235.102C377.489 234.274 377.377 233.181 375.803 232.662L321.782 214.842L195.849 287.543Z" fill="#455A64"/>
<path d="M212.102 160.902L165.894 121.913L56.2209 185.233L102.429 224.223L212.102 160.902Z" fill="#E0E0E0"/>
<path d="M260.852 174.972L151.179 238.293L102.429 224.223L212.102 160.902L260.852 174.972Z" fill="#E0E0E0"/>
<g opacity="0.5">
<path d="M260.852 174.972L151.179 238.293L102.429 224.223L212.102 160.902L260.852 174.972Z" fill="#E0E0E0"/>
</g>
<path d="M313.652 219.532L203.979 282.853L151.179 238.293L260.852 174.972L313.652 219.532Z" fill="#E0E0E0"/>
<path d="M360.184 234.882L250.51 298.202L203.979 282.853L313.652 219.532L360.184 234.882Z" fill="#E0E0E0"/>
<g opacity="0.5">
<path d="M360.184 234.882L250.51 298.202L203.979 282.853L313.652 219.532L360.184 234.882Z" fill="#E0E0E0"/>
</g>
<path d="M82.9709 207.804L98.367 198.424L73.9939 174.971L56.2209 185.233L82.9709 207.804Z" fill="#F0F0F0"/>
<path d="M102.429 196.078L78.0559 172.627L114.615 151.439L138.987 174.972L102.429 196.078Z" fill="#F0F0F0"/>
<path d="M118.677 149.174L143.049 172.626L155.235 165.591L151.173 130.412L118.677 149.174Z" fill="#F0F0F0"/>
<path d="M159.297 163.245L155.235 128.067L165.894 121.913L205.501 155.332L159.297 163.245Z" fill="#F0F0F0"/>
<path d="M116.647 216.014L104.46 204.287L89.226 213.082L102.429 224.223L116.647 216.014Z" fill="#F0F0F0"/>
<path d="M108.521 201.941L120.709 213.667L157.228 192.583L145.067 180.842L108.521 201.941Z" fill="#F0F0F0"/>
<path d="M161.329 190.216L149.142 178.489L160.299 172.048L183.67 167.936L183.671 177.317L161.329 190.216Z" fill="#F0F0F0"/>
<path d="M187.731 174.971L187.732 167.221L207.04 163.824L187.731 174.971Z" fill="#F0F0F0"/>
<path d="M208.044 182.006C203.556 180.711 197.19 181.236 193.825 183.179C190.46 185.122 191.37 187.747 195.856 189.043C200.343 190.339 206.709 189.814 210.075 187.871C213.441 185.927 212.532 183.301 208.044 182.006Z" fill="#E6E6E6"/>
<path d="M194.847 179.469C193.917 179.779 193.067 180.149 192.327 180.579C188.787 182.619 188.697 185.279 188.827 186.329C188.887 186.819 189.037 187.429 189.397 188.089L179.607 193.729L161.327 190.219L183.667 177.319L194.847 179.469Z" fill="#E6E6E6"/>
<path d="M187.731 174.971L200.259 177.136L206.682 178.025L228.347 165.59L212.102 160.902L187.731 174.971Z" fill="#E6E6E6"/>
<path d="M260.847 174.969L230.347 192.579L212.177 190.089C215.127 188.109 215.187 185.709 215.077 184.719C215.017 184.239 214.867 183.629 214.517 182.969L239.187 168.719L260.847 174.969Z" fill="#E6E6E6"/>
<path d="M226.677 194.699L212.107 203.109L187.667 198.419L197.847 192.579C197.877 192.559 197.897 192.549 197.927 192.529C197.937 192.529 197.937 192.529 197.937 192.529C199.037 192.679 200.197 192.759 201.376 192.759C203.876 192.759 206.266 192.429 208.326 191.809H208.336L226.677 194.699Z" fill="#E6E6E6"/>
<path d="M157.228 192.583L120.709 213.667L138.988 217.185L175.52 196.093L157.228 192.583Z" fill="#E6E6E6"/>
<path d="M212.109 203.114L187.686 198.428L151.161 219.528L175.545 224.221L212.109 203.114Z" fill="#E6E6E6"/>
<path d="M116.647 216.014L102.429 224.223L118.676 228.912L134.923 219.532L116.647 216.014Z" fill="#E6E6E6"/>
<path d="M171.483 226.57L147.098 221.876L129.506 232.038L151.179 238.293L171.483 226.57Z" fill="#E6E6E6"/>
<path d="M236.476 203.114L250.05 228.111L285.221 207.805L252.724 193.734L236.476 203.114Z" fill="#F0F0F0"/>
<path d="M171.483 226.57L175.546 233.602L174.277 257.787L151.179 238.293L171.483 226.57Z" fill="#F0F0F0"/>
<path d="M175.545 224.221L179.608 231.257L230.548 201.847L226.68 194.701L175.545 224.221Z" fill="#F0F0F0"/>
<path d="M230.345 192.583L234.444 199.597L267.451 180.541L260.852 174.972L230.345 192.583Z" fill="#F0F0F0"/>
<path d="M232.414 205.459L181.635 234.777L180.331 262.896L184.178 266.142L246.023 230.436L232.414 205.459Z" fill="#F0F0F0"/>
<path d="M256.786 191.388L270.751 183.326L293.852 202.822L289.283 205.46L256.786 191.388Z" fill="#F0F0F0"/>
<path d="M190.778 271.712L208.042 261.745L216.166 275.816L203.979 282.853L190.778 271.712Z" fill="#F0F0F0"/>
<path d="M228.345 250.012L212.097 259.393L220.221 273.464L236.469 264.083L228.345 250.012Z" fill="#F0F0F0"/>
<path d="M232.415 247.674L249.912 237.572L257.688 251.843L240.539 261.745L232.415 247.674Z" fill="#F0F0F0"/>
<path d="M261.684 249.536L253.928 235.253L289.283 214.841L307.053 213.962L313.652 219.532L261.684 249.536Z" fill="#F0F0F0"/>
<path d="M297.152 205.607L289.283 210.15L301.956 209.661L297.152 205.607Z" fill="#F0F0F0"/>
<path d="M281.412 257.2C276.924 255.905 270.558 256.43 267.193 258.372C263.828 260.314 264.738 262.941 269.224 264.236C273.711 265.532 280.077 265.007 283.443 263.063C286.81 261.121 285.901 258.496 281.412 257.2Z" fill="#E6E6E6"/>
<path d="M216.166 275.816L232.415 280.507L219.489 287.969L203.979 282.853L216.166 275.816Z" fill="#E6E6E6"/>
<path d="M220.228 273.471L236.477 278.161L252.725 268.781L236.476 264.09L220.228 273.471Z" fill="#E6E6E6"/>
<path d="M240.539 261.745L256.787 266.435L262.197 263.311C262.197 263.311 259.628 257.57 267.237 255.17L257.688 251.843L240.539 261.745Z" fill="#E6E6E6"/>
<path d="M261.684 249.536L271.688 253.142C271.688 253.142 274.917 252.621 279.812 253.142L309.594 235.948L293.346 231.258L261.684 249.536Z" fill="#E6E6E6"/>
<path d="M297.405 228.912L313.655 233.602L329.164 224.649L313.652 219.532L297.405 228.912Z" fill="#E6E6E6"/>
<path d="M339.504 228.06L313.655 242.983L333.966 250.019L360.184 234.882L339.504 228.06Z" fill="#E6E6E6"/>
<path d="M309.593 245.329L288.238 257.658C288.238 257.658 290.858 261.732 287.506 264.948L301.469 268.78L329.902 252.363L310.083 245.611" fill="#E6E6E6"/>
<path d="M297.408 271.126L282.98 267.487C282.98 267.487 276.024 270.208 270.175 268.087L248.663 280.507L244.601 296.253L250.51 298.202L297.408 271.126Z" fill="#E6E6E6"/>
<path d="M244.601 282.852L241.197 295.13L229.829 291.38L244.601 282.852Z" fill="#E6E6E6"/>
<path d="M226.678 245.361C226.335 245.361 226.002 245.185 225.816 244.869C225.536 244.393 225.694 243.78 226.17 243.5L247.556 230.888L227.707 194.642L209.028 191.699C208.613 191.634 208.284 191.316 208.203 190.905C208.121 190.494 208.305 190.075 208.663 189.857C211.427 188.172 212.823 186.57 212.702 185.223C212.586 183.934 210.978 182.574 208.403 181.583C204.553 180.101 196.615 180.588 193.188 183.248C190.194 185.572 191.996 188.373 192.074 188.491C192.224 188.718 192.275 188.997 192.216 189.262C192.156 189.528 191.991 189.757 191.758 189.898L181.46 196.125C181.251 196.252 181.004 196.297 180.766 196.254L159.124 192.373C158.921 192.337 158.735 192.239 158.591 192.094L136.749 170.102C136.36 169.71 136.362 169.077 136.754 168.688C137.145 168.298 137.779 168.301 138.168 168.693L159.788 190.46L180.748 194.219L189.925 188.671C189.19 186.878 188.999 183.97 191.963 181.668C195.931 178.586 204.716 178.019 209.123 179.716C211.093 180.473 214.436 182.173 214.694 185.043C214.847 186.738 213.875 188.436 211.798 190.109L228.503 192.742C228.81 192.791 229.076 192.978 229.225 193.25L249.776 230.776C250.036 231.25 249.872 231.843 249.407 232.118L227.186 245.222C227.026 245.316 226.851 245.361 226.678 245.361Z" fill="url(#paint1_linear_125_1569)"/>
<path d="M144.03 138.903L140.607 136.937L140.606 136.938C138.972 135.845 136.704 135.891 134.195 137.34C129.219 140.213 125.185 147.508 125.185 153.633V155.027C125.185 161.153 133.421 167.809 133.421 167.809L136.788 169.714C136.788 169.714 134.765 167.408 134.996 166.934C137.202 162.407 143.206 149.623 143.206 144.623V143.229C143.206 142.111 143.07 141.111 142.82 140.238L143.206 140.461L144.03 138.903ZM134.195 152.946C131.707 154.382 129.69 153.218 129.69 150.345C131.029 150.134 134.397 144.386 134.195 142.542C136.683 141.105 138.7 142.27 138.7 145.143C138.701 148.016 136.683 151.509 134.195 152.946Z" fill="url(#paint2_linear_125_1569)"/>
<path d="M144.03 138.903L140.607 136.937L140.606 136.938C138.972 135.845 136.704 135.891 134.195 137.34C129.219 140.213 125.185 147.508 125.185 153.633V155.027C125.185 161.153 133.421 167.809 133.421 167.809L136.788 169.714C136.788 169.714 134.765 167.408 134.996 166.934C137.202 162.407 143.206 149.623 143.206 144.623V143.229C143.206 142.111 143.07 141.111 142.82 140.238L143.206 140.461L144.03 138.903ZM134.195 152.946C131.707 154.382 129.69 153.218 129.69 150.345C131.029 150.134 134.397 144.386 134.195 142.542C136.683 141.105 138.7 142.27 138.7 145.143C138.701 148.016 136.683 151.509 134.195 152.946Z" fill="url(#paint3_linear_125_1569)"/>
<g opacity="0.2">
<path d="M144.03 138.903L140.607 136.937L140.606 136.938C138.972 135.845 136.704 135.891 134.195 137.34C129.219 140.213 125.185 147.508 125.185 153.633V155.027C125.185 161.153 133.421 167.809 133.421 167.809L136.788 169.714C136.788 169.714 134.765 167.408 134.996 166.934C137.202 162.407 143.206 149.623 143.206 144.623V143.229C143.206 142.111 143.07 141.111 142.82 140.238L143.206 140.461L144.03 138.903ZM134.195 152.946C131.707 154.382 129.69 153.218 129.69 150.345C131.029 150.134 134.397 144.386 134.195 142.542C136.683 141.105 138.7 142.27 138.7 145.143C138.701 148.016 136.683 151.509 134.195 152.946Z" fill="black"/>
</g>
<path d="M146.81 145.309C146.81 139.183 142.776 136.547 137.799 139.42C132.823 142.293 128.788 149.588 128.788 155.713V157.107C128.788 161.824 134.131 167.297 136.588 169.565C137.187 170.118 138.146 169.941 138.504 169.208C140.627 164.864 146.809 151.777 146.809 146.703L146.81 145.309ZM137.799 155.027C135.311 156.463 133.294 155.299 133.294 152.426C133.294 149.553 135.311 146.059 137.799 144.623C140.287 143.186 142.304 144.351 142.304 147.224C142.305 150.097 140.288 153.59 137.799 155.027Z" fill="url(#paint4_linear_125_1569)"/>
<path d="M233.03 214.903L229.607 212.937L229.606 212.938C227.972 211.845 225.704 211.891 223.195 213.34C218.219 216.213 214.185 223.508 214.185 229.633V231.027C214.185 237.153 222.42 243.809 222.42 243.809L225.787 245.714C225.787 245.714 223.764 243.408 223.995 242.935C226.201 238.408 232.206 225.624 232.205 220.624V219.23C232.205 218.112 232.069 217.112 231.819 216.239L232.205 216.462L233.03 214.903ZM223.195 228.946C220.707 230.382 218.69 229.218 218.69 226.345C220.029 226.134 223.397 220.385 223.195 218.542C225.683 217.106 227.7 218.27 227.7 221.143C227.701 224.016 225.683 227.509 223.195 228.946Z" fill="url(#paint5_linear_125_1569)"/>
<path d="M233.03 214.903L229.607 212.937L229.606 212.938C227.972 211.845 225.704 211.891 223.195 213.34C218.219 216.213 214.185 223.508 214.185 229.633V231.027C214.185 237.153 222.42 243.809 222.42 243.809L225.787 245.714C225.787 245.714 223.764 243.408 223.995 242.935C226.201 238.408 232.206 225.624 232.205 220.624V219.23C232.205 218.112 232.069 217.112 231.819 216.239L232.205 216.462L233.03 214.903ZM223.195 228.946C220.707 230.382 218.69 229.218 218.69 226.345C220.029 226.134 223.397 220.385 223.195 218.542C225.683 217.106 227.7 218.27 227.7 221.143C227.701 224.016 225.683 227.509 223.195 228.946Z" fill="url(#paint6_linear_125_1569)"/>
<g opacity="0.2">
<path d="M233.03 214.903L229.607 212.937L229.606 212.938C227.972 211.845 225.704 211.891 223.195 213.34C218.219 216.213 214.185 223.508 214.185 229.633V231.027C214.185 237.153 222.42 243.809 222.42 243.809L225.787 245.714C225.787 245.714 223.764 243.408 223.995 242.935C226.201 238.408 232.206 225.624 232.205 220.624V219.23C232.205 218.112 232.069 217.112 231.819 216.239L232.205 216.462L233.03 214.903ZM223.195 228.946C220.707 230.382 218.69 229.218 218.69 226.345C220.029 226.134 223.397 220.385 223.195 218.542C225.683 217.106 227.7 218.27 227.7 221.143C227.701 224.016 225.683 227.509 223.195 228.946Z" fill="black"/>
</g>
<path d="M235.81 221.309C235.81 215.183 231.776 212.547 226.799 215.42C221.822 218.293 217.788 225.588 217.788 231.713V233.107C217.788 237.824 223.131 243.297 225.589 245.564C226.188 246.117 227.147 245.94 227.505 245.207C229.628 240.863 235.81 227.776 235.81 222.702V221.309ZM226.799 231.027C224.311 232.464 222.294 231.299 222.294 228.426C222.294 225.553 224.311 222.059 226.799 220.623C229.287 219.187 231.304 220.351 231.304 223.224C231.305 226.096 229.288 229.59 226.799 231.027Z" fill="url(#paint7_linear_125_1569)"/>
<path d="M302.107 97.83C302.037 97.79 301.957 97.74 301.887 97.7L295.027 93.76C293.487 92.73 291.677 92.19 289.667 92.19C287.267 92.19 284.587 92.97 281.767 94.6C271.467 100.54 263.127 115.63 263.127 128.3V131.18C263.127 143.85 280.157 157.62 280.157 157.62L287.087 161.54C287.097 161.55 287.107 161.55 287.117 161.55C286.887 161.28 282.947 156.76 283.417 155.81C287.977 146.45 300.397 120 300.397 109.66V106.78C300.397 104.46 300.117 102.4 299.607 100.59L300.407 101.05L302.107 97.83ZM289.217 131.18C284.647 133.82 280.857 132.23 280.057 127.68C275.727 129.26 272.447 126.77 272.447 121.5C275.217 121.06 282.177 109.17 281.767 105.36C286.327 102.72 290.117 104.31 290.917 108.86C295.257 107.28 298.537 109.77 298.537 115.04C298.537 120.98 294.367 128.21 289.217 131.18Z" fill="#263238"/>
<path d="M302.107 97.83C302.037 97.79 301.957 97.74 301.887 97.7C298.557 95.83 294.107 96.08 289.217 98.9C281.847 103.16 275.467 112.11 272.447 121.5C271.247 125.22 270.577 129 270.577 132.6V135.49C270.577 145.25 281.627 156.57 286.717 161.26C286.837 161.37 286.957 161.46 287.087 161.54C287.097 161.55 287.107 161.55 287.117 161.55C288.347 162.31 290.017 161.88 290.677 160.52C295.067 151.53 307.857 124.46 307.857 113.97V111.08C307.857 104.57 305.657 99.96 302.107 97.83ZM280.057 127.68C279.947 127.1 279.897 126.47 279.897 125.8C279.897 119.86 284.067 112.63 289.217 109.66C289.797 109.33 290.367 109.06 290.917 108.86C295.257 107.28 298.537 109.77 298.537 115.04C298.537 120.98 294.367 128.21 289.217 131.18C284.647 133.82 280.857 132.23 280.057 127.68Z" fill="#455A64"/>
<path d="M292.273 106.446C291.608 106.688 290.919 107.014 290.218 107.413C283.993 111.003 278.952 119.742 278.952 126.923C278.952 127.733 279.012 128.494 279.145 129.195C280.112 134.695 284.694 136.617 290.217 133.426C296.442 129.836 301.483 121.097 301.483 113.917C301.484 107.546 297.518 104.536 292.273 106.446Z" fill="#263238"/>
<path d="M290.993 109.268L292.882 113.281C293.001 113.534 293.232 113.624 293.498 113.522L297.722 111.901C298.393 111.644 298.661 112.589 298.175 113.5L295.118 119.238C294.925 119.6 294.837 120.012 294.883 120.339L295.605 125.532C295.72 126.357 295.018 127.441 294.418 127.367L290.64 126.9C290.402 126.871 290.117 127.035 289.879 127.34L286.101 132.17C285.501 132.937 284.8 132.663 284.914 131.705L285.636 125.679C285.682 125.299 285.594 124.989 285.401 124.849L282.344 122.641C281.858 122.29 282.127 121.036 282.797 120.519L287.021 117.261C287.287 117.056 287.518 116.699 287.637 116.309L289.526 110.114C289.826 109.131 290.693 108.631 290.993 109.268Z" fill="url(#paint8_linear_125_1569)"/>
<path d="M345.626 122.903C345.556 122.863 345.476 122.813 345.406 122.773L338.546 118.833C337.006 117.803 335.196 117.263 333.186 117.263C330.786 117.263 328.106 118.043 325.286 119.673C314.986 125.613 306.646 140.703 306.646 153.373V156.253C306.646 168.923 323.676 182.693 323.676 182.693L330.606 186.613C330.616 186.623 330.626 186.623 330.636 186.623C330.406 186.353 326.466 181.833 326.936 180.883C331.496 171.523 343.916 145.073 343.916 134.733V131.853C343.916 129.533 343.636 127.473 343.126 125.663L343.926 126.123L345.626 122.903ZM332.736 156.253C328.166 158.893 324.376 157.303 323.576 152.753C319.246 154.333 315.966 151.843 315.966 146.573C318.736 146.133 325.696 134.243 325.286 130.433C329.846 127.793 333.636 129.383 334.436 133.933C338.776 132.353 342.056 134.843 342.056 140.113C342.057 146.053 337.886 153.283 332.736 156.253Z" fill="#263238"/>
<path d="M345.626 122.903C345.556 122.863 345.476 122.813 345.406 122.773C342.076 120.903 337.626 121.153 332.736 123.973C325.366 128.233 318.986 137.183 315.966 146.573C314.766 150.293 314.096 154.073 314.096 157.673V160.563C314.096 170.323 325.146 181.643 330.236 186.333C330.356 186.443 330.476 186.533 330.606 186.613C330.616 186.623 330.626 186.623 330.636 186.623C331.866 187.383 333.536 186.953 334.196 185.593C338.586 176.603 351.376 149.533 351.376 139.043V136.153C351.376 129.643 349.176 125.033 345.626 122.903ZM323.576 152.753C323.466 152.173 323.416 151.543 323.416 150.873C323.416 144.933 327.586 137.703 332.736 134.733C333.316 134.403 333.886 134.133 334.436 133.933C338.776 132.353 342.056 134.843 342.056 140.113C342.056 146.053 337.885 153.283 332.736 156.253C328.166 158.893 324.376 157.303 323.576 152.753Z" fill="#455A64"/>
<path d="M335.792 131.519C335.127 131.761 334.438 132.087 333.737 132.486C327.512 136.076 322.471 144.815 322.471 151.995C322.471 152.805 322.531 153.566 322.664 154.268C323.631 159.768 328.213 161.69 333.736 158.499C339.961 154.909 345.002 146.17 345.002 138.99C345.003 132.619 341.038 129.609 335.792 131.519Z" fill="#263238"/>
<path d="M343.111 138.851L334.214 136.477L325.317 149.125L327.671 147.765V155.201L332.836 152.219V148.066L335.589 146.476V150.63L340.761 147.644V140.208L343.111 138.851Z" fill="url(#paint9_linear_125_1569)"/>
<path d="M389.146 147.789C389.076 147.749 388.996 147.699 388.926 147.659L382.066 143.719C380.526 142.689 378.716 142.149 376.706 142.149C374.306 142.149 371.626 142.929 368.806 144.559C358.506 150.499 350.166 165.589 350.166 178.259V181.139C350.166 193.809 367.196 207.579 367.196 207.579L374.126 211.499C374.136 211.509 374.146 211.509 374.156 211.509C373.926 211.239 369.986 206.719 370.456 205.769C375.016 196.409 387.436 169.959 387.436 159.619V156.739C387.436 154.419 387.156 152.359 386.646 150.549L387.446 151.009L389.146 147.789ZM376.256 181.139C371.686 183.779 367.896 182.189 367.096 177.639C362.766 179.219 359.486 176.729 359.486 171.459C362.256 171.019 369.216 159.129 368.806 155.319C373.366 152.679 377.156 154.269 377.956 158.819C382.296 157.239 385.576 159.729 385.576 164.999C385.576 170.939 381.406 178.169 376.256 181.139Z" fill="#263238"/>
<path d="M389.146 147.789C389.076 147.749 388.996 147.699 388.926 147.659C385.596 145.789 381.146 146.039 376.256 148.859C368.886 153.119 362.506 162.069 359.486 171.459C358.286 175.179 357.616 178.959 357.616 182.559V185.449C357.616 195.209 368.666 206.529 373.756 211.219C373.876 211.329 373.996 211.419 374.126 211.499C374.136 211.509 374.146 211.509 374.156 211.509C375.386 212.269 377.056 211.839 377.716 210.479C382.106 201.489 394.896 174.419 394.896 163.929V161.039C394.896 154.529 392.696 149.919 389.146 147.789ZM367.096 177.639C366.986 177.059 366.936 176.429 366.936 175.759C366.936 169.819 371.106 162.589 376.256 159.619C376.836 159.289 377.406 159.019 377.956 158.819C382.296 157.239 385.576 159.729 385.576 164.999C385.576 170.939 381.406 178.169 376.256 181.139C371.686 183.779 367.896 182.189 367.096 177.639Z" fill="#455A64"/>
<path d="M379.312 156.405C378.647 156.647 377.958 156.973 377.257 157.372C371.032 160.962 365.992 169.701 365.992 176.881C365.992 177.691 366.052 178.452 366.185 179.153C367.152 184.653 371.734 186.575 377.257 183.384C383.482 179.794 388.523 171.055 388.523 163.875C388.523 157.505 384.558 154.495 379.312 156.405Z" fill="#263238"/>
<path d="M377.17 162.077C379.301 160.847 381.028 161.844 381.028 164.304C381.028 166.764 379.3 169.756 377.17 170.986C375.039 172.216 373.312 171.219 373.312 168.759C373.311 166.299 375.039 163.308 377.17 162.077Z" fill="url(#paint10_linear_125_1569)"/>
<path d="M369.824 184.438C371.806 185.307 374.403 185.033 377.256 183.384C380.109 181.739 382.705 179.007 384.689 175.845V175.196C384.689 171.154 381.851 169.515 378.351 171.537L376.162 172.8C372.662 174.821 369.824 179.736 369.824 183.779V184.438Z" fill="url(#paint11_linear_125_1569)"/>
<path d="M36.364 88.5779C29.419 88.9219 24.515 90.556 19.534 95.56C15.876 99.236 7.98796 120.606 11.426 137.878C14.071 151.169 28.277 158.029 40.301 151.897C49.785 147.06 51.624 132.066 51.355 123.323C51.087 114.581 36.364 88.5779 36.364 88.5779Z" fill="#263238"/>
<path d="M27.744 94.9939C27.744 94.9939 25.866 92.5379 21.503 93.9119C21.503 93.9119 16.907 99.4499 13.356 109.912C13.356 109.912 12.228 109.878 12.948 106.945C13.668 104.012 16.549 96.9449 18.4 94.4599C20.252 91.9749 22.859 89.9259 35.406 85.3299C46.381 81.3099 42.885 91.357 42.885 91.357L27.744 94.9939Z" fill="#37474F"/>
<path d="M6.37597 237.258C4.90797 236.503 3.97597 238.366 2.64497 239.862C1.71197 240.91 0.255967 242.571 0.0409672 243.765C-0.278033 245.533 1.31596 248.318 3.08196 249.853C4.84696 251.388 6.89597 252.487 7.53797 255.852C8.17897 259.217 9.48697 261.217 12.975 262.722C16.797 264.37 21.916 263.843 23.653 262.722C25.71 261.394 23.832 259.935 20.949 255.81C17.188 250.428 14.258 246.582 14.258 241.561L6.37597 237.258Z" fill="#263238"/>
<path d="M9.38292 232.849L6.29492 237.376C4.95592 239.338 5.37292 242.072 7.33792 243.406C7.36892 243.427 7.40092 243.449 7.43392 243.47C9.31392 244.689 11.8339 244.203 13.3469 242.552L18.1669 237.291L9.38292 232.849Z" fill="#FFA8A7"/>
<path d="M66.91 145.882C67.105 151.651 66.129 173.721 61.919 184.762C57.978 195.098 54.412 200.628 53.157 202.775C51.902 204.921 15.76 240.107 15.76 240.107C15.76 240.107 9.62798 239.658 8.65198 233.71C8.65198 233.71 23.461 208.536 26.667 203.373C29.873 198.21 41.232 190.293 41.232 190.293L40.199 141.893L66.91 145.882Z" fill="#37474F"/>
<path d="M58.1481 267.443L65.7889 265.706L63.2589 254.578L55.618 256.315L58.1481 267.443Z" fill="#FFA8A7"/>
<path d="M52.178 164.527C52.178 164.527 55.149 162.027 59.164 156.481C65.005 148.411 64.1059 141.244 64.1059 141.244H61.714L26.5369 145.881C25.9619 149.212 25.281 154.69 26.961 163.162C30.052 178.754 42.591 205.393 42.591 205.393C42.409 207.546 41.498 216.597 43.552 224.62C46.792 237.278 55.622 258.699 55.622 258.699C55.622 258.699 61.154 259.488 63.902 256.287C63.902 256.287 59.012 212.797 57.695 201.654C56.27 189.599 52.178 164.527 52.178 164.527Z" fill="#37474F"/>
<path d="M64.935 261.926L64.687 260.833C65.49 260.985 68.92 266.681 72.323 269.157C76.05 271.867 79.285 273.469 80.949 274.691C83.176 276.325 79.952 279.672 74.47 279.97C72.024 280.103 69.159 279.77 66.946 278.711C64.559 277.57 63.107 275.441 61.292 273.61C59.958 272.264 57.946 271.287 56.937 269.663C56.482 268.93 56.412 267.113 56.463 265.553C56.51 264.121 56.556 262.549 57.047 262.57C57.086 262.735 57.236 263.403 57.236 263.403C57.931 263.892 60.109 264.511 61.884 264.428C63.172 264.368 65.573 264.068 64.935 261.926Z" fill="#263238"/>
<path d="M56.7299 194.276C56.7299 194.276 53.047 168.109 52.179 164.527C52.179 164.527 58.672 162.054 60.668 159.786C60.668 159.786 59.243 162.958 54.598 165.777L56.7299 194.276Z" fill="#263238"/>
<path d="M42.591 205.395C41.014 203.242 37.105 193.507 37.105 193.507L41.118 206.096C40.101 209.872 40.198 216.101 40.198 216.101L42.252 214.311C42.197 212.812 42.591 205.395 42.591 205.395Z" fill="#263238"/>
<path d="M62.971 134.959C57.884 117.813 58.956 103.314 58.004 98.869L71.122 117.328C71.122 117.328 72.047 127.949 73.755 135.406C75.256 141.957 77.305 150.125 79.777 155.207C80.215 156.107 80.99 156.796 81.916 157.178C84.4 158.201 85.549 159.489 87.54 160.972C89.099 162.133 90.285 162.287 90.185 162.757C90.057 163.361 89.268 164.439 87.562 164.22C86.704 164.109 85.541 163.65 84.083 163.033C84.083 163.033 85.491 165.632 88.297 168.085C92.099 171.41 92.64 173.757 86.294 174.891C82.318 175.602 78.723 173.685 74.237 165.418C72.945 163.036 70.916 159.275 69.766 156.039C66.771 147.614 64.51 140.144 62.971 134.959Z" fill="#FFA8A7"/>
<path d="M53.546 91.2159C59.72 91.2799 65.797 92.665 67.889 99.239C69.931 105.657 72.566 124.275 72.566 124.275C72.566 124.275 69.967 127.718 61.31 127.155L53.546 91.2159Z" fill="url(#paint12_linear_125_1569)"/>
<path d="M53.546 91.2159C59.72 91.2799 65.797 92.665 67.889 99.239C69.931 105.657 72.566 124.275 72.566 124.275C72.566 124.275 69.967 127.718 61.31 127.155L53.546 91.2159Z" fill="url(#paint13_linear_125_1569)"/>
<g opacity="0.1">
<path d="M53.546 91.2159C59.72 91.2799 65.797 92.665 67.889 99.239C69.931 105.657 72.566 124.275 72.566 124.275C72.566 124.275 69.967 127.718 61.31 127.155L53.546 91.2159Z" fill="black"/>
</g>
<path d="M40.869 91.588C36.529 92.633 31.519 93.4849 27.319 95.5439C24.396 96.9779 28.585 121.178 28.585 121.178L26.536 145.882C32.293 152.145 54.338 155.063 66.909 145.882C66.909 145.882 66.909 112.258 66.909 105.863C66.909 99.4679 63.356 91.7859 53.546 91.2159L40.869 91.588Z" fill="url(#paint14_linear_125_1569)"/>
<path d="M28.564 120.702L32.371 110.204L27.931 129.072L28.564 120.702Z" fill="url(#paint15_linear_125_1569)"/>
<path opacity="0.2" d="M28.564 120.702L32.371 110.204L27.931 129.072L28.564 120.702Z" fill="black"/>
<path d="M34.028 69.3389L36.748 80.0789C37.331 82.3799 39.401 83.991 41.775 83.991H44.958V69.0099L34.028 69.3389Z" fill="#263238"/>
<path d="M57.292 76.8279C63.5995 76.0494 68.0816 70.3051 67.3031 63.9976C66.5246 57.6901 60.7803 53.208 54.4728 53.9865C48.1653 54.765 43.6832 60.5093 44.4617 66.8168C45.2402 73.1243 50.9846 77.6064 57.292 76.8279Z" fill="#263238"/>
<path d="M38.106 58.86C38.106 58.86 36.072 58.511 34.487 60.133C32.932 61.723 33.255 64.666 34.489 71.428L39.293 71.98L38.106 58.86Z" fill="#263238"/>
<path d="M40.36 71.9829C39.646 72.4089 38.629 71.0389 37.749 70.1179C36.869 69.1979 33.998 67.9399 32.565 70.9579C31.105 74.0339 33.389 78.0929 35.579 78.9959C38.649 80.2629 40.009 77.5889 40.009 77.5889L40.869 91.5859C40.869 91.5859 43.42 97.8279 50.329 98.7649C57.237 99.7009 55.815 94.0059 53.546 91.2149L53.535 86.9379C53.535 86.9379 57.074 87.5279 58.787 87.2079C61.31 86.7369 62.548 84.3959 63.737 81.4029C65.51 76.9359 66.599 70.6149 65.067 62.6009C63.036 51.9759 51.278 51.7499 44.533 55.9959C37.788 60.2409 40.36 71.9829 40.36 71.9829Z" fill="#FFA8A7"/>
<path d="M40.3599 73.183C40.0009 73.19 38.6369 70.926 37.7489 70.118C36.5189 68.998 38.1059 58.86 38.1059 58.86C38.7319 50.552 50.9869 49.92 54.3729 49.677C62.1369 49.12 67.4189 53.417 65.3109 58.828C63.9039 61.287 61.0359 61.964 58.3469 62.291C53.7829 62.847 46.0039 60.396 45.0319 60.263C43.7079 60.082 43.4259 61.365 42.7119 64.869C42.0859 67.946 41.5659 73.16 40.3599 73.183Z" fill="#263238"/>
<path d="M38.1129 59.649L33.7999 57.334C34.4119 56.098 35.8739 55.614 37.0649 56.254C38.2559 56.893 38.7259 58.413 38.1129 59.649Z" fill="#263238"/>
<path d="M53.536 86.9389C53.536 86.9389 47.139 85.6499 44.903 84.4619C43.406 83.6659 42.173 82.2869 41.812 81.4039C41.812 81.4039 42.231 83.3019 43.568 85.0109C45.203 87.1019 53.536 88.6409 53.536 88.6409V86.9389Z" fill="#F28F8F"/>
<path d="M53.7389 71.75C53.7389 72.486 53.1649 73.08 52.4569 73.078C51.7489 73.076 51.1749 72.478 51.1749 71.743C51.1749 71.008 51.7489 70.413 52.4569 70.415C53.1649 70.417 53.7389 71.015 53.7389 71.75Z" fill="#263238"/>
<path d="M52.3789 66.911L49.6369 68.425C49.2329 67.637 49.5189 66.659 50.2759 66.242C51.0339 65.823 51.9749 66.123 52.3789 66.911Z" fill="#263238"/>
<path d="M52.9559 80.321L55.8819 81.419C55.5929 82.258 54.7029 82.692 53.8949 82.389C53.0869 82.085 52.6669 81.159 52.9559 80.321Z" fill="#F28F8F"/>
<path d="M64.503 67.978L62.002 66.052C62.512 65.336 63.4859 65.187 64.1759 65.718C64.8659 66.251 65.013 67.262 64.503 67.978Z" fill="#263238"/>
<path d="M63.738 71.011C63.738 71.746 63.164 72.341 62.456 72.339C61.748 72.337 61.174 71.739 61.174 71.004C61.174 70.268 61.748 69.674 62.456 69.676C63.164 69.677 63.738 70.275 63.738 71.011Z" fill="#263238"/>
<path d="M58.3609 71.23L57.1539 78.855L61.3769 78.359L58.3609 71.23Z" fill="#F28F8F"/>
<path d="M36.649 91.327C36.649 91.327 46.345 95.643 47.391 110.543C49.579 141.698 26.117 148.873 26.117 148.873C24.127 144.942 25.73 139.627 27.369 135.85C27.369 135.85 39.8 128.676 39.04 112.742C38.498 101.38 32.86 95.016 30.015 94.155C30.015 94.155 32.752 92.155 36.649 91.327Z" fill="#37474F"/>
<path d="M18.417 149.759C22.62 148.291 23.666 147.735 28.962 143.488C34.372 139.151 38.726 133.547 42.936 127.925C43.437 127.256 44.025 126.666 44.632 126.094C45.233 125.527 46.437 124.46 47.489 122.863C49.341 120.051 49.364 118.216 49.544 114.854C49.725 111.492 49.168 108.115 48.157 104.904C48.047 104.554 47.926 104.196 47.687 103.918C47.448 103.64 47.06 103.458 46.709 103.564C46.403 103.657 46.197 103.936 46.021 104.203C44.833 106.009 44.006 108.021 42.848 109.843C42.316 110.679 41.946 111.012 41.464 111.873C41.406 111.976 40.481 112.936 40.285 112.514C40.073 112.059 40.687 110.786 40.478 108.666C40.278 106.641 39.689 105.783 39.042 105.62C38.009 105.36 38.018 106.477 37.588 108.17C37.075 110.188 36.301 111.828 36.385 114.795C36.459 117.408 36.069 118.491 35.507 120.778C34.944 123.065 32.328 128.232 25.87 132.205C24.46 133.073 24.012 133.235 24.827 129.838C26.956 120.963 28.859 115.905 30.887 111.304C33.474 105.435 35.253 100.942 32.86 98.562C28.73 94.453 22.938 96.7979 19.71 103.772C15.978 111.835 13.935 117.957 12.44 132.745C11.79 139.152 11.188 152.285 18.417 149.759Z" fill="#FFA8A7"/>
<path d="M30.48 94.337C25.6 94.557 22.351 96.526 19.119 102.902C15.951 109.153 13.406 120.446 13.406 120.446C13.406 120.446 17.999 125.34 26.912 125.091C26.912 125.091 32.504 110.409 33.577 106.453C34.744 102.154 33.723 95.819 30.48 94.337Z" fill="url(#paint16_linear_125_1569)"/>
<defs>
<linearGradient id="paint0_linear_125_1569" x1="220.229" y1="83.4554" x2="220.229" y2="152.099" gradientUnits="userSpaceOnUse">
<stop stop-color="#27DEBF"/>
<stop offset="1" stop-color="#112751"/>
</linearGradient>
<linearGradient id="paint1_linear_125_1569" x1="193.179" y1="168.397" x2="193.179" y2="245.361" gradientUnits="userSpaceOnUse">
<stop stop-color="#27DEBF"/>
<stop offset="1" stop-color="#112751"/>
</linearGradient>
<linearGradient id="paint2_linear_125_1569" x1="134.607" y1="136.178" x2="134.607" y2="169.714" gradientUnits="userSpaceOnUse">
<stop stop-color="#27DEBF"/>
<stop offset="1" stop-color="#112751"/>
</linearGradient>
<linearGradient id="paint3_linear_125_1569" x1="134.607" y1="136.178" x2="134.607" y2="169.714" gradientUnits="userSpaceOnUse">
<stop stop-color="#27DEBF"/>
<stop offset="1" stop-color="#112751"/>
</linearGradient>
<linearGradient id="paint4_linear_125_1569" x1="137.799" y1="138.258" x2="137.799" y2="169.889" gradientUnits="userSpaceOnUse">
<stop stop-color="#27DEBF"/>
<stop offset="1" stop-color="#112751"/>
</linearGradient>
<linearGradient id="paint5_linear_125_1569" x1="223.607" y1="212.178" x2="223.607" y2="245.714" gradientUnits="userSpaceOnUse">
<stop stop-color="#27DEBF"/>
<stop offset="1" stop-color="#112751"/>
</linearGradient>
<linearGradient id="paint6_linear_125_1569" x1="223.607" y1="212.178" x2="223.607" y2="245.714" gradientUnits="userSpaceOnUse">
<stop stop-color="#27DEBF"/>
<stop offset="1" stop-color="#112751"/>
</linearGradient>
<linearGradient id="paint7_linear_125_1569" x1="226.799" y1="214.258" x2="226.799" y2="245.888" gradientUnits="userSpaceOnUse">
<stop stop-color="#27DEBF"/>
<stop offset="1" stop-color="#112751"/>
</linearGradient>
<linearGradient id="paint8_linear_125_1569" x1="290.26" y1="108.984" x2="290.26" y2="132.614" gradientUnits="userSpaceOnUse">
<stop stop-color="#27DEBF"/>
<stop offset="1" stop-color="#112751"/>
</linearGradient>
<linearGradient id="paint9_linear_125_1569" x1="334.214" y1="136.477" x2="334.214" y2="155.201" gradientUnits="userSpaceOnUse">
<stop stop-color="#27DEBF"/>
<stop offset="1" stop-color="#112751"/>
</linearGradient>
<linearGradient id="paint10_linear_125_1569" x1="377.17" y1="161.55" x2="377.17" y2="171.513" gradientUnits="userSpaceOnUse">
<stop stop-color="#27DEBF"/>
<stop offset="1" stop-color="#112751"/>
</linearGradient>
<linearGradient id="paint11_linear_125_1569" x1="377.256" y1="170.671" x2="377.256" y2="184.921" gradientUnits="userSpaceOnUse">
<stop stop-color="#27DEBF"/>
<stop offset="1" stop-color="#112751"/>
</linearGradient>
<linearGradient id="paint12_linear_125_1569" x1="63.056" y1="91.2159" x2="63.056" y2="127.217" gradientUnits="userSpaceOnUse">
<stop stop-color="#27DEBF"/>
<stop offset="1" stop-color="#112751"/>
</linearGradient>
<linearGradient id="paint13_linear_125_1569" x1="63.056" y1="91.2159" x2="63.056" y2="127.217" gradientUnits="userSpaceOnUse">
<stop stop-color="#27DEBF"/>
<stop offset="1" stop-color="#112751"/>
</linearGradient>
<linearGradient id="paint14_linear_125_1569" x1="46.5959" y1="91.2159" x2="46.5959" y2="151.724" gradientUnits="userSpaceOnUse">
<stop stop-color="#27DEBF"/>
<stop offset="1" stop-color="#112751"/>
</linearGradient>
<linearGradient id="paint15_linear_125_1569" x1="30.151" y1="110.204" x2="30.151" y2="129.072" gradientUnits="userSpaceOnUse">
<stop stop-color="#27DEBF"/>
<stop offset="1" stop-color="#112751"/>
</linearGradient>
<linearGradient id="paint16_linear_125_1569" x1="23.7246" y1="94.337" x2="23.7246" y2="125.1" gradientUnits="userSpaceOnUse">
<stop stop-color="#27DEBF"/>
<stop offset="1" stop-color="#112751"/>
</linearGradient>
</defs>
</svg>
